<svg width="20" height="20" viewBox="0 0 20 20" fill="none" xmlns="http://www.w3.org/2000/svg">
<path d="M20 19.1667C20 19.6267 19.6267 20 19.1667 20H0.833333C0.373333 20 0 19.6267 0 19.1667C0 17.7858 1.11917 16.6667 2.5 16.6667H17.5C18.8808 16.6667 20 17.7858 20 19.1667ZM18.5092 5.16917L19.7592 3.905C20.0833 3.5775 20.08 3.05084 19.7525 2.72667C19.4242 2.4025 18.8975 2.40584 18.5742 2.73334L17.3242 3.9975C17 4.325 17.0033 4.85167 17.3308 5.17584C17.4933 5.33584 17.705 5.41667 17.9167 5.41667C18.1317 5.41667 18.3467 5.33417 18.5092 5.16917ZM15.3233 2.46667L15.9708 1.21667C16.1825 0.808338 16.0225 0.305004 15.6142 0.0933375C15.2075 -0.118329 14.7025 0.0400041 14.4908 0.450004L13.8433 1.7C13.6317 2.10834 13.7917 2.61167 14.2 2.82334C14.3217 2.88667 14.4533 2.91667 14.5825 2.91667C14.8833 2.91667 15.175 2.75334 15.3233 2.46667ZM2.66917 5.17584C2.99667 4.85167 2.99917 4.325 2.67583 3.9975L1.42583 2.73334C1.10333 2.40584 0.574167 2.40334 0.2475 2.72667C-0.08 3.05084 -0.0825 3.5775 0.240833 3.905L1.49083 5.16917C1.65333 5.33417 1.86833 5.41667 2.08333 5.41667C2.295 5.41667 2.5075 5.33584 2.66917 5.17584ZM5.8 2.82334C6.20833 2.61167 6.36833 2.10917 6.15667 1.7L5.50917 0.450004C5.29667 0.0400041 4.7925 -0.118329 4.38583 0.0933375C3.9775 0.305004 3.8175 0.807504 4.02917 1.21667L4.67667 2.46667C4.825 2.75334 5.11583 2.91667 5.4175 2.91667C5.54667 2.91667 5.6775 2.88667 5.8 2.82334ZM17.5 10.8333V14.1667C17.5 14.6275 17.1275 15 16.6667 15H3.33333C2.8725 15 2.5 14.6275 2.5 14.1667V10.8333C2.5 6.6975 5.86417 3.33334 10 3.33334C14.1358 3.33334 17.5 6.6975 17.5 10.8333ZM10.8333 8.33334C10.8333 7.8725 10.4608 7.5 10 7.5C8.16167 7.5 6.66667 8.995 6.66667 10.8333C6.66667 11.2942 7.03917 11.6667 7.5 11.6667C7.96083 11.6667 8.33333 11.2942 8.33333 10.8333C8.33333 9.91417 9.08083 9.16667 10 9.16667C10.4608 9.16667 10.8333 8.79417 10.8333 8.33334Z" fill="#F81313"/>
</svg>
