<svg width="186" height="54" viewBox="0 0 186 54" fill="none" xmlns="http://www.w3.org/2000/svg">
<path d="M184.967 47.7723C184.967 50.6501 182.599 52.9811 179.67 52.9811H6.33671C3.40935 52.9811 1.0332 50.6501 1.0332 47.7723V6.23434C1.0332 3.35797 3.40935 1.0188 6.33671 1.0188H179.669C182.599 1.0188 184.965 3.35797 184.965 6.23434L184.967 47.7723Z" fill="#222224"/>
<path d="M41.5103 26.7083C41.4703 22.3572 45.1462 20.2404 45.3143 20.1419C43.2325 17.1678 40.0058 16.7615 38.8718 16.7291C36.1618 16.4496 33.533 18.318 32.1524 18.318C30.7443 18.318 28.6184 16.7561 26.3272 16.802C23.3787 16.8465 20.6204 18.5192 19.1076 21.1166C15.9856 26.4126 18.314 34.1954 21.3052 38.4762C22.8014 40.5728 24.5498 42.9137 26.8383 42.8313C29.0772 42.7409 29.9135 41.4327 32.6154 41.4327C35.2924 41.4327 36.0777 42.8313 38.4117 42.7787C40.8145 42.7409 42.3273 40.6727 43.7712 38.5572C45.5003 36.1542 46.1947 33.7877 46.2223 33.6662C46.1658 33.6473 41.5558 31.9233 41.5103 26.7083Z" fill="#FFDE11"/>
<path d="M37.1014 13.913C38.3056 12.4374 39.1295 10.43 38.9008 8.39282C37.1579 8.46842 34.9782 9.57407 33.7231 11.0172C32.6126 12.2889 31.6206 14.3733 31.8769 16.3335C33.8347 16.4766 35.8449 15.3656 37.1014 13.913Z" fill="#FFDE11"/>
<path d="M67.58 13.5122C67.58 15.1012 67.0936 16.2973 66.1223 17.1005C65.2226 17.8417 63.944 18.2129 62.2879 18.2129C61.4668 18.2129 60.7641 18.1778 60.1758 18.1076V9.42579C60.9432 9.30429 61.7699 9.24219 62.6627 9.24219C64.2402 9.24219 65.4293 9.57834 66.2311 10.2506C67.1294 11.0107 67.58 12.0974 67.58 13.5122ZM66.0575 13.5514C66.0575 12.5213 65.7792 11.7316 65.2226 11.1808C64.666 10.6313 63.8531 10.3559 62.7825 10.3559C62.3279 10.3559 61.9407 10.3856 61.6197 10.4477V17.0479C61.7974 17.0749 62.1226 17.087 62.5952 17.087C63.7001 17.087 64.553 16.786 65.1537 16.1839C65.7544 15.5818 66.0575 14.7043 66.0575 13.5514Z" fill="#FFDE11"/>
<path d="M75.6522 14.9C75.6522 15.8788 75.367 16.6807 74.7966 17.3098C74.1987 17.9564 73.4064 18.2791 72.4172 18.2791C71.4638 18.2791 70.7046 17.9699 70.1384 17.3489C69.5735 16.7293 69.291 15.9476 69.291 15.0053C69.291 14.0198 69.5817 13.2112 70.1659 12.5834C70.7501 11.9557 71.5354 11.6411 72.5247 11.6411C73.4781 11.6411 74.2441 11.9503 74.8242 12.5699C75.3753 13.172 75.6522 13.9496 75.6522 14.9ZM74.1546 14.9459C74.1546 14.3587 74.0251 13.8551 73.7674 13.4353C73.4643 12.9277 73.0331 12.6739 72.4723 12.6739C71.8923 12.6739 71.4514 12.9277 71.1483 13.4353C70.8892 13.8551 70.7611 14.3668 70.7611 14.9716C70.7611 15.5588 70.8906 16.0624 71.1483 16.4822C71.461 16.9898 71.8964 17.2436 72.4585 17.2436C73.0096 17.2436 73.4423 16.9858 73.7536 16.4687C74.0209 16.0408 74.1546 15.5332 74.1546 14.9459Z" fill="#FFDE11"/>
<path d="M86.4766 11.7708L84.4444 18.1347H83.1217L82.2799 15.3712C82.0664 14.6814 81.8928 13.9956 81.7577 13.3152H81.7316C81.6062 14.0145 81.4326 14.6989 81.2094 15.3712L80.3152 18.1347H78.9774L77.0664 11.7708H78.5503L79.2846 14.7961C79.4624 15.5116 79.6084 16.1934 79.7255 16.8387H79.7517C79.8592 16.3068 80.0369 15.6291 80.2876 14.8096L81.2094 11.7721H82.386L83.2692 14.7448C83.4827 15.4698 83.6563 16.1677 83.79 16.84H83.8299C83.9277 16.1853 84.0752 15.4873 84.2708 14.7448L85.0589 11.7721H86.4766V11.7708Z" fill="#FFDE11"/>
<path d="M93.9625 18.1345H92.5186V14.4895C92.5186 13.3663 92.0832 12.8047 91.2097 12.8047C90.7812 12.8047 90.4354 12.9586 90.1667 13.2678C89.9008 13.5769 89.7658 13.9414 89.7658 14.3586V18.1332H88.3219V13.5891C88.3219 13.0302 88.304 12.424 88.2695 11.7679H89.5385L89.606 12.7629H89.6459C89.814 12.4537 90.0648 12.1986 90.3941 11.9947C90.7853 11.7571 91.2235 11.637 91.7029 11.637C92.3092 11.637 92.8134 11.8287 93.2144 12.2134C93.7131 12.6846 93.9625 13.3879 93.9625 14.3221V18.1345Z" fill="#FFDE11"/>
<path d="M97.9425 18.1345H96.5V8.85059H97.9425V18.1345Z" fill="#FFDE11"/>
<path d="M106.445 14.9C106.445 15.8788 106.16 16.6807 105.59 17.3098C104.992 17.9564 104.198 18.2791 103.21 18.2791C102.255 18.2791 101.496 17.9699 100.931 17.3489C100.366 16.7293 100.084 15.9476 100.084 15.0053C100.084 14.0198 100.375 13.2112 100.959 12.5834C101.543 11.9557 102.328 11.6411 103.316 11.6411C104.271 11.6411 105.036 11.9503 105.617 12.5699C106.168 13.172 106.445 13.9496 106.445 14.9ZM104.946 14.9459C104.946 14.3587 104.817 13.8551 104.559 13.4353C104.257 12.9277 103.825 12.6739 103.265 12.6739C102.684 12.6739 102.243 12.9277 101.941 13.4353C101.682 13.8551 101.554 14.3668 101.554 14.9716C101.554 15.5588 101.684 16.0624 101.941 16.4822C102.254 16.9898 102.689 17.2436 103.252 17.2436C103.803 17.2436 104.234 16.9858 104.545 16.4687C104.814 16.0408 104.946 15.5332 104.946 14.9459Z" fill="#FFDE11"/>
<path d="M113.432 18.1346H112.135L112.028 17.4016H111.988C111.544 17.9861 110.912 18.2791 110.09 18.2791C109.477 18.2791 108.981 18.086 108.608 17.7026C108.269 17.3543 108.1 16.921 108.1 16.4066C108.1 15.629 108.43 15.0364 109.096 14.626C109.76 14.2156 110.694 14.0144 111.897 14.0239V13.9051C111.897 13.0667 111.448 12.6482 110.548 12.6482C109.907 12.6482 109.342 12.8062 108.855 13.1194L108.561 12.1906C109.165 11.8247 109.91 11.6411 110.789 11.6411C112.486 11.6411 113.338 12.5186 113.338 14.2736V16.6172C113.338 17.2531 113.37 17.7593 113.432 18.1346ZM111.933 15.9476V14.9662C110.34 14.9392 109.544 15.3671 109.544 16.2487C109.544 16.5808 109.634 16.8292 109.82 16.9952C110.006 17.1613 110.243 17.2436 110.526 17.2436C110.843 17.2436 111.139 17.1451 111.409 16.9493C111.68 16.7522 111.847 16.5025 111.909 16.196C111.924 16.1272 111.933 16.0435 111.933 15.9476Z" fill="#FFDE11"/>
<path d="M121.637 18.1345H120.356L120.289 17.1126H120.249C119.839 17.8902 119.142 18.279 118.163 18.279C117.38 18.279 116.728 17.9779 116.212 17.3758C115.695 16.7737 115.438 15.9921 115.438 15.0322C115.438 14.0022 115.717 13.1679 116.279 12.5307C116.824 11.9367 117.49 11.6397 118.284 11.6397C119.156 11.6397 119.766 11.9272 120.114 12.5037H120.141V8.85059H121.587V16.42C121.587 17.0397 121.603 17.6107 121.637 18.1345ZM120.141 15.4507V14.3896C120.141 14.206 120.127 14.0575 120.101 13.9441C120.02 13.6039 119.845 13.3177 119.579 13.0869C119.31 12.856 118.987 12.7399 118.613 12.7399C118.075 12.7399 117.653 12.9492 117.343 13.369C117.036 13.7889 116.88 14.3248 116.88 14.9796C116.88 15.6087 117.027 16.119 117.324 16.5118C117.636 16.9303 118.058 17.1396 118.586 17.1396C119.06 17.1396 119.439 16.9654 119.727 16.6158C120.005 16.2931 120.141 15.9043 120.141 15.4507Z" fill="#FFDE11"/>
<path d="M133.986 14.9C133.986 15.8788 133.701 16.6807 133.131 17.3098C132.533 17.9564 131.742 18.2791 130.751 18.2791C129.799 18.2791 129.04 17.9699 128.472 17.3489C127.907 16.7293 127.625 15.9476 127.625 15.0053C127.625 14.0198 127.916 13.2112 128.5 12.5834C129.084 11.9557 129.869 11.6411 130.86 11.6411C131.812 11.6411 132.579 11.9503 133.158 12.5699C133.709 13.172 133.986 13.9496 133.986 14.9ZM132.49 14.9459C132.49 14.3587 132.36 13.8551 132.103 13.4353C131.798 12.9277 131.368 12.6739 130.806 12.6739C130.228 12.6739 129.787 12.9277 129.482 13.4353C129.223 13.8551 129.095 14.3668 129.095 14.9716C129.095 15.5588 129.225 16.0624 129.482 16.4822C129.795 16.9898 130.23 17.2436 130.793 17.2436C131.344 17.2436 131.778 16.9858 132.089 16.4687C132.355 16.0408 132.49 15.5332 132.49 14.9459Z" fill="#FFDE11"/>
<path d="M141.75 18.1345H140.308V14.4895C140.308 13.3663 139.872 12.8047 138.997 12.8047C138.569 12.8047 138.223 12.9586 137.956 13.2678C137.689 13.5769 137.555 13.9414 137.555 14.3586V18.1332H136.11V13.5891C136.11 13.0302 136.093 12.424 136.059 11.7679H137.326L137.394 12.7629H137.434C137.603 12.4537 137.854 12.1986 138.182 11.9947C138.574 11.7571 139.011 11.637 139.492 11.637C140.097 11.637 140.601 11.8287 141.002 12.2134C141.502 12.6846 141.75 13.3879 141.75 14.3221V18.1345Z" fill="#FFDE11"/>
<path d="M151.467 12.8304H149.877V15.9219C149.877 16.7076 150.16 17.1005 150.719 17.1005C150.978 17.1005 151.193 17.0789 151.363 17.0343L151.4 18.1076C151.115 18.2129 150.74 18.2655 150.278 18.2655C149.708 18.2655 149.264 18.0954 148.943 17.7552C148.621 17.415 148.461 16.8426 148.461 16.0394V12.8304H147.512V11.7707H148.461V10.6043L149.876 10.1858V11.7693H151.466V12.8304H151.467Z" fill="#FFDE11"/>
<path d="M159.111 18.1345H157.666V14.5165C157.666 13.3758 157.231 12.8047 156.359 12.8047C155.689 12.8047 155.232 13.1355 154.981 13.797C154.938 13.936 154.913 14.1061 154.913 14.3059V18.1332H153.471V8.85059H154.913V12.6859H154.941C155.395 11.988 156.047 11.6397 156.892 11.6397C157.49 11.6397 157.984 11.8314 158.377 12.2161C158.866 12.6954 159.111 13.4082 159.111 14.3505V18.1345Z" fill="#FFDE11"/>
<path d="M166.997 14.6516C166.997 14.9054 166.978 15.1187 166.943 15.2928H162.613C162.632 15.9219 162.839 16.4012 163.24 16.7333C163.606 17.0303 164.079 17.1788 164.657 17.1788C165.298 17.1788 165.882 17.0789 166.409 16.8777L166.635 17.8605C166.019 18.1224 165.294 18.2534 164.455 18.2534C163.449 18.2534 162.657 17.9631 162.084 17.3826C161.508 16.8021 161.223 16.0232 161.223 15.0458C161.223 14.0859 161.489 13.2867 162.025 12.6495C162.584 11.9691 163.34 11.6289 164.295 11.6289C165.229 11.6289 165.939 11.9691 166.418 12.6495C166.805 13.1895 166.997 13.8578 166.997 14.6516ZM165.619 14.2857C165.63 13.8659 165.535 13.5041 165.339 13.199C165.089 12.8061 164.707 12.609 164.19 12.609C163.719 12.609 163.335 12.8007 163.041 13.1855C162.802 13.4919 162.66 13.8578 162.613 14.2857H165.619Z" fill="#FFDE11"/>
<path d="M73.911 42.5303H70.782L69.0681 37.2531H63.1106L61.4779 42.5303H58.4316L64.334 24.5645H67.9796L73.911 42.5303ZM68.5514 35.0391L67.0014 30.3479C66.8375 29.8686 66.5302 28.74 66.0769 26.9634H66.0218C65.8413 27.7275 65.5506 28.8561 65.1511 30.3479L63.6286 35.0391H68.5514Z" fill="#FFDE11"/>
<path d="M89.0895 35.8938C89.0895 38.097 88.4819 39.8385 87.2667 41.1169C86.1782 42.255 84.8266 42.8233 83.2132 42.8233C81.4717 42.8233 80.2207 42.2104 79.4588 40.9846H79.4037V47.8089H76.4663V33.8404C76.4663 32.4553 76.4291 31.0338 76.3574 29.5758H78.9408L79.1047 31.6291H79.1598C80.1394 30.082 81.626 29.3098 83.6211 29.3098C85.1807 29.3098 86.4827 29.9133 87.5243 31.1215C88.5687 32.3311 89.0895 33.9214 89.0895 35.8938ZM86.0969 35.9991C86.0969 34.7382 85.8076 33.6987 85.2262 32.8806C84.591 32.0274 83.7382 31.6008 82.669 31.6008C81.9443 31.6008 81.2857 31.8384 80.6974 32.3068C80.1077 32.7793 79.7219 33.3963 79.5415 34.1604C79.4505 34.5168 79.4051 34.8084 79.4051 35.0379V37.1979C79.4051 38.1402 79.6999 38.9353 80.2896 39.5847C80.8793 40.234 81.6453 40.558 82.5877 40.558C83.6941 40.558 84.5552 40.1395 85.1711 39.3052C85.7883 38.4696 86.0969 37.368 86.0969 35.9991Z" fill="#FFDE11"/>
<path d="M104.297 35.8938C104.297 38.097 103.689 39.8385 102.473 41.1169C101.386 42.255 100.034 42.8233 98.4209 42.8233C96.6793 42.8233 95.4283 42.2104 94.6678 40.9846H94.6127V47.8089H91.6753V33.8404C91.6753 32.4553 91.6381 31.0338 91.5664 29.5758H94.1497L94.3137 31.6291H94.3688C95.347 30.082 96.8337 29.3098 98.8301 29.3098C100.388 29.3098 101.69 29.9133 102.735 31.1215C103.775 32.3311 104.297 33.9214 104.297 35.8938ZM101.305 35.9991C101.305 34.7382 101.014 33.6987 100.432 32.8806C99.7972 32.0274 98.9472 31.6008 97.8766 31.6008C97.1505 31.6008 96.4933 31.8384 95.9037 32.3068C95.314 32.7793 94.9296 33.3963 94.7491 34.1604C94.6595 34.5168 94.6127 34.8084 94.6127 35.0379V37.1979C94.6127 38.1402 94.9075 38.9353 95.4944 39.5847C96.0841 40.2327 96.8502 40.558 97.7953 40.558C98.9017 40.558 99.7628 40.1395 100.379 39.3052C100.996 38.4696 101.305 37.368 101.305 35.9991Z" fill="#FFDE11"/>
<path d="M121.299 37.4921C121.299 39.0203 120.757 40.2637 119.67 41.2235C118.476 42.2725 116.813 42.7963 114.676 42.7963C112.703 42.7963 111.121 42.4237 109.924 41.6771L110.604 39.2782C111.894 40.0423 113.309 40.4257 114.851 40.4257C115.957 40.4257 116.818 40.18 117.437 39.6913C118.053 39.2026 118.36 38.5465 118.36 37.7284C118.36 36.9994 118.106 36.3851 117.598 35.887C117.092 35.3888 116.248 34.9258 115.068 34.4978C111.858 33.3247 110.255 31.6061 110.255 29.3462C110.255 27.8693 110.817 26.6584 111.942 25.7161C113.064 24.7724 114.56 24.3013 116.431 24.3013C118.1 24.3013 119.486 24.5861 120.592 25.1545L119.858 27.5008C118.824 26.95 117.656 26.6746 116.348 26.6746C115.315 26.6746 114.508 26.9243 113.929 27.4211C113.44 27.8653 113.195 28.4066 113.195 29.0479C113.195 29.758 113.474 30.3452 114.036 30.8069C114.526 31.2335 115.414 31.6952 116.704 32.1934C118.281 32.8157 119.44 33.5434 120.186 34.3777C120.928 35.2093 121.299 36.2501 121.299 37.4921Z" fill="#FFDE11"/>
<path d="M131.011 31.7357H127.773V38.0254C127.773 39.6252 128.343 40.4244 129.487 40.4244C130.012 40.4244 130.447 40.3798 130.792 40.2907L130.873 42.4764C130.294 42.6883 129.532 42.795 128.589 42.795C127.428 42.795 126.522 42.448 125.867 41.7555C125.216 41.0616 124.888 39.8979 124.888 38.263V31.7331H122.959V29.5731H124.888V27.2011L127.773 26.3479V29.5731H131.011V31.7357Z" fill="#FFDE11"/>
<path d="M145.62 35.9463C145.62 37.9375 145.038 39.5724 143.878 40.8508C142.662 42.1671 141.047 42.8232 139.034 42.8232C137.094 42.8232 135.549 42.1927 134.398 40.9318C133.246 39.6709 132.67 38.0793 132.67 36.1609C132.67 34.1535 133.262 32.5092 134.451 31.2307C135.638 29.9509 137.239 29.311 139.252 29.311C141.191 29.311 142.752 29.9415 143.93 31.2037C145.058 32.4282 145.62 34.009 145.62 35.9463ZM142.572 36.0394C142.572 34.8447 142.312 33.82 141.784 32.9655C141.168 31.9314 140.288 31.4157 139.147 31.4157C137.966 31.4157 137.069 31.9327 136.453 32.9655C135.926 33.8214 135.665 34.8622 135.665 36.0934C135.665 37.2882 135.926 38.3128 136.453 39.166C137.088 40.2001 137.976 40.7158 139.121 40.7158C140.242 40.7158 141.123 40.1893 141.758 39.139C142.299 38.2683 142.572 37.2328 142.572 36.0394Z" fill="#FFDE11"/>
<path d="M155.167 32.107C154.877 32.0544 154.567 32.0274 154.241 32.0274C153.208 32.0274 152.409 32.4094 151.847 33.1749C151.358 33.8499 151.112 34.7031 151.112 35.7331V42.5304H148.176L148.204 33.6555C148.204 32.1624 148.167 30.8029 148.094 29.5771H150.652L150.76 32.0557H150.841C151.151 31.2039 151.64 30.5181 152.31 30.0037C152.964 29.5407 153.671 29.3098 154.433 29.3098C154.704 29.3098 154.95 29.3287 155.167 29.3625V32.107Z" fill="#FFDE11"/>
<path d="M168.304 35.4401C168.304 35.9557 168.27 36.3904 168.197 36.7455H159.385C159.419 38.0253 159.845 39.004 160.663 39.679C161.406 40.2825 162.366 40.5849 163.546 40.5849C164.85 40.5849 166.041 40.381 167.111 39.972L167.571 41.97C166.32 42.5046 164.843 42.7705 163.139 42.7705C161.089 42.7705 159.48 42.1792 158.309 40.998C157.14 39.8167 156.555 38.2305 156.555 36.2406C156.555 34.2871 157.099 32.6604 158.189 31.363C159.33 29.9779 160.871 29.2854 162.811 29.2854C164.717 29.2854 166.159 29.9779 167.139 31.363C167.914 32.4633 168.304 33.8241 168.304 35.4401ZM165.503 34.6935C165.523 33.8403 165.331 33.1032 164.933 32.4808C164.425 31.6803 163.643 31.2807 162.592 31.2807C161.632 31.2807 160.851 31.6709 160.254 32.4539C159.765 33.0762 159.474 33.8227 159.385 34.6921H165.503V34.6935Z" fill="#FFDE11"/>
</svg>
