<svg width="186" height="54" viewBox="0 0 186 54" fill="none" xmlns="http://www.w3.org/2000/svg">
<path d="M184.967 47.7726C184.967 50.6503 182.599 52.9813 179.67 52.9813H6.33671C3.40935 52.9813 1.0332 50.6503 1.0332 47.7726V6.23458C1.0332 3.35822 3.40935 1.01904 6.33671 1.01904H179.669C182.599 1.01904 184.965 3.35822 184.965 6.23458L184.967 47.7726Z" fill="white"/>
<path d="M179.111 1.08169C182.301 1.08169 184.896 3.62475 184.896 6.75V47.25C184.896 50.3753 182.301 52.9183 179.111 52.9183H6.88889C3.69933 52.9183 1.10394 50.3753 1.10394 47.25V6.75C1.10394 3.62475 3.69933 1.08169 6.88889 1.08169H179.111ZM179.111 3.8147e-06H6.88889C3.10172 3.8147e-06 0 3.03919 0 6.75V47.25C0 50.9608 3.10172 54 6.88889 54H179.111C182.898 54 186 50.9608 186 47.25V6.75C186 3.03919 182.898 3.8147e-06 179.111 3.8147e-06Z" fill="#A6A6A6"/>
<path d="M41.5093 26.7085C41.4694 22.3575 45.1453 20.2407 45.3134 20.1421C43.2315 17.1681 40.0048 16.7617 38.8709 16.7293C36.1608 16.4499 33.532 18.3183 32.1514 18.3183C30.7434 18.3183 28.6174 16.7563 26.3262 16.8022C23.3778 16.8468 20.6194 18.5194 19.1066 21.1168C15.9846 26.4129 18.313 34.1956 21.3042 38.4765C22.8005 40.573 24.5489 42.9139 26.8374 42.8316C29.0762 42.7411 29.9126 41.433 32.6144 41.433C35.2914 41.433 36.0767 42.8316 38.4107 42.7789C40.8135 42.7411 42.3263 40.6729 43.7702 38.5575C45.4994 36.1545 46.1938 33.7879 46.2213 33.6664C46.1648 33.6475 41.5548 31.9236 41.5093 26.7085Z" fill="#222224"/>
<path d="M37.1004 13.9132C38.3046 12.4377 39.1285 10.4302 38.8998 8.39307C37.1569 8.46867 34.9773 9.57432 33.7221 11.0175C32.6116 12.2892 31.6196 14.3736 31.8759 16.3338C33.8337 16.4769 35.8439 15.3658 37.1004 13.9132Z" fill="#222224"/>
<path d="M67.58 13.5122C67.58 15.1012 67.0936 16.2973 66.1223 17.1005C65.2226 17.8417 63.944 18.2129 62.2879 18.2129C61.4668 18.2129 60.7641 18.1778 60.1758 18.1076V9.42579C60.9432 9.30429 61.7699 9.24219 62.6627 9.24219C64.2402 9.24219 65.4293 9.57834 66.2311 10.2506C67.1294 11.0107 67.58 12.0974 67.58 13.5122ZM66.0575 13.5514C66.0575 12.5213 65.7792 11.7316 65.2226 11.1808C64.666 10.6313 63.8531 10.3559 62.7825 10.3559C62.3279 10.3559 61.9407 10.3856 61.6197 10.4477V17.0479C61.7974 17.0749 62.1226 17.087 62.5952 17.087C63.7001 17.087 64.553 16.786 65.1537 16.1839C65.7544 15.5818 66.0575 14.7043 66.0575 13.5514Z" fill="#222224"/>
<path d="M75.6522 14.9C75.6522 15.8788 75.367 16.6807 74.7966 17.3098C74.1987 17.9564 73.4064 18.2791 72.4172 18.2791C71.4638 18.2791 70.7046 17.9699 70.1384 17.3489C69.5735 16.7293 69.291 15.9476 69.291 15.0053C69.291 14.0198 69.5817 13.2112 70.1659 12.5834C70.7501 11.9557 71.5354 11.6411 72.5247 11.6411C73.4781 11.6411 74.2441 11.9503 74.8242 12.5699C75.3753 13.172 75.6522 13.9496 75.6522 14.9ZM74.1546 14.9459C74.1546 14.3587 74.0251 13.8551 73.7674 13.4353C73.4643 12.9277 73.0331 12.6739 72.4723 12.6739C71.8923 12.6739 71.4514 12.9277 71.1483 13.4353C70.8892 13.8551 70.7611 14.3668 70.7611 14.9716C70.7611 15.5588 70.8906 16.0624 71.1483 16.4822C71.461 16.9898 71.8964 17.2436 72.4585 17.2436C73.0096 17.2436 73.4423 16.9858 73.7536 16.4687C74.0209 16.0408 74.1546 15.5332 74.1546 14.9459Z" fill="#222224"/>
<path d="M86.4766 11.7705L84.4444 18.1344H83.1217L82.2799 15.371C82.0664 14.6811 81.8928 13.9953 81.7577 13.3149H81.7316C81.6062 14.0142 81.4326 14.6987 81.2094 15.371L80.3152 18.1344H78.9774L77.0664 11.7705H78.5503L79.2846 14.7959C79.4624 15.5114 79.6084 16.1931 79.7255 16.8384H79.7517C79.8592 16.3065 80.0369 15.6288 80.2876 14.8094L81.2094 11.7719H82.386L83.2692 14.7446C83.4827 15.4695 83.6563 16.1675 83.79 16.8398H83.8299C83.9277 16.185 84.0752 15.4871 84.2708 14.7446L85.0589 11.7719H86.4766V11.7705Z" fill="#222224"/>
<path d="M93.9615 18.1348H92.5176V14.4898C92.5176 13.3666 92.0822 12.805 91.2087 12.805C90.7802 12.805 90.4344 12.9589 90.1657 13.268C89.8998 13.5772 89.7648 13.9417 89.7648 14.3588V18.1334H88.3209V13.5893C88.3209 13.0304 88.303 12.4243 88.2686 11.7682H89.5375L89.605 12.7631H89.645C89.813 12.454 90.0638 12.1988 90.3931 11.995C90.7844 11.7574 91.2225 11.6372 91.702 11.6372C92.3082 11.6372 92.8124 11.8289 93.2134 12.2137C93.7121 12.6848 93.9615 13.3882 93.9615 14.3224V18.1348Z" fill="#222224"/>
<path d="M97.9435 18.1345H96.501V8.85059H97.9435V18.1345Z" fill="#222224"/>
<path d="M106.444 14.9C106.444 15.8788 106.159 16.6807 105.589 17.3098C104.991 17.9564 104.197 18.2791 103.209 18.2791C102.254 18.2791 101.495 17.9699 100.93 17.3489C100.365 16.7293 100.083 15.9476 100.083 15.0053C100.083 14.0198 100.374 13.2112 100.958 12.5834C101.542 11.9557 102.327 11.6411 103.315 11.6411C104.27 11.6411 105.035 11.9503 105.616 12.5699C106.167 13.172 106.444 13.9496 106.444 14.9ZM104.945 14.9459C104.945 14.3587 104.816 13.8551 104.558 13.4353C104.256 12.9277 103.824 12.6739 103.264 12.6739C102.683 12.6739 102.242 12.9277 101.94 13.4353C101.681 13.8551 101.553 14.3668 101.553 14.9716C101.553 15.5588 101.683 16.0624 101.94 16.4822C102.253 16.9898 102.688 17.2436 103.251 17.2436C103.802 17.2436 104.233 16.9858 104.544 16.4687C104.813 16.0408 104.945 15.5332 104.945 14.9459Z" fill="#222224"/>
<path d="M113.433 18.1346H112.136L112.029 17.4016H111.989C111.545 17.9861 110.913 18.2791 110.091 18.2791C109.478 18.2791 108.982 18.086 108.609 17.7026C108.27 17.3543 108.101 16.921 108.101 16.4066C108.101 15.629 108.431 15.0364 109.097 14.626C109.761 14.2156 110.695 14.0144 111.898 14.0239V13.9051C111.898 13.0667 111.449 12.6482 110.549 12.6482C109.908 12.6482 109.343 12.8062 108.856 13.1194L108.562 12.1906C109.166 11.8247 109.911 11.6411 110.79 11.6411C112.487 11.6411 113.339 12.5186 113.339 14.2736V16.6172C113.339 17.2531 113.371 17.7593 113.433 18.1346ZM111.934 15.9476V14.9662C110.341 14.9392 109.544 15.3671 109.544 16.2487C109.544 16.5808 109.635 16.8292 109.821 16.9952C110.007 17.1613 110.244 17.2436 110.527 17.2436C110.844 17.2436 111.14 17.1451 111.41 16.9493C111.681 16.7522 111.848 16.5025 111.91 16.196C111.925 16.1272 111.934 16.0435 111.934 15.9476Z" fill="#222224"/>
<path d="M121.637 18.1345H120.356L120.289 17.1126H120.249C119.839 17.8902 119.142 18.279 118.163 18.279C117.38 18.279 116.728 17.9779 116.212 17.3758C115.695 16.7737 115.438 15.9921 115.438 15.0322C115.438 14.0022 115.717 13.1679 116.279 12.5307C116.824 11.9367 117.49 11.6397 118.284 11.6397C119.156 11.6397 119.766 11.9272 120.114 12.5037H120.141V8.85059H121.587V16.42C121.587 17.0397 121.603 17.6107 121.637 18.1345ZM120.141 15.4507V14.3896C120.141 14.206 120.127 14.0575 120.101 13.9441C120.02 13.6039 119.845 13.3177 119.579 13.0869C119.31 12.856 118.987 12.7399 118.613 12.7399C118.075 12.7399 117.653 12.9492 117.343 13.369C117.036 13.7889 116.88 14.3248 116.88 14.9796C116.88 15.6087 117.027 16.119 117.324 16.5118C117.636 16.9303 118.058 17.1396 118.586 17.1396C119.06 17.1396 119.439 16.9654 119.727 16.6158C120.005 16.2931 120.141 15.9043 120.141 15.4507Z" fill="#222224"/>
<path d="M133.986 14.9C133.986 15.8788 133.701 16.6807 133.131 17.3098C132.533 17.9564 131.742 18.2791 130.751 18.2791C129.799 18.2791 129.04 17.9699 128.472 17.3489C127.907 16.7293 127.625 15.9476 127.625 15.0053C127.625 14.0198 127.916 13.2112 128.5 12.5834C129.084 11.9557 129.869 11.6411 130.86 11.6411C131.812 11.6411 132.579 11.9503 133.158 12.5699C133.709 13.172 133.986 13.9496 133.986 14.9ZM132.49 14.9459C132.49 14.3587 132.36 13.8551 132.103 13.4353C131.798 12.9277 131.368 12.6739 130.806 12.6739C130.228 12.6739 129.787 12.9277 129.482 13.4353C129.223 13.8551 129.095 14.3668 129.095 14.9716C129.095 15.5588 129.225 16.0624 129.482 16.4822C129.795 16.9898 130.23 17.2436 130.793 17.2436C131.344 17.2436 131.778 16.9858 132.089 16.4687C132.355 16.0408 132.49 15.5332 132.49 14.9459Z" fill="#222224"/>
<path d="M141.75 18.1348H140.308V14.4898C140.308 13.3666 139.872 12.805 138.997 12.805C138.569 12.805 138.223 12.9589 137.956 13.268C137.689 13.5772 137.555 13.9417 137.555 14.3588V18.1334H136.11V13.5893C136.11 13.0304 136.093 12.4243 136.059 11.7682H137.326L137.394 12.7631H137.434C137.603 12.454 137.854 12.1988 138.182 11.995C138.574 11.7574 139.011 11.6372 139.492 11.6372C140.097 11.6372 140.601 11.8289 141.002 12.2137C141.502 12.6848 141.75 13.3882 141.75 14.3224V18.1348Z" fill="#222224"/>
<path d="M151.467 12.8302H149.877V15.9217C149.877 16.7074 150.16 17.1002 150.719 17.1002C150.978 17.1002 151.193 17.0786 151.363 17.0341L151.4 18.1073C151.115 18.2126 150.74 18.2653 150.278 18.2653C149.708 18.2653 149.264 18.0952 148.943 17.755C148.621 17.4148 148.461 16.8424 148.461 16.0391V12.8302H147.512V11.7704H148.461V10.604L149.876 10.1855V11.7691H151.466V12.8302H151.467Z" fill="#222224"/>
<path d="M159.111 18.1345H157.666V14.5165C157.666 13.3758 157.231 12.8047 156.359 12.8047C155.689 12.8047 155.232 13.1355 154.981 13.797C154.938 13.936 154.913 14.1061 154.913 14.3059V18.1332H153.471V8.85059H154.913V12.6859H154.941C155.395 11.988 156.047 11.6397 156.892 11.6397C157.49 11.6397 157.984 11.8314 158.377 12.2161C158.866 12.6954 159.111 13.4082 159.111 14.3505V18.1345Z" fill="#222224"/>
<path d="M166.996 14.6516C166.996 14.9054 166.977 15.1187 166.942 15.2928H162.612C162.631 15.9219 162.838 16.4012 163.239 16.7333C163.605 17.0303 164.078 17.1788 164.656 17.1788C165.297 17.1788 165.881 17.0789 166.408 16.8777L166.634 17.8605C166.018 18.1224 165.293 18.2534 164.454 18.2534C163.448 18.2534 162.656 17.9631 162.083 17.3826C161.507 16.8021 161.222 16.0232 161.222 15.0458C161.222 14.0859 161.488 13.2867 162.024 12.6495C162.583 11.9691 163.339 11.6289 164.294 11.6289C165.228 11.6289 165.938 11.9691 166.417 12.6495C166.804 13.1895 166.996 13.8578 166.996 14.6516ZM165.618 14.2857C165.629 13.8659 165.534 13.5041 165.338 13.199C165.088 12.8061 164.706 12.609 164.189 12.609C163.718 12.609 163.334 12.8007 163.04 13.1855C162.801 13.4919 162.659 13.8578 162.612 14.2857H165.618Z" fill="#222224"/>
<path d="M73.911 42.5303H70.782L69.0681 37.2531H63.1106L61.4779 42.5303H58.4316L64.334 24.5645H67.9796L73.911 42.5303ZM68.5514 35.0391L67.0014 30.3479C66.8375 29.8686 66.5302 28.74 66.0769 26.9634H66.0218C65.8413 27.7275 65.5506 28.8561 65.1511 30.3479L63.6286 35.0391H68.5514Z" fill="#222224"/>
<path d="M89.0895 35.8935C89.0895 38.0967 88.4819 39.8382 87.2667 41.1167C86.1782 42.2547 84.8266 42.8231 83.2132 42.8231C81.4717 42.8231 80.2207 42.2102 79.4588 40.9844H79.4037V47.8086H76.4663V33.8402C76.4663 32.4551 76.4291 31.0335 76.3574 29.5755H78.9408L79.1047 31.6289H79.1598C80.1394 30.0818 81.626 29.3096 83.6211 29.3096C85.1807 29.3096 86.4827 29.913 87.5243 31.1213C88.5687 32.3309 89.0895 33.9212 89.0895 35.8935ZM86.0969 35.9988C86.0969 34.7379 85.8076 33.6984 85.2262 32.8803C84.591 32.0271 83.7382 31.6005 82.669 31.6005C81.9443 31.6005 81.2857 31.8381 80.6974 32.3066C80.1077 32.7791 79.7219 33.396 79.5415 34.1601C79.4505 34.5165 79.4051 34.8081 79.4051 35.0376V37.1976C79.4051 38.1399 79.6999 38.9351 80.2896 39.5844C80.8793 40.2338 81.6453 40.5578 82.5877 40.5578C83.6941 40.5578 84.5552 40.1393 85.1711 39.305C85.7883 38.4693 86.0969 37.3677 86.0969 35.9988Z" fill="#222224"/>
<path d="M104.296 35.8935C104.296 38.0967 103.689 39.8382 102.472 41.1167C101.385 42.2547 100.033 42.8231 98.4199 42.8231C96.6784 42.8231 95.4273 42.2102 94.6668 40.9844H94.6117V47.8086H91.6743V33.8402C91.6743 32.4551 91.6371 31.0335 91.5654 29.5755H94.1488L94.3127 31.6289H94.3678C95.346 30.0818 96.8327 29.3096 98.8291 29.3096C100.387 29.3096 101.689 29.913 102.734 31.1213C103.774 32.3309 104.296 33.9212 104.296 35.8935ZM101.304 35.9988C101.304 34.7379 101.013 33.6984 100.431 32.8803C99.7963 32.0271 98.9462 31.6005 97.8757 31.6005C97.1496 31.6005 96.4924 31.8381 95.9027 32.3066C95.313 32.7791 94.9286 33.396 94.7481 34.1601C94.6585 34.5165 94.6117 34.8081 94.6117 35.0376V37.1976C94.6117 38.1399 94.9065 38.9351 95.4935 39.5844C96.0832 40.2324 96.8492 40.5578 97.7944 40.5578C98.9007 40.5578 99.7618 40.1393 100.378 39.305C100.995 38.4693 101.304 37.3677 101.304 35.9988Z" fill="#222224"/>
<path d="M121.298 37.4921C121.298 39.0203 120.756 40.2637 119.669 41.2235C118.475 42.2725 116.812 42.7963 114.675 42.7963C112.702 42.7963 111.12 42.4237 109.923 41.6771L110.603 39.2782C111.893 40.0423 113.308 40.4257 114.85 40.4257C115.956 40.4257 116.817 40.18 117.436 39.6913C118.052 39.2026 118.359 38.5465 118.359 37.7284C118.359 36.9994 118.105 36.3851 117.597 35.887C117.091 35.3888 116.247 34.9258 115.067 34.4978C111.857 33.3247 110.254 31.6061 110.254 29.3462C110.254 27.8693 110.816 26.6584 111.941 25.7161C113.063 24.7724 114.559 24.3013 116.43 24.3013C118.099 24.3013 119.485 24.5861 120.591 25.1545L119.857 27.5008C118.823 26.95 117.655 26.6746 116.347 26.6746C115.314 26.6746 114.507 26.9243 113.928 27.4211C113.439 27.8653 113.194 28.4066 113.194 29.0479C113.194 29.758 113.473 30.3452 114.036 30.8069C114.525 31.2335 115.413 31.6952 116.703 32.1934C118.28 32.8157 119.439 33.5434 120.185 34.3777C120.927 35.2093 121.298 36.2501 121.298 37.4921Z" fill="#222224"/>
<path d="M131.011 31.7355H127.773V38.0252C127.773 39.6249 128.343 40.4241 129.487 40.4241C130.012 40.4241 130.447 40.3796 130.792 40.2905L130.873 42.4761C130.294 42.6881 129.532 42.7947 128.589 42.7947C127.428 42.7947 126.522 42.4478 125.867 41.7552C125.216 41.0613 124.888 39.8976 124.888 38.2628V31.7328H122.959V29.5728H124.888V27.2009L127.773 26.3477V29.5728H131.011V31.7355Z" fill="#222224"/>
<path d="M145.619 35.9463C145.619 37.9375 145.037 39.5724 143.877 40.8508C142.661 42.1671 141.046 42.8232 139.033 42.8232C137.093 42.8232 135.548 42.1927 134.397 40.9318C133.245 39.6709 132.669 38.0793 132.669 36.1609C132.669 34.1535 133.261 32.5092 134.45 31.2307C135.637 29.9509 137.238 29.311 139.251 29.311C141.19 29.311 142.752 29.9415 143.93 31.2037C145.057 32.4282 145.619 34.009 145.619 35.9463ZM142.571 36.0394C142.571 34.8447 142.311 33.82 141.783 32.9655C141.167 31.9314 140.287 31.4157 139.146 31.4157C137.965 31.4157 137.068 31.9327 136.452 32.9655C135.925 33.8214 135.664 34.8622 135.664 36.0934C135.664 37.2882 135.925 38.3128 136.452 39.166C137.087 40.2001 137.975 40.7158 139.12 40.7158C140.241 40.7158 141.122 40.1893 141.757 39.139C142.298 38.2683 142.571 37.2328 142.571 36.0394Z" fill="#222224"/>
<path d="M155.167 32.1068C154.877 32.0541 154.567 32.0271 154.241 32.0271C153.208 32.0271 152.409 32.4092 151.847 33.1746C151.358 33.8496 151.112 34.7028 151.112 35.7329V42.5301H148.176L148.204 33.6552C148.204 32.1621 148.167 30.8027 148.094 29.5769H150.652L150.76 32.0555H150.841C151.151 31.2036 151.64 30.5178 152.31 30.0035C152.964 29.5404 153.671 29.3096 154.433 29.3096C154.704 29.3096 154.95 29.3285 155.167 29.3622V32.1068Z" fill="#222224"/>
<path d="M168.304 35.4403C168.304 35.956 168.27 36.3907 168.197 36.7457H159.385C159.419 38.0255 159.845 39.0043 160.663 39.6793C161.406 40.2827 162.366 40.5851 163.546 40.5851C164.85 40.5851 166.041 40.3813 167.111 39.9722L167.571 41.9702C166.32 42.5048 164.843 42.7708 163.139 42.7708C161.089 42.7708 159.48 42.1795 158.309 40.9982C157.14 39.817 156.555 38.2307 156.555 36.2408C156.555 34.2874 157.099 32.6606 158.189 31.3633C159.33 29.9782 160.871 29.2856 162.811 29.2856C164.717 29.2856 166.159 29.9782 167.139 31.3633C167.914 32.4635 168.304 33.8243 168.304 35.4403ZM165.503 34.6937C165.523 33.8405 165.331 33.1034 164.933 32.4811C164.425 31.6805 163.643 31.2809 162.592 31.2809C161.632 31.2809 160.851 31.6711 160.254 32.4541C159.765 33.0764 159.474 33.823 159.385 34.6924H165.503V34.6937Z" fill="#222224"/>
</svg>
