<svg width="104" height="30" viewBox="0 0 104 30" fill="none" xmlns="http://www.w3.org/2000/svg">
<path d="M102.759 26.5401C102.759 28.1388 101.444 29.4338 99.8168 29.4338H3.52061C1.8943 29.4338 0.574219 28.1388 0.574219 26.5401V3.46344C0.574219 1.86546 1.8943 0.565918 3.52061 0.565918H99.8161C101.444 0.565918 102.759 1.86546 102.759 3.46344L102.759 26.5401Z" fill="white"/>
<path d="M99.5062 0.600939C101.278 0.600939 102.72 2.01375 102.72 3.75V26.25C102.72 27.9863 101.278 29.3991 99.5062 29.3991H3.82716C2.05519 29.3991 0.613302 27.9863 0.613302 26.25V3.75C0.613302 2.01375 2.05519 0.600939 3.82716 0.600939H99.5062ZM99.5062 1.90735e-06H3.82716C1.72318 1.90735e-06 0 1.68844 0 3.75V26.25C0 28.3116 1.72318 30 3.82716 30H99.5062C101.61 30 103.333 28.3116 103.333 26.25V3.75C103.333 1.68844 101.61 1.90735e-06 99.5062 1.90735e-06Z" fill="#A6A6A6"/>
<path d="M23.0606 14.8378C23.0384 12.4206 25.0806 11.2446 25.174 11.1898C24.0174 9.5376 22.2248 9.31185 21.5948 9.29385C20.0892 9.1386 18.6288 10.1766 17.8618 10.1766C17.0795 10.1766 15.8985 9.30885 14.6256 9.33435C12.9875 9.3591 11.4551 10.2883 10.6147 11.7313C8.88022 14.6736 10.1738 18.9973 11.8356 21.3756C12.6668 22.5403 13.6382 23.8408 14.9095 23.7951C16.1534 23.7448 16.618 23.0181 18.119 23.0181C19.6062 23.0181 20.0425 23.7951 21.3392 23.7658C22.6741 23.7448 23.5145 22.5958 24.3167 21.4206C25.2773 20.0856 25.6631 18.7708 25.6784 18.7033C25.647 18.6928 23.0859 17.7351 23.0606 14.8378Z" fill="#222224"/>
<path d="M20.6112 7.72935C21.2802 6.9096 21.738 5.79435 21.6109 4.6626C20.6426 4.7046 19.4317 5.31885 18.7344 6.1206C18.1175 6.8271 17.5663 7.9851 17.7087 9.0741C18.7964 9.1536 19.9132 8.53635 20.6112 7.72935Z" fill="#222224"/>
<path d="M37.5451 7.50653C37.5451 8.38928 37.2749 9.05378 36.7353 9.50003C36.2354 9.91178 35.5251 10.118 34.6051 10.118C34.1489 10.118 33.7585 10.0985 33.4316 10.0595V5.23628C33.858 5.16878 34.3172 5.13428 34.8132 5.13428C35.6897 5.13428 36.3502 5.32103 36.7957 5.69453C37.2948 6.11678 37.5451 6.72053 37.5451 7.50653ZM36.6993 7.52828C36.6993 6.95603 36.5447 6.51728 36.2354 6.21128C35.9262 5.90603 35.4746 5.75303 34.8798 5.75303C34.6272 5.75303 34.4122 5.76953 34.2338 5.80403V9.47078C34.3326 9.48578 34.5132 9.49253 34.7757 9.49253C35.3896 9.49253 35.8634 9.32528 36.1972 8.99078C36.5309 8.65628 36.6993 8.16878 36.6993 7.52828Z" fill="#222224"/>
<path d="M42.0301 8.27778C42.0301 8.82153 41.8717 9.26703 41.5548 9.61653C41.2226 9.97578 40.7824 10.155 40.2329 10.155C39.7032 10.155 39.2814 9.98328 38.9668 9.63828C38.653 9.29403 38.4961 8.85978 38.4961 8.33628C38.4961 7.78878 38.6576 7.33953 38.9821 6.99079C39.3067 6.64204 39.743 6.46729 40.2926 6.46729C40.8222 6.46729 41.2478 6.63903 41.5701 6.98328C41.8762 7.31778 42.0301 7.74978 42.0301 8.27778ZM41.1981 8.30328C41.1981 7.97703 41.1261 7.69728 40.983 7.46403C40.8146 7.18203 40.575 7.04103 40.2635 7.04103C39.9412 7.04103 39.6963 7.18203 39.5279 7.46403C39.384 7.69728 39.3128 7.98153 39.3128 8.31753C39.3128 8.64378 39.3848 8.92353 39.5279 9.15678C39.7017 9.43878 39.9435 9.57978 40.2558 9.57978C40.562 9.57978 40.8023 9.43653 40.9753 9.14928C41.1238 8.91153 41.1981 8.62953 41.1981 8.30328Z" fill="#222224"/>
<path d="M48.0424 6.53906L46.9133 10.0746H46.1785L45.7108 8.53931C45.5922 8.15606 45.4958 7.77506 45.4207 7.39706H45.4062C45.3365 7.78556 45.2401 8.16581 45.1161 8.53931L44.6193 10.0746H43.8761L42.8145 6.53906H43.6388L44.0468 8.21981C44.1455 8.61731 44.2267 8.99606 44.2917 9.35456H44.3063C44.366 9.05906 44.4647 8.68256 44.604 8.22731L45.1161 6.53981H45.7698L46.2604 8.19131C46.3791 8.59406 46.4755 8.98181 46.5498 9.35531H46.572C46.6263 8.99156 46.7082 8.60381 46.8169 8.19131L47.2547 6.53981H48.0424V6.53906Z" fill="#222224"/>
<path d="M52.2018 10.0746H51.3996V8.04959C51.3996 7.42559 51.1578 7.11359 50.6725 7.11359C50.4344 7.11359 50.2423 7.19909 50.0931 7.37084C49.9453 7.54259 49.8703 7.74509 49.8703 7.97684V10.0738H49.0681V7.54934C49.0681 7.23884 49.0582 6.90209 49.0391 6.53759H49.744L49.7815 7.09034H49.8037C49.8971 6.91859 50.0364 6.77684 50.2194 6.66359C50.4367 6.53159 50.6801 6.46484 50.9465 6.46484C51.2833 6.46484 51.5634 6.57134 51.7862 6.78509C52.0633 7.04684 52.2018 7.43759 52.2018 7.95659V10.0746Z" fill="#222224"/>
<path d="M54.4127 10.0747H53.6113V4.91699H54.4127V10.0747Z" fill="#222224"/>
<path d="M59.1356 8.27778C59.1356 8.82153 58.9771 9.26703 58.6602 9.61653C58.328 9.97578 57.8871 10.155 57.3383 10.155C56.8079 10.155 56.3861 9.98328 56.0723 9.63828C55.7585 9.29403 55.6016 8.85978 55.6016 8.33628C55.6016 7.78878 55.7631 7.33953 56.0876 6.99079C56.4122 6.64204 56.8485 6.46729 57.3973 6.46729C57.9277 6.46729 58.3525 6.63903 58.6755 6.98328C58.9817 7.31778 59.1356 7.74978 59.1356 8.27778ZM58.3028 8.30328C58.3028 7.97703 58.2308 7.69728 58.0877 7.46403C57.9201 7.18203 57.6797 7.04103 57.3689 7.04103C57.0459 7.04103 56.801 7.18203 56.6334 7.46403C56.4895 7.69728 56.4183 7.98153 56.4183 8.31753C56.4183 8.64378 56.4902 8.92353 56.6334 9.15678C56.8071 9.43878 57.049 9.57978 57.3613 9.57978C57.6675 9.57978 57.907 9.43653 58.08 9.14928C58.2293 8.91153 58.3028 8.62953 58.3028 8.30328Z" fill="#222224"/>
<path d="M63.0189 10.0748H62.2986L62.2389 9.66753H62.2167C61.9702 9.99228 61.6189 10.155 61.1627 10.155C60.8221 10.155 60.5465 10.0478 60.3391 9.83478C60.1508 9.64128 60.0566 9.40053 60.0566 9.11478C60.0566 8.68278 60.2403 8.35353 60.61 8.12553C60.979 7.89753 61.4979 7.78578 62.1662 7.79103V7.72503C62.1662 7.25929 61.9166 7.02679 61.4168 7.02679C61.0609 7.02679 60.7471 7.11454 60.4761 7.28854L60.3131 6.77253C60.6483 6.56928 61.0624 6.46729 61.5508 6.46729C62.4938 6.46729 62.9668 6.95478 62.9668 7.92978V9.23178C62.9668 9.58503 62.9844 9.86628 63.0189 10.0748ZM62.1861 8.85978V8.31453C61.3012 8.29953 60.8588 8.53728 60.8588 9.02703C60.8588 9.21153 60.9093 9.34953 61.0127 9.44178C61.116 9.53403 61.2477 9.57978 61.4046 9.57978C61.5806 9.57978 61.7452 9.52503 61.8952 9.41628C62.046 9.30678 62.1386 9.16803 62.1731 8.99778C62.1815 8.95953 62.1861 8.91303 62.1861 8.85978Z" fill="#222224"/>
<path d="M67.5773 10.0747H66.8654L66.8279 9.50699H66.8057C66.5784 9.93899 66.1911 10.155 65.6468 10.155C65.2121 10.155 64.85 9.98774 64.563 9.65324C64.2759 9.31874 64.1328 8.88449 64.1328 8.35124C64.1328 7.77899 64.2882 7.31549 64.6005 6.96149C64.9028 6.63149 65.2733 6.46649 65.7142 6.46649C66.1987 6.46649 66.5378 6.62624 66.7307 6.94649H66.746V4.91699H67.5489V9.12224C67.5489 9.46649 67.5581 9.78374 67.5773 10.0747ZM66.746 8.58374V7.99424C66.746 7.89224 66.7383 7.80974 66.7238 7.74674C66.6786 7.55774 66.5814 7.39874 66.4337 7.27049C66.2844 7.14224 66.1046 7.07774 65.8971 7.07774C65.5978 7.07774 65.3636 7.19399 65.1914 7.42724C65.0207 7.66049 64.9342 7.95824 64.9342 8.32199C64.9342 8.67149 65.0161 8.95499 65.1807 9.17324C65.3544 9.40574 65.5887 9.52199 65.8818 9.52199C66.1451 9.52199 66.3556 9.42524 66.5156 9.23099C66.6702 9.05174 66.746 8.83574 66.746 8.58374Z" fill="#222224"/>
<path d="M74.4383 8.27778C74.4383 8.82153 74.2799 9.26703 73.963 9.61653C73.6308 9.97578 73.1914 10.155 72.6411 10.155C72.1122 10.155 71.6904 9.98328 71.375 9.63828C71.0612 9.29403 70.9043 8.85978 70.9043 8.33628C70.9043 7.78878 71.0658 7.33953 71.3903 6.99079C71.7149 6.64204 72.1512 6.46729 72.7015 6.46729C73.2304 6.46729 73.6568 6.63903 73.9783 6.98328C74.2844 7.31778 74.4383 7.74978 74.4383 8.27778ZM73.607 8.30328C73.607 7.97703 73.5351 7.69728 73.3919 7.46403C73.2228 7.18203 72.984 7.04103 72.6717 7.04103C72.3502 7.04103 72.1053 7.18203 71.9361 7.46403C71.7922 7.69728 71.721 7.98153 71.721 8.31753C71.721 8.64378 71.793 8.92353 71.9361 9.15678C72.1099 9.43878 72.3517 9.57978 72.664 9.57978C72.9702 9.57978 73.2113 9.43653 73.3843 9.14928C73.532 8.91153 73.607 8.62953 73.607 8.30328Z" fill="#222224"/>
<path d="M78.7499 10.0746H77.9485V8.04959C77.9485 7.42559 77.7066 7.11359 77.2206 7.11359C76.9825 7.11359 76.7904 7.19909 76.6419 7.37084C76.4934 7.54259 76.4191 7.74509 76.4191 7.97684V10.0738H75.6162V7.54934C75.6162 7.23884 75.607 6.90209 75.5879 6.53759H76.2921L76.3296 7.09034H76.3518C76.4459 6.91859 76.5852 6.77684 76.7674 6.66359C76.9856 6.53159 77.2282 6.46484 77.4954 6.46484C77.8314 6.46484 78.1115 6.57134 78.3343 6.78509C78.6121 7.04684 78.7499 7.43759 78.7499 7.95659V10.0746Z" fill="#222224"/>
<path d="M84.1487 7.12794H83.2654V8.84544C83.2654 9.28194 83.4223 9.50019 83.7331 9.50019C83.877 9.50019 83.9964 9.48819 84.0906 9.46344L84.1112 10.0597C83.9528 10.1182 83.7446 10.1474 83.4882 10.1474C83.1713 10.1474 82.9248 10.0529 82.7465 9.86394C82.5673 9.67494 82.4786 9.35694 82.4786 8.91069V7.12794H81.9512V6.53919H82.4786V5.89119L83.2647 5.65869V6.53844H84.148V7.12794H84.1487Z" fill="#222224"/>
<path d="M88.3954 10.0747H87.5925V8.06474C87.5925 7.43099 87.3506 7.11374 86.8661 7.11374C86.4941 7.11374 86.2399 7.29749 86.1006 7.66499C86.0769 7.74224 86.0631 7.83674 86.0631 7.94774V10.074H85.2617V4.91699H86.0631V7.04774H86.0784C86.331 6.65999 86.6931 6.46649 87.1623 6.46649C87.4945 6.46649 87.7693 6.57299 87.9874 6.78674C88.2592 7.05299 88.3954 7.44899 88.3954 7.97249V10.0747Z" fill="#222224"/>
<path d="M92.7763 8.1397C92.7763 8.2807 92.7656 8.3992 92.7464 8.49595H90.3407C90.3514 8.84545 90.4662 9.1117 90.689 9.2962C90.8926 9.4612 91.1551 9.5437 91.4766 9.5437C91.8325 9.5437 92.157 9.4882 92.4494 9.37645L92.575 9.92245C92.2328 10.0679 91.8302 10.1407 91.3641 10.1407C90.8053 10.1407 90.3652 9.97945 90.0468 9.65695C89.7268 9.33445 89.5684 8.9017 89.5684 8.3587C89.5684 7.82545 89.7161 7.38145 90.0138 7.02745C90.3246 6.64945 90.7448 6.46045 91.2753 6.46045C91.7942 6.46045 92.1884 6.64945 92.4548 7.02745C92.6699 7.32745 92.7763 7.6987 92.7763 8.1397ZM92.0109 7.93645C92.017 7.7032 91.9642 7.5022 91.8555 7.3327C91.7162 7.11445 91.5041 7.00495 91.2171 7.00495C90.9553 7.00495 90.7418 7.11145 90.5787 7.3252C90.4455 7.49545 90.3667 7.6987 90.3407 7.93645H92.0109Z" fill="#222224"/>
<path d="M41.0625 23.628H39.3242L38.372 20.6962H35.0623L34.1553 23.628H32.4629L35.742 13.647H37.7673L41.0625 23.628ZM38.085 19.4662L37.2239 16.86C37.1328 16.5937 36.9621 15.9667 36.7103 14.9797H36.6797C36.5794 15.4042 36.4179 16.0312 36.1959 16.86L35.3501 19.4662H38.085Z" fill="#222224"/>
<path d="M49.4952 19.9414C49.4952 21.1654 49.1577 22.1329 48.4826 22.8432C47.8779 23.4754 47.127 23.7912 46.2307 23.7912C45.2632 23.7912 44.5681 23.4507 44.1449 22.7697H44.1142V26.5609H42.4823V18.8007C42.4823 18.0312 42.4617 17.2414 42.4219 16.4314H43.8571L43.9481 17.5722H43.9788C44.523 16.7127 45.3489 16.2837 46.4572 16.2837C47.3237 16.2837 48.047 16.6189 48.6257 17.2902C49.2059 17.9622 49.4952 18.8457 49.4952 19.9414ZM47.8327 19.9999C47.8327 19.2994 47.672 18.7219 47.349 18.2674C46.9961 17.7934 46.5223 17.5564 45.9283 17.5564C45.5257 17.5564 45.1598 17.6884 44.833 17.9487C44.5054 18.2112 44.2911 18.5539 44.1908 18.9784C44.1403 19.1764 44.115 19.3384 44.115 19.4659V20.6659C44.115 21.1894 44.2788 21.6312 44.6064 21.9919C44.934 22.3527 45.3596 22.5327 45.8832 22.5327C46.4978 22.5327 46.9762 22.3002 47.3183 21.8367C47.6613 21.3724 47.8327 20.7604 47.8327 19.9999Z" fill="#222224"/>
<path d="M57.9437 19.9414C57.9437 21.1654 57.6061 22.1329 56.9303 22.8432C56.3263 23.4754 55.5754 23.7912 54.6791 23.7912C53.7116 23.7912 53.0166 23.4507 52.5941 22.7697H52.5635V26.5609H50.9316V18.8007C50.9316 18.0312 50.9109 17.2414 50.8711 16.4314H52.3063L52.3974 17.5722H52.428C52.9714 16.7127 53.7973 16.2837 54.9065 16.2837C55.7722 16.2837 56.4955 16.6189 57.0757 17.2902C57.6536 17.9622 57.9437 18.8457 57.9437 19.9414ZM56.2812 19.9999C56.2812 19.2994 56.1197 18.7219 55.7966 18.2674C55.4438 17.7934 54.9715 17.5564 54.3768 17.5564C53.9734 17.5564 53.6083 17.6884 53.2807 17.9487C52.9531 18.2112 52.7395 18.5539 52.6392 18.9784C52.5895 19.1764 52.5635 19.3384 52.5635 19.4659V20.6659C52.5635 21.1894 52.7273 21.6312 53.0533 21.9919C53.3809 22.3519 53.8065 22.5327 54.3316 22.5327C54.9463 22.5327 55.4247 22.3002 55.7668 21.8367C56.1097 21.3724 56.2812 20.7604 56.2812 19.9999Z" fill="#222224"/>
<path d="M67.3897 20.8292C67.3897 21.6782 67.0889 22.369 66.485 22.9022C65.8214 23.485 64.8975 23.776 63.7103 23.776C62.6142 23.776 61.7355 23.569 61.0703 23.1542L61.4484 21.8215C62.1649 22.246 62.951 22.459 63.8075 22.459C64.4221 22.459 64.9005 22.3225 65.2442 22.051C65.5864 21.7795 65.7571 21.415 65.7571 20.9605C65.7571 20.5555 65.6162 20.2142 65.3338 19.9375C65.0529 19.6607 64.5836 19.4035 63.9284 19.1657C62.145 18.514 61.254 17.5592 61.254 16.3037C61.254 15.4832 61.5663 14.8105 62.1917 14.287C62.8147 13.7627 63.646 13.501 64.6854 13.501C65.6124 13.501 66.3824 13.6592 66.9971 13.975L66.5891 15.2785C66.015 14.9725 65.3659 14.8195 64.6395 14.8195C64.0654 14.8195 63.6169 14.9582 63.2954 15.2342C63.0237 15.481 62.8874 15.7817 62.8874 16.138C62.8874 16.5325 63.0428 16.8587 63.3551 17.1152C63.6269 17.3522 64.1206 17.6087 64.837 17.8855C65.7134 18.2312 66.3572 18.6355 66.7713 19.099C67.1838 19.561 67.3897 20.1392 67.3897 20.8292Z" fill="#222224"/>
<path d="M72.7837 17.6314H70.985V21.1257C70.985 22.0144 71.3019 22.4584 71.9372 22.4584C72.2288 22.4584 72.4707 22.4337 72.662 22.3842L72.7072 23.5984C72.3857 23.7162 71.9624 23.7754 71.4381 23.7754C70.7936 23.7754 70.29 23.5827 69.9264 23.1979C69.5643 22.8124 69.3821 22.1659 69.3821 21.2577V17.6299H68.3105V16.4299H69.3821V15.1122L70.985 14.6382V16.4299H72.7837V17.6314Z" fill="#222224"/>
<path d="M80.8994 19.9704C80.8994 21.0767 80.5764 21.9849 79.9319 22.6952C79.256 23.4264 78.3589 23.7909 77.2406 23.7909C76.1629 23.7909 75.3048 23.4407 74.6649 22.7402C74.025 22.0397 73.7051 21.1554 73.7051 20.0897C73.7051 18.9744 74.0342 18.0609 74.6948 17.3507C75.3538 16.6397 76.2432 16.2842 77.3615 16.2842C78.4393 16.2842 79.3065 16.6344 79.9609 17.3357C80.5871 18.0159 80.8994 18.8942 80.8994 19.9704ZM79.2062 20.0222C79.2062 19.3584 79.0616 18.7892 78.7684 18.3144C78.4263 17.7399 77.9371 17.4534 77.3034 17.4534C76.6474 17.4534 76.1491 17.7407 75.807 18.3144C75.5138 18.7899 75.3691 19.3682 75.3691 20.0522C75.3691 20.7159 75.5138 21.2852 75.807 21.7592C76.1598 22.3337 76.6528 22.6202 77.2888 22.6202C77.9119 22.6202 78.401 22.3277 78.7539 21.7442C79.0547 21.2604 79.2062 20.6852 79.2062 20.0222Z" fill="#222224"/>
<path d="M86.2051 17.8377C86.0436 17.8084 85.8714 17.7934 85.6908 17.7934C85.1167 17.7934 84.6727 18.0057 84.3604 18.4309C84.0887 18.8059 83.9525 19.2799 83.9525 19.8522V23.6284H82.3213L82.3366 18.6979C82.3366 17.8684 82.316 17.1132 82.2754 16.4322H83.6968L83.7565 17.8092H83.8017C83.9739 17.3359 84.2456 16.9549 84.6176 16.6692C84.9812 16.4119 85.3739 16.2837 85.7972 16.2837C85.9479 16.2837 86.0842 16.2942 86.2051 16.3129V17.8377Z" fill="#222224"/>
<path d="M93.5022 19.6893C93.5022 19.9758 93.4831 20.2173 93.4425 20.4145H88.5468C88.5659 21.1255 88.8025 21.6693 89.2571 22.0443C89.6697 22.3795 90.2032 22.5475 90.8584 22.5475C91.5833 22.5475 92.2446 22.4343 92.8393 22.207L93.095 23.317C92.4 23.614 91.5794 23.7618 90.6326 23.7618C89.4936 23.7618 88.5996 23.4333 87.949 22.777C87.2999 22.1208 86.9746 21.2395 86.9746 20.134C86.9746 19.0488 87.277 18.145 87.8824 17.4243C88.5162 16.6548 89.3727 16.27 90.4504 16.27C91.509 16.27 92.3104 16.6548 92.8546 17.4243C93.2856 18.0355 93.5022 18.7915 93.5022 19.6893ZM91.9461 19.2745C91.9568 18.8005 91.8504 18.391 91.6292 18.0453C91.3467 17.6005 90.9128 17.3785 90.3287 17.3785C89.7952 17.3785 89.3612 17.5953 89.0298 18.0303C88.7581 18.376 88.5966 18.7908 88.5468 19.2738H91.9461V19.2745Z" fill="#222224"/>
</svg>
