<svg width="114" height="33" viewBox="0 0 114 33" fill="none" xmlns="http://www.w3.org/2000/svg">
<path d="M113.367 29.1942C113.367 30.9528 111.916 32.3773 110.121 32.3773H3.88433C2.09014 32.3773 0.633789 30.9528 0.633789 29.1942V3.80983C0.633789 2.05205 2.09014 0.622559 3.88433 0.622559H110.12C111.916 0.622559 113.366 2.05205 113.366 3.80983L113.367 29.1942Z" fill="white"/>
<path d="M109.778 0.661034C111.733 0.661034 113.323 2.21513 113.323 4.125V28.875C113.323 30.7849 111.733 32.339 109.778 32.339H4.22222C2.26733 32.339 0.676611 30.7849 0.676611 28.875V4.125C0.676611 2.21513 2.26733 0.661034 4.22222 0.661034H109.778ZM109.778 3.8147e-06H4.22222C1.90106 3.8147e-06 0 1.85728 0 4.125V28.875C0 31.1427 1.90106 33 4.22222 33H109.778C112.099 33 114 31.1427 114 28.875V4.125C114 1.85728 112.099 3.8147e-06 109.778 3.8147e-06Z" fill="#A6A6A6"/>
<path d="M25.4411 16.3217C25.4166 13.6627 27.6696 12.3691 27.7726 12.3089C26.4967 10.4914 24.519 10.2431 23.824 10.2233C22.163 10.0525 20.5518 11.1943 19.7057 11.1943C18.8426 11.1943 17.5397 10.2398 16.1353 10.2678C14.3282 10.2951 12.6377 11.3172 11.7105 12.9045C9.79695 16.141 11.2241 20.8971 13.0573 23.5132C13.9744 24.7944 15.046 26.225 16.4486 26.1747C17.8209 26.1194 18.3334 25.32 19.9894 25.32C21.6302 25.32 22.1115 26.1747 23.542 26.1425C25.0147 26.1194 25.9419 24.8555 26.8269 23.5627C27.8866 22.0942 28.3122 20.648 28.3291 20.5737C28.2945 20.5622 25.469 19.5087 25.4411 16.3217Z" fill="#222224"/>
<path d="M22.7389 8.50233C23.4769 7.60061 23.9819 6.37383 23.8417 5.12891C22.7735 5.17511 21.4376 5.85078 20.6683 6.73271C19.9877 7.50986 19.3797 8.78366 19.5368 9.98156C20.7367 10.069 21.9688 9.39003 22.7389 8.50233Z" fill="#222224"/>
<path d="M41.4199 8.25742C41.4199 9.22845 41.1218 9.9594 40.5265 10.4503C39.975 10.9032 39.1914 11.1301 38.1764 11.1301C37.6731 11.1301 37.2424 11.1086 36.8818 11.0657V5.76015C37.3522 5.6859 37.8589 5.64795 38.4061 5.64795C39.373 5.64795 40.1017 5.85337 40.5932 6.26422C41.1438 6.7287 41.4199 7.39282 41.4199 8.25742ZM40.4868 8.28135C40.4868 7.65187 40.3162 7.16925 39.975 6.83265C39.6339 6.49687 39.1357 6.32857 38.4795 6.32857C38.2009 6.32857 37.9636 6.34672 37.7668 6.38467V10.4181C37.8757 10.4346 38.075 10.442 38.3647 10.442C39.0419 10.442 39.5646 10.258 39.9328 9.8901C40.301 9.52215 40.4868 8.9859 40.4868 8.28135Z" fill="#222224"/>
<path d="M46.3676 9.10532C46.3676 9.70344 46.1928 10.1935 45.8432 10.5779C45.4767 10.9731 44.9911 11.1703 44.3848 11.1703C43.8004 11.1703 43.3352 10.9814 42.9881 10.6019C42.6419 10.2232 42.4688 9.74552 42.4688 9.16967C42.4688 8.56742 42.6469 8.07324 43.005 7.68962C43.363 7.30599 43.8444 7.11377 44.4507 7.11377C45.035 7.11377 45.5045 7.30269 45.86 7.68137C46.1978 8.04932 46.3676 8.52452 46.3676 9.10532ZM45.4496 9.13337C45.4496 8.77449 45.3703 8.46677 45.2124 8.21019C45.0266 7.89999 44.7623 7.74489 44.4186 7.74489C44.0631 7.74489 43.7928 7.89999 43.6071 8.21019C43.4483 8.46677 43.3698 8.77944 43.3698 9.14904C43.3698 9.50792 43.4492 9.81564 43.6071 10.0722C43.7988 10.3824 44.0656 10.5375 44.4101 10.5375C44.7479 10.5375 45.0131 10.3799 45.2039 10.064C45.3677 9.80244 45.4496 9.49224 45.4496 9.13337Z" fill="#222224"/>
<path d="M53.001 7.19336L51.7554 11.0824H50.9447L50.4288 9.39363C50.2979 8.97206 50.1915 8.55296 50.1087 8.13716H50.0927C50.0158 8.56451 49.9094 8.98278 49.7726 9.39363L49.2246 11.0824H48.4046L47.2334 7.19336H48.1429L48.593 9.04218C48.7019 9.47943 48.7914 9.89606 48.8632 10.2904H48.8792C48.9451 9.96536 49.054 9.55121 49.2077 9.05043L49.7726 7.19418H50.4938L51.0351 9.01083C51.166 9.45386 51.2724 9.88038 51.3543 10.2912H51.3788C51.4387 9.89111 51.5291 9.46458 51.649 9.01083L52.132 7.19418H53.001V7.19336Z" fill="#222224"/>
<path d="M57.5888 11.0821H56.7039V8.85455C56.7039 8.16815 56.437 7.82495 55.9016 7.82495C55.639 7.82495 55.4271 7.919 55.2624 8.10793C55.0994 8.29685 55.0167 8.5196 55.0167 8.77453V11.0812H54.1317V8.30428C54.1317 7.96273 54.1207 7.5923 54.0996 7.19135H54.8773L54.9187 7.79938H54.9432C55.0462 7.61045 55.1999 7.45453 55.4017 7.32995C55.6416 7.18475 55.9101 7.11133 56.204 7.11133C56.5755 7.11133 56.8846 7.22848 57.1303 7.4636C57.436 7.75153 57.5888 8.18135 57.5888 8.75225V11.0821Z" fill="#222224"/>
<path d="M60.0296 11.0822H59.1455V5.40869H60.0296V11.0822Z" fill="#222224"/>
<path d="M65.2396 9.10532C65.2396 9.70344 65.0648 10.1935 64.7152 10.5779C64.3487 10.9731 63.8623 11.1703 63.2569 11.1703C62.6717 11.1703 62.2064 10.9814 61.8602 10.6019C61.5139 10.2232 61.3408 9.74552 61.3408 9.16967C61.3408 8.56742 61.519 8.07324 61.877 7.68962C62.2351 7.30599 62.7164 7.11377 63.3219 7.11377C63.9071 7.11377 64.3758 7.30269 64.7321 7.68137C65.0699 8.04932 65.2396 8.52452 65.2396 9.10532ZM64.3209 9.13337C64.3209 8.77449 64.2415 8.46677 64.0836 8.21019C63.8986 7.89999 63.6335 7.74489 63.2906 7.74489C62.9343 7.74489 62.6641 7.89999 62.4791 8.21019C62.3204 8.46677 62.2418 8.77944 62.2418 9.14904C62.2418 9.50792 62.3212 9.81564 62.4791 10.0722C62.6708 10.3824 62.9377 10.5375 63.2822 10.5375C63.62 10.5375 63.8843 10.3799 64.0751 10.064C64.2398 9.80244 64.3209 9.49224 64.3209 9.13337Z" fill="#222224"/>
<path d="M69.5229 11.082H68.7283L68.6624 10.634H68.6379C68.366 10.9913 67.9784 11.1703 67.4751 11.1703C67.0993 11.1703 66.7953 11.0523 66.5665 10.818C66.3588 10.6052 66.2549 10.3403 66.2549 10.026C66.2549 9.55082 66.4575 9.18864 66.8654 8.93784C67.2724 8.68704 67.845 8.56412 68.5822 8.56989V8.49729C68.5822 7.98497 68.3069 7.72922 67.7555 7.72922C67.3628 7.72922 67.0166 7.82574 66.7176 8.01714L66.5378 7.44954C66.9076 7.22597 67.3645 7.11377 67.9032 7.11377C68.9436 7.11377 69.4655 7.65002 69.4655 8.72252V10.1547C69.4655 10.5433 69.4849 10.8527 69.5229 11.082ZM68.6041 9.74552V9.14574C67.6279 9.12924 67.1399 9.39077 67.1399 9.92949C67.1399 10.1324 67.1956 10.2842 67.3096 10.3857C67.4236 10.4872 67.5688 10.5375 67.7419 10.5375C67.9362 10.5375 68.1177 10.4773 68.2832 10.3577C68.4496 10.2372 68.5518 10.0846 68.5898 9.89732C68.5991 9.85524 68.6041 9.80409 68.6041 9.74552Z" fill="#222224"/>
<path d="M74.5519 11.0822H73.7666L73.7252 10.4577H73.7007C73.4499 10.9329 73.0227 11.1705 72.4223 11.1705C71.9426 11.1705 71.5432 10.9865 71.2265 10.6186C70.9099 10.2506 70.752 9.77294 70.752 9.18637C70.752 8.55689 70.9234 8.04704 71.2679 7.65764C71.6015 7.29464 72.0102 7.11314 72.4966 7.11314C73.0311 7.11314 73.4052 7.28887 73.618 7.64114H73.6349V5.40869H74.5207V10.0345C74.5207 10.4131 74.5308 10.7621 74.5519 11.0822ZM73.6349 9.44212V8.79367C73.6349 8.68147 73.6264 8.59072 73.6104 8.52142C73.5606 8.31352 73.4533 8.13862 73.2903 7.99754C73.1257 7.85647 72.9272 7.78552 72.6984 7.78552C72.3682 7.78552 72.1098 7.91339 71.9198 8.16997C71.7315 8.42654 71.6361 8.75407 71.6361 9.15419C71.6361 9.53864 71.7264 9.85049 71.908 10.0906C72.0997 10.3463 72.3581 10.4742 72.6815 10.4742C72.972 10.4742 73.2042 10.3678 73.3807 10.1541C73.5513 9.95692 73.6349 9.71932 73.6349 9.44212Z" fill="#222224"/>
<path d="M82.1205 9.10532C82.1205 9.70344 81.9457 10.1935 81.5961 10.5779C81.2296 10.9731 80.7449 11.1703 80.1377 11.1703C79.5542 11.1703 79.0889 10.9814 78.741 10.6019C78.3948 10.2232 78.2217 9.74552 78.2217 9.16967C78.2217 8.56742 78.3999 8.07324 78.7579 7.68962C79.1159 7.30599 79.5973 7.11377 80.2044 7.11377C80.7879 7.11377 81.2583 7.30269 81.613 7.68137C81.9507 8.04932 82.1205 8.52452 82.1205 9.10532ZM81.2034 9.13337C81.2034 8.77449 81.124 8.46677 80.9661 8.21019C80.7795 7.89999 80.516 7.74489 80.1715 7.74489C79.8168 7.74489 79.5466 7.89999 79.36 8.21019C79.2012 8.46677 79.1227 8.77944 79.1227 9.14904C79.1227 9.50792 79.2021 9.81564 79.36 10.0722C79.5517 10.3824 79.8185 10.5375 80.1631 10.5375C80.5008 10.5375 80.7668 10.3799 80.9577 10.064C81.1207 9.80244 81.2034 9.49224 81.2034 9.13337Z" fill="#222224"/>
<path d="M86.879 11.0821H85.9949V8.85455C85.9949 8.16815 85.728 7.82495 85.1918 7.82495C84.9292 7.82495 84.7172 7.919 84.5534 8.10793C84.3896 8.29685 84.3077 8.5196 84.3077 8.77453V11.0812H83.4219V8.30428C83.4219 7.96273 83.4117 7.5923 83.3906 7.19135H84.1675L84.2089 7.79938H84.2334C84.3372 7.61045 84.4909 7.45453 84.6919 7.32995C84.9326 7.18475 85.2003 7.11133 85.495 7.11133C85.8657 7.11133 86.1748 7.22848 86.4205 7.4636C86.727 7.75153 86.879 8.18135 86.879 8.75225V11.0821Z" fill="#222224"/>
<path d="M92.8346 7.84078H91.8601V9.73003C91.8601 10.2102 92.0332 10.4503 92.376 10.4503C92.5348 10.4503 92.6665 10.4371 92.7704 10.4098L92.7932 11.0657C92.6184 11.1301 92.3887 11.1622 92.1058 11.1622C91.7562 11.1622 91.4843 11.0583 91.2875 10.8504C91.0899 10.6425 90.992 10.2927 90.992 9.80181V7.84078H90.4102V7.19316H90.992V6.48036L91.8592 6.22461V7.19233H92.8337V7.84078H92.8346Z" fill="#222224"/>
<path d="M97.5197 11.0822H96.6338V8.87122C96.6338 8.17409 96.367 7.82512 95.8325 7.82512C95.4221 7.82512 95.1417 8.02724 94.988 8.43149C94.9618 8.51647 94.9466 8.62042 94.9466 8.74252V11.0814H94.0625V5.40869H94.9466V7.75252H94.9635C95.2422 7.32599 95.6416 7.11314 96.1593 7.11314C96.5258 7.11314 96.8289 7.23029 97.0696 7.46542C97.3694 7.75829 97.5197 8.19389 97.5197 8.76974V11.0822Z" fill="#222224"/>
<path d="M102.353 8.95362C102.353 9.10872 102.341 9.23907 102.32 9.34549H99.6655C99.6773 9.72994 99.804 10.0228 100.05 10.2258C100.274 10.4073 100.564 10.498 100.919 10.498C101.311 10.498 101.669 10.437 101.992 10.314L102.13 10.9146C101.753 11.0747 101.309 11.1547 100.795 11.1547C100.178 11.1547 99.6925 10.9773 99.3413 10.6226C98.9883 10.2678 98.8135 9.79182 98.8135 9.19452C98.8135 8.60794 98.9765 8.11954 99.3049 7.73014C99.6478 7.31434 100.111 7.10645 100.697 7.10645C101.269 7.10645 101.704 7.31434 101.998 7.73014C102.235 8.06014 102.353 8.46852 102.353 8.95362ZM101.508 8.73004C101.515 8.47347 101.457 8.25237 101.337 8.06592C101.183 7.82585 100.949 7.70539 100.632 7.70539C100.344 7.70539 100.108 7.82254 99.9281 8.05767C99.7812 8.24494 99.6942 8.46852 99.6655 8.73004H101.508Z" fill="#222224"/>
<path d="M45.2998 25.9903H43.3821L42.3316 22.7654H38.6802L37.6796 25.9903H35.8125L39.4301 15.0112H41.6645L45.2998 25.9903ZM42.0149 21.4124L41.0649 18.5455C40.9645 18.2527 40.7761 17.563 40.4983 16.4773H40.4645C40.3539 16.9442 40.1757 17.6339 39.9309 18.5455L38.9977 21.4124H42.0149Z" fill="#222224"/>
<path d="M54.6033 21.9347C54.6033 23.2811 54.2309 24.3453 53.4861 25.1266C52.819 25.8221 51.9906 26.1694 51.0018 26.1694C49.9344 26.1694 49.1676 25.7948 48.7006 25.0457H48.6669V29.2161H46.8665V20.6798C46.8665 19.8334 46.8437 18.9647 46.7998 18.0737H48.3831L48.4836 19.3285H48.5174C49.1178 18.383 50.029 17.9111 51.2517 17.9111C52.2076 17.9111 53.0056 18.2799 53.644 19.0183C54.2841 19.7575 54.6033 20.7293 54.6033 21.9347ZM52.7692 21.999C52.7692 21.2285 52.5918 20.5932 52.2355 20.0933C51.8462 19.5719 51.3235 19.3112 50.6682 19.3112C50.224 19.3112 49.8204 19.4564 49.4598 19.7426C49.0984 20.0314 48.8619 20.4084 48.7513 20.8754C48.6956 21.0932 48.6677 21.2714 48.6677 21.4116V22.7316C48.6677 23.3075 48.8484 23.7934 49.2098 24.1902C49.5713 24.587 50.0408 24.785 50.6184 24.785C51.2965 24.785 51.8242 24.5293 52.2017 24.0194C52.58 23.5088 52.7692 22.8356 52.7692 21.999Z" fill="#222224"/>
<path d="M63.9228 21.9347C63.9228 23.2811 63.5504 24.3453 62.8047 25.1266C62.1385 25.8221 61.3101 26.1694 60.3212 26.1694C59.2538 26.1694 58.4871 25.7948 58.021 25.0457H57.9872V29.2161H56.1868V20.6798C56.1868 19.8334 56.164 18.9647 56.1201 18.0737H57.7035L57.8039 19.3285H57.8377C58.4373 18.383 59.3484 17.9111 60.572 17.9111C61.5271 17.9111 62.3251 18.2799 62.9652 19.0183C63.6027 19.7575 63.9228 20.7293 63.9228 21.9347ZM62.0887 21.999C62.0887 21.2285 61.9105 20.5932 61.5541 20.0933C61.1648 19.5719 60.6438 19.3112 59.9877 19.3112C59.5427 19.3112 59.1399 19.4564 58.7784 19.7426C58.417 20.0314 58.1814 20.4084 58.0708 20.8754C58.0159 21.0932 57.9872 21.2714 57.9872 21.4116V22.7316C57.9872 23.3075 58.1679 23.7934 58.5276 24.1902C58.889 24.5862 59.3586 24.785 59.9379 24.785C60.6159 24.785 61.1437 24.5293 61.5212 24.0194C61.8995 23.5088 62.0887 22.8356 62.0887 21.999Z" fill="#222224"/>
<path d="M74.3438 22.9117C74.3438 23.8456 74.0119 24.6054 73.3457 25.192C72.6135 25.833 71.5943 26.1531 70.2846 26.1531C69.0753 26.1531 68.1059 25.9254 67.3721 25.4692L67.7892 24.0031C68.5796 24.4701 69.4469 24.7044 70.3918 24.7044C71.0699 24.7044 71.5977 24.5542 71.9768 24.2556C72.3543 23.9569 72.5426 23.556 72.5426 23.056C72.5426 22.6105 72.3872 22.2352 72.0756 21.9307C71.7657 21.6263 71.2481 21.3433 70.5252 21.0818C68.5577 20.3649 67.5747 19.3147 67.5747 17.9336C67.5747 17.0311 67.9193 16.291 68.6092 15.7152C69.2966 15.1385 70.2136 14.8506 71.3604 14.8506C72.383 14.8506 73.2325 15.0247 73.9106 15.372L73.4605 16.8058C72.8272 16.4692 72.1111 16.3009 71.3097 16.3009C70.6764 16.3009 70.1815 16.4536 69.8269 16.7572C69.5271 17.0286 69.3768 17.3594 69.3768 17.7513C69.3768 18.1852 69.5482 18.5441 69.8927 18.8263C70.1925 19.087 70.7372 19.3691 71.5276 19.6735C72.4945 20.0539 73.2046 20.4985 73.6615 21.0084C74.1166 21.5166 74.3438 22.1527 74.3438 22.9117Z" fill="#222224"/>
<path d="M80.2963 19.3936H78.3118V23.2373C78.3118 24.2149 78.6614 24.7034 79.3623 24.7034C79.684 24.7034 79.9509 24.6761 80.162 24.6217L80.2118 25.9573C79.8571 26.0869 79.3902 26.1521 78.8117 26.1521C78.1007 26.1521 77.5451 25.94 77.144 25.5168C76.7445 25.0927 76.5435 24.3816 76.5435 23.3825V19.392H75.3613V18.072H76.5435V16.6225L78.3118 16.1011V18.072H80.2963V19.3936Z" fill="#222224"/>
<path d="M89.2494 21.967C89.2494 23.1839 88.8931 24.1829 88.182 24.9642C87.4364 25.7686 86.4467 26.1695 85.213 26.1695C84.024 26.1695 83.0774 25.7843 82.3714 25.0137C81.6655 24.2432 81.3125 23.2705 81.3125 22.0982C81.3125 20.8714 81.6756 19.8665 82.4044 19.0853C83.1314 18.3032 84.1127 17.9121 85.3464 17.9121C86.5354 17.9121 87.4921 18.2974 88.2141 19.0688C88.9049 19.817 89.2494 20.7831 89.2494 21.967ZM87.3815 22.0239C87.3815 21.2938 87.2219 20.6676 86.8985 20.1454C86.521 19.5134 85.9814 19.1983 85.2822 19.1983C84.5585 19.1983 84.0088 19.5143 83.6313 20.1454C83.3079 20.6684 83.1483 21.3045 83.1483 22.0569C83.1483 22.787 83.3079 23.4132 83.6313 23.9346C84.0206 24.5666 84.5645 24.8817 85.2662 24.8817C85.9536 24.8817 86.4932 24.56 86.8825 23.9181C87.2143 23.386 87.3815 22.7532 87.3815 22.0239Z" fill="#222224"/>
<path d="M95.102 19.6205C94.9238 19.5884 94.7338 19.5719 94.5345 19.5719C93.9012 19.5719 93.4114 19.8053 93.0669 20.2731C92.7671 20.6856 92.6168 21.207 92.6168 21.8365V25.9904H90.8173L90.8342 20.5668C90.8342 19.6544 90.8114 18.8236 90.7666 18.0745H92.3347L92.4006 19.5892H92.4504C92.6404 19.0686 92.9402 18.6495 93.3506 18.3352C93.7517 18.0522 94.1849 17.9111 94.6519 17.9111C94.8183 17.9111 94.9686 17.9227 95.102 17.9433V19.6205Z" fill="#222224"/>
<path d="M103.154 21.6577C103.154 21.9728 103.132 22.2385 103.088 22.4554H97.6866C97.7077 23.2375 97.9687 23.8357 98.4703 24.2482C98.9254 24.6169 99.514 24.8017 100.237 24.8017C101.037 24.8017 101.766 24.6772 102.422 24.4272L102.704 25.6482C101.938 25.9749 101.032 26.1374 99.9877 26.1374C98.7312 26.1374 97.7449 25.7761 97.0271 25.0542C96.311 24.3323 95.9521 23.3629 95.9521 22.1469C95.9521 20.9531 96.2857 19.959 96.9537 19.1662C97.6529 18.3197 98.5978 17.8965 99.7868 17.8965C100.955 17.8965 101.839 18.3197 102.439 19.1662C102.915 19.8385 103.154 20.6701 103.154 21.6577ZM101.437 21.2014C101.449 20.68 101.331 20.2296 101.087 19.8493C100.776 19.36 100.297 19.1158 99.6525 19.1158C99.0639 19.1158 98.5851 19.3543 98.2195 19.8328C97.9197 20.2131 97.7415 20.6693 97.6866 21.2006H101.437V21.2014Z" fill="#222224"/>
</svg>
