<svg xmlns="http://www.w3.org/2000/svg" width="114" height="33" viewBox="0 0 114 33" fill="none">
  <path d="M113.366 29.1942C113.366 30.9528 111.915 32.3773 110.12 32.3773H3.88335C2.08916 32.3773 0.632812 30.9528 0.632812 29.1942V3.80983C0.632812 2.05205 2.08916 0.622559 3.88335 0.622559H110.119C111.915 0.622559 113.365 2.05205 113.365 3.80983L113.366 29.1942Z" fill="white"/>
  <path d="M109.778 0.661034C111.733 0.661034 113.323 2.21513 113.323 4.125V28.875C113.323 30.7849 111.733 32.339 109.778 32.339H4.22222C2.26733 32.339 0.676611 30.7849 0.676611 28.875V4.125C0.676611 2.21513 2.26733 0.661034 4.22222 0.661034H109.778ZM109.778 3.8147e-06H4.22222C1.90106 3.8147e-06 0 1.85728 0 4.125V28.875C0 31.1427 1.90106 33 4.22222 33H109.778C112.099 33 114 31.1427 114 28.875V4.125C114 1.85728 112.099 3.8147e-06 109.778 3.8147e-06Z" fill="#A6A6A6"/>
  <path d="M25.4421 16.3217C25.4176 13.6627 27.6706 12.3691 27.7736 12.3089C26.4977 10.4914 24.52 10.2431 23.825 10.2233C22.164 10.0525 20.5528 11.1943 19.7066 11.1943C18.8436 11.1943 17.5406 10.2398 16.1363 10.2678C14.3292 10.2951 12.6386 11.3172 11.7114 12.9045C9.79793 16.141 11.225 20.8971 13.0583 23.5132C13.9754 24.7944 15.047 26.225 16.4496 26.1747C17.8218 26.1194 18.3344 25.32 19.9904 25.32C21.6311 25.32 22.1125 26.1747 23.5429 26.1425C25.0157 26.1194 25.9429 24.8555 26.8278 23.5627C27.8876 22.0942 28.3132 20.648 28.3301 20.5737C28.2955 20.5622 25.47 19.5087 25.4421 16.3217Z" fill="#222224"/>
  <path d="M22.7399 8.50233C23.4779 7.60061 23.9829 6.37383 23.8427 5.12891C22.7745 5.17511 21.4386 5.85078 20.6693 6.73271C19.9887 7.50986 19.3807 8.78366 19.5377 9.98156C20.7377 10.069 21.9697 9.39003 22.7399 8.50233Z" fill="#222224"/>
  <path d="M41.4209 8.25742C41.4209 9.22845 41.1228 9.9594 40.5274 10.4503C39.976 10.9032 39.1924 11.1301 38.1773 11.1301C37.6741 11.1301 37.2434 11.1086 36.8828 11.0657V5.76015C37.3532 5.6859 37.8598 5.64795 38.407 5.64795C39.3739 5.64795 40.1027 5.85337 40.5942 6.26422C41.1447 6.7287 41.4209 7.39282 41.4209 8.25742ZM40.4878 8.28135C40.4878 7.65187 40.3172 7.16925 39.976 6.83265C39.6349 6.49687 39.1366 6.32857 38.4805 6.32857C38.2018 6.32857 37.9645 6.34672 37.7678 6.38467V10.4181C37.8767 10.4346 38.076 10.442 38.3657 10.442C39.0429 10.442 39.5656 10.258 39.9338 9.8901C40.302 9.52215 40.4878 8.9859 40.4878 8.28135Z" fill="#222224"/>
  <path d="M46.3676 9.10556C46.3676 9.70369 46.1928 10.1937 45.8432 10.5782C45.4767 10.9734 44.9911 11.1705 44.3848 11.1705C43.8004 11.1705 43.3352 10.9816 42.9881 10.6021C42.6419 10.2234 42.4688 9.74576 42.4688 9.16991C42.4688 8.56766 42.6469 8.07349 43.005 7.68986C43.363 7.30624 43.8444 7.11401 44.4507 7.11401C45.035 7.11401 45.5045 7.30294 45.86 7.68161C46.1978 8.04956 46.3676 8.52476 46.3676 9.10556ZM45.4496 9.13361C45.4496 8.77474 45.3703 8.46701 45.2124 8.21044C45.0266 7.90024 44.7623 7.74514 44.4186 7.74514C44.0631 7.74514 43.7928 7.90024 43.6071 8.21044C43.4483 8.46701 43.3698 8.77969 43.3698 9.14929C43.3698 9.50816 43.4492 9.81589 43.6071 10.0725C43.7988 10.3827 44.0656 10.5378 44.4101 10.5378C44.7479 10.5378 45.0131 10.3802 45.2039 10.0642C45.3677 9.80269 45.4496 9.49249 45.4496 9.13361Z" fill="#222224"/>
  <path d="M53.0019 7.19312L51.7564 11.0822H50.9457L50.4298 9.39339C50.2989 8.97182 50.1925 8.55272 50.1097 8.13692H50.0937C50.0168 8.56427 49.9104 8.98254 49.7736 9.39339L49.2256 11.0822H48.4056L47.2344 7.19312H48.1438L48.5939 9.04194C48.7029 9.47919 48.7924 9.89582 48.8642 10.2902H48.8802C48.9461 9.96512 49.055 9.55097 49.2087 9.05019L49.7736 7.19394H50.4948L51.0361 9.01059C51.167 9.45362 51.2733 9.88014 51.3553 10.291H51.3798C51.4397 9.89087 51.5301 9.46434 51.65 9.01059L52.133 7.19394H53.0019V7.19312Z" fill="#222224"/>
  <path d="M57.5908 11.0823H56.7058V8.8548C56.7058 8.1684 56.439 7.8252 55.9036 7.8252C55.641 7.8252 55.429 7.91925 55.2644 8.10817C55.1014 8.2971 55.0186 8.51985 55.0186 8.77477V11.0815H54.1336V8.30452C54.1336 7.96297 54.1227 7.59255 54.1016 7.1916H54.8793L54.9207 7.79962H54.9452C55.0482 7.6107 55.2019 7.45477 55.4037 7.3302C55.6435 7.185 55.912 7.11157 56.2059 7.11157C56.5775 7.11157 56.8865 7.22872 57.1323 7.46385C57.4379 7.75177 57.5908 8.1816 57.5908 8.7525V11.0823Z" fill="#222224"/>
  <path d="M60.0306 11.0822H59.1465V5.40869H60.0306V11.0822Z" fill="#222224"/>
  <path d="M65.2406 9.10556C65.2406 9.70369 65.0658 10.1937 64.7162 10.5782C64.3497 10.9734 63.8633 11.1705 63.2578 11.1705C62.6726 11.1705 62.2074 10.9816 61.8611 10.6021C61.5149 10.2234 61.3418 9.74576 61.3418 9.16991C61.3418 8.56766 61.52 8.07349 61.878 7.68986C62.2361 7.30624 62.7174 7.11401 63.3229 7.11401C63.9081 7.11401 64.3767 7.30294 64.7331 7.68161C65.0709 8.04956 65.2406 8.52476 65.2406 9.10556ZM64.3218 9.13361C64.3218 8.77474 64.2425 8.46701 64.0846 8.21044C63.8996 7.90024 63.6345 7.74514 63.2916 7.74514C62.9353 7.74514 62.665 7.90024 62.4801 8.21044C62.3214 8.46701 62.2428 8.77969 62.2428 9.14929C62.2428 9.50816 62.3222 9.81589 62.4801 10.0725C62.6718 10.3827 62.9386 10.5378 63.2832 10.5378C63.621 10.5378 63.8853 10.3802 64.0761 10.0642C64.2408 9.80269 64.3218 9.49249 64.3218 9.13361Z" fill="#222224"/>
  <path d="M69.5239 11.0823H68.7292L68.6634 10.6343H68.6389C68.367 10.9915 67.9794 11.1705 67.4761 11.1705C67.1003 11.1705 66.7963 11.0526 66.5675 10.8183C66.3597 10.6054 66.2559 10.3406 66.2559 10.0263C66.2559 9.55106 66.4585 9.18889 66.8664 8.93809C67.2734 8.68729 67.8459 8.56436 68.5831 8.57014V8.49754C68.5831 7.98521 68.3079 7.72946 67.7564 7.72946C67.3638 7.72946 67.0176 7.82599 66.7186 8.01739L66.5387 7.44979C66.9086 7.22621 67.3655 7.11401 67.9042 7.11401C68.9446 7.11401 69.4664 7.65026 69.4664 8.72276V10.155C69.4664 10.5435 69.4859 10.8529 69.5239 11.0823ZM68.6051 9.74576V9.14599C67.6289 9.12949 67.1408 9.39101 67.1408 9.92974C67.1408 10.1327 67.1966 10.2845 67.3106 10.386C67.4246 10.4874 67.5698 10.5378 67.7429 10.5378C67.9371 10.5378 68.1187 10.4775 68.2842 10.3579C68.4506 10.2375 68.5527 10.0848 68.5907 9.89756C68.6 9.85549 68.6051 9.80434 68.6051 9.74576Z" fill="#222224"/>
  <path d="M74.5519 11.0822H73.7666L73.7252 10.4577H73.7007C73.4499 10.9329 73.0227 11.1705 72.4223 11.1705C71.9426 11.1705 71.5432 10.9865 71.2265 10.6186C70.9099 10.2506 70.752 9.77294 70.752 9.18637C70.752 8.55689 70.9234 8.04704 71.2679 7.65764C71.6015 7.29464 72.0102 7.11314 72.4966 7.11314C73.0311 7.11314 73.4052 7.28887 73.618 7.64114H73.6349V5.40869H74.5207V10.0345C74.5207 10.4131 74.5308 10.7621 74.5519 11.0822ZM73.6349 9.44212V8.79367C73.6349 8.68147 73.6264 8.59072 73.6104 8.52142C73.5606 8.31352 73.4533 8.13862 73.2903 7.99754C73.1257 7.85647 72.9272 7.78552 72.6984 7.78552C72.3682 7.78552 72.1098 7.91339 71.9198 8.16997C71.7315 8.42654 71.6361 8.75407 71.6361 9.15419C71.6361 9.53864 71.7264 9.85049 71.908 10.0906C72.0997 10.3463 72.3581 10.4742 72.6815 10.4742C72.972 10.4742 73.2042 10.3678 73.3807 10.1541C73.5513 9.95692 73.6349 9.71932 73.6349 9.44212Z" fill="#222224"/>
  <path d="M82.1215 9.10556C82.1215 9.70369 81.9467 10.1937 81.5971 10.5782C81.2306 10.9734 80.7459 11.1705 80.1387 11.1705C79.5552 11.1705 79.0899 10.9816 78.742 10.6021C78.3958 10.2234 78.2227 9.74576 78.2227 9.16991C78.2227 8.56766 78.4008 8.07349 78.7589 7.68986C79.1169 7.30624 79.5983 7.11401 80.2054 7.11401C80.7889 7.11401 81.2593 7.30294 81.6139 7.68161C81.9517 8.04956 82.1215 8.52476 82.1215 9.10556ZM81.2044 9.13361C81.2044 8.77474 81.125 8.46701 80.9671 8.21044C80.7805 7.90024 80.517 7.74514 80.1725 7.74514C79.8178 7.74514 79.5476 7.90024 79.361 8.21044C79.2022 8.46701 79.1237 8.77969 79.1237 9.14929C79.1237 9.50816 79.2031 9.81589 79.361 10.0725C79.5527 10.3827 79.8195 10.5378 80.164 10.5378C80.5018 10.5378 80.7678 10.3802 80.9587 10.0642C81.1216 9.80269 81.2044 9.49249 81.2044 9.13361Z" fill="#222224"/>
  <path d="M86.879 11.0823H85.9949V8.8548C85.9949 8.1684 85.728 7.8252 85.1918 7.8252C84.9292 7.8252 84.7172 7.91925 84.5534 8.10817C84.3896 8.2971 84.3077 8.51985 84.3077 8.77477V11.0815H83.4219V8.30452C83.4219 7.96297 83.4117 7.59255 83.3906 7.1916H84.1675L84.2089 7.79962H84.2334C84.3372 7.6107 84.4909 7.45477 84.6919 7.3302C84.9326 7.185 85.2003 7.11157 85.495 7.11157C85.8657 7.11157 86.1748 7.22872 86.4205 7.46385C86.727 7.75177 86.879 8.1816 86.879 8.7525V11.0823Z" fill="#222224"/>
  <path d="M92.8365 7.84078H91.862V9.73003C91.862 10.2102 92.0351 10.4503 92.378 10.4503C92.5367 10.4503 92.6685 10.4371 92.7723 10.4098L92.7951 11.0657C92.6203 11.1301 92.3906 11.1622 92.1078 11.1622C91.7582 11.1622 91.4862 11.0583 91.2895 10.8504C91.0919 10.6425 90.9939 10.2927 90.9939 9.80181V7.84078H90.4121V7.19316H90.9939V6.48036L91.8612 6.22461V7.19233H92.8357V7.84078H92.8365Z" fill="#222224"/>
  <path d="M97.5216 11.0822H96.6358V8.87122C96.6358 8.17409 96.369 7.82512 95.8344 7.82512C95.424 7.82512 95.1437 8.02724 94.99 8.43149C94.9638 8.51647 94.9486 8.62042 94.9486 8.74252V11.0814H94.0645V5.40869H94.9486V7.75252H94.9655C95.2441 7.32599 95.6436 7.11314 96.1612 7.11314C96.5277 7.11314 96.8309 7.23029 97.0715 7.46542C97.3713 7.75829 97.5216 8.19389 97.5216 8.76974V11.0822Z" fill="#222224"/>
  <path d="M102.354 8.95362C102.354 9.10872 102.342 9.23907 102.321 9.34549H99.6665C99.6783 9.72994 99.805 10.0228 100.051 10.2258C100.275 10.4073 100.565 10.498 100.92 10.498C101.312 10.498 101.67 10.437 101.993 10.314L102.131 10.9146C101.754 11.0747 101.31 11.1547 100.796 11.1547C100.179 11.1547 99.6935 10.9773 99.3422 10.6226C98.9893 10.2678 98.8145 9.79182 98.8145 9.19452C98.8145 8.60794 98.9774 8.11954 99.3059 7.73014C99.6488 7.31434 100.112 7.10645 100.698 7.10645C101.27 7.10645 101.705 7.31434 101.999 7.73014C102.236 8.06014 102.354 8.46852 102.354 8.95362ZM101.509 8.73004C101.516 8.47347 101.458 8.25237 101.338 8.06592C101.184 7.82585 100.95 7.70539 100.633 7.70539C100.345 7.70539 100.109 7.82254 99.9291 8.05767C99.7822 8.24494 99.6952 8.46852 99.6665 8.73004H101.509Z" fill="#222224"/>
  <path d="M45.2998 25.9908H43.3821L42.3316 22.7659H38.6802L37.6796 25.9908H35.8125L39.4301 15.0117H41.6645L45.2998 25.9908ZM42.0149 21.4129L41.0649 18.546C40.9645 18.2531 40.7761 17.5634 40.4983 16.4777H40.4645C40.3539 16.9447 40.1757 17.6344 39.9309 18.546L38.9977 21.4129H42.0149Z" fill="#222224"/>
  <path d="M54.6023 21.9351C54.6023 23.2815 54.2299 24.3458 53.4851 25.1271C52.818 25.8225 51.9896 26.1699 51.0008 26.1699C49.9334 26.1699 49.1666 25.7953 48.6997 25.0462H48.6659V29.2166H46.8655V20.6803C46.8655 19.8339 46.8427 18.9651 46.7988 18.0741H48.3822L48.4826 19.329H48.5164C49.1168 18.3835 50.028 17.9116 51.2507 17.9116C52.2066 17.9116 53.0046 18.2804 53.643 19.0188C54.2831 19.758 54.6023 20.7298 54.6023 21.9351ZM52.7682 21.9995C52.7682 21.2289 52.5909 20.5937 52.2345 20.0937C51.8452 19.5723 51.3225 19.3116 50.6672 19.3116C50.223 19.3116 49.8194 19.4568 49.4588 19.7431C49.0974 20.0319 48.861 20.4089 48.7503 20.8758C48.6946 21.0936 48.6667 21.2718 48.6667 21.4121V22.7321C48.6667 23.3079 48.8474 23.7939 49.2089 24.1907C49.5703 24.5875 50.0398 24.7855 50.6174 24.7855C51.2955 24.7855 51.8233 24.5298 52.2007 24.0199C52.579 23.5092 52.7682 22.836 52.7682 21.9995Z" fill="#222224"/>
  <path d="M63.9238 21.9351C63.9238 23.2815 63.5514 24.3458 62.8057 25.1271C62.1395 25.8225 61.311 26.1699 60.3222 26.1699C59.2548 26.1699 58.4881 25.7953 58.0219 25.0462H57.9882V29.2166H56.1878V20.6803C56.1878 19.8339 56.165 18.9651 56.1211 18.0741H57.7044L57.8049 19.329H57.8387C58.4382 18.3835 59.3494 17.9116 60.573 17.9116C61.5281 17.9116 62.3261 18.2804 62.9662 19.0188C63.6037 19.758 63.9238 20.7298 63.9238 21.9351ZM62.0896 21.9995C62.0896 21.2289 61.9114 20.5937 61.5551 20.0937C61.1658 19.5723 60.6448 19.3116 59.9887 19.3116C59.5436 19.3116 59.1408 19.4568 58.7794 19.7431C58.418 20.0319 58.1824 20.4089 58.0718 20.8758C58.0169 21.0936 57.9882 21.2718 57.9882 21.4121V22.7321C57.9882 23.3079 58.1689 23.7939 58.5286 24.1907C58.89 24.5867 59.3595 24.7855 59.9388 24.7855C60.6169 24.7855 61.1447 24.5298 61.5222 24.0199C61.9005 23.5092 62.0896 22.836 62.0896 21.9995Z" fill="#222224"/>
  <path d="M74.3428 22.9119C74.3428 23.8458 74.011 24.6056 73.3447 25.1922C72.6126 25.8332 71.5933 26.1533 70.2836 26.1533C69.0743 26.1533 68.1049 25.9256 67.3711 25.4694L67.7883 24.0034C68.5787 24.4703 69.4459 24.7046 70.3908 24.7046C71.0689 24.7046 71.5967 24.5545 71.9758 24.2558C72.3533 23.9572 72.5416 23.5562 72.5416 23.0563C72.5416 22.6108 72.3862 22.2354 72.0746 21.931C71.7647 21.6266 71.2471 21.3436 70.5242 21.0821C68.5567 20.3651 67.5738 19.3149 67.5738 17.9339C67.5738 17.0313 67.9183 16.2913 68.6082 15.7154C69.2956 15.1388 70.2126 14.8508 71.3594 14.8508C72.382 14.8508 73.2315 15.0249 73.9096 15.3722L73.4595 16.8061C72.8262 16.4695 72.1101 16.3012 71.3087 16.3012C70.6754 16.3012 70.1806 16.4538 69.8259 16.7574C69.5261 17.0288 69.3758 17.3597 69.3758 17.7515C69.3758 18.1855 69.5472 18.5444 69.8918 18.8265C70.1915 19.0872 70.7362 19.3694 71.5266 19.6738C72.4935 20.0541 73.2037 20.4988 73.6605 21.0086C74.1157 21.5168 74.3428 22.1529 74.3428 22.9119Z" fill="#222224"/>
  <path d="M80.2963 19.3941H78.3118V23.2378C78.3118 24.2154 78.6614 24.7038 79.3623 24.7038C79.684 24.7038 79.9509 24.6766 80.162 24.6222L80.2118 25.9578C79.8571 26.0874 79.3902 26.1525 78.8117 26.1525C78.1007 26.1525 77.5451 25.9405 77.144 25.5173C76.7445 25.0932 76.5435 24.3821 76.5435 23.383V19.3925H75.3613V18.0725H76.5435V16.623L78.3118 16.1016V18.0725H80.2963V19.3941Z" fill="#222224"/>
  <path d="M89.2494 21.9672C89.2494 23.1841 88.8931 24.1832 88.182 24.9645C87.4364 25.7688 86.4467 26.1698 85.213 26.1698C84.024 26.1698 83.0774 25.7845 82.3714 25.014C81.6655 24.2434 81.3125 23.2707 81.3125 22.0984C81.3125 20.8716 81.6756 19.8668 82.4044 19.0855C83.1314 18.3034 84.1127 17.9124 85.3464 17.9124C86.5354 17.9124 87.4921 18.2976 88.2141 19.069C88.9049 19.8173 89.2494 20.7834 89.2494 21.9672ZM87.3815 22.0242C87.3815 21.294 87.2219 20.6679 86.8985 20.1456C86.521 19.5137 85.9814 19.1985 85.2822 19.1985C84.5585 19.1985 84.0088 19.5145 83.6313 20.1456C83.3079 20.6687 83.1483 21.3048 83.1483 22.0572C83.1483 22.7873 83.3079 23.4135 83.6313 23.9349C84.0206 24.5668 84.5645 24.882 85.2662 24.882C85.9536 24.882 86.4932 24.5602 86.8825 23.9184C87.2143 23.3862 87.3815 22.7535 87.3815 22.0242Z" fill="#222224"/>
  <path d="M95.101 19.621C94.9228 19.5888 94.7328 19.5723 94.5335 19.5723C93.9002 19.5723 93.4104 19.8058 93.0659 20.2736C92.7661 20.6861 92.6158 21.2075 92.6158 21.837V25.9908H90.8163L90.8332 20.5673C90.8332 19.6548 90.8104 18.8241 90.7656 18.075H92.3338L92.3996 19.5897H92.4495C92.6395 19.0691 92.9392 18.65 93.3496 18.3357C93.7507 18.0527 94.1839 17.9116 94.6509 17.9116C94.8173 17.9116 94.9676 17.9232 95.101 17.9438V19.621Z" fill="#222224"/>
  <path d="M103.155 21.6579C103.155 21.9731 103.133 22.2387 103.089 22.4557H97.6876C97.7087 23.2378 97.9697 23.8359 98.4713 24.2484C98.9264 24.6172 99.515 24.802 100.238 24.802C101.038 24.802 101.767 24.6774 102.423 24.4274L102.705 25.6484C101.939 25.9751 101.033 26.1377 99.9887 26.1377C98.7322 26.1377 97.7459 25.7763 97.0281 25.0544C96.312 24.3326 95.9531 23.3632 95.9531 22.1471C95.9531 20.9534 96.2867 19.9592 96.9546 19.1664C97.6538 18.32 98.5988 17.8967 99.7877 17.8967C100.956 17.8967 101.84 18.32 102.44 19.1664C102.916 19.8388 103.155 20.6704 103.155 21.6579ZM101.438 21.2017C101.45 20.6803 101.332 20.2298 101.088 19.8495C100.777 19.3603 100.298 19.1161 99.6535 19.1161C99.0649 19.1161 98.5861 19.3545 98.2205 19.833C97.9207 20.2133 97.7425 20.6696 97.6876 21.2009H101.438V21.2017Z" fill="#222224"/>
</svg>