<svg width="24" height="24" viewBox="0 0 24 24" fill="none" xmlns="http://www.w3.org/2000/svg">
<g clip-path="url(#clip0_7531_576)">
<circle cx="12" cy="12" r="12" fill="white"/>
<path d="M0 12C0 14.3734 0.703788 16.6935 2.02236 18.6668C3.34094 20.6402 5.21509 22.1783 7.4078 23.0866C9.60051 23.9948 12.0133 24.2324 14.3411 23.7694C16.6689 23.3064 18.8071 22.1635 20.4853 20.4853C22.1635 18.8071 23.3064 16.6689 23.7694 14.3411C24.2324 12.0133 23.9948 9.60051 23.0866 7.4078C22.1783 5.21509 20.6402 3.34094 18.6668 2.02236C16.6935 0.703788 14.3734 0 12 0C8.81846 0.00344108 5.76821 1.26883 3.51852 3.51852C1.26883 5.76821 0.00344108 8.81846 0 12ZM17.414 10.586C17.7889 10.9611 17.9996 11.4697 17.9996 12C17.9996 12.5303 17.7889 13.0389 17.414 13.414L13.171 17.657L11.757 16.243L15 13H6V11H15L11.757 7.757L13.171 6.343L17.414 10.586Z" fill="#222224"/>
</g>
<defs>
<clipPath id="clip0_7531_576">
<rect width="24" height="24" fill="white"/>
</clipPath>
</defs>
</svg>
