<svg width="15" height="15" viewBox="0 0 15 15" fill="none" xmlns="http://www.w3.org/2000/svg">
<path d="M11.875 1.25H3.125C1.40188 1.25 0 2.65188 0 4.375V13.125C0 13.4706 0.28 13.75 0.625 13.75C0.97 13.75 1.25 13.4706 1.25 13.125V11.875H13.75V13.125C13.75 13.4706 14.0294 13.75 14.375 13.75C14.7206 13.75 15 13.4706 15 13.125V4.375C15 2.65188 13.5981 1.25 11.875 1.25ZM3.125 2.5H11.875C12.9087 2.5 13.75 3.34125 13.75 4.375V8.125H12.5C12.5 6.74625 11.3787 5.625 10 5.625H9.375C8.62875 5.625 7.95875 5.95375 7.5 6.47313C7.04125 5.95313 6.37125 5.625 5.625 5.625H5C3.62125 5.625 2.5 6.74625 2.5 8.125H1.25V4.375C1.25 3.34125 2.09125 2.5 3.125 2.5ZM8.125 8.125C8.125 7.43563 8.68563 6.875 9.375 6.875H10C10.6894 6.875 11.25 7.43563 11.25 8.125H8.125ZM3.75 8.125C3.75 7.43563 4.31063 6.875 5 6.875H5.625C6.31437 6.875 6.875 7.43563 6.875 8.125H3.75ZM1.25 10.625V9.375H13.75V10.625H1.25Z" fill="#03100D"/>
</svg>
