<svg width="13" height="13" viewBox="0 0 13 13" fill="none" xmlns="http://www.w3.org/2000/svg">
<g clip-path="url(#clip0_8391_2795)">
<path d="M6.5 0C2.91579 0 0 2.91579 0 6.5C0 10.0842 2.91579 13 6.5 13C10.0842 13 13 10.0842 13 6.5C13 2.91579 10.0842 0 6.5 0ZM9.85833 5.694L7.46092 8.04754C7.03679 8.46354 6.49079 8.671 5.94425 8.671C5.40367 8.671 4.86308 8.46733 4.44058 8.05946L3.41196 7.04817C3.19854 6.83854 3.19583 6.49567 3.40546 6.28225C3.61454 6.06829 3.9585 6.06558 4.17138 6.27575L5.19675 7.28379C5.61708 7.69004 6.28063 7.68788 6.70313 7.27404L9.1 4.92104C9.31287 4.71088 9.65467 4.71467 9.86592 4.92808C10.0755 5.1415 10.0723 5.48438 9.85833 5.694Z" fill="black"/>
</g>
<defs>
<clipPath id="clip0_8391_2795">
<rect width="13" height="13" fill="white"/>
</clipPath>
</defs>
</svg>
