<svg width="22" height="22" viewBox="0 0 22 22" fill="none" xmlns="http://www.w3.org/2000/svg">
<g clip-path="url(#clip0_7173_769)">
<path d="M19.25 0H2.75C2.02065 0 1.32118 0.289731 0.805456 0.805456C0.289731 1.32118 0 2.02065 0 2.75L0 22H22V2.75C22 2.02065 21.7103 1.32118 21.1945 0.805456C20.6788 0.289731 19.9793 0 19.25 0ZM20.1667 2.75V4.58333H13.75V1.83333H19.25C19.4931 1.83333 19.7263 1.92991 19.8982 2.10182C20.0701 2.27373 20.1667 2.50688 20.1667 2.75ZM10.0833 1.83333H11.9167V7.33333H10.0833V1.83333ZM2.75 1.83333H8.25V4.58333H1.83333V2.75C1.83333 2.50688 1.92991 2.27373 2.10182 2.10182C2.27373 1.92991 2.50688 1.83333 2.75 1.83333ZM1.83333 20.1667V6.41667H8.25V9.16667H13.75V6.41667H20.1667V20.1667H1.83333ZM13.75 16.5H18.3333V18.3333H13.75V16.5Z" fill="#222224"/>
</g>
<defs>
<clipPath id="clip0_7173_769">
<rect width="22" height="22" fill="white"/>
</clipPath>
</defs>
</svg>
