<svg width="22" height="22" viewBox="0 0 22 22" fill="none" xmlns="http://www.w3.org/2000/svg">
<g clip-path="url(#clip0_7173_765)">
<path d="M3.66679 16.5H9.16679V11H3.66679V16.5ZM5.50012 12.8333H7.33345V14.6667H5.50012V12.8333ZM19.252 1.83333H16.502V0H14.6686V1.83333H7.33529V0H5.50195V1.83333H2.75195C1.23579 1.83333 0.00195312 3.06717 0.00195312 4.58333V22H22.002V4.58333C22.002 3.06717 20.7681 1.83333 19.252 1.83333ZM2.75195 3.66667H19.252C19.758 3.66667 20.1686 4.07825 20.1686 4.58333V7.33333H1.83529V4.58333C1.83529 4.07825 2.24595 3.66667 2.75195 3.66667ZM1.83529 20.1667V9.16667H20.1686V20.1667H1.83529Z" fill="#222224"/>
</g>
<defs>
<clipPath id="clip0_7173_765">
<rect width="22" height="22" fill="white"/>
</clipPath>
</defs>
</svg>
