<svg width="24" height="24" viewBox="0 0 24 24" fill="none" xmlns="http://www.w3.org/2000/svg">
<g clip-path="url(#clip0_10228_2989)">
<path d="M19 2H18V1C18 0.448 17.553 0 17 0C16.447 0 16 0.448 16 1V2H8V1C8 0.448 7.553 0 7 0C6.447 0 6 0.448 6 1V2H5C2.243 2 0 4.243 0 7V19C0 21.757 2.243 24 5 24H19C21.757 24 24 21.757 24 19V7C24 4.243 21.757 2 19 2ZM5 4H19C20.654 4 22 5.346 22 7V8H2V7C2 5.346 3.346 4 5 4ZM19 22H5C3.346 22 2 20.654 2 19V10H22V19C22 20.654 20.654 22 19 22ZM16.311 18.53C15.441 20.007 13.834 21 12 21C10.896 21 9.839 20.63 8.982 19.982L8.166 20.798C7.736 21.228 7.001 20.923 7.001 20.315V17.62C7.001 17.277 7.279 17 7.622 17H10.317C10.925 17 11.23 17.735 10.8 18.165L10.426 18.539C10.894 18.829 11.434 19 12.001 19C13.105 19 14.064 18.397 14.582 17.505C14.762 17.195 15.089 17 15.448 17C16.232 17 16.709 17.855 16.311 18.53ZM17 11.684V14.379C17 14.722 16.722 15 16.379 15H13.684C13.076 15 12.771 14.265 13.201 13.834L13.575 13.46C13.107 13.17 12.567 12.999 12 12.999C10.896 12.999 9.937 13.602 9.419 14.494C9.239 14.804 8.912 14.999 8.553 14.999C7.769 14.999 7.291 14.144 7.689 13.469C8.559 11.992 10.166 10.999 12 10.999C13.104 10.999 14.161 11.369 15.018 12.017L15.835 11.2C16.265 10.77 17 11.075 17 11.683V11.684Z" fill="#222224"/>
</g>
<defs>
<clipPath id="clip0_10228_2989">
<rect width="24" height="24" fill="white"/>
</clipPath>
</defs>
</svg>
