<svg width="15" height="15" viewBox="0 0 15 15" fill="none" xmlns="http://www.w3.org/2000/svg">
<g clip-path="url(#clip0_10591_4445)">
<path d="M11.5625 0H3.4375C1.5425 0 0 1.54188 0 3.4375V11.5625C0 13.4581 1.5425 15 3.4375 15H11.5625C13.4575 15 15 13.4581 15 11.5625V3.4375C15 1.54188 13.4575 0 11.5625 0ZM13.125 11.5625C13.125 12.4237 12.4244 13.125 11.5625 13.125H3.4375C2.57562 13.125 1.875 12.4237 1.875 11.5625V3.4375C1.875 2.57625 2.57562 1.875 3.4375 1.875H11.5625C12.4244 1.875 13.125 2.57625 13.125 3.4375V11.5625ZM6.875 4.0625V5.9375C6.875 6.455 6.455 6.875 5.9375 6.875H4.0625C3.545 6.875 3.125 6.455 3.125 5.9375V4.0625C3.125 3.545 3.545 3.125 4.0625 3.125H5.9375C6.455 3.125 6.875 3.545 6.875 4.0625ZM11.875 4.0625V5.9375C11.875 6.455 11.455 6.875 10.9375 6.875H9.0625C8.545 6.875 8.125 6.455 8.125 5.9375V4.0625C8.125 3.545 8.545 3.125 9.0625 3.125H10.9375C11.455 3.125 11.875 3.545 11.875 4.0625ZM6.875 9.0625V10.9375C6.875 11.455 6.455 11.875 5.9375 11.875H4.0625C3.545 11.875 3.125 11.455 3.125 10.9375V9.0625C3.125 8.545 3.545 8.125 4.0625 8.125H5.9375C6.455 8.125 6.875 8.545 6.875 9.0625ZM11.875 9.0625V10.9375C11.875 11.455 11.455 11.875 10.9375 11.875H9.0625C8.545 11.875 8.125 11.455 8.125 10.9375V9.0625C8.125 8.545 8.545 8.125 9.0625 8.125H10.9375C11.455 8.125 11.875 8.545 11.875 9.0625Z" fill="#222224"/>
</g>
<defs>
<clipPath id="clip0_10591_4445">
<rect width="15" height="15" fill="white"/>
</clipPath>
</defs>
</svg>
