<svg width="40" height="40" viewBox="0 0 40 40" fill="none" xmlns="http://www.w3.org/2000/svg">
<path d="M16.3353 28.0578L8.14299 28.0587C7.81557 28.0587 7.45662 28.0848 7.13368 28.0327C5.79366 27.8169 6.1144 25.9248 6.11527 24.9577L6.11149 8.86961C6.11081 7.37617 7.19392 7.39641 8.34432 7.39671L18.1931 7.39742L31.2246 7.39729C32.7493 7.39667 33.8852 7.2274 33.9097 9.18539C33.9261 10.4874 33.9091 11.792 33.9091 13.0943L33.9099 24.8195C33.91 25.6372 34.1152 27.0383 33.4919 27.6645C33.0031 28.1555 32.241 28.0585 31.6101 28.0585L23.6014 28.0578V30.7237C24.0561 30.674 25.8205 30.6521 26.0397 30.8657C26.4089 31.2254 26.1153 31.7705 25.6631 31.8416C25.2905 31.9001 24.7698 31.8588 24.3841 31.8578L21.8844 31.857L15.147 31.8574C14.8561 31.8574 14.5503 31.876 14.2614 31.8452C13.8333 31.7996 13.6528 31.1623 13.9517 30.8702C14.1917 30.6356 14.6822 30.7205 14.9834 30.7217L16.3353 30.7237V28.0578ZM21.6939 8.50984L9.01838 8.51015C8.69831 8.51015 7.47653 8.4189 7.23951 8.57523C7.12378 8.77953 7.20501 12.789 7.20501 13.341L7.20484 22.4411H18.3492H32.8117L32.8114 10.3952C32.8114 10.1141 32.9378 8.59453 32.6522 8.53992C32.2969 8.47203 31.8806 8.50961 31.5176 8.50961L21.6939 8.50984ZM8.25143 23.5402H7.20484V26.9487H31.8063C32.0917 26.9484 32.3785 26.9417 32.6638 26.9487C32.7137 26.8998 32.7654 26.8521 32.8117 26.7998C32.8291 25.7143 32.8116 24.6259 32.8117 23.5402H8.25143ZM17.4396 28.0578V30.7237H22.5136V28.0578H17.4396Z" fill="#222224"/>
</svg>
