<svg width="40" height="40" viewBox="0 0 40 40" fill="none" xmlns="http://www.w3.org/2000/svg">
<g clip-path="url(#clip0_12289_10066)">
<path d="M20 26.6667C16.3234 26.6667 13.3334 23.6767 13.3334 20C13.3334 16.3233 16.3234 13.3333 20 13.3333C23.6767 13.3333 26.6667 16.3233 26.6667 20C26.6667 23.6767 23.6767 26.6667 20 26.6667ZM20 16.6667C18.1617 16.6667 16.6667 18.1617 16.6667 20C16.6667 21.8383 18.1617 23.3333 20 23.3333C21.8384 23.3333 23.3334 21.8383 23.3334 20C23.3334 18.1617 21.8384 16.6667 20 16.6667ZM8.33338 11.6667C7.41338 11.6667 6.66671 12.4133 6.66671 13.3333C6.66671 14.2533 7.41338 15 8.33338 15C9.25338 15 10 14.2533 10 13.3333C10 12.4133 9.25338 11.6667 8.33338 11.6667ZM30 16.6667C30 17.5867 30.7467 18.3333 31.6667 18.3333C32.5867 18.3333 33.3334 17.5867 33.3334 16.6667C33.3334 15.7467 32.5867 15 31.6667 15C30.7467 15 30 15.7467 30 16.6667ZM8.33338 21.6667C7.41338 21.6667 6.66671 22.4133 6.66671 23.3333C6.66671 24.2533 7.41338 25 8.33338 25C9.25338 25 10 24.2533 10 23.3333C10 22.4133 9.25338 21.6667 8.33338 21.6667ZM30 26.6667C30 27.5867 30.7467 28.3333 31.6667 28.3333C32.5867 28.3333 33.3334 27.5867 33.3334 26.6667C33.3334 25.7467 32.5867 25 31.6667 25C30.7467 25 30 25.7467 30 26.6667ZM28.3317 35C25.6084 35 23.1684 34.335 20.81 33.6917C18.5634 33.0783 16.4434 32.5 14.1667 32.5C11.5484 32.5 9.89671 32.6683 8.46838 33.0817C6.45838 33.66 4.34504 33.27 2.66838 32.0083C0.973376 30.7333 0.00170898 28.7867 0.00170898 26.6667V14.0867C0.00170898 10.6483 2.16671 7.51333 5.39004 6.285C7.62504 5.43167 9.73838 5 11.67 5C14.3934 5 16.8317 5.665 19.1917 6.30833C21.4384 6.92167 23.5584 7.5 25.835 7.5C28.4517 7.5 30.105 7.33167 31.5334 6.91833C33.5467 6.34 35.66 6.73 37.335 7.99167C39.03 9.26667 40.0017 11.2133 40.0017 13.3333V25.9133C40.0017 29.3517 37.835 32.4867 34.6117 33.715C32.3767 34.5683 30.265 35 28.3317 35ZM14.1667 29.1667C16.89 29.1667 19.3284 29.8317 21.6884 30.475C23.935 31.0883 26.055 31.6667 28.3317 31.6667C29.855 31.6667 31.5684 31.3083 33.425 30.6C35.3967 29.85 36.6684 28.01 36.6684 25.9133V13.3333C36.6684 12.2717 36.18 11.295 35.33 10.6567C34.4984 10.0317 33.4534 9.835 32.455 10.1217C30.7034 10.6267 28.785 10.8333 25.8317 10.8333C23.1084 10.8333 20.67 10.1683 18.31 9.525C16.0634 8.91167 13.9434 8.33333 11.6667 8.33333C10.1417 8.33333 8.43004 8.69167 6.57338 9.4C4.60171 10.15 3.33004 11.99 3.33004 14.0867V26.6667C3.33004 27.7283 3.81838 28.705 4.66838 29.3433C5.50004 29.9683 6.54504 30.165 7.54171 29.8767C9.29338 29.3717 11.2134 29.165 14.165 29.165L14.1667 29.1667Z" fill="#222224"/>
</g>
<defs>
<clipPath id="clip0_12289_10066">
<rect width="40" height="40" fill="white"/>
</clipPath>
</defs>
</svg>
