<svg width="24" height="24" viewBox="0 0 24 24" fill="none" xmlns="http://www.w3.org/2000/svg">
<g clip-path="url(#clip0_7173_783)">
<path d="M24 5.5C24 4.122 22.879 3 21.5 3H16V0H0V21C0 22.654 1.346 24 3 24H13C14.654 24 16 22.654 16 21V16H24V5.5ZM21.5 5C21.775 5 22 5.224 22 5.5V7H16V5H21.5ZM14 21C14 21.551 13.552 22 13 22H3C2.448 22 2 21.551 2 21V18H14V21ZM14 16H2V2H14V16ZM16 14V9H22V14H16ZM5.925 11.425L3.743 9.157L5.13 7.716L7.346 10.017L10.96 6.314L12.358 7.744L8.751 11.44L8.748 11.444C8.004 12.188 6.69 12.19 5.925 11.425ZM10 21H6V19H10V21Z" fill="#222224"/>
</g>
<defs>
<clipPath id="clip0_7173_783">
<rect width="24" height="24" fill="white"/>
</clipPath>
</defs>
</svg>
