<svg width="40" height="40" viewBox="0 0 40 40" fill="none" xmlns="http://www.w3.org/2000/svg">
<path d="M20.9161 31.7202C19.0547 31.4281 19.1962 29.9544 19.1971 28.5985L19.1967 9.17336C19.1971 7.52488 19.5389 6.35248 21.4466 6.32099L31.3377 6.32012C31.7487 6.31978 32.1873 6.28877 32.594 6.3414C34.0155 6.52534 34.2172 7.80718 34.2175 8.93734L34.2176 28.2568C34.2173 30.0182 34.4949 31.3057 32.3991 31.7202C32.4003 32.028 32.4346 32.3535 32.2055 32.5966C31.871 32.9514 31.365 32.8925 31.0343 32.5745C30.8369 32.3059 30.8493 32.0347 30.8562 31.7202C30.6332 31.6766 30.3851 31.7163 30.1576 31.7184L22.4631 31.7202C22.4681 32.057 22.5051 32.3735 22.2526 32.6409C21.9557 32.9552 21.4625 32.9792 21.1519 32.6698C20.8925 32.4116 20.9154 32.0562 20.9161 31.7202ZM21.23 7.91554C20.5362 8.0989 20.7926 9.53492 20.7927 10.1428L20.7931 13.4053H32.2165H32.6399L32.641 9.02047C32.648 7.54584 32.1247 7.91539 30.8144 7.91593L23.5734 7.91523C22.794 7.91508 22.0087 7.88468 21.23 7.91554ZM20.9161 14.9816C20.6604 15.0067 20.7936 15.6394 20.7937 15.9229L20.7929 27.9773C20.7929 28.4545 20.7405 29.3727 20.8398 29.7949C20.9655 30.3289 23.2984 30.1074 23.7881 30.1073L31.0363 30.108C31.4856 30.1087 31.9521 30.1387 32.3991 30.1077C32.8033 29.8148 32.6402 28.7844 32.64 28.3422L32.6399 14.9816H20.9161Z" fill="#222224"/>
<path d="M30.7658 12.0402L28.8077 12.041C28.2716 12.0423 27.2919 12.239 27.1635 11.499C27.0683 10.9509 26.9091 9.46055 27.7025 9.34023C28.2925 9.33086 28.8838 9.34305 29.4739 9.34133C29.9258 9.34008 31.0643 9.15023 31.2476 9.72555C31.3214 9.95719 31.3139 11.203 31.2821 11.4795C31.2457 11.7948 31.0809 11.9677 30.7658 12.0402Z" fill="#222224"/>
<path d="M17.6665 31.7202C17.2652 31.7551 16.7495 31.7212 16.3327 31.7205L8.76401 31.7202C8.04339 31.7203 7.31635 31.7444 6.59665 31.7262C5.4327 31.6967 5.7954 30.1678 5.79648 29.3257L5.79688 18.0095C5.79696 16.6173 5.77183 15.2204 5.79621 13.8288C5.80357 13.4084 5.92239 13.123 6.36225 13.0027C6.7939 12.9875 7.23073 13.0024 7.6629 13.0025L18.249 13.0027L18.2482 29.0186C18.2476 29.838 18.5628 31.4156 17.6665 31.7202ZM7.43636 14.6091C7.22514 14.6405 7.34154 15.6429 7.34118 15.908L10.4878 15.9075C10.9239 15.9073 11.6121 15.8632 12.0223 15.938C12.7481 16.0702 12.7032 17.2713 11.9846 17.3923C11.5942 17.458 10.8954 17.416 10.4761 17.4159L7.34118 17.4151V30.1734H11.2793H16.634V14.6091H7.43636Z" fill="#222224"/>
<path d="M27.1463 27.0516C25.9906 27.0984 25.0013 26.8958 24.0668 26.177C20.8671 23.7163 22.2594 18.77 26.3011 18.3016C28.5702 18.0823 30.6226 19.7304 30.983 21.9659C31.3939 24.5146 29.6374 26.6581 27.1463 27.0516ZM26.5637 19.8843C24.5361 19.9609 23.9107 21.4803 23.9126 23.2612H27.8219H30.4491V22.243C30.0822 22.2427 29.7126 22.2324 29.3461 22.243C29.231 20.9259 27.9398 19.6657 26.5637 19.8843Z" fill="#222224"/>
<path d="M14.7485 24.1995C14.2975 24.2347 13.9036 24.0394 13.8123 23.5655C13.6868 22.9145 13.6021 21.6701 14.4762 21.5284C15.5294 21.4736 15.4396 22.8075 15.3393 23.528C15.2903 23.8798 15.0804 24.0794 14.7485 24.1995Z" fill="#222224"/>
</svg>
