<svg width="24" height="24" viewBox="0 0 24 24" fill="none" xmlns="http://www.w3.org/2000/svg">
<path d="M24 22.5C24 23.328 23.328 24 22.5 24C21.672 24 21 23.328 21 22.5C21 21.672 21.672 21 22.5 21C23.328 21 24 21.672 24 22.5ZM16.5 18C17.328 18 18 17.328 18 16.5C18 15.672 17.328 15 16.5 15C15.672 15 15 15.672 15 16.5C15 17.328 15.672 18 16.5 18ZM21.18 15L15.347 24H17.821L23.654 15H21.18ZM5.5 12C4.672 12 4 12.672 4 13.5C4 14.328 4.672 15 5.5 15C6.328 15 7 14.328 7 13.5C7 12.672 6.328 12 5.5 12ZM5.5 5C4.672 5 4 5.672 4 6.5C4 7.328 4.672 8 5.5 8C6.328 8 7 7.328 7 6.5C7 5.672 6.328 5 5.5 5ZM20 6.5C20 5.672 19.328 5 18.5 5C17.672 5 17 5.672 17 6.5C17 7.328 17.672 8 18.5 8C19.328 8 20 7.328 20 6.5ZM16 10C16 12.206 14.206 14 12 14C9.794 14 8 12.206 8 10C8 7.794 9.794 6 12 6C14.206 6 16 7.794 16 10ZM14 10C14 8.897 13.103 8 12 8C10.897 8 10 8.897 10 10C10 11.103 10.897 12 12 12C13.103 12 14 11.103 14 10ZM21 2H3C1.346 2 0 3.346 0 5V18H13.35C13.132 17.544 13 17.039 13 16.5C13 16.329 13.027 16.165 13.05 16H2V5C2 4.449 2.448 4 3 4H21C21.552 4 22 4.449 22 5V13H24V5C24 3.346 22.654 2 21 2Z" fill="#222224"/>
</svg>
