<svg width="186" height="54" viewBox="0 0 186 54" fill="none" xmlns="http://www.w3.org/2000/svg">
<path d="M179.111 53.7334H6.88889C3.10172 53.7334 0 50.7092 0 47.0167V6.71673C0 3.02425 3.10172 6.86646e-05 6.88889 6.86646e-05H179.111C182.898 6.86646e-05 186 3.02425 186 6.71673V47.0167C186 50.7092 182.898 53.7334 179.111 53.7334Z" fill="#222224"/>
<path d="M13.344 10.127C12.9393 10.5401 12.7051 11.1832 12.7051 12.0161V41.7239C12.7051 42.5567 12.9393 43.1999 13.344 43.6129L13.4439 43.7036L30.518 27.0631V26.6701L13.4439 10.0296L13.344 10.127Z" fill="#FFDE11"/>
<path d="M38.269 32.6128L32.584 27.0631V26.6702L38.2759 21.1206L38.4034 21.1928L45.1441 24.9323C47.0679 25.9935 47.0679 27.7399 45.1441 28.8078L38.4034 32.5406L38.269 32.6128Z" fill="#FFDE11"/>
<path d="M37.3703 33.5739L31.551 27.9L14.377 44.6463C15.0159 45.3012 16.0578 45.3801 17.2427 44.7252L37.3703 33.5739Z" fill="#FFDE11"/>
<path d="M37.3703 20.1593L17.2427 9.00801C16.0578 8.35985 15.0159 8.43877 14.377 9.09364L31.551 25.8333L37.3703 20.1593Z" fill="#FFDE11"/>
<path d="M65.3308 13.761C65.3308 14.8826 64.9864 15.781 64.3078 16.451C63.5277 17.2452 62.5116 17.6449 61.2664 17.6449C60.0763 17.6449 59.0602 17.2385 58.2267 16.4375C57.3914 15.6248 56.9746 14.6274 56.9746 13.4335C56.9746 12.2396 57.3914 11.2422 58.2267 10.4362C59.0602 9.62853 60.0763 9.22217 61.2664 9.22217C61.8588 9.22217 62.4237 9.34139 62.9628 9.56304C63.5001 9.78637 63.9375 10.0886 64.2544 10.4614L63.5346 11.17C62.9817 10.5336 62.2291 10.2196 61.2664 10.2196C60.3984 10.2196 59.6458 10.5151 59.0068 11.1112C58.3748 11.709 58.0579 12.4831 58.0579 13.4335C58.0579 14.3839 58.3748 15.1647 59.0068 15.7625C59.6458 16.3519 60.3984 16.6542 61.2664 16.6542C62.1878 16.6542 62.9628 16.3519 63.5742 15.7558C63.9772 15.3612 64.2062 14.8171 64.2665 14.122H61.2664V13.1514H65.2688C65.3171 13.3613 65.3308 13.5645 65.3308 13.761Z" fill="#FFDE11" stroke="#FFDE11" stroke-width="0.16" stroke-miterlimit="10"/>
<path d="M71.6814 10.3958H67.9218V12.9481H71.3111V13.9187H67.9218V16.471H71.6814V17.46H66.8574V9.40674H71.6814V10.3958Z" fill="#FFDE11" stroke="#FFDE11" stroke-width="0.16" stroke-miterlimit="10"/>
<path d="M76.1614 17.46H75.0971V10.3958H72.791V9.40674H78.4692V10.3958H76.1614V17.46Z" fill="#FFDE11" stroke="#FFDE11" stroke-width="0.16" stroke-miterlimit="10"/>
<path d="M82.5781 17.46V9.40674H83.6407V17.46H82.5781Z" fill="#FFDE11" stroke="#FFDE11" stroke-width="0.16" stroke-miterlimit="10"/>
<path d="M88.3508 17.46H87.2951V10.3958H84.9805V9.40674H90.6655V10.3958H88.3508V17.46Z" fill="#FFDE11" stroke="#FFDE11" stroke-width="0.16" stroke-miterlimit="10"/>
<path d="M101.417 16.4241C100.602 17.2385 99.5927 17.6449 98.3889 17.6449C97.1782 17.6449 96.1689 17.2385 95.3543 16.4241C94.5414 15.6114 94.1367 14.614 94.1367 13.4335C94.1367 12.2531 94.5414 11.2556 95.3543 10.4429C96.1689 9.62853 97.1782 9.22217 98.3889 9.22217C99.5858 9.22217 100.595 9.62853 101.41 10.4496C102.229 11.2691 102.634 12.2598 102.634 13.4335C102.634 14.614 102.229 15.6114 101.417 16.4241ZM96.1414 15.7491C96.7545 16.3519 97.5002 16.6542 98.3889 16.6542C99.2707 16.6542 100.023 16.3519 100.629 15.7491C101.241 15.1463 101.551 14.3722 101.551 13.4335C101.551 12.4949 101.241 11.7208 100.629 11.1179C100.023 10.5151 99.2707 10.2129 98.3889 10.2129C97.5002 10.2129 96.7545 10.5151 96.1414 11.1179C95.53 11.7208 95.22 12.4949 95.22 13.4335C95.22 14.3722 95.53 15.1463 96.1414 15.7491Z" fill="#FFDE11" stroke="#FFDE11" stroke-width="0.16" stroke-miterlimit="10"/>
<path d="M104.127 17.46V9.40674H105.419L109.435 15.67H109.481L109.435 14.1218V9.40674H110.497V17.46H109.388L105.183 10.8878H105.136L105.183 12.4427V17.46H104.127Z" fill="#FFDE11" stroke="#FFDE11" stroke-width="0.16" stroke-miterlimit="10"/>
<path d="M93.8758 29.221C90.6397 29.221 87.9961 31.6222 87.9961 34.9352C87.9961 38.2213 90.6397 40.6477 93.8758 40.6477C97.1187 40.6477 99.7624 38.2213 99.7624 34.9352C99.7624 31.6222 97.1187 29.221 93.8758 29.221ZM93.8758 38.3977C92.1002 38.3977 90.5726 36.9687 90.5726 34.9352C90.5726 32.8749 92.1002 31.4711 93.8758 31.4711C95.6514 31.4711 97.1859 32.8749 97.1859 34.9352C97.1859 36.9687 95.6514 38.3977 93.8758 38.3977ZM81.047 29.221C77.804 29.221 75.1673 31.6222 75.1673 34.9352C75.1673 38.2213 77.804 40.6477 81.047 40.6477C84.2882 40.6477 86.9266 38.2213 86.9266 34.9352C86.9266 31.6222 84.2882 29.221 81.047 29.221ZM81.047 38.3977C79.2696 38.3977 77.7369 36.9687 77.7369 34.9352C77.7369 32.8749 79.2696 31.4711 81.047 31.4711C82.8226 31.4711 84.3502 32.8749 84.3502 34.9352C84.3502 36.9687 82.8226 38.3977 81.047 38.3977ZM65.7812 30.9724V33.4005H71.728C71.5541 34.7572 71.0891 35.7546 70.3761 36.4498C69.5081 37.2894 68.1561 38.2213 65.7812 38.2213C62.1215 38.2213 59.2557 35.3416 59.2557 31.7733C59.2557 28.2051 62.1215 25.3253 65.7812 25.3253C67.76 25.3253 69.1998 26.0793 70.2624 27.0566L72.0174 25.3455C70.5311 23.9619 68.554 22.8989 65.7812 22.8989C60.7626 22.8989 56.5449 26.8803 56.5449 31.7733C56.5449 36.6664 60.7626 40.6477 65.7812 40.6477C68.4937 40.6477 70.5311 39.7813 72.1327 38.1559C73.774 36.5556 74.2855 34.3055 74.2855 32.4887C74.2855 31.9245 74.2373 31.4056 74.1512 30.9724H65.7812ZM128.205 32.8547C127.721 31.5769 126.228 29.221 123.186 29.221C120.172 29.221 117.663 31.5366 117.663 34.9352C117.663 38.1357 120.147 40.6477 123.476 40.6477C126.167 40.6477 127.721 39.0475 128.36 38.1156L126.362 36.8176C125.696 37.768 124.788 38.3977 123.476 38.3977C122.172 38.3977 121.237 37.815 120.637 36.6664L128.475 33.5046L128.205 32.8547ZM120.214 34.7572C120.147 32.5542 121.969 31.4258 123.274 31.4258C124.297 31.4258 125.165 31.9245 125.454 32.6381L120.214 34.7572ZM113.843 40.3001H116.42V23.5085H113.843V40.3001ZM109.624 30.4938H109.538C108.959 29.8255 107.855 29.221 106.457 29.221C103.522 29.221 100.839 31.733 100.839 34.9537C100.839 38.1559 103.522 40.6477 106.457 40.6477C107.855 40.6477 108.959 40.0382 109.538 39.3497H109.624V40.1692C109.624 42.3538 108.427 43.5275 106.496 43.5275C104.922 43.5275 103.946 42.4193 103.543 41.4873L101.302 42.3991C101.948 43.9137 103.658 45.7776 106.496 45.7776C109.517 45.7776 112.066 44.0447 112.066 39.8283V29.5686H109.624V30.4938ZM106.677 38.3977C104.901 38.3977 103.415 36.9485 103.415 34.9537C103.415 32.9404 104.901 31.4711 106.677 31.4711C108.427 31.4711 109.806 32.9404 109.806 34.9537C109.806 36.9485 108.427 38.3977 106.677 38.3977ZM140.267 23.5085H134.105V40.3001H136.675V33.9378H140.267C143.121 33.9378 145.92 31.9245 145.92 28.7223C145.92 25.5218 143.114 23.5085 140.267 23.5085ZM140.334 31.6021H136.675V25.8442H140.334C142.253 25.8442 143.348 27.3974 143.348 28.7223C143.348 30.022 142.253 31.6021 140.334 31.6021ZM156.218 29.1891C154.362 29.1891 152.431 29.9884 151.637 31.7599L153.918 32.6918C154.408 31.7599 155.311 31.4577 156.265 31.4577C157.598 31.4577 158.95 32.2385 158.971 33.6171V33.7934C158.506 33.5314 157.51 33.1435 156.286 33.1435C153.83 33.1435 151.327 34.4617 151.327 36.9217C151.327 39.1717 153.339 40.6209 155.6 40.6209C157.329 40.6209 158.283 39.8602 158.883 38.9753H158.971V40.2733H161.452V33.832C161.452 30.8548 159.172 29.1891 156.218 29.1891ZM155.908 38.3909C155.068 38.3909 153.897 37.9846 153.897 36.9687C153.897 35.669 155.357 35.1703 156.622 35.1703C157.753 35.1703 158.283 35.4138 158.971 35.7345C158.769 37.2894 157.396 38.3909 155.908 38.3909ZM170.494 29.5568L167.54 36.836H167.453L164.399 29.5568H161.628L166.216 39.7292L163.598 45.3897H166.283L173.353 29.5568H170.494ZM147.332 40.3001H149.908V23.5085H147.332V40.3001Z" fill="#FFDE11"/>
</svg>
