<svg width="186" height="54" viewBox="0 0 186 54" fill="none" xmlns="http://www.w3.org/2000/svg">
<path d="M179.111 53.7334H6.88889C3.10172 53.7334 0 50.7092 0 47.0167V6.71673C0 3.02425 3.10172 6.86646e-05 6.88889 6.86646e-05H179.111C182.898 6.86646e-05 186 3.02425 186 6.71673V47.0167C186 50.7092 182.898 53.7334 179.111 53.7334Z" fill="white"/>
<path d="M179.111 1.07641C182.301 1.07641 184.896 3.60692 184.896 6.71673V47.0167C184.896 50.1265 182.301 52.6571 179.111 52.6571H6.88889C3.69933 52.6571 1.10394 50.1265 1.10394 47.0167V6.71673C1.10394 3.60692 3.69933 1.07641 6.88889 1.07641H179.111ZM179.111 6.86646e-05H6.88889C3.10172 6.86646e-05 0 3.02425 0 6.71673V47.0167C0 50.7092 3.10172 53.7334 6.88889 53.7334H179.111C182.898 53.7334 186 50.7092 186 47.0167V6.71673C186 3.02425 182.898 6.86646e-05 179.111 6.86646e-05Z" fill="#A6A6A6"/>
<path d="M13.344 10.127C12.9393 10.5401 12.7051 11.1832 12.7051 12.0161V41.7239C12.7051 42.5567 12.9393 43.1999 13.344 43.6129L13.4439 43.7036L30.518 27.0631V26.6701L13.4439 10.0296L13.344 10.127Z" fill="#222224"/>
<path d="M38.27 32.6128L32.585 27.0631V26.6702L38.2769 21.1206L38.4043 21.1928L45.1451 24.9323C47.0688 25.9935 47.0688 27.7399 45.1451 28.8078L38.4043 32.5406L38.27 32.6128Z" fill="#222224"/>
<path d="M37.3703 33.5739L31.551 27.9L14.377 44.6463C15.0159 45.3012 16.0578 45.3801 17.2427 44.7252L37.3703 33.5739Z" fill="#222224"/>
<path d="M37.3703 20.1596L17.2427 9.00825C16.0578 8.36009 15.0159 8.43901 14.377 9.09389L31.551 25.8335L37.3703 20.1596Z" fill="#222224"/>
<path d="M65.3308 13.7605C65.3308 14.8821 64.9864 15.7805 64.3078 16.4505C63.5277 17.2447 62.5116 17.6444 61.2664 17.6444C60.0763 17.6444 59.0602 17.238 58.2267 16.4371C57.3914 15.6243 56.9746 14.6269 56.9746 13.433C56.9746 12.2391 57.3914 11.2417 58.2267 10.4357C59.0602 9.62804 60.0763 9.22168 61.2664 9.22168C61.8588 9.22168 62.4237 9.3409 62.9628 9.56255C63.5001 9.78588 63.9375 10.0881 64.2544 10.4609L63.5346 11.1695C62.9817 10.5331 62.2291 10.2191 61.2664 10.2191C60.3984 10.2191 59.6458 10.5146 59.0068 11.1107C58.3748 11.7085 58.0579 12.4826 58.0579 13.433C58.0579 14.3834 58.3748 15.1642 59.0068 15.762C59.6458 16.3514 60.3984 16.6537 61.2664 16.6537C62.1878 16.6537 62.9628 16.3514 63.5742 15.7553C63.9772 15.3607 64.2062 14.8167 64.2665 14.1215H61.2664V13.1509H65.2688C65.3171 13.3608 65.3308 13.564 65.3308 13.7605Z" fill="#222224" stroke="#222224" stroke-width="0.16" stroke-miterlimit="10"/>
<path d="M71.6804 10.3958H67.9208V12.9481H71.3101V13.9187H67.9208V16.471H71.6804V17.46H66.8564V9.40674H71.6804V10.3958Z" fill="#222224" stroke="#222224" stroke-width="0.16" stroke-miterlimit="10"/>
<path d="M76.1614 17.46H75.0971V10.3958H72.791V9.40674H78.4692V10.3958H76.1614V17.46Z" fill="#222224" stroke="#222224" stroke-width="0.16" stroke-miterlimit="10"/>
<path d="M82.5791 17.46V9.40674H83.6417V17.46H82.5791Z" fill="#222224" stroke="#222224" stroke-width="0.16" stroke-miterlimit="10"/>
<path d="M88.3518 17.46H87.2961V10.3958H84.9814V9.40674H90.6665V10.3958H88.3518V17.46Z" fill="#222224" stroke="#222224" stroke-width="0.16" stroke-miterlimit="10"/>
<path d="M101.417 16.4236C100.602 17.238 99.5927 17.6444 98.3889 17.6444C97.1782 17.6444 96.1689 17.238 95.3543 16.4236C94.5414 15.6109 94.1367 14.6135 94.1367 13.433C94.1367 12.2526 94.5414 11.2552 95.3543 10.4424C96.1689 9.62804 97.1782 9.22168 98.3889 9.22168C99.5858 9.22168 100.595 9.62804 101.41 10.4492C102.229 11.2686 102.634 12.2593 102.634 13.433C102.634 14.6135 102.229 15.6109 101.417 16.4236ZM96.1414 15.7486C96.7545 16.3514 97.5002 16.6537 98.3889 16.6537C99.2707 16.6537 100.023 16.3514 100.629 15.7486C101.241 15.1458 101.551 14.3717 101.551 13.433C101.551 12.4944 101.241 11.7203 100.629 11.1175C100.023 10.5146 99.2707 10.2124 98.3889 10.2124C97.5002 10.2124 96.7545 10.5146 96.1414 11.1175C95.53 11.7203 95.22 12.4944 95.22 13.433C95.22 14.3717 95.53 15.1458 96.1414 15.7486Z" fill="#222224" stroke="#222224" stroke-width="0.16" stroke-miterlimit="10"/>
<path d="M104.127 17.46V9.40674H105.419L109.435 15.67H109.481L109.435 14.1218V9.40674H110.497V17.46H109.388L105.183 10.8878H105.136L105.183 12.4427V17.46H104.127Z" fill="#222224" stroke="#222224" stroke-width="0.16" stroke-miterlimit="10"/>
<path d="M93.8748 29.2213C90.6388 29.2213 87.9952 31.6225 87.9952 34.9355C87.9952 38.2216 90.6388 40.648 93.8748 40.648C97.1178 40.648 99.7614 38.2216 99.7614 34.9355C99.7614 31.6225 97.1178 29.2213 93.8748 29.2213ZM93.8748 38.3979C92.0992 38.3979 90.5716 36.9689 90.5716 34.9355C90.5716 32.8751 92.0992 31.4713 93.8748 31.4713C95.6504 31.4713 97.1849 32.8751 97.1849 34.9355C97.1849 36.9689 95.6504 38.3979 93.8748 38.3979ZM81.046 29.2213C77.803 29.2213 75.1663 31.6225 75.1663 34.9355C75.1663 38.2216 77.803 40.648 81.046 40.648C84.2872 40.648 86.9257 38.2216 86.9257 34.9355C86.9257 31.6225 84.2872 29.2213 81.046 29.2213ZM81.046 38.3979C79.2687 38.3979 77.7359 36.9689 77.7359 34.9355C77.7359 32.8751 79.2687 31.4713 81.046 31.4713C82.8216 31.4713 84.3492 32.8751 84.3492 34.9355C84.3492 36.9689 82.8216 38.3979 81.046 38.3979ZM65.7802 30.9726V33.4007H71.727C71.5531 34.7575 71.0881 35.7549 70.3751 36.4501C69.5071 37.2896 68.1552 38.2216 65.7802 38.2216C62.1205 38.2216 59.2547 35.3418 59.2547 31.7736C59.2547 28.2054 62.1205 25.3256 65.7802 25.3256C67.7591 25.3256 69.1988 26.0795 70.2614 27.0568L72.0164 25.3457C70.5301 23.9621 68.553 22.8992 65.7802 22.8992C60.7617 22.8992 56.5439 26.8805 56.5439 31.7736C56.5439 36.6667 60.7617 40.648 65.7802 40.648C68.4927 40.648 70.5301 39.7815 72.1318 38.1561C73.773 36.5559 74.2845 34.3058 74.2845 32.4889C74.2845 31.9247 74.2363 31.4058 74.1502 30.9726H65.7802ZM128.204 32.855C127.72 31.5771 126.227 29.2213 123.185 29.2213C120.171 29.2213 117.662 31.5368 117.662 34.9355C117.662 38.1359 120.146 40.648 123.475 40.648C126.166 40.648 127.72 39.0477 128.359 38.1158L126.361 36.8178C125.695 37.7682 124.787 38.3979 123.475 38.3979C122.171 38.3979 121.236 37.8152 120.636 36.6667L128.474 33.5048L128.204 32.855ZM120.213 34.7575C120.146 32.5544 121.968 31.426 123.273 31.426C124.296 31.426 125.164 31.9247 125.453 32.6384L120.213 34.7575ZM113.842 40.3004H116.419V23.5087H113.842V40.3004ZM109.623 30.4941H109.537C108.958 29.8258 107.854 29.2213 106.456 29.2213C103.521 29.2213 100.838 31.7333 100.838 34.9539C100.838 38.1561 103.521 40.648 106.456 40.648C107.854 40.648 108.958 40.0384 109.537 39.35H109.623V40.1694C109.623 42.354 108.426 43.5277 106.495 43.5277C104.921 43.5277 103.945 42.4195 103.542 41.4876L101.301 42.3993C101.947 43.914 103.657 45.7778 106.495 45.7778C109.516 45.7778 112.065 44.0449 112.065 39.8285V29.5688H109.623V30.4941ZM106.676 38.3979C104.9 38.3979 103.414 36.9488 103.414 34.9539C103.414 32.9406 104.9 31.4713 106.676 31.4713C108.426 31.4713 109.805 32.9406 109.805 34.9539C109.805 36.9488 108.426 38.3979 106.676 38.3979ZM140.266 23.5087H134.104V40.3004H136.674V33.938H140.266C143.12 33.938 145.919 31.9247 145.919 28.7225C145.919 25.522 143.113 23.5087 140.266 23.5087ZM140.333 31.6023H136.674V25.8445H140.333C142.252 25.8445 143.347 27.3977 143.347 28.7225C143.347 30.0222 142.252 31.6023 140.333 31.6023ZM156.218 29.1893C154.361 29.1893 152.43 29.9886 151.636 31.7602L153.917 32.6921C154.407 31.7602 155.31 31.4579 156.264 31.4579C157.597 31.4579 158.949 32.2387 158.97 33.6173V33.7936C158.505 33.5317 157.509 33.1438 156.285 33.1438C153.829 33.1438 151.326 34.4619 151.326 36.9219C151.326 39.172 153.338 40.6211 155.599 40.6211C157.328 40.6211 158.282 39.8605 158.882 38.9755H158.97V40.2735H161.451V33.8322C161.451 30.8551 159.171 29.1893 156.218 29.1893ZM155.908 38.3912C155.067 38.3912 153.896 37.9848 153.896 36.9689C153.896 35.6693 155.356 35.1705 156.621 35.1705C157.752 35.1705 158.282 35.414 158.97 35.7347C158.768 37.2896 157.396 38.3912 155.908 38.3912ZM170.493 29.5571L167.539 36.8363H167.452L164.398 29.5571H161.627L166.215 39.7295L163.597 45.3899H166.282L173.352 29.5571H170.493ZM147.331 40.3004H149.907V23.5087H147.331V40.3004Z" fill="#222224"/>
</svg>
