<svg width="103" height="30" viewBox="0 0 103 30" fill="none" xmlns="http://www.w3.org/2000/svg">
<path d="M99.1852 29.7559H3.81481C1.71762 29.7559 0 28.0812 0 26.0364V3.71975C0 1.67499 1.71762 0.00030756 3.81481 0.00030756H99.1852C101.282 0.00030756 103 1.67499 103 3.71975V26.0364C103 28.0812 101.282 29.7559 99.1852 29.7559Z" fill="white"/>
<path d="M99.1852 0.596347C100.951 0.596347 102.389 1.99765 102.389 3.71975V26.0364C102.389 27.7585 100.951 29.1598 99.1852 29.1598H3.81481C2.04856 29.1598 0.611324 27.7585 0.611324 26.0364V3.71975C0.611324 1.99765 2.04856 0.596347 3.81481 0.596347H99.1852ZM99.1852 0.00030756H3.81481C1.71762 0.00030756 0 1.67499 0 3.71975V26.0364C0 28.0812 1.71762 29.7559 3.81481 29.7559H99.1852C101.282 29.7559 103 28.0812 103 26.0364V3.71975C103 1.67499 101.282 0.00030756 99.1852 0.00030756Z" fill="#A6A6A6"/>
<path d="M7.38898 5.60815C7.16486 5.8369 7.03516 6.19304 7.03516 6.65425V23.1054C7.03516 23.5666 7.16486 23.9227 7.38898 24.1514L7.44429 24.2017L16.8993 14.9867V14.7691L7.44429 5.55422L7.38898 5.60815Z" fill="#222224"/>
<path d="M21.1911 18.0596L18.043 14.9864V14.7688L21.195 11.6956L21.2655 11.7356L24.9983 13.8064C26.0636 14.3941 26.0636 15.3611 24.9983 15.9525L21.2655 18.0196L21.1911 18.0596Z" fill="#222224"/>
<path d="M20.6938 18.5922L17.4713 15.4502L7.96094 24.7237C8.31476 25.0864 8.89175 25.1301 9.5479 24.7674L20.6938 18.5922Z" fill="#222224"/>
<path d="M20.6938 11.1637L9.5479 4.98846C8.89175 4.62953 8.31476 4.67323 7.96094 5.03588L17.4713 14.3057L20.6938 11.1637Z" fill="#222224"/>
<path d="M36.1781 7.61986C36.1781 8.24101 35.9874 8.73848 35.6117 9.1095C35.1796 9.54932 34.6169 9.77063 33.9274 9.77063C33.2684 9.77063 32.7057 9.5456 32.2441 9.10206C31.7816 8.652 31.5508 8.09967 31.5508 7.43854C31.5508 6.77741 31.7816 6.22507 32.2441 5.77874C32.7057 5.33147 33.2684 5.10645 33.9274 5.10645C34.2555 5.10645 34.5683 5.17247 34.8668 5.29521C35.1644 5.41888 35.4066 5.58625 35.5821 5.79268L35.1834 6.18508C34.8773 5.83267 34.4605 5.65878 33.9274 5.65878C33.4467 5.65878 33.03 5.82244 32.6762 6.15254C32.3261 6.48357 32.1507 6.91224 32.1507 7.43854C32.1507 7.96484 32.3261 8.39722 32.6762 8.72825C33.03 9.05463 33.4467 9.22201 33.9274 9.22201C34.4376 9.22201 34.8668 9.05463 35.2054 8.72453C35.4285 8.50602 35.5554 8.20474 35.5888 7.81978H33.9274V7.28232H36.1438C36.1705 7.39855 36.1781 7.51107 36.1781 7.61986Z" fill="#222224" stroke="#222224" stroke-width="0.16" stroke-miterlimit="10"/>
<path d="M39.6948 5.75667H37.6128V7.17006H39.4897V7.70752H37.6128V9.12091H39.6948V9.6686H37.0234V5.20898H39.6948V5.75667Z" fill="#222224" stroke="#222224" stroke-width="0.16" stroke-miterlimit="10"/>
<path d="M42.175 9.6686H41.5856V5.75667H40.3086V5.20898H43.453V5.75667H42.175V9.6686Z" fill="#222224" stroke="#222224" stroke-width="0.16" stroke-miterlimit="10"/>
<path d="M45.7285 9.6686V5.20898H46.317V9.6686H45.7285Z" fill="#222224" stroke="#222224" stroke-width="0.16" stroke-miterlimit="10"/>
<path d="M48.9269 9.6686H48.3423V5.75667H47.0605V5.20898H50.2087V5.75667H48.9269V9.6686Z" fill="#222224" stroke="#222224" stroke-width="0.16" stroke-miterlimit="10"/>
<path d="M56.1602 9.09462C55.7091 9.5456 55.1502 9.77063 54.4836 9.77063C53.8131 9.77063 53.2543 9.5456 52.8032 9.09462C52.353 8.64457 52.1289 8.09223 52.1289 7.43854C52.1289 6.78484 52.353 6.23251 52.8032 5.78245C53.2543 5.33147 53.8131 5.10645 54.4836 5.10645C55.1464 5.10645 55.7053 5.33147 56.1564 5.78617C56.6104 6.23995 56.8345 6.78856 56.8345 7.43854C56.8345 8.09223 56.6104 8.64457 56.1602 9.09462ZM53.239 8.72081C53.5785 9.05463 53.9915 9.22201 54.4836 9.22201C54.9719 9.22201 55.3887 9.05463 55.7244 8.72081C56.0629 8.38699 56.2346 7.95833 56.2346 7.43854C56.2346 6.91874 56.0629 6.49008 55.7244 6.15626C55.3887 5.82244 54.9719 5.65506 54.4836 5.65506C53.9915 5.65506 53.5785 5.82244 53.239 6.15626C52.9005 6.49008 52.7288 6.91874 52.7288 7.43854C52.7288 7.95833 52.9005 8.38699 53.239 8.72081Z" fill="#222224" stroke="#222224" stroke-width="0.16" stroke-miterlimit="10"/>
<path d="M57.6621 9.6686V5.20898H58.3774L60.6014 8.67736H60.6272L60.6014 7.82003V5.20898H61.1899V9.6686H60.5757L58.2467 6.02912H58.221L58.2467 6.89017V9.6686H57.6621Z" fill="#222224" stroke="#222224" stroke-width="0.16" stroke-miterlimit="10"/>
<path d="M51.985 16.1822C50.193 16.1822 48.729 17.5119 48.729 19.3465C48.729 21.1662 50.193 22.5099 51.985 22.5099C53.7808 22.5099 55.2447 21.1662 55.2447 19.3465C55.2447 17.5119 53.7808 16.1822 51.985 16.1822ZM51.985 21.2638C51.0017 21.2638 50.1558 20.4725 50.1558 19.3465C50.1558 18.2055 51.0017 17.4282 51.985 17.4282C52.9682 17.4282 53.818 18.2055 53.818 19.3465C53.818 20.4725 52.9682 21.2638 51.985 21.2638ZM44.8808 16.1822C43.085 16.1822 41.6249 17.5119 41.6249 19.3465C41.6249 21.1662 43.085 22.5099 44.8808 22.5099C46.6757 22.5099 48.1368 21.1662 48.1368 19.3465C48.1368 17.5119 46.6757 16.1822 44.8808 16.1822ZM44.8808 21.2638C43.8966 21.2638 43.0478 20.4725 43.0478 19.3465C43.0478 18.2055 43.8966 17.4282 44.8808 17.4282C45.8641 17.4282 46.71 18.2055 46.71 19.3465C46.71 20.4725 45.8641 21.2638 44.8808 21.2638ZM36.4272 17.152V18.4966H39.7203C39.624 19.2479 39.3665 19.8002 38.9717 20.1852C38.491 20.6501 37.7424 21.1662 36.4272 21.1662C34.4006 21.1662 32.8136 19.5715 32.8136 17.5955C32.8136 15.6196 34.4006 14.0249 36.4272 14.0249C37.523 14.0249 38.3203 14.4424 38.9087 14.9836L39.8806 14.036C39.0575 13.2698 37.9627 12.6812 36.4272 12.6812C33.6481 12.6812 31.3125 14.8859 31.3125 17.5955C31.3125 20.3052 33.6481 22.5099 36.4272 22.5099C37.9293 22.5099 39.0575 22.0301 39.9445 21.1299C40.8533 20.2438 41.1366 18.9978 41.1366 17.9917C41.1366 17.6792 41.1099 17.3919 41.0622 17.152H36.4272ZM70.9951 18.1944C70.7272 17.4868 69.9003 16.1822 68.216 16.1822C66.5471 16.1822 65.1575 17.4644 65.1575 19.3465C65.1575 21.1188 66.5328 22.5099 68.3763 22.5099C69.8669 22.5099 70.7271 21.6237 71.081 21.1076L69.9747 20.3888C69.6056 20.9152 69.103 21.2638 68.3763 21.2638C67.6543 21.2638 67.1365 20.9412 66.8046 20.3052L71.1449 18.5542L70.9951 18.1944ZM66.57 19.2479C66.5328 18.0279 67.5418 17.4031 68.2647 17.4031C68.8312 17.4031 69.3119 17.6792 69.4721 18.0744L66.57 19.2479ZM63.0422 22.3174H64.4689V13.0188H63.0422V22.3174ZM60.7056 16.887H60.6579C60.3375 16.5169 59.7262 16.1822 58.9518 16.1822C57.3267 16.1822 55.8408 17.5732 55.8408 19.3567C55.8408 21.1299 57.3267 22.5099 58.9518 22.5099C59.7262 22.5099 60.3375 22.1723 60.6579 21.7911H60.7056V22.2449C60.7056 23.4546 60.0428 24.1046 58.9737 24.1046C58.102 24.1046 57.5613 23.4909 57.3381 22.9748L56.0973 23.4797C56.455 24.3184 57.402 25.3506 58.9737 25.3506C60.6465 25.3506 62.058 24.391 62.058 22.0561V16.3746H60.7056V16.887ZM59.0738 21.2638C58.0906 21.2638 57.2675 20.4614 57.2675 19.3567C57.2675 18.2418 58.0906 17.4282 59.0738 17.4282C60.0428 17.4282 60.8067 18.2418 60.8067 19.3567C60.8067 20.4614 60.0428 21.2638 59.0738 21.2638ZM77.6749 13.0188H74.2625V22.3174H75.6855V18.7941H77.6749C79.2552 18.7941 80.8049 17.6792 80.8049 15.906C80.8049 14.1337 79.2513 13.0188 77.6749 13.0188ZM77.7121 17.5007H75.6855V14.3122H77.7121C78.7745 14.3122 79.3811 15.1723 79.3811 15.906C79.3811 16.6257 78.7745 17.5007 77.7121 17.5007ZM86.5081 16.1645C85.48 16.1645 84.4109 16.6071 83.9712 17.5881L85.2339 18.1042C85.5057 17.5881 86.0055 17.4207 86.5338 17.4207C87.272 17.4207 88.0206 17.8531 88.0321 18.6165V18.7142C87.7746 18.5691 87.2234 18.3543 86.5453 18.3543C85.1853 18.3543 83.7996 19.0843 83.7996 20.4465C83.7996 21.6925 84.9135 22.495 86.1657 22.495C87.1232 22.495 87.6516 22.0738 87.9835 21.5837H88.0321V22.3025H89.4064V18.7356C89.4064 17.0869 88.1437 16.1645 86.5081 16.1645ZM86.3364 21.2601C85.871 21.2601 85.2225 21.0351 85.2225 20.4725C85.2225 19.7528 86.0312 19.4767 86.7312 19.4767C87.3578 19.4767 87.6516 19.6115 88.0321 19.7891C87.9205 20.6501 87.1604 21.2601 86.3364 21.2601ZM94.4133 16.3681L92.7777 20.3991H92.7291L91.0382 16.3681H89.5037L92.0443 22.0012L90.5947 25.1358H92.0815L95.9965 16.3681H94.4133ZM81.587 22.3174H83.0137V13.0188H81.587V22.3174Z" fill="#222224"/>
</svg>
