<svg width="40" height="40" viewBox="0 0 40 40" fill="none" xmlns="http://www.w3.org/2000/svg">
<path d="M7.63343 12.6543C9.12249 11.0591 9.97218 12.4191 11.1921 13.2483L11.2071 13.2583C11.1444 12.99 11.0385 12.724 10.9595 12.4591C10.2958 10.2342 10.434 8.03859 12.5408 6.64356C12.4036 6.32782 12.0756 5.97714 12.1839 5.61408C12.2848 5.27577 12.6804 5.04025 13.021 5.16953C13.367 5.30087 13.6018 5.91174 13.7466 6.23166C17.2458 6.15172 18.6998 9.69352 19.369 12.5369C20.2158 10.8103 21.5228 9.58969 23.5937 9.7836C24.4983 9.86828 25.4878 10.3013 26.0777 11.0099C26.4841 10.1152 26.7313 9.36477 26.6416 8.365C26.3592 5.22177 24.9667 7.02201 24.893 5.81628C24.8263 4.72405 27.6074 4.64218 27.7727 7.91125C29.7 5.69454 32.2844 7.14917 31.1423 7.99805C30.7559 8.28524 30.4641 7.98563 30.0677 7.95453C28.7562 7.85164 27.7001 10.1392 27.2885 11.2351C29.6393 10.7791 31.637 12.0282 32.1947 14.38C32.5216 15.7587 32.213 16.8638 31.4994 18.0203C32.6958 18.0383 33.6622 17.8336 34.2108 19.1616C34.3408 19.6684 34.2955 20.206 34.2951 20.7238C34.2941 22.097 34.2448 23.0045 32.646 23.2739C32.1471 25.5716 31.8165 27.9852 31.3553 30.3084C31.1798 31.1925 31.1757 32.1417 30.6396 32.903C29.8658 34.0018 28.7498 34.0297 27.5413 34.029L12.3571 34.0292C10.9215 34.0336 9.67811 33.9404 9.02936 32.3327C8.86108 31.9156 8.80132 31.4483 8.72069 31.0078L7.36398 23.2739C6.07235 23.2657 5.71346 22.1003 5.71138 21.0176L5.71095 20.0688C5.70768 18.4355 6.32739 18.0163 7.89811 18.0191L8.97585 18.0203C8.52554 17.558 7.85811 17.0331 7.3569 16.6195C6.08598 15.5708 5.61139 15 6.82622 13.6108C6.58198 13.4143 6.13969 13.1522 6.08158 12.8321C6.02006 12.4932 6.27157 12.1545 6.61179 12.1104C6.97646 12.063 7.36652 12.4488 7.63343 12.6543ZM13.6076 7.44061C11.9889 7.87992 11.549 10.3173 12.0276 11.7307C12.7036 11.648 13.3812 11.4222 13.9951 11.1266C14.3594 10.9511 14.8411 10.5523 15.24 10.8638C15.5143 11.078 15.534 11.5016 15.3126 11.7598C14.9273 12.2091 13.0224 12.8066 12.3735 12.9013C12.7092 14.0339 12.6876 14.7409 13.8351 15.3293C14.9376 15.8945 16.1097 14.4294 16.7092 14.6977C17.1453 14.8928 17.1052 15.4127 16.8747 15.748C16.2994 16.1003 15.7634 16.3805 15.0964 16.5239L16.3299 17.5615C16.5071 17.71 16.6843 17.8934 16.8747 18.0203C17.8099 18.0309 18.7463 18.02 19.6817 18.0203C19.5344 17.3678 19.3379 16.7269 19.1536 16.0841L18.4452 13.6105C18.1445 12.5835 17.6757 10.762 17.2085 9.85781C16.5184 8.52227 15.2073 7.33473 13.6076 7.44061ZM22.96 11.0099C21.8878 11.1216 21.0337 11.8886 20.5473 12.8123C19.8646 14.1094 19.9055 14.2102 20.2579 15.4396C20.5029 16.2945 20.7819 17.1552 20.9861 18.0203H28.9162H29.9274C32.8348 15.247 29.8044 10.4405 26.1631 13.1482C25.6253 12.0011 24.34 10.7695 22.96 11.0099ZM8.97585 13.1482C8.56202 13.2534 7.58749 14.577 7.37865 14.9304L7.36398 14.9557C7.56744 15.2378 7.91007 15.4511 8.17726 15.6752L9.70616 16.9674C10.1107 17.3094 10.4903 17.6945 10.9067 18.0203H13.3693H14.9593C14.1273 17.1601 12.8877 16.243 11.9555 15.477L10.1677 14.0066C9.94647 13.8255 9.24851 13.1484 8.97585 13.1482ZM30.9717 19.2565L8.26218 19.2559C6.55101 19.2528 6.90871 19.306 6.9142 21.0105C6.91743 22.0114 6.994 22.0128 7.96499 22.0098L9.05288 22.0094L31.457 22.01C32.6617 22.0105 33.0588 22.3284 33.0674 20.9789C33.0699 20.5916 33.0845 20.1992 33.07 19.8125C33.0446 19.1367 32.5159 19.2484 32.0219 19.253L30.9717 19.2565ZM20.8155 23.2739H8.65374C8.70327 23.7366 8.80155 24.1929 8.88272 24.6509L9.4796 28.0952C9.64882 29.0607 9.86272 30.0173 10.0273 30.9841C10.2926 32.5418 10.4617 32.8 12.2062 32.7976L19.2482 32.7962L27.6372 32.7976C29.8647 32.8013 29.7641 32.3264 30.1294 30.1297L31.0483 25.0775C31.158 24.4804 31.2845 23.8802 31.3291 23.2739H20.8155Z" fill="#222224"/>
<path d="M13.8419 31.0653C13.4811 31.1045 13.2283 30.9902 13.102 30.6323C12.8968 30.0503 12.7694 29.266 12.6155 28.648L12.166 26.8484C12.0084 26.2207 11.5319 25.1989 12.3733 24.9465C13.0294 24.8898 13.0857 25.4293 13.2151 25.9243C13.3401 26.403 13.4502 26.8849 13.5698 27.365L14.0569 29.3291C14.218 29.9914 14.617 30.7276 13.8419 31.0653Z" fill="#222224"/>
<path d="M17.8417 31.145C17.5944 31.1737 17.2348 31.0556 17.1565 30.79C17.0585 30.4573 17.1087 28.7523 17.1086 28.3111L17.1089 26.6309C17.1091 26.0188 16.9281 25.1684 17.6257 24.9465C17.8934 24.9395 18.2289 25.0366 18.3181 25.3248C18.4117 25.6272 18.3839 29.9033 18.3502 30.5591C18.3331 30.8905 18.148 31.0395 17.8417 31.145Z" fill="#222224"/>
<path d="M26.4029 31.0653C26.1489 31.0966 25.801 30.952 25.7372 30.6786C25.6454 30.2852 26.9061 25.3677 27.0195 25.2023C27.1264 25.0464 27.296 24.9786 27.4754 24.9465C27.7399 24.9408 28.0816 25.1381 28.1316 25.4136C28.1874 25.7211 27.229 29.7281 27.0266 30.4469C26.9251 30.8073 26.7995 30.9924 26.4029 31.0653Z" fill="#222224"/>
<path d="M22.4275 31.0653C22.1401 31.1166 21.8443 30.9759 21.7324 30.6965C21.6073 30.3839 21.6246 26.2866 21.6679 25.5363C21.6857 25.2273 21.8464 25.0478 22.1413 24.9465C22.4004 24.9366 22.6772 24.9984 22.8214 25.2368C22.9299 25.4163 22.9676 30.2767 22.8509 30.6498C22.7879 30.8513 22.6025 30.9704 22.4275 31.0653Z" fill="#222224"/>
</svg>
