<svg width="40" height="40" viewBox="0 0 40 40" fill="none" xmlns="http://www.w3.org/2000/svg">
<path d="M9.89844 12.0553L9.89938 7.77478C9.89945 7.2077 9.66891 5.74798 10.1728 5.4883C10.5237 5.46705 10.887 5.48726 11.2391 5.48755L15.372 5.48748C15.8808 5.48726 16.7897 5.28153 16.8315 5.92611C16.8554 6.29416 16.8744 7.37284 16.8167 7.71648C16.7415 8.16437 16.0922 8.04203 15.7721 8.04086L14.5293 8.03976V12.0553C14.9608 12.0584 15.6552 11.9131 15.9765 12.2574C16.0017 12.5492 15.9779 12.8597 15.9776 13.1537L15.9765 15.0125C16.4203 15.0541 16.5695 15.1266 16.5631 15.5845C16.5576 15.9805 16.5223 16.3749 16.5119 16.7704L16.2092 28.0937C16.192 28.9222 16.4051 30.5351 15.6405 31.0057C15.607 31.5904 15.6398 32.1961 15.6405 32.7832C15.6627 33.5421 15.6268 33.7132 14.8355 33.7282C13.6305 33.7511 12.4205 33.7309 11.2149 33.7305L10.0265 33.7298C8.75367 33.7285 8.7668 33.8258 8.76688 32.4991L8.76828 31.0057C8.1225 30.5666 8.31039 29.8248 8.28563 29.1407C8.23875 27.8459 8.24656 26.5535 8.20203 25.2711L7.97852 18.793C7.94273 17.7025 7.88172 16.6037 7.88086 15.513C7.88055 15.0367 8.04336 15.0007 8.48156 15.0125L8.4807 13.3653C8.48023 11.882 8.36406 12.0505 9.89844 12.0553ZM10.7634 6.33931V12.0553H13.6662V9.71312L13.6649 8.31117C13.6645 7.26265 13.567 7.19401 14.744 7.19578L15.9765 7.19643V6.33931H10.7634ZM9.33586 12.8703V15.0125H15.1383V12.8703H9.33586ZM8.74734 15.8622C8.71586 16.6197 8.78977 17.398 8.81078 18.1572L9.12172 28.4207C9.12969 28.7461 9.10508 29.9886 9.18063 30.2065C9.295 30.5362 12.1059 30.3626 12.6026 30.3627L14.1233 30.3655C14.5811 30.3663 15.3071 30.5441 15.3291 29.9933C15.327 29.0848 15.3676 28.1801 15.4033 27.2725L15.6752 17.5312C15.6952 16.9762 15.7347 16.4171 15.7093 15.8622H8.74734ZM9.79758 31.2134C9.51805 31.2451 9.62508 31.575 9.62508 31.862L9.62602 32.8733H14.6728C14.9368 32.861 14.7984 31.5111 14.8002 31.2134H9.79758Z" fill="#222224"/>
<path d="M26.0259 9.63211C26.33 7.40788 27.6738 6.25995 29.6138 5.4883C29.836 5.51069 29.9623 5.57698 30.0981 5.76518V9.58508C30.6437 9.57391 30.5033 10.1401 30.5033 10.5168L30.5025 15.7936C31.3237 15.682 31.0288 16.8888 31.0266 17.5159C32.3808 17.9095 32.1708 18.9322 32.1705 20.0293L32.1784 31.8366C32.1838 32.7344 31.5779 33.538 30.6777 33.6968C30.2991 33.7637 29.8791 33.7308 29.4953 33.7306L20.3805 33.7296C17.9205 33.7319 17.786 32.7821 17.7866 30.5244L17.7866 26.3496C17.7859 24.9095 17.6512 25.0695 18.9337 24.3286C20.6353 23.3455 21.9672 23.1003 23.9134 23.1036L23.9127 20.2664C23.9128 19.1875 23.7157 17.8224 25.1021 17.5159C25.1014 17.1358 25.0598 16.3951 25.1145 16.0545C25.1726 15.6927 25.3637 15.7417 25.6668 15.7936L25.6663 10.7327C25.6662 10.3251 25.5277 9.70242 26.0259 9.63211ZM29.2409 6.5615C28.2654 7.02589 27.4307 7.86477 27.068 8.89656C27.0277 9.01086 26.877 9.47914 26.9159 9.57469L26.9367 9.58508H29.2409L29.2402 7.18044C29.2407 7.05862 29.29 6.65055 29.2534 6.56509L29.2409 6.5615ZM26.5039 10.4266V15.7936L28.7552 15.7946C29.0058 15.7948 29.4388 15.8281 29.6679 15.7936V10.4266H26.5039ZM25.9488 16.6424C25.9466 16.9327 25.9355 17.2261 25.9488 17.5159H30.1638V16.6424H25.9488ZM25.4583 18.359C24.4833 18.3836 24.7567 19.6251 24.757 20.3222L24.7573 23.211C26.1968 23.3908 27.8605 24.1759 28.9829 25.0948C29.0057 25.566 28.983 26.0477 28.9827 26.5202L28.9845 31.1162C28.9859 31.8267 29.0538 32.2695 28.6194 32.8733H30.2838C31.0515 32.9033 31.3354 32.3593 31.3427 31.6596C31.3721 28.8227 31.3434 25.982 31.3432 23.1447L31.3445 20.3429C31.3451 19.862 31.4955 18.8987 31.1392 18.5305C30.9052 18.2887 30.4286 18.3586 30.1242 18.3584L25.4583 18.359ZM22.9395 23.9641C21.387 24.113 19.8824 24.5453 18.6478 25.5486C18.6468 26.0752 18.6388 26.603 18.6478 27.1295H23.9134H28.1366C28.1466 26.6216 28.1646 26.0518 28.1366 25.5486C26.6299 24.422 24.818 23.866 22.9395 23.9641ZM19.0486 27.9645C18.9141 27.9705 18.7823 27.9702 18.6478 27.9645L18.6471 30.5377C18.6472 31.2818 18.442 32.7309 19.5059 32.8653C19.7869 32.9008 20.0969 32.8754 20.3816 32.8748L25.4145 32.8734C26.1377 32.8735 26.8999 32.9581 27.6068 32.7832C28.3973 31.9805 28.1391 31.4518 28.1372 30.3355L28.1366 27.9645H19.0486Z" fill="#222224"/>
</svg>
