<svg width="40" height="40" viewBox="0 0 40 40" fill="none" xmlns="http://www.w3.org/2000/svg">
<g clip-path="url(#clip0_11795_10229)">
<path d="M31.6667 6.66667H25V5C25 2.24333 22.7567 0 20 0C17.2433 0 15 2.24333 15 5V6.66667H8.33333C3.73833 6.66667 0 10.405 0 15V31.6667C0 36.2617 3.73833 40 8.33333 40H31.6667C36.2617 40 40 36.2617 40 31.6667V15C40 10.405 36.2617 6.66667 31.6667 6.66667ZM18.3333 5C18.3333 4.08 19.0817 3.33333 20 3.33333C20.9183 3.33333 21.6667 4.08 21.6667 5V8.325C21.6667 8.325 21.6667 8.33 21.6667 8.33333C21.6667 8.33667 21.6667 8.33833 21.6667 8.34167V10H18.3317V5H18.3333ZM36.6667 31.6667C36.6667 34.4233 34.4233 36.6667 31.6667 36.6667H8.33333C5.57667 36.6667 3.33333 34.4233 3.33333 31.6667V15C3.33333 12.2433 5.57667 10 8.33333 10H15C15 11.8383 16.495 13.3333 18.3333 13.3333H21.6667C23.505 13.3333 25 11.8383 25 10H31.6667C34.4233 10 36.6667 12.2433 36.6667 15V31.6667ZM15.8333 20.8333C15.8333 18.5317 17.6983 16.6667 20 16.6667C22.3017 16.6667 24.1667 18.5317 24.1667 20.8333C24.1667 23.135 22.3017 25 20 25C17.6983 25 15.8333 23.135 15.8333 20.8333ZM28.28 32.9183C28.51 33.8083 27.9733 34.7183 27.0817 34.9483C26.185 35.18 25.2817 34.64 25.0517 33.7483C24.5 31.6117 22.3283 30 19.9983 30C17.6683 30 15.495 31.6117 14.945 33.7483C14.7517 34.5 14.075 35 13.3317 35C13.195 35 13.055 34.9833 12.915 34.9483C12.0233 34.7183 11.4867 33.81 11.7167 32.9183C12.6483 29.295 16.13 26.6667 19.9967 26.6667C23.8633 26.6667 27.345 29.295 28.2767 32.9183H28.28Z" fill="#222224"/>
</g>
<defs>
<clipPath id="clip0_11795_10229">
<rect width="40" height="40" fill="white"/>
</clipPath>
</defs>
</svg>
