<svg width="27" height="26" viewBox="0 0 27 26" fill="none" xmlns="http://www.w3.org/2000/svg">
<path d="M21.8855 25.6836H4.87382C2.52304 25.6836 0.602539 23.7631 0.602539 21.4124V4.40068C0.602539 2.0499 2.52304 0.129395 4.87382 0.129395H21.8855C24.2363 0.129395 26.1568 2.0499 26.1568 4.40068V21.4124C26.1568 23.7736 24.2468 25.6836 21.8855 25.6836Z" fill="#FFDE11"/>
<path d="M13.3853 19.4707C11.6327 19.4707 9.98503 18.7886 8.74667 17.5502C7.50832 16.3119 6.82617 14.6642 6.82617 12.9116C6.82617 11.159 7.50832 9.5114 8.74667 8.27304C9.98503 7.03469 11.6327 6.35254 13.3853 6.35254C15.1379 6.35254 16.7855 7.03469 18.0239 8.27304C19.2622 9.5114 19.9444 11.159 19.9444 12.9116C19.9444 14.6642 19.2622 16.3119 18.0239 17.5502C16.775 18.7886 15.1379 19.4707 13.3853 19.4707ZM13.3853 7.74831C10.5412 7.74831 8.22195 10.0571 8.22195 12.9116C8.22195 15.7557 10.5307 18.075 13.3853 18.075C16.2293 18.075 18.5486 15.7662 18.5486 12.9116C18.5381 10.0676 16.2293 7.74831 13.3853 7.74831Z" fill="#222224"/>
<path d="M21.2223 6.13741C21.9178 6.13741 22.4816 5.57357 22.4816 4.87803C22.4816 4.1825 21.9178 3.61865 21.2223 3.61865C20.5267 3.61865 19.9629 4.1825 19.9629 4.87803C19.9629 5.57357 20.5267 6.13741 21.2223 6.13741Z" fill="#222224"/>
</svg>
