<svg xmlns="http://www.w3.org/2000/svg" width="27" height="26" viewBox="0 0 27 26" fill="none">
  <path d="M21.8845 25.6836H4.87285C2.52207 25.6836 0.601562 23.7631 0.601562 21.4124V4.40068C0.601562 2.0499 2.52207 0.129395 4.87285 0.129395H21.8845C24.2353 0.129395 26.1558 2.0499 26.1558 4.40068V21.4124C26.1558 23.7736 24.2458 25.6836 21.8845 25.6836Z" fill="#222224"/>
  <path d="M13.3833 19.4707C11.6307 19.4707 9.98308 18.7886 8.74472 17.5502C7.50636 16.3119 6.82422 14.6642 6.82422 12.9116C6.82422 11.159 7.50636 9.5114 8.74472 8.27304C9.98308 7.03469 11.6307 6.35254 13.3833 6.35254C15.1359 6.35254 16.7836 7.03469 18.0219 8.27304C19.2603 9.5114 19.9424 11.159 19.9424 12.9116C19.9424 14.6642 19.2603 16.3119 18.0219 17.5502C16.7731 18.7886 15.1359 19.4707 13.3833 19.4707ZM13.3833 7.74831C10.5393 7.74831 8.21999 10.0571 8.21999 12.9116C8.21999 15.7557 10.5288 18.075 13.3833 18.075C16.2273 18.075 18.5466 15.7662 18.5466 12.9116C18.5361 10.0676 16.2273 7.74831 13.3833 7.74831Z" fill="#F5F5F7"/>
  <path d="M21.2223 6.13716C21.9178 6.13716 22.4816 5.57332 22.4816 4.87779C22.4816 4.18225 21.9178 3.61841 21.2223 3.61841C20.5267 3.61841 19.9629 4.18225 19.9629 4.87779C19.9629 5.57332 20.5267 6.13716 21.2223 6.13716Z" fill="#F5F5F7"/>
</svg>