<svg width="29" height="29" viewBox="0 0 29 29" fill="none" xmlns="http://www.w3.org/2000/svg">
<g clip-path="url(#clip0_7217_567)">
<path d="M21.0793 6.87878L11.8654 4.48646L2.99288 13.8484C2.53679 14.3296 2.29055 14.9724 2.30834 15.6352C2.32613 16.298 2.60649 16.9266 3.08774 17.3827L11.5557 25.4079C12.0379 25.8622 12.6802 26.1071 13.3424 26.0894C14.0046 26.0716 14.6329 25.7925 15.09 25.313L23.9625 15.9511L21.0793 6.87878ZM16.2068 12.02C16.0274 11.85 15.9024 11.6305 15.8477 11.3894C15.793 11.1483 15.811 10.8964 15.8994 10.6656C15.9879 10.4347 16.1428 10.2352 16.3446 10.0924C16.5464 9.94961 16.786 9.86984 17.0331 9.86321C17.2803 9.85658 17.5238 9.92338 17.733 10.0552C17.9422 10.187 18.1076 10.3778 18.2083 10.6036C18.309 10.8294 18.3405 11.08 18.2988 11.3236C18.2571 11.5673 18.144 11.7932 17.974 11.9726C17.7459 12.2132 17.4316 12.3534 17.1002 12.3623C16.7688 12.3712 16.4475 12.2481 16.2068 12.02Z" fill="#222224"/>
</g>
<defs>
<clipPath id="clip0_7217_567">
<rect width="20" height="20" fill="white" transform="translate(13.8213) rotate(43.4625)"/>
</clipPath>
</defs>
</svg>
