<svg xmlns="http://www.w3.org/2000/svg" width="31" height="30" viewBox="0 0 31 30" fill="none">
  <path d="M7.20817 9.80396H0.978516V29.6699H7.20817V9.80396Z" fill="#222224"/>
  <path d="M24.0596 9.37288C23.8299 9.34417 23.5859 9.32981 23.3419 9.31546C19.8539 9.17192 17.8874 11.2389 17.1984 12.1288C17.0118 12.3729 16.9257 12.5164 16.9257 12.5164V9.86091H10.9688V29.7269H16.9257H17.1984C17.1984 27.703 17.1984 25.6934 17.1984 23.6695C17.1984 22.5786 17.1984 21.4877 17.1984 20.3968C17.1984 19.0475 17.0979 17.6121 17.7726 16.3776C18.3467 15.3442 19.3802 14.8274 20.5429 14.8274C23.9878 14.8274 24.0596 17.9422 24.0596 18.2293C24.0596 18.2437 24.0596 18.258 24.0596 18.258V29.813H30.2893V16.8513C30.2893 12.4159 28.0357 9.8035 24.0596 9.37288Z" fill="#222224"/>
  <path d="M4.09377 7.23443C6.0915 7.23443 7.71099 5.61495 7.71099 3.61721C7.71099 1.61948 6.0915 0 4.09377 0C2.09604 0 0.476562 1.61948 0.476562 3.61721C0.476562 5.61495 2.09604 7.23443 4.09377 7.23443Z" fill="#222224"/>
</svg>