<svg width="31" height="30" viewBox="0 0 31 30" fill="none" xmlns="http://www.w3.org/2000/svg">
<path d="M7.20719 9.80371H0.977539V29.6697H7.20719V9.80371Z" fill="#FFDE11"/>
<path d="M24.0596 9.37312C23.8299 9.34441 23.5859 9.33006 23.3419 9.3157C19.8539 9.17216 17.8874 11.2391 17.1984 12.1291C17.0118 12.3731 16.9257 12.5167 16.9257 12.5167V9.86116H10.9688V29.7271H16.9257H17.1984C17.1984 27.7032 17.1984 25.6936 17.1984 23.6697C17.1984 22.5788 17.1984 21.4879 17.1984 20.397C17.1984 19.0477 17.0979 17.6123 17.7726 16.3779C18.3467 15.3444 19.3802 14.8276 20.5429 14.8276C23.9878 14.8276 24.0596 17.9425 24.0596 18.2296C24.0596 18.2439 24.0596 18.2583 24.0596 18.2583V29.8132H30.2893V16.8516C30.2893 12.4162 28.0357 9.80374 24.0596 9.37312Z" fill="#FFDE11"/>
<path d="M4.09279 7.23443C6.09053 7.23443 7.71002 5.61495 7.71002 3.61721C7.71002 1.61948 6.09053 0 4.09279 0C2.09506 0 0.475586 1.61948 0.475586 3.61721C0.475586 5.61495 2.09506 7.23443 4.09279 7.23443Z" fill="#FFDE11"/>
</svg>
