<svg width="40" height="40" viewBox="0 0 40 40" fill="none" xmlns="http://www.w3.org/2000/svg">
<path d="M10.8 22.2293C10.505 22.7318 10.1911 23.5269 9.45894 23.179C8.89894 22.9129 8.29793 22.5059 7.75042 22.1899C6.87386 21.6841 5.96316 21.2106 5.11687 20.6567C4.27487 20.1056 4.81302 19.6017 5.17123 18.7883L7.86488 12.5666C8.02426 12.2016 8.8209 10.2127 9.06355 10.037C9.53113 9.69844 10.1753 9.37031 10.6857 9.07383L13.8302 7.24147C14.3342 6.9454 14.8401 6.6338 15.3295 6.31398C15.8296 5.98718 16.0886 5.69883 16.7151 5.7006L21.0642 5.70119C21.4836 5.70115 23.4177 5.61563 23.722 5.74849C24.0629 5.89738 24.3891 6.11319 24.7078 6.30494L29.3105 9.03133C31.4235 10.2716 30.8978 9.645 31.7982 11.8062L33.1127 14.9335C33.7786 16.5252 34.581 18.138 35.2074 19.7209C35.5693 20.6354 34.2361 21.035 33.5566 21.4246L31.0958 22.8563C30.0368 23.4633 29.7484 23.2036 29.2001 22.1541C29.1751 23.0139 29.1998 23.8825 29.1998 24.7432L29.2014 31.7989C29.2023 33.0941 29.3398 33.5314 27.8611 33.5313L23.2571 33.5302L12.8257 33.5308C12.367 33.531 11.8842 33.5609 11.4293 33.5068C10.5886 33.4066 10.7991 32.4086 10.7993 31.8118L10.8 22.2293ZM17.8602 7.1479C18.5775 7.94359 19.2998 8.7407 19.9961 9.55461C20.3367 9.18586 20.6646 8.80406 21.0102 8.44023C21.3988 8.01555 21.7593 7.55842 22.1623 7.1479H17.8602ZM16.2667 7.53146C15.6264 7.83797 15.0313 8.27055 14.4165 8.62688C14.6686 9.01109 15.0013 9.35672 15.2921 9.71336L17.3379 12.1837L17.3957 12.2401C17.4198 12.2332 18.9266 10.7644 19.0436 10.6558C18.7551 10.323 16.39 7.55019 16.2667 7.53146ZM23.7692 7.53146C22.9241 8.38836 21.7637 9.68602 21.0102 10.6558C21.4012 11.1246 22.1099 11.7489 22.5729 12.1837L22.7405 11.9914L25.6375 8.62688C25.3631 8.43766 24.0487 7.61656 23.7692 7.53146ZM26.9529 9.35484L26.9299 9.37547C26.6212 9.65625 26.2951 10.0962 26.0133 10.4213L23.9543 12.8109C23.5393 13.2923 23.0004 14.2516 22.2268 13.7905C21.8961 13.5933 21.0553 12.738 20.7425 12.4301C20.7302 13.0936 20.7423 13.7591 20.7424 14.4228L20.7425 32.054L25.4161 32.0538C26.1876 32.0539 26.9639 32.0732 27.735 32.054V26.1035L27.7349 15.6651C27.7338 15.2123 27.5839 14.3791 27.9509 14.0261C28.3719 13.6211 29.1153 13.8705 29.1963 14.4428C29.2363 14.7255 29.1997 15.3261 29.1997 15.6436L29.2006 18.4242C29.2007 18.835 29.0977 19.326 29.3079 19.6995C29.6621 20.3286 30.1668 20.8934 30.4999 21.5519C30.7471 21.367 31.0286 21.2237 31.2957 21.0694L32.7286 20.2377C33.0303 20.0651 33.3467 19.9075 33.6315 19.708L30.7962 13.1742C29.6964 10.6459 30.4191 11.4189 28.0793 10.0101C27.7299 9.79969 27.3461 9.46555 26.9529 9.35484ZM13.0771 9.35484C12.6507 9.61836 12.2229 9.87688 11.7854 10.1216C9.80777 11.228 10.2954 10.7071 9.39324 12.7609L7.23356 17.7594C6.95311 18.4119 6.66074 19.0688 6.35141 19.708C7.33395 20.2359 8.61957 20.9374 9.53363 21.5519C10.3817 20.1021 10.7999 20.0081 10.8001 18.4103L10.7994 15.8562C10.7992 15.4459 10.7736 15.0201 10.8014 14.6118C10.8644 13.6871 12.1079 13.6221 12.2532 14.4709C12.3112 14.8098 12.2669 15.2069 12.2666 15.5526L12.2679 26.1996L12.2673 30.117C12.2672 30.7595 12.2393 31.4134 12.2679 32.054H19.2951V12.4301C18.8336 12.7616 18.0773 13.6473 17.6518 13.8348C16.8797 14.175 16.4921 13.3894 16.0786 12.9079L13.4668 9.80766C13.3414 9.66016 13.2165 9.48812 13.0771 9.35484Z" fill="#222224"/>
<path d="M23.967 18.5738C23.5584 18.5724 22.6973 18.664 22.3884 18.4063C21.8916 17.9919 22.1008 17.1129 22.988 17.0765C23.4047 17.0752 24.2381 16.987 24.5479 17.2696C24.9889 17.672 24.8096 18.5598 23.967 18.5738Z" fill="#222224"/>
<path d="M24.0521 21.7144C23.6736 21.7161 22.7394 21.7931 22.4314 21.5879C21.9684 21.2795 22.0242 20.3376 22.8617 20.2567C23.2637 20.2559 24.189 20.1696 24.5014 20.4174C24.9459 20.77 24.8383 21.6709 24.0521 21.7144Z" fill="#222224"/>
</svg>
