<svg width="39" height="40" viewBox="0 0 39 40" fill="none" xmlns="http://www.w3.org/2000/svg">
<path d="M21.7316 8.90968L23.8932 8.90828C24.6514 8.90658 26.0905 8.34952 26.3785 9.77778C26.4702 10.2331 25.9274 12.3046 25.9275 12.8671V22.0235C25.9273 23.5751 26.7564 25.201 25.5136 25.7778C25.2569 25.7445 24.393 25.7747 24.1341 25.7753L22.521 25.7778C20.5657 25.7787 20.7626 24.7774 20.7622 22.1562L20.7623 11.344C20.7626 10.1703 20.7827 9.07592 21.7316 8.90968Z" fill="white"/>
<path d="M26.9884 24.9645L26.9891 30.7491C26.989 31.1992 27.0064 31.6791 26.9115 32.1207C26.3693 34.6445 23.641 34.2163 21.7678 34.2162L14.3442 34.2165C13.8314 34.2164 13.2711 34.2581 12.7663 34.1628C11.0098 33.8313 10.5352 32.343 10.5341 30.7667L10.5347 14.4316C10.5346 12.3841 10.5562 10.3339 10.522 8.28687C10.4942 6.62348 11.7082 5.53247 13.2762 5.52001L23.2224 5.51979C24.3692 5.51836 25.3155 5.46018 26.201 6.36681C27.1548 7.3434 27.0425 8.27726 27.0404 9.55266C26.734 9.58914 26.2384 9.61422 25.9391 9.55266C25.9387 8.70211 26.0869 7.80962 25.445 7.1473C24.8117 6.49385 23.9976 6.59414 23.1809 6.59607L13.4063 6.59684C11.9405 6.60306 11.5922 7.44022 11.6017 8.80062L11.6038 28.9977C11.7392 29.1813 11.8121 29.2673 12.039 29.1875L12.0594 29.2305C12.4703 29.0545 12.2423 29.006 12.819 28.9984C13.7329 28.9862 14.6485 28.9979 15.5626 28.9978L23.7665 28.9979C24.3037 28.997 25.1702 28.839 25.5617 29.2305L25.5829 29.1879C25.6353 29.1414 25.7155 29.1316 25.782 29.1155L25.9391 28.8809C25.9272 28.9956 25.909 29.1183 25.9391 29.2305V24.9645C26.2089 24.9279 26.7093 24.9451 26.9884 24.9645ZM25.9391 28.8809L25.782 29.1155C25.7155 29.1316 25.6353 29.1414 25.5829 29.1879L25.5617 29.2305C25.1702 28.839 24.3037 28.997 23.7665 28.9979L15.5626 28.9978C14.6485 28.9979 13.7329 28.9862 12.819 28.9984C12.2423 29.006 12.4703 29.0545 12.0594 29.2305L12.039 29.1875C11.8121 29.2673 11.7392 29.1813 11.6038 28.9977L11.6027 30.3273C11.5984 32.6002 11.7844 33.0894 14.2465 33.0875L24.1195 33.0872C25.7896 33.0812 25.9403 32.0216 25.9397 30.5984L25.9391 29.2305C25.909 29.1183 25.9272 28.9956 25.9391 28.8809Z" fill="#2B414D"/>
<path d="M17.7032 30.6054C18.1598 30.581 19.798 30.5409 20.1291 30.7259C21.0386 31.2341 20.6584 32.4446 19.7681 32.6647C19.483 32.6849 19.1866 32.6648 18.8999 32.665C18.1441 32.6652 17.0469 32.8498 16.8381 31.8341C16.7096 31.2088 17.1192 30.7111 17.7032 30.6054Z" fill="#222224"/>
<path d="M12.0592 29.2305C12.4701 29.0545 12.242 29.006 12.8188 28.9984C13.7327 28.9862 14.6483 28.9979 15.5623 28.9978L23.7663 28.9979C24.3034 28.997 25.17 28.839 25.5614 29.2305C25.7399 29.5329 25.6463 29.912 25.3351 30.0761C25.0937 30.2034 22.3512 30.1275 21.9066 30.1275L16.0242 30.1273C15.5841 30.1273 12.4411 30.1598 12.325 30.1127C11.953 29.962 11.9177 29.5697 12.0592 29.2305Z" fill="#2B414D"/>
<path d="M11.6038 28.9977L11.6018 8.80062C11.5922 7.44022 11.9405 6.60306 13.4063 6.59684L23.181 6.59607C23.9976 6.59414 24.8117 6.49385 25.445 7.1473C26.0869 7.80962 25.9387 8.70211 25.9391 9.55265C24.8223 9.46562 23.0169 9.42547 22.1834 10.163C21.106 11.1165 21.3832 12.9709 21.3835 14.3126L21.3826 21.2493C21.3817 22.2909 21.2599 23.3266 21.9822 24.1691C22.771 25.0892 23.8616 24.9515 24.9319 24.9657C25.2599 24.97 25.6151 25.0117 25.9391 24.9645V29.2305C25.909 29.1183 25.9273 28.9956 25.9391 28.8809L25.7821 29.1155C25.7156 29.1316 25.6354 29.1414 25.5829 29.1879L25.5617 29.2305C25.1702 28.839 24.3037 28.997 23.7666 28.9979L15.5626 28.9978C14.6485 28.9979 13.7329 28.9862 12.819 28.9984C12.2423 29.006 12.4704 29.0545 12.0594 29.2305L12.039 29.1875C11.8121 29.2673 11.7393 29.1813 11.6038 28.9977Z" fill="white"/>
<path d="M13.0918 7.61614C13.3824 7.60138 13.8638 7.55096 14.107 7.72704C14.5611 8.05578 14.2613 8.68586 13.7876 8.76297C13.493 8.76313 13.0099 8.82305 12.7632 8.62813C12.3525 8.30375 12.6146 7.65952 13.0918 7.61614Z" fill="#2B414D"/>
<path d="M23.5199 7.61613C23.7753 7.60945 24.4603 7.57055 24.6721 7.67427C25.1875 7.92664 25.0233 8.59242 24.5496 8.76297C24.2702 8.78156 23.55 8.8118 23.3235 8.67258C22.8488 8.3807 23.0249 7.73262 23.5199 7.61613Z" fill="#2B414D"/>
<path d="M16.5528 7.61613C16.7728 7.60074 17.0014 7.6146 17.2224 7.61534L19.8832 7.61504C20.2038 7.6145 20.6207 7.5529 20.9283 7.66677C21.4759 7.86945 21.3087 8.59094 20.8371 8.76297H18.1984C17.8697 8.7632 16.7296 8.80719 16.5098 8.73188C15.9657 8.54547 16.0851 7.82695 16.5528 7.61613Z" fill="#2B414D"/>
<path d="M26.4463 24.5668V9.99379L26.5487 9.99379L26.4936 24.5668H26.4463Z" stroke="#2B414D"/>
</svg>
