<svg width="40" height="40" viewBox="0 0 40 40" fill="none" xmlns="http://www.w3.org/2000/svg">
<path d="M23.7295 16.0354C24.1659 15.7309 24.3 15.4595 24.6154 15.0686L24.6142 17.1134C24.6139 17.4459 24.593 17.7913 24.6154 18.1216C24.3882 18.0822 23.9773 18.1192 23.7295 18.1216V16.0354Z" fill="#89898A"/>
<path d="M25.4089 14.566L25.4076 13.5466C25.4074 12.9259 25.3499 12.1273 25.819 11.6476C26.7661 10.6792 28.6864 11.132 29.5649 12.0137C30.3429 12.7946 30.3551 13.4787 30.3506 14.5073C30.2789 14.7102 30.2118 15.0912 30.1536 15.2306L30.1397 15.1673L30.1117 15.1695C30.0366 15.2651 29.9912 15.3809 29.9402 15.4905C29.9266 15.5135 29.9067 15.5388 29.9015 15.5651C29.6207 15.8217 28.8503 16.0898 28.803 16.1558C28.5317 16.0816 27.8937 16.2587 27.5893 16.298C26.3757 16.4546 25.3861 15.8523 25.4089 14.566Z" fill="#222224"/>
<path d="M28.2034 13.8084C28.201 12.7012 29.0608 12.1585 29.7448 12.944C30.0194 13.2595 29.9417 13.9893 29.9399 14.392C29.9426 15.3809 29.0749 15.9638 28.4327 15.3017C28.1042 14.9629 28.2014 14.2551 28.2034 13.8084Z" fill="url(#paint0_linear_6795_350)"/>
<path d="M28.2034 13.8084C28.2014 14.2551 28.1042 14.9629 28.4327 15.3017C29.0749 15.9638 29.9426 15.3809 29.9399 14.392C30.055 14.414 30.2604 14.4302 30.3503 14.5073C30.2787 14.7102 30.2115 15.0912 30.1533 15.2306L30.1394 15.1673L30.1114 15.1695C30.0363 15.2651 29.9909 15.3809 29.9399 15.4905C29.9263 15.5135 29.9064 15.5388 29.9012 15.5651C29.6204 15.8217 28.85 16.0898 28.8027 16.1558C28.5314 16.0816 27.8934 16.2587 27.5891 16.298C26.3754 16.4546 25.3859 15.8523 25.4086 14.566C25.6068 14.507 25.7686 14.3395 25.9594 14.2543C26.6875 13.9294 27.4105 13.8093 28.2034 13.8084Z" fill="#222224"/>
<path d="M30.5223 18.0663C31.3968 18.0616 31.6804 17.8363 31.6816 18.6931L31.6809 26.6687C31.6811 26.9327 31.7159 27.2392 31.6629 27.4975C31.401 28.773 30.3518 29.5324 29.0671 29.5336L24.6154 29.532C24.3181 29.5495 24.0272 29.5503 23.7295 29.532V27.6579C23.9101 27.6572 24.4868 27.6191 24.6154 27.6579L27.3115 27.6585C27.8567 27.6585 28.5729 27.7144 29.0925 27.5925C30.5036 27.2615 30.5219 26.0084 30.5225 24.8806L30.5223 18.0663Z" fill="#89898A"/>
<path d="M23.7295 27.6579C23.9101 27.6572 24.4868 27.6191 24.6154 27.6579V29.532C24.3181 29.5495 24.0272 29.5503 23.7295 29.532V27.6579Z" fill="#89898A"/>
<path d="M9.80712 5.09297C10.0802 5.06595 10.4577 4.64932 11.0426 4.63583C11.1334 4.70261 11.1686 4.69622 11.2776 4.6995C11.1624 5.02836 11.7967 4.89239 11.9213 4.76546L11.924 4.73707C11.4799 4.70986 12.5321 4.70847 12.5338 4.70837C13.7757 4.64114 14.9982 4.59401 16.2388 4.69711L16.222 4.69331L16.2521 4.73178L16.2827 4.71633C16.1527 4.8749 15.6943 5.46122 15.6039 5.46997C15.2749 5.50189 14.9531 5.46383 14.6245 5.46864C13.6652 5.48269 12.687 5.54015 11.7288 5.49862C11.0931 5.47108 10.113 5.6686 9.88095 6.32817L9.88759 6.3326C9.40306 7.22126 9.52337 8.01414 9.52353 8.99156L9.52345 31.282C9.52337 31.9741 9.36509 32.8415 9.80712 33.4314C9.95618 34.039 10.8752 34.3874 11.4248 34.3917L20.9098 34.3902C23.3939 34.3913 23.7339 34.1228 23.7296 31.6295L23.7288 29.532C24.0266 29.5503 24.3174 29.5495 24.6148 29.532L24.6216 32.5712C24.6227 33.7834 23.8321 34.9689 22.6039 35.2089C22.0531 35.3166 21.4614 35.2812 20.9022 35.2812L18.7531 35.2805C16.315 35.2805 13.8732 35.3105 11.4355 35.2798C10.636 35.2697 10.0155 35.0481 9.44962 34.4627C8.54509 33.5266 8.6954 32.5416 8.69736 31.3553L8.6979 20.8982C8.69775 19.6945 8.68134 18.4887 8.69767 17.2853C8.54696 17.2974 8.34486 17.3162 8.27743 17.1416C8.21236 16.9734 8.2347 15.4056 8.25353 15.1296C8.27626 14.7954 8.36415 14.7654 8.69767 14.7706C8.70368 14.6439 8.70173 14.5188 8.69767 14.392C8.53587 14.3759 8.29704 14.3637 8.26376 14.1619C8.18298 13.6724 8.23915 12.4661 8.24712 11.9355C8.37486 11.7452 8.46673 11.7335 8.69767 11.7359C8.72134 11.3491 8.69868 10.9544 8.69806 10.5663L8.69657 8.22648C8.69673 6.98764 8.66228 5.90327 9.80712 5.09297Z" fill="url(#paint1_linear_6795_350)"/>
<path d="M29.94 15.4905C29.991 15.3809 30.0364 15.2651 30.1115 15.1695L30.1395 15.1673L30.1534 15.2306C30.1326 16.15 30.2129 17.1684 30.1534 18.0663C30.2757 18.0525 30.3994 18.0617 30.5221 18.0663L30.5223 24.8806C30.5217 26.0084 30.5034 27.2615 29.0923 27.5925C28.5727 27.7144 27.8565 27.6585 27.3113 27.6585L24.6152 27.6579V18.1216H28.732C28.8192 17.7158 28.7118 16.7588 28.8028 16.1558C28.8501 16.0898 29.6205 15.8217 29.9013 15.5651C29.9065 15.5388 29.9264 15.5135 29.94 15.4905Z" fill="#222224"/>
<path d="M29.9014 15.5651C29.9065 15.5388 29.9264 15.5135 29.94 15.4905C29.9875 16.3456 29.8863 17.2118 29.94 18.0663C29.8746 18.6509 29.8239 20.3521 29.9014 20.9712C29.4679 21.5168 28.8118 21.5805 28.7443 20.763C28.6886 20.0866 28.6869 18.8102 28.7321 18.1216C28.8193 17.7158 28.7118 16.7588 28.8028 16.1558C28.8501 16.0898 29.6205 15.8217 29.9014 15.5651Z" fill="url(#paint2_linear_6795_350)"/>
<path d="M28.8027 16.1558C28.85 16.0898 29.6204 15.8217 29.9013 15.5651C29.7988 15.8118 28.8445 16.4389 28.8027 16.1558Z" fill="#BAB9B9"/>
<path d="M19.993 15.2306L19.9993 15.1688L20.019 15.1608C20.0332 15.183 20.0514 15.2066 20.0618 15.2306C20.4004 15.7294 21.1007 16.0063 21.1962 16.1558C21.1889 16.5782 21.1341 17.746 21.1962 18.1216L22.9742 18.1223C23.2157 18.1229 23.4936 18.1591 23.7293 18.1216C23.9771 18.1192 24.388 18.0822 24.6153 18.1216V27.6579C24.4866 27.6191 23.91 27.6572 23.7293 27.6579V29.532L23.7301 31.6295C23.7344 34.1228 23.3944 34.3913 20.9103 34.3902L11.4253 34.3917C10.8757 34.3874 9.95668 34.039 9.80762 33.4314C9.92066 32.9178 11.1211 31.1112 11.4614 30.5441L16.3236 22.5127C16.8764 21.6092 17.6511 20.1462 18.2793 19.3709C18.259 18.4821 18.5757 18.232 19.4264 18.1216C19.5293 18.1275 19.6321 18.1304 19.735 18.133L19.7361 18.1494L19.7668 18.1332L19.7361 18.1347L19.7261 18.1099L19.7446 18.1302L19.4719 18.1189L19.4888 18.1071L19.4697 18.1102C20.1704 16.9302 19.9615 17.2961 19.971 15.924C19.9726 15.6927 19.9961 15.4615 19.993 15.2306Z" fill="white"/>
<path d="M18.3604 27.6579C18.5687 27.6815 18.7919 27.665 19.0018 27.6625L23.7291 27.6579V29.532C21.5934 29.4638 19.2085 30.1589 18.3604 27.6579Z" fill="#89898A"/>
<path d="M19.9931 15.2306L19.9993 15.1688L20.0191 15.1608C20.0333 15.183 20.0514 15.2066 20.0619 15.2306C20.4005 15.7294 21.1007 16.0063 21.1963 16.1558C21.189 16.5782 21.1342 17.746 21.1963 18.1216L22.9742 18.1223C23.2157 18.1229 23.4937 18.1591 23.7294 18.1216C23.9772 18.1192 24.3881 18.0822 24.6153 18.1216V27.6579C24.4867 27.6191 23.91 27.6572 23.7294 27.6579L19.0021 27.6625C18.7922 27.665 18.569 27.6815 18.3607 27.6579C18.2151 27.1687 18.2801 25.494 18.28 24.8889L18.2794 19.3709C18.2591 18.4821 18.5757 18.232 19.4265 18.1216C19.5294 18.1275 19.6321 18.1304 19.7351 18.133L19.7362 18.1494L19.7669 18.1332L19.7361 18.1347L19.7261 18.1099L19.7447 18.1302L19.472 18.1189L19.4889 18.1071L19.4698 18.1102C20.1705 16.9302 19.9616 17.2961 19.971 15.924C19.9727 15.6927 19.9961 15.4615 19.9931 15.2306Z" fill="#222224"/>
<path d="M19.9933 15.2306L19.9996 15.1688L20.0193 15.1608C20.0336 15.183 20.0517 15.2066 20.0621 15.2306C20.4007 15.7294 21.101 16.0063 21.1965 16.1558C21.1893 16.5782 21.1344 17.746 21.1965 18.1216C21.203 18.6975 21.1965 19.2737 21.1977 19.8496C21.1987 20.3526 21.362 21.3436 20.5677 21.3237C19.8326 21.3052 19.9923 20.2579 19.9923 19.7823L19.9933 18.1216C19.7928 18.1469 19.6265 18.1579 19.4268 18.1216C19.5296 18.1275 19.6324 18.1304 19.7354 18.133L19.7364 18.1494L19.7671 18.1332L19.7364 18.1347L19.7264 18.1099L19.745 18.1302L19.4722 18.1189L19.4891 18.1071L19.47 18.1102C20.1707 16.9302 19.9618 17.2961 19.9713 15.924C19.9729 15.6927 19.9964 15.4615 19.9933 15.2306Z" fill="url(#paint3_linear_6795_350)"/>
<path d="M21.1966 16.1558C20.6988 16.1421 19.944 15.4535 20.0622 15.2306C20.4008 15.7294 21.101 16.0062 21.1966 16.1558Z" fill="#BAB9B9"/>
<path d="M23.7295 18.1216C23.9773 18.1192 24.3882 18.0822 24.6154 18.1216V27.6579C24.4868 27.6191 23.9101 27.6572 23.7295 27.6579V18.1216Z" fill="#89898A"/>
<path d="M9.80739 5.09298C10.6499 4.43673 11.608 4.58998 12.6072 4.59033L19.9806 4.5907C21.8089 4.58969 23.9979 4.351 24.5202 6.74508C24.6496 7.33804 24.6165 7.96242 24.6164 8.56586L24.6151 10.5528C24.6149 10.8916 24.604 11.2331 24.615 11.5715C24.6802 12.182 24.5112 14.3538 24.615 14.566C24.6022 14.738 24.5974 14.8966 24.615 15.0686C24.2997 15.4595 24.1655 15.7309 23.7291 16.0354V18.1216C23.4934 18.1591 23.2154 18.1229 22.974 18.1223L21.196 18.1216C21.1339 17.746 21.1887 16.5782 21.196 16.1558C21.1004 16.0062 20.4002 15.7294 20.0616 15.2306C20.0511 15.2066 20.033 15.183 20.0188 15.1608L19.999 15.1687L19.9928 15.2306C19.9958 15.4615 19.9724 15.6927 19.9707 15.924C19.9613 17.2961 20.1702 16.9302 19.4695 18.1102L19.4886 18.1071L19.4717 18.1189L19.7444 18.1302L19.7258 18.1099L19.7358 18.1347L19.7666 18.1332L19.7359 18.1494L19.7348 18.133C19.6318 18.1304 19.5291 18.1275 19.4262 18.1216C18.5754 18.232 18.2588 18.4821 18.2791 19.3709C17.6509 20.1462 16.8762 21.6092 16.3234 22.5127L11.4611 30.5441C11.1209 31.1112 9.92044 32.9178 9.80739 33.4314C9.36536 32.8415 9.52364 31.9741 9.52372 31.282L9.5238 8.99156C9.52364 8.01414 9.40333 7.22126 9.88786 6.3326L9.88122 6.32817C10.1133 5.6686 11.0934 5.47108 11.729 5.49862C12.6873 5.54015 13.6654 5.48269 14.6248 5.46864C14.9533 5.46383 15.2752 5.50189 15.6042 5.46998C15.6946 5.46122 16.153 4.8749 16.283 4.71633L16.2524 4.73178L16.2222 4.69331L16.239 4.69711C14.9985 4.59401 13.776 4.64114 12.5341 4.70837C12.5324 4.70847 11.4802 4.70987 11.9243 4.73707L11.9215 4.76546C11.7969 4.89239 11.1627 5.02837 11.2779 4.6995C11.1689 4.69623 11.1336 4.70261 11.0429 4.63583C10.4579 4.64932 10.0805 5.06595 9.80739 5.09298Z" fill="white"/>
<path d="M15.7056 6.3326L16.8926 6.33133C17.1977 6.32963 17.692 6.24895 17.9422 6.47298C18.288 6.78263 18.0206 7.22714 17.4774 7.23191C16.9927 7.23152 15.9338 7.29738 15.5091 7.23492C15.0401 7.16596 14.7695 6.37559 15.7056 6.3326Z" fill="#222224"/>
<path d="M20.233 14.566C20.1842 14.1782 20.1767 13.6149 20.289 13.2423C20.5464 12.388 22.0735 12.2178 22.1032 13.8084C22.1057 14.2934 22.211 14.9092 21.8336 15.2828C21.2361 15.8741 20.2645 15.5032 20.233 14.566Z" fill="#807F7F"/>
<path d="M22.1032 13.8084C23.1186 14.0334 23.7123 14.2966 24.6148 14.566C24.6019 14.738 24.5971 14.8966 24.6148 15.0686C24.2994 15.4595 24.1652 15.7309 23.7288 16.0354V18.1216C23.4931 18.1591 23.2152 18.1229 22.9737 18.1223L21.1957 18.1216C21.1336 17.746 21.1884 16.5782 21.1957 16.1558C21.1002 16.0062 20.3999 15.7294 20.0613 15.2306C20.0509 15.2066 20.0327 15.183 20.0185 15.1608L19.9987 15.1687L19.9925 15.2306C19.8985 15.0272 20.1328 14.7309 20.233 14.566C20.2645 15.5032 21.2361 15.8741 21.8336 15.2828C22.211 14.9092 22.1057 14.2934 22.1032 13.8084Z" fill="#89898A"/>
<path d="M21.1963 16.1558C21.6466 15.9716 22.5602 16.6291 23.7294 16.0354V18.1216C23.4937 18.1591 23.2157 18.1229 22.9743 18.1223L21.1963 18.1216C21.1342 17.746 21.189 16.5782 21.1963 16.1558Z" fill="white"/>
<path d="M9.80762 5.09298C10.6501 4.43673 11.6082 4.58998 12.6075 4.59033L19.9808 4.5907C21.8091 4.58969 23.9981 4.351 24.5204 6.74508C24.6498 7.33804 24.6167 7.96242 24.6166 8.56586L24.6154 10.5528C24.6151 10.8916 24.6043 11.2331 24.6153 11.5715C24.602 11.7312 24.6089 11.8886 24.6153 12.0484C24.3587 11.6726 24.1343 11.4542 23.7293 11.2429L23.7289 8.45656C23.7291 8.01625 23.7846 7.38098 23.6879 6.9639C23.3448 5.48404 22.1148 5.49235 20.9478 5.49516L11.8851 5.49283C10.8217 5.48782 10.6318 5.59581 9.88809 6.3326L9.88145 6.32817C10.1135 5.6686 11.0936 5.47108 11.7293 5.49862C12.6875 5.54015 13.6657 5.48269 14.625 5.46864C14.9536 5.46383 15.2754 5.50189 15.6044 5.46998C15.6948 5.46122 16.1532 4.8749 16.2832 4.71633L16.2526 4.73178L16.2225 4.69331L16.2393 4.69711C14.9987 4.59401 13.7762 4.64114 12.5343 4.70837C12.5326 4.70847 11.4804 4.70987 11.9245 4.73707L11.9218 4.76546C11.7971 4.89239 11.1629 5.02837 11.2781 4.6995C11.1691 4.69623 11.1339 4.70261 11.0431 4.63583C10.4582 4.64932 10.0807 5.06595 9.80762 5.09298Z" fill="#222224"/>
<path d="M11.6958 6.8243C12.995 6.7546 13.0243 7.9464 13.0256 8.84258L13.0263 10.157C13.0262 11.1934 13.2371 12.4238 11.8212 12.5927C10.6568 12.6285 10.49 11.6612 10.4912 10.7823L10.4921 8.65515C10.4936 7.72133 10.5934 6.94132 11.6958 6.8243Z" fill="#222224"/>
<path d="M11.6381 7.50363C12.2759 7.45493 12.4481 8.17375 11.8791 8.39672C11.241 8.51711 11.1038 7.73799 11.6381 7.50363Z" fill="white"/>
<path d="M11.6376 10.6069C11.9883 10.5862 12.1494 10.7484 12.2363 11.0791C12.1854 11.3098 12.1046 11.4613 11.8787 11.5715C11.2701 11.6806 11.0607 10.8742 11.6376 10.6069Z" fill="white"/>
<path d="M11.6375 9.00492C12.2927 8.98594 12.5354 9.77984 11.8786 10.018C11.1476 10.1141 11.0415 9.27601 11.6375 9.00492Z" fill="#E2E6E7"/>
<defs>
<linearGradient id="paint0_linear_6795_350" x1="28.6737" y1="15.4423" x2="29.428" y2="12.7086" gradientUnits="userSpaceOnUse">
<stop stop-color="#737273"/>
<stop offset="1" stop-color="#888787"/>
</linearGradient>
<linearGradient id="paint1_linear_6795_350" x1="11.2287" y1="35.3456" x2="21.3803" y2="6.48533" gradientUnits="userSpaceOnUse">
<stop stop-color="#222224"/>
<stop offset="1" stop-color="#222224"/>
</linearGradient>
<linearGradient id="paint2_linear_6795_350" x1="30.073" y1="18.4515" x2="28.6308" y2="18.5386" gradientUnits="userSpaceOnUse">
<stop stop-color="#C4C1C1"/>
<stop offset="1" stop-color="#ECEBEA"/>
</linearGradient>
<linearGradient id="paint3_linear_6795_350" x1="19.4399" y1="18.2061" x2="21.4616" y2="18.4797" gradientUnits="userSpaceOnUse">
<stop stop-color="#BEBEBF"/>
<stop offset="1" stop-color="#EAE8E7"/>
</linearGradient>
</defs>
</svg>
