<svg width="70" height="10" viewBox="0 0 70 10" fill="none" xmlns="http://www.w3.org/2000/svg">
<g clip-path="url(#clip0_9601_2734)">
<path d="M34.0001 1.27627e-05C33.2049 -0.0125886 32.43 0.241454 31.8086 0.718463C31.1533 1.23963 30.6989 1.95707 30.5182 2.75589C30.3816 0.918639 29.4598 1.27627e-05 27.753 1.27627e-05C26.9854 -0.0171174 26.2369 0.230816 25.6432 0.69881C25.0338 1.20016 24.6159 1.88257 24.4556 2.63797V2.50018C24.4625 1.95929 24.379 1.42084 24.2084 0.905391C24.1508 0.674767 24.0684 0.450527 23.9625 0.236293H21.8937V9.78317H24.4965V4.62517C24.5101 3.75896 24.7149 3.08964 25.1109 2.61722C25.3037 2.38523 25.5506 2.20016 25.8318 2.07701C26.1129 1.95385 26.4202 1.89609 26.7289 1.90838C27.2477 1.90824 27.613 2.02973 27.8248 2.27285C28.0365 2.51597 28.1423 2.91953 28.1422 3.48351V9.78317H30.7438V4.6267C30.7573 3.76049 30.9586 3.09117 31.3478 2.61875C31.5413 2.38496 31.7898 2.19876 32.0729 2.0755C32.356 1.95225 32.6656 1.89549 32.976 1.90991C33.4949 1.90977 33.8602 2.03118 34.0719 2.27416C34.2835 2.51728 34.3894 2.92084 34.3896 3.48482V9.78491H36.9908V3.36603C36.9915 2.25043 36.7252 1.41056 36.1919 0.84643C35.6584 0.282152 34.9278 1.27627e-05 34.0001 1.27627e-05ZM43.2218 0.00154138C41.7472 0.000667885 40.549 0.43647 39.6272 1.30895C38.7056 2.18157 38.2449 3.36603 38.245 4.86233V4.90164C38.2459 6.58137 38.7242 7.85099 39.6799 8.71052C40.6613 9.54119 41.9241 9.99958 43.2318 9.99986C44.5396 10.0001 45.8026 9.54229 46.7844 8.71204C47.7402 7.85267 48.2181 6.57642 48.2181 4.88329V4.84398C48.219 3.34798 47.7553 2.16687 46.8269 1.30065C45.8983 0.434431 44.6966 0.00132301 43.2218 0.00132301V0.00154138ZM45.5785 5.17679C45.5784 7.30258 44.7933 8.36548 43.2232 8.36548V8.36614C41.6655 8.36614 40.8872 7.30317 40.8883 5.17722V4.4686C40.8884 3.57618 41.0966 2.88721 41.5129 2.40169C41.7199 2.16135 41.9821 1.97047 42.2788 1.84409C42.5756 1.71771 42.8989 1.65929 43.2232 1.67341C43.5489 1.65963 43.8735 1.71817 44.1719 1.84447C44.4703 1.97077 44.7344 2.16144 44.9437 2.40169C45.3669 2.88794 45.5785 3.57691 45.5785 4.4686V5.17679ZM55.5777 1.27627e-05C54.7554 -0.0257659 53.95 0.228712 53.304 0.718463C52.6739 1.22273 52.2466 1.9224 52.0956 2.69693V2.50018C52.1035 1.95933 52.0204 1.42081 51.8498 0.905391C51.7917 0.674722 51.7089 0.450482 51.6025 0.236293H49.5308V9.78317H52.1358V4.6267C52.1357 3.77359 52.3576 3.10755 52.8016 2.62858C53.0172 2.39347 53.2842 2.20711 53.5835 2.08287C53.8829 1.95862 54.2071 1.89955 54.533 1.90991C55.6389 1.90991 56.1919 2.43488 56.1919 3.48482V9.78491H58.7731V3.36603C58.7734 2.25043 58.4934 1.41056 57.9331 0.84643C57.3728 0.282152 56.5877 1.27627e-05 55.5777 1.27627e-05ZM68.6071 1.30065C67.6786 0.434431 66.477 0.00132301 65.0023 0.00132301C63.5275 0.000595093 62.3293 0.43647 61.4077 1.30895C60.486 2.18157 60.0251 3.36603 60.0251 4.86233V4.90164C60.0251 6.58137 60.503 7.85099 61.4588 8.71052C62.4407 9.54153 63.7042 9.99998 65.0125 9.99998C66.3209 9.99998 67.5844 9.54153 68.5663 8.71052C69.5221 7.85114 70 6.57496 70 4.88198V4.84267C70 3.34754 69.5357 2.16687 68.6071 1.30065ZM67.3579 5.17679C67.3577 7.30258 66.5726 8.36548 65.0023 8.36548V8.36614C63.4457 8.36614 62.6674 7.30317 62.6674 5.17722V4.4686C62.668 3.57618 62.8763 2.88721 63.2923 2.40169C63.4992 2.16134 63.7613 1.97045 64.0581 1.84407C64.3548 1.71769 64.6781 1.65927 65.0023 1.67341C65.328 1.65963 65.6527 1.71817 65.9511 1.84447C66.2494 1.97077 66.5135 2.16144 66.7228 2.40169C67.1462 2.88794 67.3579 3.57691 67.3579 4.4686V5.17679ZM12.9958 0.0666168C12.9419 0.0289453 12.8782 0.00634289 12.8117 0.00131069C12.7453 -0.00372151 12.6787 0.00901266 12.6193 0.0381041C12.5599 0.0671956 12.51 0.11151 12.4752 0.166144C12.4404 0.220779 12.422 0.283602 12.4221 0.347664V4.04037L6.78476 0.0666168C6.73084 0.0289453 6.66714 0.00634289 6.60069 0.00131069C6.53424 -0.00372151 6.46763 0.00901266 6.40824 0.0381041C6.34886 0.0671956 6.299 0.11151 6.2642 0.166144C6.22939 0.220779 6.21099 0.283602 6.21103 0.347664V4.04037L0.573728 0.0666168C0.519814 0.0289453 0.456108 0.00634289 0.389657 0.00131069C0.323207 -0.00372151 0.256603 0.00901266 0.197216 0.0381041C0.137829 0.0671956 0.0879736 0.11151 0.053167 0.166144C0.0183604 0.220779 -4.05765e-05 0.283602 6.71839e-08 0.347664V5.56527C0.00019049 5.61987 0.0137401 5.67365 0.0395543 5.72229C0.0653685 5.77092 0.102723 5.81303 0.148601 5.84523L5.94768 9.93319C6.0016 9.97092 6.06532 9.99358 6.13181 9.99864C6.1983 10.0037 6.26494 9.99099 6.32437 9.96189C6.38379 9.93279 6.43368 9.88845 6.4685 9.83378C6.50332 9.77911 6.52171 9.71624 6.52164 9.65214V5.95944L12.1589 9.93319C12.2128 9.97091 12.2765 9.99354 12.3429 9.99859C12.4094 10.0036 12.476 9.99091 12.5353 9.9618C12.5947 9.9327 12.6445 9.88836 12.6793 9.8337C12.714 9.77904 12.7324 9.7162 12.7322 9.65214V5.95922L18.3706 9.93319C18.4245 9.97097 18.4882 9.99366 18.5547 9.99874C18.6212 10.0038 18.6878 9.9911 18.7472 9.96199C18.8066 9.93288 18.8565 9.88851 18.8913 9.83381C18.926 9.77912 18.9443 9.71623 18.9441 9.65214V4.43519C18.944 4.3804 18.9304 4.32641 18.9044 4.27762C18.8785 4.22883 18.841 4.1866 18.7949 4.15436L12.9958 0.0666168Z" fill="black"/>
</g>
<defs>
<clipPath id="clip0_9601_2734">
<rect width="70" height="10" fill="white"/>
</clipPath>
</defs>
</svg>
