<svg width="355" height="357" viewBox="0 0 355 357" fill="none" xmlns="http://www.w3.org/2000/svg">
<path d="M189.473 303.256C191.903 304.01 192.823 306.229 190.636 307.856C188.149 306.975 186.185 305.211 189.473 303.256Z" fill="#222224"/>
<path d="M275.111 60.7466C277.091 61.2009 281.224 63.5029 280.282 66.0858C277.83 65.9018 274.082 63.6649 275.111 60.7466Z" fill="#222224"/>
<path d="M296.198 22.805C299.981 24.319 291.442 28.4323 290.278 29.2241C285.948 26.7289 294.463 23.7467 296.198 22.805Z" fill="#222224"/>
<path d="M94.6876 341.168C97.3057 342.294 85.7044 348.745 83.4372 350.528C83.0422 350.552 82.6978 350.421 82.3165 350.321L82.1084 349.927C83.3967 346.236 90.924 342.303 94.6876 341.168Z" fill="#222224"/>
<path d="M223.56 195.81C233.05 194.823 233.018 207.007 228.833 199.677L226.426 198.166C223.164 197.964 218.779 201.099 218.521 198.806C219.347 197.169 221.974 196.36 223.56 195.81Z" fill="#222224"/>
<path d="M74.5167 142.591C75.6568 142.517 77.2609 142.374 78.1192 143.285L78.0575 143.59C73.7892 147.452 70.5597 142.397 66.3282 152.254C62.6806 155.678 64.2406 145.49 74.5167 142.591Z" fill="#222224"/>
<path d="M217.739 182.858C220.419 182.604 225.992 182.86 225.593 186.802C224.837 187.397 221.502 184.394 217.465 185.225L217.146 185.292C215.214 185.805 211.996 188.329 210.423 188.139C208.601 185.425 216.164 183.258 217.739 182.858Z" fill="#222224"/>
<path d="M273.237 265.336C276.967 266.689 271.568 272.421 270.204 273.826C268.032 276.063 264.407 275.044 261.582 275.051C261.265 275.179 260.973 275.165 260.637 275.182L260.304 274.821L260.468 274.285C262.382 272.676 265.993 273.108 268.351 273.137C270.329 270.909 271.665 267.888 273.237 265.336Z" fill="#222224"/>
<path d="M246.601 175.34C249.595 175.2 260.005 184.137 259.715 188.061C258.066 188.456 246.816 177.104 246.601 175.34Z" fill="#222224"/>
<path d="M94.6876 326.704C95.4943 326.679 96.0192 326.775 96.6223 327.346L96.5929 327.906C95.171 329.205 83.4629 336.378 81.9076 337.126C81.3615 337.48 81.0502 337.69 80.4378 337.387L80.4111 336.768C81.5871 334.249 91.9811 328.12 94.6876 326.704Z" fill="#222224"/>
<path d="M235.787 190.798C238.344 190.697 256.049 191.012 254.117 195.328C251.399 195.152 233.132 194.684 235.787 190.798Z" fill="#222224"/>
<path d="M70.3628 112.834C71.595 112.811 72.1678 113.124 73.1393 113.847C75.6524 116.876 75.3043 120.296 71.5738 121.685C66.5762 120.246 65.5697 115.076 70.3628 112.834ZM70.3628 114.874C68.5027 116.89 68.9833 118.377 71.5738 119.288C73.6955 117.485 72.7709 115.681 70.3628 114.874Z" fill="#222224"/>
<path d="M257.239 253.362C259.81 253.645 262.66 258.661 264.337 260.675C264.7 258.99 265.025 257.349 265.867 255.841L265.854 255.937L266.693 255.579C267.916 258.634 266.29 262.541 265.027 265.336C260.062 269.742 255.953 268.121 263.649 264.057C261.918 261.224 256.466 256.828 257.239 253.362Z" fill="#222224"/>
<path d="M247.715 203.279C253.403 202.151 253.181 209.815 248.824 211.808C242.688 211.562 241.973 204.758 247.715 203.279ZM247.715 205.022C245.155 206.73 245.7 209.294 248.824 209.806C250.51 208.088 250.624 205.343 247.715 205.022Z" fill="#222224"/>
<path d="M259.715 299.431C262.026 299.555 275.75 307.072 278.263 308.69C276.052 312.943 273.676 318.493 272.464 323.169C267.348 326.172 275.246 311.223 276.009 309.243C272.569 307.644 260.346 303.445 259.715 299.431Z" fill="#222224"/>
<path d="M160.96 70.7042C163.296 70.9055 170.023 82.8029 181.009 86.279C184.678 87.4405 190.771 86.669 190.636 90.4163C181.618 90.2802 171.811 85.6234 165.726 78.8783C163.925 76.8829 160.867 73.5228 160.96 70.7042Z" fill="#222224"/>
<path d="M121.08 337.126C123.877 336.729 122.155 339.358 122.343 341.25C122.614 343.989 124.393 346.627 124.437 349.25C123.511 349.525 117.899 346.855 116.145 346.408L113.485 348.607C112.811 348.998 112.171 349.17 111.407 349.022L111.244 348.693C111.706 346.632 114.422 345.926 115.278 344.043C116.453 341.455 113.051 340.861 112.359 339.029L112.668 338.65C114.06 338.39 115.034 339.38 116.145 340.15L121.08 337.126ZM119.477 340.15C115.564 342.414 117.415 344.382 120.543 346.408L121.387 346.461C121.873 345.257 120.366 341.623 119.859 340.3L119.477 340.15Z" fill="#222224"/>
<path d="M282.604 14.3445C283.482 14.0268 284.924 14.3517 284.225 15.5645C283.305 17.1605 276.141 17.1734 274.048 18.0359C265.066 21.7388 256.729 25.8147 249.766 32.9935C247.589 33.6615 248.227 31.6384 249.113 30.587C256.057 22.3425 271.582 15.1496 282.604 14.3445Z" fill="#222224"/>
<path d="M105.382 189.042C115.238 188.026 123.978 191.557 131.749 197.616C133.049 198.629 139.523 203.018 136.945 204.981C135.805 204.563 134.728 202.895 133.477 202.225C122.31 190.515 113.194 190.687 99.3296 192.407C96.3579 190.738 104.742 189.2 105.382 189.042Z" fill="#222224"/>
<path d="M16.7456 195.81C18.2549 196.366 18.1233 198.22 18.475 199.854C20.7644 210.492 27.4812 221.614 35.5447 228.502C37.8392 230.462 43.08 232.33 42.3847 234.884C32.385 234.659 19.8281 211.69 17.1857 202.591C16.588 200.533 15.7209 197.812 16.7456 195.81Z" fill="#222224"/>
<path d="M295.367 118.786C300.132 118.414 302.053 122.325 301.605 126.753C300.317 128.621 299.09 129.296 297.049 130.022C290.313 130.755 287.117 120.941 295.367 118.786ZM295.367 121.004C290.628 122.666 292.099 128.015 297.049 127.774C301.355 125.972 300.156 120.719 295.367 121.004Z" fill="#222224"/>
<path d="M272.464 25.9709C276.469 25.5429 287.886 27.3476 286.936 33.0999C286.51 35.6846 282.763 30.1806 282.703 30.1375C276.791 25.9367 266.639 28.3236 262.333 34.5614C261.327 36.4523 256.981 54.5074 256.399 47.8926C255.586 38.6442 262.427 26.8087 272.464 25.9709Z" fill="#222224"/>
<path d="M26.7074 48.16C34.8576 47.9185 36.997 56.4338 30.4035 59.7153C21.2734 60.2482 19.3385 51.1923 26.7074 48.16ZM27.9331 50.3097C22.4208 52.1488 23.6352 58.4991 28.7341 57.2647C33.9599 55.8626 32.9973 50.0519 27.9331 50.3097Z" fill="#222224"/>
<path d="M141.033 329.447C149.437 329.27 149.105 339.211 142.04 341.168C133.974 342.723 132.921 332.184 141.033 329.447ZM141.033 331.844C136.797 334.334 136.48 339.53 142.04 339.347C145.955 337.506 146.333 331.452 141.033 331.844Z" fill="#222224"/>
<path d="M277.255 276.409C282.222 277.33 272.361 284.964 271.472 286.214C271.496 288.578 271.49 290.939 271.472 293.304C273.758 291.635 277.081 287.867 280.188 288.695L280.423 289.147C279.814 291.364 270.938 296.491 269.462 296.446C268.653 293.411 271.13 293.194 266.76 290.157C259.11 285.053 262.551 282.619 269.358 289.492C269.481 286.901 269.415 284.27 269.358 281.677C268.547 281.143 259.945 278.668 262.929 277.188C264.9 276.212 268.383 278.528 270.002 279.738C270.445 281.234 270.634 282.705 270.822 284.252C272.892 281.544 274.824 278.795 277.255 276.409Z" fill="#222224"/>
<path d="M283.371 241.847C291.307 241.347 292.467 251.623 285.431 254.713C277.035 256.434 274.6 244.239 283.371 241.847ZM283.371 243.959C278.48 245.716 279.105 253.206 284.087 252.717C285.207 252.339 286.042 251.903 287.023 251.234C289.285 247.332 287.816 244.452 283.371 243.959Z" fill="#222224"/>
<path d="M270.002 30.2995C273.78 30.5113 275.947 31.278 277.255 35.2218C276.367 39.1636 274.198 41.0171 270.823 42.931C262.968 45.0472 260.411 32.9485 270.002 30.2995ZM270.823 32.9935C264.081 33.6711 265.381 42.1538 270.002 40.3645C275.426 38.2196 276.762 31.8339 270.823 32.9935Z" fill="#222224"/>
<path d="M52.2077 129.16C61.7628 128.347 64.3975 140.578 55.9207 146.393C51.867 144.881 48.6467 139.389 53.8469 136.66L54.183 136.824C54.4823 138.221 53.0568 142.886 54.9299 143.236C59.3915 144.069 61.3171 132.274 53.4611 131.603C38.2334 131.308 48.7627 154.811 48.6752 155.208L48.1743 155.5C43.4327 154.765 37.6458 132.896 52.2077 129.16Z" fill="#222224"/>
<path d="M151.663 236.57C155.132 237.636 154.09 247.368 152.567 250.291C148.197 258.676 135.259 258.726 133.134 248.828C131.013 238.95 145.863 233.974 147.749 244.883C147.349 248.193 142.719 252.561 141.81 248.548C141.65 247.839 144.804 247.349 145.35 246.297C149.199 238.881 130.738 238.914 135.587 249.661C140.046 259.547 153.818 253.398 152.031 241.28C151.793 239.667 151.205 238.211 151.663 236.57Z" fill="#222224"/>
<path d="M129.561 61.4318C138.122 61.1606 142.763 71.4 137.948 78.3493C132.668 85.9695 114.322 87.8881 114.456 84.6354C116.565 82.3534 129.941 85.6168 136.32 77.1724C142.645 66.1615 127.271 56.8632 123.043 69.8053C125.469 75.731 128.483 72.9171 130.964 69.4114L131.419 69.3606C136.771 71.8294 122.665 80.7625 121.304 70.1627C120.665 65.1868 125.344 61.9062 129.561 61.4318Z" fill="#222224"/>
<path d="M22.7695 144.151C25.5313 145.177 21.5315 151.158 22.4315 153.864C23.6427 157.505 28.4872 159.365 29.0518 161.83C28.4644 163.32 24.6351 163.494 23.2241 164.408C21.1115 165.776 20.0035 170.596 17.9259 170.912L17.5263 170.519C14.3368 161.056 19.3435 163.449 8.28809 157.622L8.31783 157.186C9.56471 155.853 12.9279 156.627 14.6282 156.176C19.278 154.944 20.5371 147.874 22.7695 144.151ZM20.4807 154.477C18.6576 156.447 16.8366 157.283 14.3472 157.964L14.5312 158.003C16.3715 161.03 18.2519 161.913 18.647 166.171C19.0213 166.117 18.8822 166.193 19.0967 166.018C21.1035 163.453 22.85 162.044 25.8907 160.94C22.0433 157.96 22.1163 156.072 20.4807 154.477Z" fill="#222224"/>
<path d="M111.84 202.225C115.142 201.819 118.465 202.893 121.172 204.854C131.822 212.564 120.987 227.456 133.68 216.239C136.727 213.545 143.974 217.84 143.531 221.102C141.433 222.158 138.858 217.414 136.513 217.106C135.06 216.915 131.251 222.67 128.014 222.69C122.573 222.723 127.157 213.58 121.08 207.575C120.828 208.496 120.708 209.477 120.543 210.42C117.432 217.725 113.955 218.703 110.095 211.808C108.532 212.622 104.947 216.82 103.471 215.368L103.494 214.758C104.844 212.192 108.159 209.869 110.776 208.99C112.325 210.591 112.602 214.439 115.282 214.232C117.64 212.845 118.593 208.436 119.476 205.9C113.594 203.282 107.474 203.929 101.705 206.76C96.132 209.496 98.3652 202.913 111.84 202.225Z" fill="#222224"/>
<path d="M283.371 77.1724C287.915 76.9155 291.502 80.6024 292.806 84.8452C292.086 89.0391 289.908 90.8515 285.999 92.1223C277.085 94.0208 272.007 78.7269 283.371 77.1724ZM282.604 79.5108C275.053 82.4416 280.619 91.577 287.022 89.5691C293.485 85.0752 289.221 79.0508 282.604 79.5108Z" fill="#222224"/>
<path d="M23.8106 257.637C25.283 258.54 25.6891 264.246 27.6515 266.484L27.9466 266.815C29.0871 268.111 30.4605 269.38 32.0024 270.136C40.6937 274.398 30.0268 273.497 27.5862 274.706C24.7751 276.099 23.6702 280.307 22.769 283.145C20.2725 284.081 21.0989 278.763 20.7391 277.18C18.938 269.251 15.155 272.175 11.3116 269.691L11.2354 269.326C16.0126 264.687 14.7528 274.081 23.8106 257.637ZM23.8106 262.771C22.6291 265.326 20.6514 267.856 18.5221 269.63C20.4037 271.902 21.9173 274.137 23.0953 276.879L23.4367 276.862L23.8106 276.409C25.6721 273.576 27.1579 272.522 30.403 271.664C27.5052 269.417 25.5074 267.421 24.1895 263.802L23.8106 262.771Z" fill="#222224"/>
<path d="M212.534 7.99498C214.126 8.32831 213.949 9.37189 214.426 10.7571C217.844 20.6977 225.318 19.3228 226.932 21.7385L226.841 22.2332C225.165 23.5121 221.816 21.7647 220.022 21.223C212.325 25.4826 215.987 31.5866 214.031 34.5614C211.526 33.3558 211.145 25.8971 207.695 22.7218C204.066 19.3815 199.704 21.8741 197.964 20.2497L197.988 19.6727C199.185 17.7976 203.857 18.7173 205.855 18.1144C211.092 16.5348 210.618 11.8725 212.534 7.99498ZM213.356 13.3447C211.702 15.9066 209.792 18.3605 207.315 20.1125C210.138 21.6113 211.947 24.7538 213.356 27.6205C214.387 24.0232 215.299 21.7689 218.614 20.1125C216.663 17.9686 214.829 15.8887 213.356 13.3447Z" fill="#222224"/>
<path d="M327.83 192.335C331.572 192.169 330.564 203.223 344.494 201.346L344.562 201.584L344.814 201.343C346.102 202.398 341.417 205.354 340.76 206.092C337.367 209.904 336.527 214.18 336.688 219.231C336.985 220.149 336.651 221.175 335.842 221.657C334.139 220.528 334.786 210.152 326.916 209.581C318.859 208.995 324.555 208.665 327.882 203.949C330.681 199.982 327.099 196.396 327.83 192.335ZM331.106 199.04C331.071 202.316 329.786 205.079 327.83 207.575C332.303 209.449 334.759 213.464 335.524 212.694C338.494 198.591 342.528 209.469 331.106 199.04Z" fill="#222224"/>
<path d="M152.289 270.507C160.123 270.342 169.75 270.766 175.45 277.046C180.188 282.267 180.724 291.322 175.339 296.275C164.05 306.663 149.102 290.632 158.985 282.533C166.765 276.157 177.69 285.625 168.694 291.114C167.49 291.237 166.126 291.066 165.763 289.576C166.898 288.288 168.884 288.815 169.886 287.077C170.757 280.199 158.714 281.308 158.194 288.467C157.299 300.748 177.742 300.49 177.088 286.184C176.246 267.785 147.829 274.395 145.938 272.581L146.051 272.102C147.716 270.736 150.247 270.739 152.289 270.507Z" fill="#222224"/>
<path d="M328.955 84.1802C335.498 83.1767 342.617 89.4561 342.127 96.482C341.609 103.913 331.467 108.264 326.788 101.934C322.146 95.6549 331.015 87.3879 335.421 94.6237L335.132 95.2246C333.158 95.1192 331.865 93.5398 329.724 94.1819C322.052 100.54 336.721 107.701 339.728 97.4998C341.702 90.7997 332.98 83.9013 327.175 87.3524L326.962 87.4808C311.738 90.5726 318.941 116.283 339.685 112.559C340.662 112.384 347.658 109.565 346.164 112.786C341.028 117.118 328.385 114.508 323.305 110.792C312.228 102.69 315.859 86.3375 328.955 84.1802Z" fill="#222224"/>
<path d="M16.7455 220.454C20.7891 220.598 22.39 225.187 20.4804 228.471C21.9508 229.265 23.091 229.714 23.8108 231.361C27.1387 232.083 28.0537 232.355 28.7337 236.013C28.4177 239.175 27.4665 239.966 24.5899 241.135C23.6219 240.716 22.7627 240.222 21.8661 239.664C21.3672 239.119 19.1253 240.256 18.5223 240.462C16.1461 239.736 15.246 239.525 14.5454 236.904C13.706 233.767 10.0497 236.403 8.72559 230.551C9.81407 225.706 12.0408 222.311 16.7455 220.454ZM16.1982 223.082C11.7581 225.687 7.44869 231.716 14.606 233.475L14.8067 233.102C16.0297 230.853 23.5371 222.459 16.1982 223.082ZM19.0964 230.148C17.1736 232.269 13.5065 238.771 19.0964 238.294C22.9459 236.695 23.7703 230.144 19.0964 230.148ZM24.5899 233.475C24.2227 235.918 21.5932 239.522 25.8904 238.294C27.3857 236.271 27.5494 233.925 24.5899 233.475Z" fill="#222224"/>
<path d="M225.66 326.704C238.587 326.012 241.158 333.454 252.517 338.097C254.517 338.914 272.969 342.467 271.164 346.197C270.88 346.316 260.84 342.619 258.906 342.158C259.06 343.285 262.431 352.984 259.274 351.868C255.259 346.988 261.4 343.764 251.782 340.15C251.312 343.214 251.047 345.732 249.767 348.607C249.108 349.642 248.79 350.348 247.488 350.432L247.146 350.077C246.726 347.894 249.204 342.273 249.767 339.347C248.446 338.67 247.196 337.921 245.939 337.126C245.167 338.917 242.268 348.803 239.318 346.783C238.867 344.427 246.689 337.082 242.365 334.953C240.181 336.181 236.961 346.738 230.417 344.908C221.059 342.293 235.199 333.309 238.049 331.844C232.32 326.788 225.53 330.441 225.66 326.704ZM240.072 332.997C237.631 334.093 225.773 339.6 231.308 343.239C234.162 342.671 236.249 340.896 237.869 338.452C238.218 337.924 242.067 332.536 240.072 332.997Z" fill="#222224"/>
<path d="M163.57 87.4808C167.993 87.0974 170.89 88.928 173.12 93.003C182.195 91.945 188.585 98.3738 183.564 107.101C185.911 106.831 197.608 104.097 197.042 110.13L196.802 110.327C192.741 110.131 194.633 106.841 187.852 108.925C174.94 112.61 185.259 103.321 183.27 100.034C179.213 98.4898 166.788 113.373 170.176 95.9961C166.867 97.1557 164.464 97.8256 160.96 97.4385C159.547 96.6679 159.131 96.2261 158.569 94.6563C158.958 90.7777 159.766 88.7785 163.57 87.4808ZM173.12 95.1527C172.067 97.2506 171.758 99.7961 171.469 102.119C173.456 101.762 175.549 101.138 177.306 100.071L181.605 97.4385C178.913 95.4143 176.372 94.9917 173.12 95.1527ZM165.125 89.5691C159.655 90.4202 159.558 97.3445 166.323 94.6563C173.155 92.7117 169.437 89.8365 165.125 89.5691Z" fill="#222224"/>
<path d="M163.571 173.224C176.599 172.868 179.39 186.861 168.694 192.335C157.608 196.217 150.289 176.989 163.571 173.224ZM164.408 175.34C154.386 177.052 158.61 192.208 167.715 190.798C175.844 185.749 174.434 174.313 164.408 175.34Z" fill="#222224"/>
<path d="M164.407 180.782C166.489 180.905 168.037 181.984 166.324 183.902C164.683 183.627 161.578 181.908 164.407 180.782Z" fill="#222224"/>
<path d="M240.071 220.454C252.615 218.906 255.179 241.544 241.207 243.016C231.558 241.655 223.418 220.407 240.071 220.454ZM240.071 222.527C227.476 222.903 232.479 238.646 241.207 241.135C253.469 238.795 248.626 219.903 240.071 222.527Z" fill="#222224"/>
<path d="M241.208 228.471C244.727 229.367 245.729 232.822 242.646 234.884C238.671 234.565 238.292 230.549 241.208 228.471Z" fill="#222224"/>
<path d="M257.238 104.045C261.905 105.564 265.198 109.049 263.466 114.351L263.017 115.718C263.337 116.388 263.753 116.694 264.509 116.765C265.976 111.501 262.687 109.279 270.822 107.101C279.059 110.517 280.992 120.87 270.822 121.685C267.121 121.486 264.778 119.913 261.581 118.213C260.082 118.006 258.733 117.992 257.238 118.213C255.535 119.868 253.976 120.873 251.781 121.685C248.192 121.004 243.419 117.908 244.367 113.403C245.774 106.721 251.321 110.341 253.033 109.185C253.843 108.638 254.891 105.565 257.238 104.045ZM269.358 109.74C267.825 110.479 267.471 111.3 266.76 112.834C266.429 118.566 267.003 119.026 272.464 119.288C277.991 116.457 274.745 109.382 269.358 109.74ZM248.824 110.991C244.6 113.624 247.131 119.578 251.781 119.288C254.145 118.132 254.608 116.929 254.188 114.308L254.118 113.847C252.721 111.956 251.518 111.311 249.302 111.049L248.824 110.991ZM257.238 107.101C253.983 110.413 256.779 112.403 257.238 116.24C258.057 115.775 258.87 115.286 259.715 114.874C263.842 113.261 261.295 106.926 257.238 107.101Z" fill="#222224"/>
<path d="M35.0627 7.99497C38.5856 7.77099 51.0903 10.9893 56.8504 11.2962C62.3066 11.587 66.12 9.32138 71.0311 8.9731C76.6236 8.57662 81.6645 14.7219 81.9039 20.2535C78.2803 30.9013 39.1317 36.7801 30.3229 38.1122C28.0714 38.4525 24.7001 39.822 22.5571 39.0256C15.9297 36.5616 19.9979 23.1059 17.3675 17.6194C16.5182 15.8479 13.2924 12.2333 13.3284 10.5215C15.6168 9.28103 18.2245 14.3412 19.0969 15.9222C20.4542 20.1224 20.4815 24.1884 20.4809 28.5664C35.7291 25.7779 47.0679 29.6379 63.6143 22.805C62.3683 19.5836 61.6712 16.8279 62.0368 13.3447C60.6315 14.9056 58.8018 18.976 57.0162 19.6281C54.8466 19.2069 56.1063 14.8337 55.0409 13.2947L54.551 13.2719C53.3686 14.0053 49.4769 22.3047 48.0394 18.4568C49.0275 10.1984 44.5723 20.2727 41.5868 18.5897C41.0647 16.6036 44.1017 13.9848 41.9155 14.2897L41.5721 14.3399L40.9726 13.5332C38.9291 13.6002 38.0128 17.0782 35.1748 16.3388L34.9808 15.8141C35.333 13.1404 37.4907 14.8595 35.1881 12.3042L35.2136 11.8831C35.8985 11.3947 37.2504 11.0323 37.9751 11.5426C38.5083 13.651 37.3866 12.6387 37.0478 14.0017C38.4079 13.7984 40.3206 12.0793 41.4385 11.2596C39.6714 10.7443 37.8627 10.8144 36.044 10.8082C35.8746 10.9414 30.6289 16.3092 30.39 16.5986L29.7068 16.3798C29.7238 13.73 32.9685 9.16967 35.0627 7.99497ZM64.4781 24.9295C52.4974 30.0391 33.9484 30.3407 20.4809 30.2995C20.8996 32.7146 21.443 35.4125 22.7698 37.4912C35.3028 33.1909 53.1494 35.0023 65.7176 27.9632L66.1016 27.7516C66.178 27.7086 66.2535 27.6642 66.329 27.6205C65.8732 26.7298 65.4542 25.7226 64.8013 24.9728L64.4781 24.9295ZM71.5744 10.8082C69.0079 11.4191 66.8254 12.1091 64.4781 13.3447C63.8546 16.5101 64.526 18.8954 65.5942 21.8664L69.0825 20.1125C72.1859 18.4313 75.0268 16.6172 77.7775 14.3445C76.0545 12.9031 73.9411 10.6055 71.5744 10.8082ZM78.679 16.8763C74.7505 19.0017 71.0173 21.5968 67.1873 23.9175C67.459 24.8601 67.6781 26.2835 68.2067 27.0746C70.0807 26.3865 83.4188 20.5704 78.679 16.8763ZM48.9142 12.6286C48.6914 13.209 48.5109 13.6556 48.5284 14.2962L48.8231 14.5889L50.0828 14.5381L50.3913 14.8567C50.3241 15.6148 50.0976 16.2139 49.8287 16.9111L50.0368 17.1414L50.7109 16.8763C53.072 13.4112 52.9882 12.5987 48.9142 12.6286ZM42.3852 11.2596C42.876 12.6684 44.1183 12.1228 44.8596 13.1016C44.6911 14.025 43.9774 15.6953 44.2214 16.5668L44.3927 16.6406C44.7951 16.4355 45.1128 16.2115 45.4637 15.9222C46.0789 14.8239 46.6627 13.687 47.3377 12.6286C45.6249 12.3831 44.0363 11.7633 42.3852 11.2596ZM59.8516 13.3447C55.0418 13.5872 58.4177 14.6245 56.5548 17.3913L57.1101 17.5905C58.3892 16.7497 59.1683 15.0869 59.8921 13.7432L59.8516 13.3447Z" fill="#222224"/>
<path d="M328.164 236.013C335.457 235.253 346.333 243.791 344.391 252.261C342.895 258.786 324.241 279.839 317.235 284.252C310.859 290.66 300.606 279.026 303.278 271.621C305.126 266.498 312.527 259.362 315.657 253.879C319.504 247.14 319.887 238.5 328.164 236.013ZM321.846 245.92C318.954 251.422 316.584 257.117 312.688 261.972C310.328 264.915 302.54 272.319 304.67 276.474C306.313 275.732 317.492 250.948 326.39 260.675C326.18 263.966 325.708 266.764 324.053 269.63C320.774 274.748 317.554 279.762 313.489 284.252C319.58 281.518 333.025 266.52 337.511 259.825C332.311 255.256 326.724 250.833 321.846 245.92ZM328.955 238.294C325.662 239.075 323.369 240.848 321.846 243.959C327.461 247.666 332.078 252.907 337.511 256.923C337.739 257.456 337.968 257.985 338.213 258.508C340.277 256.107 342.761 253.667 342.584 250.179C342.288 244.358 334.699 236.977 328.955 238.294ZM320.532 260.675C316.048 263.528 307.74 272.479 306.411 277.686C305.814 280.027 308.733 282.053 310.3 283.145C310.886 283.302 311.353 283.57 311.925 283.222C313.73 282.124 331.244 260.054 320.532 260.675Z" fill="#222224"/>
<path d="M192.909 125.324C213.716 124.894 196.72 163.864 197.288 175.815C192.306 172.9 186.298 168.6 182.797 163.883C176.882 159.496 166.893 151.824 165.299 144.172C164.047 138.172 168.551 133.748 173.846 132.582C178.015 133.338 181.926 137.726 183.764 137.385C186.578 135.257 184.357 128.062 192.909 125.324ZM193.657 127.774C185.034 130.005 188.555 143.419 181.255 138.998C178.616 137.4 175.952 134.184 172.619 134.979C169.021 135.836 166.326 140.446 167.301 144.164C168.792 149.849 176.992 156.935 181.606 160.205C185.166 164.547 190.432 167.951 194.839 171.307L194.931 170.859C196.764 162.099 209.349 129.604 193.657 127.774Z" fill="#222224"/>
<path d="M190.635 145.189C192.456 145.491 192.81 146.153 191.867 147.93C189.36 152.652 188.552 153.176 184.887 150.78C181.168 145.648 184.732 147.016 187.736 149.377C189.391 148.699 189.938 146.758 190.635 145.189Z" fill="#222224"/>
<path d="M28.427 72.4389C37.7863 71.4182 44.7675 77.1849 43.3465 87.1071C41.5978 99.3294 38.3811 119.312 28.7342 126.753C23.5323 127.876 20.7824 127.937 16.2381 124.58C11.3629 120.978 16.9758 102.117 17.8006 96.8318C19.0227 89.0027 18.4174 73.8209 28.427 72.4389ZM21.1752 88.5283C19.8571 94.6467 15.3468 119.59 16.7496 121.956C17.3299 122.935 18.2351 123.672 19.0969 124.365C18.9712 119.082 20.1888 102.479 23.7482 98.5521C28.3589 93.4669 34.9232 97.7078 34.4218 104.045L34.3897 104.326C33.7342 109.696 27.9537 122.913 27.9542 124.308C32.832 124.827 39.5359 97.1241 40.5977 93.0031C34.1558 90.8419 27.932 89.251 21.1752 88.5283ZM27.9332 74.532C24.024 75.8422 20.971 81.4487 21.4028 85.6503L21.7651 86.2436C26.9257 87.1329 31.9398 87.9763 36.9556 89.5692C38.22 90.0905 39.4006 90.6751 40.5977 91.347C42.6356 79.8626 40.3666 74.2043 27.9332 74.532ZM27.9332 98.4611C26.2104 99.3169 24.564 100.255 23.8847 102.231C22.9623 104.914 16.7385 128.851 25.2188 125.324C26.9422 121.342 38.0782 98.1975 27.9332 98.4611Z" fill="#222224"/>
<path d="M123.649 8.93582C128.069 8.45663 132.467 11.3163 133.792 15.7851C136.84 26.0754 122.405 36.8251 116.897 45.0222C114.593 48.4514 113.659 52.7258 111.84 56.4424C109.833 53.3698 107.621 50.3873 105.381 47.4949C101.23 40.5332 90.0055 24.8318 92.2303 17.0439C94.7609 8.18463 108.078 5.34531 113.484 15.9222C116.256 11.7568 118.932 10.0214 123.649 8.93582ZM102.435 11.2596C97.0714 12.6809 92.6677 16.4471 94.3281 22.5959C96.2315 29.6477 106.984 46.871 111.84 52.1517C112.792 46.3592 115.94 42.4892 119.476 38.1084C123.706 33.1219 132.653 25.1535 132.14 18.0178C131.547 9.79502 120.738 9.57344 116.516 15.109C115.708 16.1679 114.632 20.0037 113.827 20.1268C110.557 15.5167 108.777 10.7948 102.435 11.2596Z" fill="#222224"/>
<path d="M107.104 24.9295C108.593 25.6553 109.826 28.3745 110.776 29.7872C115.5 26.1362 120.513 26.412 115.042 29.7872C113.208 30.4059 111.625 32.8478 109.906 33.0606C108.241 30.979 104.465 26.7868 107.104 24.9295Z" fill="#222224"/>
<path d="M183.565 310.28C192.786 310.524 197.203 309.665 195.631 318.508C203.351 322.633 208.923 332.321 209.21 341.168C214.861 341.943 215.058 346.452 212.453 351.162C210.634 352.299 192.58 349.224 189.473 348.607C184.464 348.349 157.821 344.801 157.124 343.43C156.284 341.778 156.731 335.314 158.703 334.196C161.678 334.596 162.456 331.65 164.222 329.523C169.177 323.551 175.504 319.557 182.797 317.467C182.817 315.293 181.74 311.786 183.565 310.28ZM182.797 319.43C176.278 321.655 166.466 327.518 163.315 334.353C163.808 334.686 192.352 339.387 193.658 339.347C198.051 340.551 202.816 340.616 207.316 341.168C206.291 332.13 202.27 325.184 194.839 320.51C190.74 326.111 185.023 327.209 183.197 319.565L182.797 319.43ZM159.517 336.051C159.255 337.753 158.689 339.464 158.57 341.168C168.679 345.26 199.371 348.472 211.518 349.538C211.485 347.636 211.352 345.672 211.518 343.778C204.996 342.162 197.783 342.286 191.121 341.276C180.6 339.681 170.123 337.013 159.517 336.051ZM184.888 312.694C184.685 317.757 185.791 328.014 192.217 320.51C193.663 318.522 194.023 316.828 194.43 314.41C191.519 313.092 188.065 312.43 184.888 312.694Z" fill="#222224"/>
<path d="M34.4211 170.519C52.4211 170.229 69.7788 171.25 87.5224 171.307C88.2213 175.638 89.3789 178.942 84.1298 178.499C83.1565 185.53 82.8876 192.639 81.9068 199.677C81.9473 201.237 81.9639 202.783 81.9068 204.342C68.1636 204.042 54.3485 204.341 40.597 204.342C38.7488 197.486 37.757 185.656 36.9549 178.499C35.4382 178.4 34.3924 177.994 33.0445 177.317C32.973 175.051 31.9725 171.585 34.4211 170.519ZM38.9523 178.499C38.7681 182.736 41.3097 199.846 42.3163 202.169C53.0151 203.394 68.2943 202.03 79.5945 202.225C79.8146 201.377 80.0494 200.53 80.2465 199.677C80.3063 192.475 82.2614 185.612 82.6905 178.499C68.1148 178.151 53.5326 178.873 38.9523 178.499ZM35.0619 172.535C34.9672 173.86 34.8942 175.252 35.0619 176.576H86.2285C86.2386 175.459 86.2644 174.34 86.2285 173.224C69.0246 172.722 52.2102 172.783 35.0619 172.535Z" fill="#222224"/>
<path d="M76.0056 180.782C77.9211 181.563 78.2397 182.443 76.746 183.902C74.6915 183.714 74.0248 182.093 76.0056 180.782Z" fill="#222224"/>
<path d="M44.2514 181.263C46.444 181.422 46.7737 183.054 45.4633 184.566C42.8397 185.332 43.2347 182.724 44.2514 181.263Z" fill="#222224"/>
<path d="M73.1396 192.335C74.5218 192.569 78.139 194.954 75.4353 195.81C73.8035 195.232 70.3235 194.131 73.1396 192.335Z" fill="#222224"/>
<path d="M66.3283 182.858C68.9123 183.52 69.4492 185.479 67.1866 186.892C64.2665 186.773 64.7997 184.446 66.3283 182.858Z" fill="#222224"/>
<path d="M61.451 193.354C64.0488 193.472 64.6907 195.364 62.7421 197.317C60.2824 197.107 58.8532 195.028 61.451 193.354Z" fill="#222224"/>
<path d="M47.3378 192.335C50.2543 191.862 50.4044 193.948 48.9144 195.81C46.3985 196.386 45.1305 193.756 47.3378 192.335Z" fill="#222224"/>
<path d="M53.4609 184.566C57.0836 184.42 56.9694 186.711 55.0365 189.042C52.6238 188.747 51.7922 186.259 53.4609 184.566Z" fill="#222224"/>
<path d="M320.533 129.16C324.148 128.951 327.119 130.648 328.955 133.935C338.83 127.11 346.179 137.903 339.863 142.591C340.304 148.216 341.318 153.049 343.395 158.275C344.695 161.548 348.893 168.205 344.036 170.345C340.461 171.92 331.252 173.331 326.963 174.135C323.048 175.182 316.218 177.901 312.578 178.04C305.49 178.311 307.251 170.269 307.323 165.443C307.399 160.285 307.047 155.633 305.309 150.78C296.674 146.135 300.566 138.603 310.319 138.228C312.378 136.215 309.77 131.919 320.533 129.16ZM319.934 131.603C320.575 137.061 314.264 130.582 312.848 136.12C312.394 137.896 313.857 141.215 312.643 142.355C310.18 142.513 307.579 137.682 303.561 142.395C301.736 144.536 303.247 146.87 305.25 147.887L306.177 148.369C307.477 151.061 308.689 154.051 309.091 157.057C310.572 168.113 304.266 180.257 318.967 174.135C318.019 171.069 312.033 148.366 316.495 151.666C317.458 153.511 317.577 159.035 317.986 161.405C318.701 165.542 320.338 169.966 320.533 174.135C322.46 173.389 324.396 172.549 326.391 172.021C325.187 165.824 324.189 159.565 322.919 153.386C322.516 151.425 320.053 147.126 323.148 147.065C325.43 152.29 327.602 165.963 328.164 172.021C330.625 171.34 333.109 170.706 335.524 169.86C333.202 164.849 329.376 152.085 330.832 147.582C331.383 145.877 332.208 147.641 332.419 148.539C333.122 151.528 336.556 168.145 336.688 169.86C346.191 168.377 345.341 168.475 342.073 160.401C339.563 154.198 337.89 148.249 338.214 141.466C338.941 140.558 339.661 139.678 340.269 138.677C338.757 132.884 332.529 131.732 330 135.696C329.765 136.867 330.85 140.258 328.161 138.114C325.045 135.63 328.841 131.098 319.934 131.603Z" fill="#222224"/>
<path d="M79.5952 46.3132C81.11 47.3501 83.089 53.2097 84.1618 55.1112C90.236 65.8864 97.0247 73.2085 100.187 86.0614C90.4505 91.1313 79.9212 94.5642 70.3634 100.071C66.7866 101.333 63.3729 103.776 59.939 105.452C59.3643 104.9 59.8736 91.6766 59.8506 89.9084C59.7115 78.9645 57.331 67.9019 55.0371 57.2647C59.4509 54.4882 74.744 48.1734 79.5952 46.3132ZM66.329 54.4144C63.4982 55.7638 60.718 57.3509 57.8578 58.6026C73.638 60.5031 69.2472 85.6033 62.0367 90.4163C62.0947 94.317 61.8747 98.2243 62.0367 102.119C67.3318 98.232 82.5586 91.2875 89.3759 88.5283C92.1818 87.3131 95.147 86.2387 97.8673 84.8452C93.2049 72.1456 89.7148 84.7887 79.8613 75.3917C78.0951 73.7068 77.0803 69.3442 80.7242 69.6154C83.4279 69.8177 89.0609 73.4107 91.2517 72.2184C92.3964 69.8704 88.9311 66.3828 87.5231 64.9117C82.6893 66.0627 77.8013 62.9182 73.1398 64.9117C68.5336 70.6035 71.5992 57.6001 66.329 54.4144ZM57.8578 60.7465C59.7796 69.9883 61.428 79.0652 62.0367 88.5283L63.6142 84.8452C66.4634 76.6404 69.8937 62.4112 57.8578 60.7465ZM70.3634 53.1513L69.7197 53.5711C69.5392 54.5371 72.0725 60.3967 72.3875 63.0141C77.7028 61.1471 80.4046 62.9939 85.5809 63.0141L86.1224 62.7016C86.1878 61.3263 84.2696 59.5907 83.4371 58.6026C76.5222 58.3295 74.9705 54.494 70.3634 53.1513ZM80.2472 71.3981C81.3053 76.8963 90.5555 77.9122 94.6875 77.1723C94.2437 76.0146 93.7777 74.8617 93.3569 73.6953C87.5093 74.9019 85.603 72.92 80.2472 71.3981ZM78.6789 48.6373C76.5434 49.7317 74.4079 50.8387 72.3875 52.1517C74.1408 52.9356 75.9384 53.8883 77.7774 54.4144C84.7724 59.2658 81.1653 51.823 78.6789 48.6373Z" fill="#222224"/>
<path d="M295.367 182.333H298.62C301.109 189.409 299.857 189.591 304.001 196.881C308.573 204.924 309.688 214.249 313.49 222.527C318.021 222.488 325.346 224.821 315.938 224.716C305.629 224.6 295.368 226.727 285.43 229.415C282.942 229.903 267.545 234.832 266.786 234.248C266.828 232.447 269.522 231.246 270.822 230.551C270.347 224.747 270.041 208.051 270.437 202.781C270.599 200.642 271.413 198.577 271.512 196.426C271.644 193.553 270.675 190.4 270.822 186.892C276.338 181.684 288.254 182.302 295.367 182.333ZM285.999 184.566C284.097 184.727 282.144 184.842 280.282 185.292C278.997 199.826 287.079 208.437 273.978 219.816L273.236 220.454C273.242 221.605 273.265 222.758 273.236 223.909C274.178 222.495 274.612 221.863 276.252 221.275L276.486 221.39C275.724 222.845 274.464 223.746 273.236 224.745C272.774 226.675 272.611 228.571 272.464 230.551C279.068 229.087 285.483 226.935 292.147 225.679C298.388 224.116 304.703 223.675 310.99 222.527C309.897 219.123 308.925 215.108 307.215 212.001C294.68 210.214 292.619 205.218 290.278 193.354C288.329 193.381 285.948 193.709 284.049 193.265L284.068 193.04C286.042 192.139 288.172 192.323 290.278 192.335C289.84 189.786 289.223 187.147 289.06 184.566C288.041 184.561 287.019 184.537 285.999 184.566ZM297.049 193.354C295.661 193.6 294.2 193.979 292.806 194.113C293.898 202.183 295.933 206.853 303.73 208.99C304.927 209.268 306.123 209.563 307.328 209.806C305.133 204.813 302.785 193.719 297.049 193.354ZM278.263 195.81C276.782 196.292 275.258 196.724 273.817 197.317C272.112 201.41 271.49 214.547 273.491 217.218L273.817 217.17C278.937 211.561 281.946 203.137 278.263 195.81ZM294.058 183.902C293.072 184.201 292.054 184.369 291.047 184.566C291.458 187.442 291.879 190.173 292.806 192.931C293.654 192.7 294.494 192.444 295.367 192.335C296.446 192.358 297.544 192.427 298.62 192.335L297.049 183.902H294.058ZM277.255 186.485C275.635 186.742 274.525 186.92 273.236 188.061C273.157 189.683 272.763 194.107 273.817 195.328C275.345 194.74 276.814 194.132 278.263 193.354C278.157 191.209 278.334 188.703 277.846 186.63L277.536 186.42L277.255 186.485Z" fill="#222224"/>
<path d="M294.428 186.485C296.562 187.001 297.012 187.958 296.198 189.933C293.983 189.661 293.433 188.434 294.428 186.485Z" fill="#222224"/>
<path d="M284.086 186.892C286.592 187.269 288.688 190.529 285.43 191.646C282.368 191.572 281.211 188.208 284.086 186.892Z" fill="#222224"/>
<path d="M128.831 271.664C130.225 272.584 144.795 305.234 146.104 308.69C139.202 315.055 124.662 320.619 116.144 326.704C114.251 325.112 112.664 323.167 110.776 321.549C105.642 316.099 91.3891 302.606 88.166 296.327C91.518 293.624 97.641 291.046 101.554 288.727C110.748 283.278 119.778 277.369 128.831 271.664ZM128.331 275.051C123.069 277.135 116.681 281.671 111.636 284.68C105.104 288.577 97.1409 292.87 90.9452 297.042C96.6713 303.65 102.439 310.079 108.591 316.262C108.952 315.078 109.343 313.897 109.638 312.694C109.833 309.839 110.104 307.073 110.776 304.288C107.854 303.511 104.96 302.658 102.434 300.879C101.875 301.475 101.403 302.076 100.631 302.368L100.128 302.307C99.328 300.573 101.275 298.842 102.434 297.941C104.576 300.698 107.561 301.58 110.776 302.254L110.936 301.897C118.171 285.49 109.478 288.311 125.658 290.157C126.899 286.289 128.964 282.821 130.252 279.006C129.829 277.712 129.494 276.195 128.739 275.07L128.331 275.051ZM112.603 305.417C112.021 309.507 111.276 313.509 110.095 317.467C111.454 320.028 114.211 322.012 116.144 324.129C118.438 322.948 120.709 321.594 123.043 320.51C124.682 319.158 126.413 318.291 128.331 317.467C127.177 314.212 125.803 310.961 124.315 307.856C120.225 307.65 116.525 305.713 112.603 305.417ZM138.838 299.43C135.917 299.66 133.1 300.176 130.252 300.879C128.574 302.676 127.523 304.801 126.382 306.988C126.823 308.871 128.846 316.81 130.873 316.262C135.092 313.009 140.028 310.735 144.498 307.856C143.503 306.545 140.107 298.833 138.838 299.43ZM116.144 291.114C115.295 295.193 113.961 299.101 113.484 303.256C116.159 304.233 121.611 306.845 124.315 305.417C125.981 303.492 127.181 301.716 128.331 299.43C127.444 297.002 126.576 294.564 125.658 292.149C122.488 291.83 119.323 291.285 116.144 291.114ZM131.572 281.677C129.809 284.631 128.347 287.762 127.42 291.114C128.224 293.464 128.969 295.812 130.252 297.941C131.815 298.041 133.367 298.187 134.924 297.941C136.223 297.599 137.51 297.249 138.838 297.042C137.731 294.499 132.895 283.068 131.572 281.677Z" fill="#222224"/>
<path d="M182.796 8.93581C189.023 7.44628 196.799 37.7701 192.817 44.4635C189.288 50.395 172.714 57.7468 166.324 59.2649C162.663 58.3448 160.815 56.0725 158.57 53.1513C156.623 50.6461 140.938 27.6817 141.901 25.3282C144.542 23.9614 147.778 23.412 150.547 22.2416C158.411 18.9172 175.266 9.72772 182.796 8.93581ZM183.564 11.2596C178.334 11.5538 152.133 23.2587 144.499 27.0746C148.095 33.5484 154.548 45.5771 159.517 50.3097C161.104 53.0238 162.257 55.0891 165.126 56.4424C171.097 57.188 184.227 49.6771 188.767 46.0027C197.302 39.0927 185.658 11.6452 183.564 11.2596Z" fill="#222224"/>
<path d="M180.485 15.9222C183.906 16.4802 180.949 25.7721 180.485 28.5664C182.326 29.748 188.526 31.2962 188.697 33.9768C187.231 34.6985 182.755 32.1233 180.857 31.7984L180.485 31.7361C179.868 34.8078 178.975 48.3345 176.855 50.0193L176.682 49.8775C176.12 48.1246 176.232 47.2563 176.622 45.5005C172.881 44.1597 167.864 41.1743 164.408 40.3645C163.563 42.7662 163.012 47.3071 161.659 49.1798C161.442 49.4788 161.085 49.7797 160.871 49.3082C159.869 47.0876 161.626 41.7091 162.162 39.3831C158.784 37.2517 154.605 35.7451 151.663 32.9935C151.602 32.6265 151.637 32.3581 151.675 31.9901L152.126 31.6853C154.557 31.7515 159.881 35.3387 162.162 36.7025C163.298 34.1014 164.894 25.5723 166.458 24.3426C167.529 23.5002 166.81 27.9905 164.408 37.4913C168.428 39.548 172.294 41.6631 176.622 42.9311C176.98 38.6567 178.12 34.6573 178.189 30.2995C176.259 29.1169 169.352 26.6994 168.676 24.3909L169.05 24.1423C172.279 24.0724 175.314 26.2638 178.189 27.6205C179.457 23.8886 178.993 19.2764 180.485 15.9222Z" fill="#222224"/>
<path d="M219.414 262.771C223.949 261.432 248.324 280.589 254.118 286.214C250.64 294.429 230.748 316.279 224.699 319.43C223.334 318.523 222.072 317.329 220.817 316.262C214.08 307.71 206.457 299.698 199.581 291.114C200.965 288.345 202.742 285.76 204.374 283.145C203.305 282.008 202.339 280.809 201.202 279.737C199.596 281.325 198.322 283.263 196.669 284.758L196.242 284.685C194.073 282.326 198.787 279.453 200.43 278.173C198.181 267.824 206.026 261.941 212.534 270.507C214.31 267.355 216.375 264.647 219.414 262.771ZM220.022 264.057C217.796 266.392 215.904 269.024 214.032 271.664L214.131 271.886C217.802 279.886 224.142 286.546 230.382 292.446C231.858 293.842 236.367 296.686 236.272 298.929L235.965 299.279C233.02 299.143 222.24 285.756 215.348 282.293L215.106 282.646C213.246 285.319 210.529 282.93 213.356 281.201C212.309 280.478 211.252 279.636 210.156 279.006C199.726 293.168 200.586 287.112 207.316 297.941C213.197 303.524 218.409 312.029 224.699 316.867C231.731 310.993 247.689 294.932 251.781 287.024C245.699 281.557 225.152 265.893 220.022 264.057ZM205.533 268.636C198.599 270.295 202.647 277.835 205.533 281.201C206.749 279.828 208.049 278.489 209.21 277.067C208.051 275.884 207.083 275.144 206.912 273.366L207.136 272.876C208.252 272.749 208.707 273.352 209.377 274.14L210.156 275.051C211.802 277.668 215.329 279.769 217.738 281.677C215.087 277.762 211.006 267.874 205.533 268.636Z" fill="#222224"/>
<path d="M213.356 288.248C215.065 287.978 216.245 288.383 215.057 290.157C213.451 290.217 212.698 289.955 213.356 288.248Z" fill="#222224"/>
<path d="M238.049 291.114C240.253 291.474 240.646 293.001 240.072 295.051C237.632 294.898 237.05 293.221 238.049 291.114Z" fill="#222224"/>
<path d="M217.738 293.304C219.989 293.004 221.579 293.776 220.022 296.327C218.014 296.918 217.065 295.005 217.738 293.304Z" fill="#222224"/>
<path d="M264.337 126.753C266.199 126.863 285.016 133.813 287.023 134.993C285.317 140.837 285.756 163.664 280.555 165.995C277.942 167.166 266.27 169.209 264.337 163.883C256.753 165.467 248.935 166.375 241.208 166.018C232.475 164.964 219.663 161.871 215.058 153.482C217.705 141.812 223.263 144.591 232.753 143.896C242.256 143.202 251.198 139.011 258.486 132.643C260.669 130.738 261.595 128.007 264.337 126.753ZM264.337 129.16L264.033 129.477C263.078 130.463 262.338 131.426 261.581 132.582C266.598 135.01 266.26 138.846 261.744 140.9C264.141 136.158 257.484 144.779 255.356 145.249C253.258 142.881 251.15 150.151 251.518 143.671C250.686 142.854 249.744 142.172 248.825 141.466C247.957 141.925 247.13 142.387 246.197 142.687C247.007 142.731 248.046 142.628 248.601 143.264L248.482 143.714L247.715 144.151H249.767C251.189 145.628 250.338 147.871 248.209 147.785C246.374 147.71 246.709 150.296 244.779 149.929C243.727 148.269 245.403 144.662 242.772 144.503L242.63 144.846C245.612 150.509 239.693 150.56 239.003 148.473C239.87 146.939 243.858 146.381 239.537 145.484C237.919 146.515 239.525 149.492 237.125 150.755C234.847 150.684 236.492 147.493 237.023 146.393C234.079 146.223 216.986 145.313 219.986 148.823C225.2 154.921 244.499 157.904 251.568 157.263C262.85 156.239 270.292 154.069 282.604 154.477C283.856 148.976 283.715 141.699 284.087 135.89C280.254 134.409 267.653 129.612 264.337 129.16ZM218.614 150.78L217.146 153.482C225.978 161.451 238.115 164.622 249.648 163.758C255.165 163.344 264.622 159.077 266.761 164.62C269.324 164.714 279.407 165.863 280.282 162.858C281.023 160.73 281.775 158.613 282.604 156.519C259.933 155.877 243.165 165.827 221.117 152.318C220.324 151.832 219.458 151.131 218.614 150.78ZM259.715 134.993C259.107 135.977 259.078 136.22 257.963 136.347L258.069 136.776C259.43 137.156 259.65 136.942 260.257 138.493L260.547 138.677C263.345 136.777 263.67 134.927 259.715 134.993ZM251.781 139.733C252.549 142.128 253.679 143.381 256.069 142.591L256.063 142.109C255.063 141.13 253.18 139.813 251.781 139.733ZM254.88 137.796C256.041 138.986 257.24 140.952 258.905 139.733C259.389 137.569 256.263 137.652 254.88 137.796ZM244.517 144.151L245.938 146.393C247.181 145.624 248.447 144.763 249.767 144.151H247.715H244.517Z" fill="#222224"/>
<path d="M326.39 12.6286C329.721 12.4162 330.035 15.1235 330.172 17.97C334.68 17.959 339.713 17.4089 344.152 18.1246C344.653 18.6233 341.685 39.0649 343.379 45.3769C345.145 51.9485 348.835 60.8213 344.126 67.0729C342.228 69.5934 332.325 69.3807 328.955 69.8052C328.303 67.7955 328.187 66.0024 328.163 63.9073C318.221 74.0701 312.562 72.0603 298.62 70.7042C290.538 70.618 283.678 66.6445 286.454 57.4545C288.898 49.3666 300.486 52.376 308.107 48.1926L308.102 47.9655C306.09 44.9705 308.341 45.0357 310.3 46.3132C313.528 43.3297 310.437 42.2516 312.977 41.0555C315.18 41.4983 315.573 39.9208 316.449 38.1084L316.249 37.9704C313.181 35.8054 315.36 34.4944 317.945 35.2218C318.525 33.5551 319.259 31.9278 319.934 30.2995C318.429 30.2794 316.265 30.495 315.466 28.801L315.706 28.3356C317.282 27.2559 318.72 27.5334 320.532 27.6205C320.795 25.4131 321.23 23.3533 321.846 21.223C320.548 21.2065 319.251 21.4305 318.26 20.4391L318.254 19.9457C319.518 18.62 326.118 18.2494 328.163 17.97C327.657 13.8413 324.565 15.3289 326.39 12.6286ZM335.523 29.2241C330.997 29.5995 326.386 29.6705 321.846 29.7872C323.168 30.655 332.82 35.63 330.475 37.795C329.168 39.0026 327.943 37.5899 326.962 36.7025C325.766 36.6756 318.11 36.1044 320.528 38.5522C321.829 39.868 328.36 41.8979 326.017 44.3466C324.871 44.6715 324.484 44.3466 323.728 43.5396L323.147 42.9311C320.316 43.162 317.634 43.3623 314.983 44.5316C315.851 45.4545 317.304 47.3713 318.386 47.8773C319.238 48.276 321.652 47.8093 321.495 49.4951C320.945 55.4112 318.096 48.1562 314.063 49.2785C312.807 49.6283 311.577 50.0509 310.3 50.3097C311.773 51.9687 314.941 54.1921 314.949 56.5478C313.556 58.9611 311.391 57.7008 311.961 54.5812C310.747 53.3238 309.467 51.9639 308.088 50.9125C304.413 53.1638 290.98 53.2184 289.586 56.5977C288.252 59.8284 299.323 62.7189 301.242 62.9988C311.123 64.4421 333.37 57.2101 343.814 54.4145C340.833 44.5402 339.244 39.6859 341.176 29.2241H335.523ZM342.965 57.2647C328.474 58.3113 300.233 74.2819 288.467 59.7153C288.271 62.648 287.859 65.1264 291.046 66.0857C297.005 68.6964 314.207 70.3659 320.004 67.8137C323.984 66.0618 331.155 56.1032 331.106 66.9627C333.142 66.979 341.01 67.0096 342.424 65.8826C343.618 64.9328 344.76 56.5507 342.965 57.2647ZM339.862 20.1125C336.58 20.1403 333.436 20.2651 330.172 20.6525C329.913 22.98 328.683 27.6808 332.178 27.0746C335.17 27.0541 338.19 27.187 341.176 27.0746C341.596 24.7677 341.976 22.4509 342.197 20.1125H339.862ZM324.053 20.6525C323.341 22.9159 323.161 25.3136 322.623 27.6205H326.962L327.579 27.4617C328.288 25.8992 327.861 22.4298 327.829 20.6525H324.053ZM321.846 31.7361C321.412 32.8977 321.005 34.0775 320.532 35.2218C322.482 35.2179 324.441 35.1691 326.39 35.2218L326.941 35.3042C326.359 34.3372 322.963 32.5929 321.846 31.7361ZM318.966 39.3831L317.235 42.149C318.151 42.2199 319.018 42.2161 319.934 42.149L321.005 41.6679C321.133 40.4757 319.746 39.9859 318.966 39.3831ZM313.489 46.3132C312.134 48.3728 312.989 48.2444 314.983 48.16L315.431 48.0067C315.171 47.3991 314.072 46.6256 313.489 46.3132Z" fill="#222224"/>
<path d="M83.4365 286.214C75.6081 282.545 62.3409 269.465 55.5061 263.596C53.2095 261.624 49.6779 259.642 47.9521 257.171C48.0571 254.708 61.0526 239.724 63.3493 236.571C72.059 224.606 69.5367 219.071 81.0956 229.199L81.2632 229.044C79.3063 218.05 100.854 211.723 92.3801 233.475L91.6056 234.519L91.6821 234.896C92.4694 234.997 93.2163 234.94 94.0064 234.884C112.386 232.767 104.713 245.551 95.6382 241.135L94.5911 240.841L94.6869 241.135C96.4614 244.106 102.804 250.763 105.381 254.035C98.1163 264.824 90.2427 275.045 83.4365 286.214ZM87.5224 239.663C82.8084 245.58 68.6978 264.189 66.3283 270.507C70.6528 274.587 77.4075 280.668 82.6906 283.145L95.1879 264.882C97.6374 261.341 100.566 257.949 102.434 254.035C100.188 249.8 96.7488 246.285 93.3562 243.016C91.9077 241.461 89.6009 237.327 87.5224 239.663ZM73.1392 225.679C70.1509 230.272 67.2216 235 63.9073 239.347C59.3867 245.278 54.0042 250.027 50.7102 256.923C54.9085 261.174 60.0166 264.647 64.4774 268.636C71.116 258.32 78.3385 247.638 86.2286 238.294L86.9156 237.294L86.8382 236.835L85.5803 236.013C81.6463 232.273 77.4913 228.882 73.1392 225.679ZM86.2286 233.475L89.3753 234.884C89.8486 233.989 90.2842 232.996 90.9454 232.236C97.4026 213.291 78.8698 221.91 83.9872 230.47C84.6364 231.555 85.5969 232.398 86.2286 233.475ZM94.6869 236.57C93.7623 236.583 92.8313 236.621 91.9068 236.57C93.3645 237.823 94.6667 238.963 96.4605 239.663C103.232 242.492 107.474 235.362 94.6869 236.57Z" fill="#222224"/>
<path d="M76.7457 238.294C78.7605 238.316 80.2809 239.783 79.5949 241.847C77.4888 241.717 75.8727 240.491 76.7457 238.294Z" fill="#222224"/>
<path d="M69.0818 249.493C71.3012 249.724 72.4256 251.061 72.3869 253.362C70.209 252.773 68.777 252.066 69.0818 249.493Z" fill="#222224"/>
<path d="M67.1865 241.847C69.2797 242.123 71.6823 242.153 71.5736 244.883C69.5246 244.864 67.495 244.151 67.1865 241.847Z" fill="#222224"/>
<path d="M58.4629 251.234C60.5432 251.213 64.1088 253.535 64.4781 255.767C62.1216 256.062 58.8662 253.71 58.4629 251.234Z" fill="#222224"/>
<path d="M85.5805 266.82C87.2731 267.091 87.7621 267.893 87.5227 269.63C85.4802 269.597 84.5473 268.818 85.5805 266.82Z" fill="#222224"/>
<path d="M87.5228 244.883C89.3323 244.864 90.6639 245.524 89.9576 247.53C88.0578 247.595 86.903 246.956 87.5228 244.883Z" fill="#222224"/>
<path d="M91.9072 254.713C93.6228 254.721 95.553 255.645 94.6874 257.637C92.5169 257.964 91.1024 256.992 91.9072 254.713Z" fill="#222224"/>
<path d="M75.4355 268.636C77.9827 268.774 80.9056 270.148 80.2471 273.137C78.1696 272.736 75.465 271.032 75.4355 268.636Z" fill="#222224"/>
<path d="M221.875 46.3132C228.824 45.857 230.66 52.6635 230.279 58.6026C236.052 58.2097 241.95 57.1248 247.714 56.4424C250.199 63.2297 250.857 74.1457 252.799 81.7803C256.629 96.8347 258.726 94.247 247.376 94.6495C241.337 94.8642 234.543 95.3511 228.833 97.4384C223.47 97.1672 207.913 101.539 203.844 99.3016C200.625 97.5324 193.92 67.069 194.914 64.2513C200.163 62.4802 208.237 62.1161 214.031 60.7465C213.485 53.6765 214.91 48.5721 221.875 46.3132ZM247.714 71.3981C243.864 77.7435 237.245 78.999 230.643 80.5526L229.818 80.7423C230.817 89.0592 221.801 89.503 220.816 81.6979C213.692 81.7209 206.331 82.3419 199.581 79.5108C200.207 83.5543 201.298 87.43 202.422 91.3469C202.975 93.2005 203.442 95.9156 204.885 97.2084C209.19 98.8348 241.524 91.9517 252.782 92.3801H252.776L252.51 92.1127L252.897 91.8108C252.377 89.2413 248.796 72.2951 247.714 71.3981ZM243.433 59.2648C230.979 59.5006 209.672 63.6025 197.288 66.0857C197.176 69.7947 197.757 72.9324 198.807 76.4679C201.225 77.7186 203.716 78.6406 206.278 79.5108C211.103 79.6824 216.037 79.1533 220.816 79.5108C220.288 77.9803 219.288 75.9015 219.668 74.256C221.022 72.7666 227.198 72.7178 229.261 73.472C230.104 74.4064 229.811 77.0564 229.818 78.2956C239.061 76.513 249.623 73.7423 246.873 61.3953C246.338 58.9965 245.534 58.9007 243.433 59.2648ZM221.875 47.4949C215.774 48.4695 214.794 55.5377 216.013 60.7465L221.875 59.7153C224.207 59.4086 226.507 58.9332 228.833 58.6026C228.905 53.2212 228.093 47.7584 221.875 47.4949ZM226.426 75.2901C224.591 75.7951 222.701 75.1454 220.816 75.2901C221.35 76.6826 221.878 78.4202 223.012 79.4006L223.56 79.5108C230.56 78.8888 228.884 74.6987 226.426 75.2901ZM225.659 81.6979C221.796 81.695 222.767 84.4743 225.659 84.1801C229.422 83.6559 227.408 80.4366 225.659 81.6979Z" fill="#222224"/>
<path d="M198.808 203.279L199.246 203.236C199.761 204.339 204.478 206.842 205.792 207.814C210.748 211.479 215.77 216.342 219.414 221.418C216.234 225.185 212.823 228.918 209.21 232.236C208.056 230.891 206.81 229.686 205.533 228.471C205.826 232.601 205.791 254.066 204.994 257.192C202.876 259.102 181.517 260.432 177.306 260.675C175.358 260.629 173.417 260.642 171.469 260.675C170.669 252.017 171.244 236.822 171.469 227.806C170.442 228.734 169.301 229.965 167.954 230.31C165.083 228.453 158.344 221.974 155.298 219.231C159.137 213.581 169.371 204.959 175.824 204.645C184.348 204.231 189.69 204.65 198.808 203.279ZM198.808 205.9C195.084 219.961 178.529 220.682 174.581 206.772C168.298 208.693 162.355 213.725 158.57 219.231C161.748 221.967 164.776 224.795 167.715 227.806C168.876 226.611 170.116 225.689 171.469 224.745L171.28 222.366C171.193 221.275 171.36 219.969 172.218 219.255C173.961 221.208 173.12 229.2 173.122 231.829L173.121 251.234V258.508C182.869 258.549 194.006 257.973 203.512 255.767C203.326 248.665 203.517 241.503 203.71 234.399C203.755 232.792 202.966 221.542 205.933 222.601C206.637 223.778 205.66 225.25 206.534 226.3C207.434 227.382 208.473 228.159 209.21 229.415C211.948 226.843 214.405 223.968 217.146 221.418C211.936 215.534 205.897 209.191 198.808 205.9ZM194.43 205.9C188.451 206.695 182.639 206.795 176.622 206.772C177.688 208.88 179.135 210.775 180.485 212.694C191.571 218.104 200.89 205.218 194.43 205.9Z" fill="#222224"/>
<path d="M195.631 243.016C198.359 243.659 197.748 251.662 197.289 253.362C194.491 252.248 195.066 245.42 195.631 243.016Z" fill="#222224"/>
<path d="M188.208 241.135C190.324 241.907 190.11 250.263 189.473 251.965L188.734 251.779C186.833 250.198 187.408 243.148 188.208 241.135Z" fill="#222224"/>
<path d="M178.188 226.996C181.495 227.957 180.967 244.924 180.484 247.53C176.793 246.577 177.875 227.871 178.188 226.996Z" fill="#222224"/>
<path d="M38.1629 288.248C53.596 287.248 58.6231 294.344 58.4628 309.795C61.7734 309.625 69.4581 308.715 72.1526 310.595C73.0735 313.112 63.687 341.019 62.7422 350.528C58.1589 350.309 53.5066 350.508 48.9142 350.528L30.8012 350.494C28.4779 350.483 26.1256 350.652 23.8113 350.528C20.3923 341.206 17.59 331.484 15.7601 321.683C13.177 307.849 12.8107 310.08 26.7075 309.795C26.4493 299.567 27.0504 290.515 38.1629 288.248ZM59.8515 311.9L35.8478 311.891C29.1632 311.887 22.8181 311.747 16.1987 312.694C16.6132 314.295 17.0174 315.896 17.5265 317.467C24.6641 317.685 61.2135 316.395 65.7608 318.133L66.096 318.532C65.3179 320.596 34.8194 319.431 28.7342 319.43C24.9885 319.389 21.2684 319.658 17.5265 319.43C19.1075 329.456 21.9568 339.057 25.2188 348.607C33.8957 347.475 51.9282 348.349 61.4511 348.265C61.5091 338.879 67.7177 322.681 70.3634 311.9C66.8576 311.64 63.3591 311.736 59.8515 311.9ZM40.5977 295.051C33.266 296.208 32.5514 303.414 32.3149 309.795H44.2518H52.2082C51.745 302.272 50.1905 293.492 40.5977 295.051ZM38.953 290.157C26.0732 292.274 26.5737 311.449 30.4303 309.577C30.8152 307.975 30.721 306.295 30.8493 304.656C31.5393 295.85 38.0819 291.554 46.193 293.304C56.9811 300.749 52.4227 311.083 56.145 309.783C59.5458 305.158 54.1558 288.292 38.953 290.157Z" fill="#222224"/>
<path d="M55.0372 324.129C55.6035 324.199 55.7619 324.092 56.1652 324.541C55.3042 329.446 54.7416 339.202 53.4615 343.239L52.5941 343.11C50.768 341.078 52.8795 327.091 55.0372 324.129Z" fill="#222224"/>
<path d="M42.3846 324.129C44.5238 324.38 43.9869 342.177 43.6112 343.239L42.741 343.255C40.4562 341.568 40.5327 327.195 42.3846 324.129Z" fill="#222224"/>
<path d="M28.7339 322.548C32.6282 323.109 33.571 341.798 33.0449 343.239C30.5657 343.162 28.5621 325.116 28.7339 322.548Z" fill="#222224"/>
<path d="M339.863 300.879C343.143 301.754 341.851 306.717 342.114 309.491C342.8 316.707 343.604 323.501 344.137 330.859C344.625 337.595 346.957 347.448 337.722 348.498C325.978 349.834 303.454 350.226 291.896 349.641C287.744 349.43 285.619 347.972 284.087 343.778C282.893 330.105 287.167 314.837 285.999 302.254C297.352 302.942 311.44 302.476 322.866 302.34C326.327 302.299 335.117 300.537 337.448 303.494C335.761 305.269 336.665 307.933 336.687 310.28H339.863C339.771 306.175 338.223 303.172 339.863 300.879ZM336.063 312.694L315.286 312.88C307.18 312.954 299.008 313.413 290.923 313.298L291.086 313.714L288.937 313.651L288.79 313.341C286.332 314.102 285.75 337.912 285.976 341.615C286.244 346.011 288.536 347.825 292.806 347.542C302.904 347.932 313.246 347.211 323.353 346.888C330.585 346.657 342.646 349.531 342.661 339.484C342.669 333.426 341.657 317.854 340.269 312.694C338.891 312.675 337.432 312.56 336.063 312.694ZM300.837 304.288C301.231 306.426 301.302 308.605 301.605 310.758C305.567 310.95 309.526 310.726 313.489 310.758C312.903 308.583 312.558 306.525 312.299 304.288H300.837ZM323.148 304.288H318.966C318.893 306.448 319.04 308.607 318.966 310.758H325.581C326.931 310.753 328.312 310.684 329.658 310.758V304.288C327.496 304.318 325.306 304.428 323.148 304.288ZM297.049 304.288C296.054 304.302 295.051 304.347 294.058 304.288C293.967 305.742 292.812 311.547 295.367 310.758H299.576C299.286 308.208 300.443 304.257 297.049 304.288ZM291.047 304.288H288.467C288.384 305.788 287.703 310.142 288.6 311.198L289.06 311.282C290.097 311.141 291.13 311.02 292.147 310.758C291.922 309.274 291.776 305.304 291.047 304.288ZM331.106 304.288C331.261 306.467 331.202 308.58 331.106 310.758C332.313 310.613 333.54 310.509 334.734 310.28C334.823 306.572 335.641 303.619 331.106 304.288ZM314.071 304.288C314.403 307.46 313.303 310.948 317.236 310.758V304.288H314.071Z" fill="#222224"/>
<path d="M316.449 314.41C323.24 315.368 324.181 324.206 315.64 324.129C307.023 324.461 311.014 315.564 316.449 314.41ZM316.449 316.262C313.002 318.668 310.008 322.127 316.449 322.548C320.773 321.221 320.734 318.163 316.449 316.262Z" fill="#222224"/>
<path d="M129.561 104.045C134.864 102.376 157.45 116.706 162.162 119.814C159.81 124.133 154.968 136.53 152.288 139.226L151.788 139.052C148.787 138.041 146.173 136.075 143.16 134.993C143.312 142.419 147.896 170.708 147.69 171.119C143.848 173.921 120.816 176.285 115.041 176.576C112.678 176.888 101.943 178.119 100.186 177.209C99.2886 175.732 99.5446 142.042 98.9157 136.784L93.3563 142.591C89.2888 136.004 82.9236 131.676 79.916 126.965C80.9898 123.798 85.3032 120.811 87.5501 118.43C99.9259 105.316 99.3908 108.098 113.577 107.116C115.963 106.951 125.912 104.898 129.167 104.139L129.561 104.045ZM131.572 106.283C130.354 115.552 124.472 125.676 114.306 124.153C107.303 123.102 103.794 116.523 100.186 110.991C93.9143 113.638 87.0915 121.467 82.6906 126.753C86.4469 130.921 90.6968 134.626 94.0064 139.226C95.3914 137.028 96.9505 135.576 98.9157 133.935C98.6385 132.368 96.1374 125.646 98.6118 125.225C102.45 128.094 101.755 162.498 101.749 167.897C101.699 170.383 101.682 172.854 101.749 175.34C115.915 175.593 132.375 172.895 146.104 169.86C144.568 162.798 138.247 126.911 141.494 125.528C143.02 126.592 142.874 130.867 143.16 132.582L148.554 134.993C150.861 129.448 153.834 124.274 156.218 118.786C146.639 112.454 141.901 110.149 131.572 106.283ZM128.331 106.283C127.482 106.306 126.488 106.444 125.658 106.283C122.882 117.264 110.89 117.049 104.558 108.925L101.749 109.74C102.83 111.442 104.04 113.385 105.381 114.873C107.565 118.203 110.273 121.17 114.252 121.984C125.734 124.332 132.523 105.723 128.331 106.283ZM157.655 119.288C156.398 121.589 147.048 137.045 152.288 136.784C154.459 131.584 156.592 125.796 159.516 121.004C158.903 120.428 158.301 119.823 157.655 119.288ZM123.043 107.101C117.838 109.107 112.601 109.617 107.104 108.925C107.945 109.613 108.775 110.336 109.638 110.991C113.978 113.531 121.424 113.22 123.136 107.399L123.043 107.101Z" fill="#222224"/>
<path d="M132.469 152.254L133.307 152.276C135.19 153.481 135.477 160.05 134.924 161.988C132.264 161.45 131.633 154.184 132.469 152.254Z" fill="#222224"/>
<path d="M119.477 141.466C120.097 141.814 125.105 162.389 123.043 164.62C122.002 163.656 116.573 144.354 119.477 141.466Z" fill="#222224"/>
<path d="M110.095 136.784C113.614 137.561 113.994 161.988 113.484 162.858C110.979 161.587 108.902 138.791 110.095 136.784Z" fill="#222224"/>
</svg>
