<svg width="60" height="20" viewBox="0 0 60 20" fill="none" xmlns="http://www.w3.org/2000/svg">
<path fill-rule="evenodd" clip-rule="evenodd" d="M8.62163 5.04346C11.4783 5.04346 13.794 7.37936 13.794 10.2608C13.794 13.1423 11.4783 15.4782 8.62163 15.4782C5.76499 15.4782 3.44922 13.1423 3.44922 10.2608C3.44922 7.37936 5.76499 5.04346 8.62163 5.04346ZM25.863 5.04346L20.3415 14.9733C20.0777 15.4477 19.4801 15.618 19.0066 15.3537C18.8472 15.2648 18.7157 15.133 18.6269 14.9733L13.9183 6.5053C13.6545 6.03091 13.8245 5.43208 14.2979 5.16778C14.444 5.08625 14.6084 5.04346 14.7756 5.04346H25.863Z" fill="#222224"/>
<path fill-rule="evenodd" clip-rule="evenodd" d="M29.4452 9.32175C28.8632 9.32175 28.4147 9.15402 28.0998 8.81856C27.785 8.4831 27.617 8.03673 27.5958 7.47943L27.5879 7.13045L27.5958 6.78146C27.617 6.22416 27.7876 5.77779 28.1078 5.44233C28.4279 5.10687 28.8737 4.93914 29.4452 4.93914C30.0167 4.93914 30.4625 5.10687 30.7827 5.44233C31.1028 5.77779 31.2735 6.22416 31.2946 6.78146C31.3052 6.90049 31.3105 7.01682 31.3105 7.13045C31.3105 7.24407 31.3052 7.3604 31.2946 7.47943C31.2735 8.03673 31.1055 8.4831 30.7906 8.81856C30.4758 9.15402 30.0273 9.32175 29.4452 9.32175ZM29.4452 8.71305C29.7839 8.71305 30.0524 8.60349 30.2509 8.38436C30.4493 8.16523 30.5565 7.85006 30.5723 7.43885C30.5776 7.38474 30.5803 7.28194 30.5803 7.13045C30.5803 6.97895 30.5776 6.87615 30.5723 6.82204C30.5565 6.41083 30.4493 6.09566 30.2509 5.87653C30.0524 5.6574 29.7839 5.54784 29.4452 5.54784C29.1066 5.54784 28.838 5.6574 28.6396 5.87653C28.4412 6.09566 28.334 6.41083 28.3181 6.82204L28.3102 7.13045L28.3181 7.43885C28.334 7.85006 28.4412 8.16523 28.6396 8.38436C28.838 8.60349 29.1066 8.71305 29.4452 8.71305ZM33.0329 10.7826C32.9853 10.7826 32.9456 10.7664 32.9139 10.7339C32.8821 10.7015 32.8662 10.6636 32.8662 10.6203C32.8662 10.6041 32.8795 10.5554 32.9059 10.4742L33.525 8.989L32.009 5.32871C31.9773 5.26378 31.9614 5.21779 31.9614 5.19074C31.9667 5.14204 31.9852 5.10146 32.0169 5.069C32.0487 5.03653 32.0857 5.0203 32.1281 5.0203H32.4932C32.5778 5.0203 32.6413 5.06359 32.6837 5.15016L33.906 8.13682L35.1601 5.15016C35.2025 5.06359 35.266 5.0203 35.3506 5.0203H35.7078C35.7501 5.0203 35.7872 5.03653 35.8189 5.069C35.8507 5.10146 35.8666 5.13933 35.8666 5.18262C35.8666 5.22049 35.8533 5.26919 35.8269 5.32871L33.5806 10.6528C33.5541 10.696 33.5264 10.7285 33.4973 10.7502C33.4682 10.7718 33.4298 10.7826 33.3822 10.7826H33.0329ZM38.0811 9.32175C37.716 9.32175 37.4077 9.26088 37.1564 9.13914C36.905 9.0174 36.7185 8.87808 36.5968 8.72117C36.4751 8.56426 36.4142 8.43441 36.4142 8.3316C36.4142 8.2775 36.4328 8.23557 36.4698 8.20581C36.5068 8.17605 36.5465 8.16117 36.5889 8.16117H36.9222C36.954 8.16117 36.9791 8.16658 36.9976 8.1774C37.0162 8.18822 37.0413 8.21257 37.073 8.25045C37.1947 8.40194 37.331 8.52098 37.4818 8.60755C37.6326 8.69412 37.835 8.7374 38.089 8.7374C38.3748 8.7374 38.6036 8.6833 38.7756 8.57508C38.9476 8.46687 39.0336 8.30996 39.0336 8.10436C39.0336 7.96909 38.9965 7.86088 38.9224 7.77972C38.8484 7.69856 38.7253 7.62552 38.5534 7.56059C38.3814 7.49566 38.1261 7.42532 37.7874 7.34958C37.327 7.24677 37.0016 7.09798 36.8111 6.9032C36.6206 6.70842 36.5254 6.45682 36.5254 6.14842C36.5254 5.94822 36.5836 5.75479 36.7 5.56813C36.8164 5.38146 36.9897 5.22996 37.2199 5.11363C37.4501 4.9973 37.7239 4.93914 38.0414 4.93914C38.3748 4.93914 38.6592 4.99595 38.8947 5.10958C39.1301 5.2232 39.3074 5.35576 39.4265 5.50726C39.5455 5.65876 39.6051 5.7859 39.6051 5.88871C39.6051 5.9374 39.5879 5.97798 39.5535 6.01045C39.5191 6.04291 39.4781 6.05914 39.4304 6.05914H39.1288C39.0547 6.05914 39.0018 6.02938 38.9701 5.96987C38.8801 5.86706 38.8047 5.78726 38.7439 5.73045C38.683 5.67363 38.5944 5.62494 38.4779 5.58436C38.3615 5.54378 38.216 5.52349 38.0414 5.52349C37.7821 5.52349 37.5837 5.57895 37.4461 5.68987C37.3085 5.80078 37.2397 5.94822 37.2397 6.13218C37.2397 6.24581 37.2688 6.34185 37.327 6.4203C37.3852 6.49875 37.4964 6.5718 37.6604 6.63943C37.8244 6.70706 38.0679 6.77605 38.3906 6.84639C38.8933 6.9546 39.2492 7.1088 39.4582 7.309C39.6672 7.50919 39.7717 7.76619 39.7717 8.08001C39.7717 8.31267 39.7069 8.52368 39.5773 8.71305C39.4476 8.90243 39.2545 9.05122 38.9978 9.15943C38.7412 9.26764 38.4356 9.32175 38.0811 9.32175ZM42.2879 9.24059C41.4677 9.24059 41.0576 8.76716 41.0576 7.8203V5.64523H40.4305C40.3776 5.64523 40.3353 5.629 40.3035 5.59653C40.2718 5.56407 40.2559 5.52078 40.2559 5.46668V5.20697C40.2559 5.15286 40.2718 5.10822 40.3035 5.07305C40.3353 5.03788 40.3776 5.0203 40.4305 5.0203H41.0576V3.66494C41.0576 3.61083 41.0735 3.56619 41.1052 3.53103C41.137 3.49586 41.1793 3.47827 41.2322 3.47827H41.5815C41.6344 3.47827 41.678 3.49586 41.7124 3.53103C41.7468 3.56619 41.764 3.61083 41.764 3.66494V5.0203H42.7483C42.8012 5.0203 42.8448 5.03788 42.8792 5.07305C42.9136 5.10822 42.9308 5.15286 42.9308 5.20697V5.46668C42.9308 5.52078 42.9136 5.56407 42.8792 5.59653C42.8448 5.629 42.8012 5.64523 42.7483 5.64523H41.764V7.76349C41.764 8.03943 41.8077 8.24774 41.895 8.38842C41.9823 8.52909 42.1318 8.59943 42.3434 8.59943H42.8276C42.8805 8.59943 42.9229 8.61701 42.9546 8.65218C42.9864 8.68735 43.0022 8.73199 43.0022 8.7861V9.05392C43.0022 9.10803 42.9864 9.15267 42.9546 9.18784C42.9229 9.22301 42.8805 9.24059 42.8276 9.24059H42.2879ZM45.4152 9.32175C44.8755 9.32175 44.4442 9.14996 44.1214 8.80639C43.7986 8.46281 43.6214 7.99344 43.5896 7.39827L43.5817 7.12233L43.5896 6.8545C43.6214 6.27015 43.7986 5.80484 44.1214 5.45856C44.4442 5.11228 44.8755 4.93914 45.4152 4.93914C45.9973 4.93914 46.4484 5.12851 46.7685 5.50726C47.0887 5.886 47.2487 6.40001 47.2487 7.04929V7.19537C47.2487 7.24948 47.2315 7.29412 47.1971 7.32929C47.1627 7.36445 47.1191 7.38204 47.0662 7.38204H44.3119V7.45508C44.3278 7.80678 44.4336 8.10706 44.6294 8.35595C44.8252 8.60484 45.0845 8.72929 45.4073 8.72929C45.656 8.72929 45.8584 8.67924 46.0145 8.57914C46.1706 8.47904 46.2883 8.37489 46.3677 8.26668C46.4153 8.20175 46.4524 8.16252 46.4788 8.149C46.5053 8.13547 46.5502 8.12871 46.6137 8.12871H46.963C47.0106 8.12871 47.0516 8.14223 47.086 8.16929C47.1204 8.19634 47.1376 8.23151 47.1376 8.27479C47.1376 8.39383 47.0662 8.53721 46.9233 8.70494C46.7804 8.87267 46.578 9.0174 46.3161 9.13914C46.0542 9.26088 45.7539 9.32175 45.4152 9.32175ZM46.5264 6.83016V6.80581C46.5264 6.42706 46.4259 6.11866 46.2248 5.88059C46.0237 5.64252 45.7539 5.52349 45.4152 5.52349C45.0712 5.52349 44.8014 5.64252 44.6056 5.88059C44.4098 6.11866 44.3119 6.42706 44.3119 6.80581V6.83016H46.5264ZM48.3996 9.24059C48.3467 9.24059 48.3031 9.22301 48.2687 9.18784C48.2343 9.15267 48.2171 9.10803 48.2171 9.05392V5.21508C48.2171 5.16098 48.2343 5.11499 48.2687 5.07711C48.3031 5.03924 48.3467 5.0203 48.3996 5.0203H48.733C48.7912 5.0203 48.8375 5.03788 48.8719 5.07305C48.9063 5.10822 48.9235 5.15557 48.9235 5.21508V5.57218C49.1405 5.20426 49.5082 5.0203 50.0268 5.0203H50.3364C50.3946 5.0203 50.4396 5.03653 50.4713 5.069C50.5031 5.10146 50.5189 5.14745 50.5189 5.20697V5.50726C50.5189 5.56136 50.5031 5.606 50.4713 5.64117C50.4396 5.67634 50.3946 5.69392 50.3364 5.69392H49.8839C49.5929 5.69392 49.364 5.78049 49.1974 5.95363C49.0307 6.12677 48.9473 6.36213 48.9473 6.65972V9.05392C48.9473 9.10803 48.9288 9.15267 48.8918 9.18784C48.8547 9.22301 48.8097 9.24059 48.7568 9.24059H48.3996Z" fill="#222224"/>
<path fill-rule="evenodd" clip-rule="evenodd" d="M25.9217 16.4421C25.7838 16.4421 25.6856 16.3757 25.6272 16.2429L24.1466 12.5443C24.1413 12.5284 24.1387 12.5018 24.1387 12.4646C24.1387 12.4168 24.1546 12.3769 24.1864 12.345C24.2183 12.3131 24.2554 12.2972 24.2979 12.2972H24.664C24.749 12.2972 24.8126 12.3397 24.8551 12.4247L26.081 15.6052L27.3068 12.4247C27.3174 12.3929 27.34 12.3636 27.3745 12.3371C27.409 12.3105 27.4501 12.2972 27.4979 12.2972H27.864C27.9065 12.2972 27.9436 12.3131 27.9755 12.345C28.0073 12.3769 28.0232 12.4168 28.0232 12.4646L28.0073 12.5443L26.5347 16.2429C26.4763 16.3757 26.3781 16.4421 26.2402 16.4421H25.9217ZM30.5148 16.5218C29.9735 16.5218 29.541 16.3531 29.2173 16.0157C28.8935 15.6782 28.7158 15.2173 28.6839 14.6327L28.676 14.3617L28.6839 14.0987C28.7158 13.5247 28.8935 13.0677 29.2173 12.7276C29.541 12.3875 29.9735 12.2175 30.5148 12.2175C31.0985 12.2175 31.5509 12.4035 31.872 12.7755C32.193 13.1475 32.3536 13.6523 32.3536 14.29V14.4334C32.3536 14.4866 32.3363 14.5304 32.3018 14.565C32.2673 14.5995 32.2235 14.6168 32.1705 14.6168H29.4083V14.6885C29.4242 15.0339 29.5304 15.3288 29.7267 15.5733C29.9231 15.8177 30.1831 15.94 30.5068 15.94C30.7562 15.94 30.9592 15.8908 31.1158 15.7925C31.2723 15.6942 31.3904 15.5919 31.47 15.4856C31.5177 15.4218 31.5549 15.3833 31.5814 15.37C31.608 15.3567 31.6531 15.3501 31.7167 15.3501H32.067C32.1148 15.3501 32.1559 15.3634 32.1904 15.39C32.2249 15.4165 32.2421 15.4511 32.2421 15.4936C32.2421 15.6105 32.1705 15.7513 32.0272 15.916C31.8839 16.0808 31.6809 16.2229 31.4182 16.3425C31.1556 16.4621 30.8544 16.5218 30.5148 16.5218ZM31.6292 14.0747V14.0508C31.6292 13.6788 31.5284 13.376 31.3267 13.1421C31.125 12.9083 30.8544 12.7914 30.5148 12.7914C30.1698 12.7914 29.8992 12.9083 29.7028 13.1421C29.5065 13.376 29.4083 13.6788 29.4083 14.0508V14.0747H31.6292ZM33.5078 16.4421C33.4547 16.4421 33.4109 16.4249 33.3764 16.3903C33.3419 16.3558 33.3247 16.3119 33.3247 16.2588V12.4805C33.3247 12.4274 33.3419 12.3836 33.3764 12.349C33.4109 12.3145 33.4547 12.2972 33.5078 12.2972H33.8501C33.9084 12.2972 33.9536 12.3131 33.9854 12.345C34.0172 12.3769 34.0332 12.4221 34.0332 12.4805V12.8313C34.1924 12.6346 34.3768 12.4832 34.5864 12.3769C34.796 12.2706 35.0574 12.2175 35.3705 12.2175C35.8799 12.2175 36.2753 12.3809 36.5565 12.7077C36.8378 13.0345 36.9784 13.4663 36.9784 14.003V16.2588C36.9784 16.3119 36.9612 16.3558 36.9267 16.3903C36.8922 16.4249 36.8484 16.4421 36.7953 16.4421H36.4292C36.3761 16.4421 36.3323 16.4249 36.2978 16.3903C36.2633 16.3558 36.2461 16.3119 36.2461 16.2588V14.0508C36.2461 13.6682 36.1532 13.3706 35.9675 13.1581C35.7817 12.9455 35.5164 12.8392 35.1715 12.8392C34.8318 12.8392 34.5612 12.9468 34.3595 13.1621C34.1579 13.3773 34.057 13.6735 34.057 14.0508V16.2588C34.057 16.3119 34.0398 16.3558 34.0053 16.3903C33.9708 16.4249 33.927 16.4421 33.874 16.4421H33.5078ZM39.7247 16.4421C38.9021 16.4421 38.4908 15.9772 38.4908 15.0472V12.911H37.862C37.8089 12.911 37.7665 12.895 37.7346 12.8631C37.7028 12.8313 37.6869 12.7888 37.6869 12.7356V12.4805C37.6869 12.4274 37.7028 12.3836 37.7346 12.349C37.7665 12.3145 37.8089 12.2972 37.862 12.2972H38.4908V10.966C38.4908 10.9129 38.5068 10.8691 38.5386 10.8345C38.5705 10.8 38.6129 10.7827 38.666 10.7827H39.0162C39.0693 10.7827 39.1131 10.8 39.1476 10.8345C39.1821 10.8691 39.1993 10.9129 39.1993 10.966V12.2972H40.1864C40.2394 12.2972 40.2832 12.3145 40.3177 12.349C40.3522 12.3836 40.3694 12.4274 40.3694 12.4805V12.7356C40.3694 12.7888 40.3522 12.8313 40.3177 12.8631C40.2832 12.895 40.2394 12.911 40.1864 12.911H39.1993V14.9914C39.1993 15.2624 39.2431 15.467 39.3306 15.6052C39.4182 15.7433 39.5681 15.8124 39.7804 15.8124H40.266C40.319 15.8124 40.3615 15.8297 40.3933 15.8642C40.4252 15.8988 40.4411 15.9426 40.4411 15.9958V16.2588C40.4411 16.3119 40.4252 16.3558 40.3933 16.3903C40.3615 16.4249 40.319 16.4421 40.266 16.4421H39.7247ZM42.7655 16.5218C42.2613 16.5218 41.8713 16.3584 41.5953 16.0316C41.3194 15.7048 41.1814 15.2704 41.1814 14.7284V12.4805C41.1814 12.4274 41.1986 12.3836 41.2331 12.349C41.2676 12.3145 41.3114 12.2972 41.3645 12.2972H41.7306C41.7837 12.2972 41.8275 12.3145 41.862 12.349C41.8965 12.3836 41.9137 12.4274 41.9137 12.4805V14.6885C41.9137 15.4962 42.264 15.9001 42.9645 15.9001C43.3041 15.9001 43.5734 15.7925 43.7724 15.5773C43.9714 15.3621 44.0709 15.0658 44.0709 14.6885V12.4805C44.0709 12.4274 44.0882 12.3836 44.1227 12.349C44.1572 12.3145 44.2009 12.2972 44.254 12.2972H44.6202C44.6732 12.2972 44.717 12.3145 44.7515 12.349C44.786 12.3836 44.8033 12.4274 44.8033 12.4805V16.2588C44.8033 16.3119 44.786 16.3558 44.7515 16.3903C44.717 16.4249 44.6732 16.4421 44.6202 16.4421H44.2779C44.2248 16.4421 44.181 16.4249 44.1465 16.3903C44.1121 16.3558 44.0948 16.3119 44.0948 16.2588V15.9001C43.9409 16.1074 43.7605 16.2628 43.5535 16.3664C43.3465 16.47 43.0839 16.5218 42.7655 16.5218ZM46.1804 16.4421C46.1273 16.4421 46.0835 16.4249 46.049 16.3903C46.0145 16.3558 45.9973 16.3119 45.9973 16.2588V12.4885C45.9973 12.4354 46.0145 12.3902 46.049 12.353C46.0835 12.3158 46.1273 12.2972 46.1804 12.2972H46.5147C46.5731 12.2972 46.6195 12.3145 46.654 12.349C46.6885 12.3836 46.7057 12.4301 46.7057 12.4885V12.8392C46.9233 12.4779 47.2921 12.2972 47.8122 12.2972H48.1227C48.181 12.2972 48.2261 12.3131 48.258 12.345C48.2898 12.3769 48.3057 12.4221 48.3057 12.4805V12.7755C48.3057 12.8286 48.2898 12.8724 48.258 12.907C48.2261 12.9415 48.181 12.9588 48.1227 12.9588H47.6689C47.377 12.9588 47.1475 13.0438 46.9804 13.2139C46.8132 13.3839 46.7296 13.6151 46.7296 13.9074V16.2588C46.7296 16.3119 46.711 16.3558 46.6739 16.3903C46.6367 16.4249 46.5916 16.4421 46.5386 16.4421H46.1804ZM50.6301 16.5218C50.0888 16.5218 49.6563 16.3531 49.3326 16.0157C49.0089 15.6782 48.8311 15.2173 48.7993 14.6327L48.7913 14.3617L48.7993 14.0987C48.8311 13.5247 49.0089 13.0677 49.3326 12.7276C49.6563 12.3875 50.0888 12.2175 50.6301 12.2175C51.2139 12.2175 51.6662 12.4035 51.9873 12.7755C52.3084 13.1475 52.4689 13.6523 52.4689 14.29V14.4334C52.4689 14.4866 52.4517 14.5304 52.4172 14.565C52.3827 14.5995 52.3389 14.6168 52.2858 14.6168H49.5236V14.6885C49.5396 15.0339 49.6457 15.3288 49.842 15.5733C50.0384 15.8177 50.2984 15.94 50.6221 15.94C50.8716 15.94 51.0745 15.8908 51.2311 15.7925C51.3876 15.6942 51.5057 15.5919 51.5853 15.4856C51.6331 15.4218 51.6702 15.3833 51.6968 15.37C51.7233 15.3567 51.7684 15.3501 51.8321 15.3501H52.1823C52.2301 15.3501 52.2712 15.3634 52.3057 15.39C52.3402 15.4165 52.3575 15.4511 52.3575 15.4936C52.3575 15.6105 52.2858 15.7513 52.1425 15.916C51.9992 16.0808 51.7963 16.2229 51.5336 16.3425C51.2709 16.4621 50.9697 16.5218 50.6301 16.5218ZM51.7445 14.0747V14.0508C51.7445 13.6788 51.6437 13.376 51.442 13.1421C51.2404 12.9083 50.9697 12.7914 50.6301 12.7914C50.2852 12.7914 50.0145 12.9083 49.8182 13.1421C49.6218 13.376 49.5236 13.6788 49.5236 14.0508V14.0747H51.7445ZM54.8569 16.5218C54.4908 16.5218 54.1817 16.4621 53.9296 16.3425C53.6775 16.2229 53.4905 16.0861 53.3684 15.932C53.2463 15.7779 53.1853 15.6503 53.1853 15.5494C53.1853 15.4962 53.2039 15.4551 53.241 15.4258C53.2782 15.3966 53.318 15.382 53.3604 15.382H53.6948C53.7266 15.382 53.7518 15.3873 53.7704 15.3979C53.789 15.4086 53.8142 15.4325 53.846 15.4697C53.9681 15.6185 54.1047 15.7354 54.256 15.8204C54.4072 15.9054 54.6102 15.9479 54.8649 15.9479C55.1515 15.9479 55.381 15.8948 55.5535 15.7885C55.7259 15.6822 55.8122 15.5281 55.8122 15.3262C55.8122 15.1933 55.775 15.0871 55.7007 15.0074C55.6264 14.9276 55.503 14.8559 55.3306 14.7921C55.1581 14.7284 54.9021 14.6593 54.5624 14.5849C54.1007 14.4839 53.7744 14.3378 53.5833 14.1465C53.3923 13.9552 53.2968 13.7081 53.2968 13.4052C53.2968 13.2086 53.3551 13.0186 53.4719 12.8353C53.5886 12.6519 53.7624 12.5031 53.9933 12.3889C54.2241 12.2746 54.4987 12.2175 54.8172 12.2175C55.1515 12.2175 55.4367 12.2733 55.6729 12.3849C55.909 12.4965 56.0868 12.6267 56.2062 12.7755C56.3256 12.9243 56.3853 13.0491 56.3853 13.1501C56.3853 13.1979 56.368 13.2378 56.3336 13.2697C56.2991 13.3016 56.2579 13.3175 56.2102 13.3175H55.9077C55.8334 13.3175 55.7803 13.2883 55.7485 13.2298C55.6583 13.1288 55.5826 13.0505 55.5216 12.9947C55.4606 12.9389 55.3717 12.891 55.255 12.8512C55.1382 12.8113 54.9923 12.7914 54.8172 12.7914C54.5571 12.7914 54.3581 12.8459 54.2201 12.9548C54.0822 13.0638 54.0132 13.2086 54.0132 13.3892C54.0132 13.5008 54.0424 13.5952 54.1007 13.6722C54.1591 13.7493 54.2705 13.821 54.4351 13.8874C54.5996 13.9539 54.8437 14.0216 55.1674 14.0907C55.6715 14.197 56.0284 14.3484 56.238 14.545C56.4477 14.7417 56.5525 14.9941 56.5525 15.3023C56.5525 15.5308 56.4875 15.738 56.3574 15.924C56.2274 16.11 56.0337 16.2561 55.7763 16.3624C55.519 16.4687 55.2125 16.5218 54.8569 16.5218Z" fill="#222224"/>
</svg>
