<svg width="80" height="18" viewBox="0 0 80 18" fill="none" xmlns="http://www.w3.org/2000/svg">
<path fill-rule="evenodd" clip-rule="evenodd" d="M12.9947 3.95395H3.24309C2.91562 3.95395 2.63672 4.23947 2.63672 4.58732V5.71727C2.63672 6.0649 2.91562 6.35065 3.24309 6.35065H12.9947C13.3343 6.35065 13.6011 6.06512 13.6134 5.71727V4.5997C13.6134 4.23947 13.3345 3.95395 12.9947 3.95395ZM12.9947 10.2247H3.24309C3.08529 10.2247 2.92771 10.2868 2.8187 10.411C2.69738 10.5352 2.63672 10.6842 2.63672 10.8581V11.988C2.63672 12.3357 2.91562 12.6214 3.24309 12.6214H12.9947C13.3343 12.6214 13.6011 12.3483 13.6134 11.988V10.8581C13.6013 10.4981 13.3345 10.2247 12.9947 10.2247ZM8.7376 13.3538H3.24309C3.08529 13.3538 2.92771 13.4159 2.8187 13.5401C2.70947 13.6643 2.63672 13.8132 2.63672 13.9871V15.1171C2.63672 15.4647 2.91562 15.7505 3.24309 15.7505H8.72551C9.06507 15.7505 9.33188 15.4649 9.33188 15.1297V13.9997C9.34397 13.6271 9.07716 13.3542 8.7376 13.3542V13.3538ZM13.6134 7.08302H3.24309C3.08529 7.08302 2.92771 7.14512 2.8187 7.26932C2.70947 7.39352 2.63672 7.54247 2.63672 7.7164V8.84635C2.63672 9.19397 2.91562 9.47972 3.24309 9.47972H13.6013C13.9409 9.47972 14.2077 9.1942 14.2077 8.84635V7.7164C14.2198 7.38115 13.9409 7.09562 13.6134 7.08302Z" fill="#2DBDEF"/>
<path fill-rule="evenodd" clip-rule="evenodd" d="M24.9549 6.48721C24.6516 6.16434 24.3 5.91594 23.8997 5.74224C23.4995 5.56831 23.0749 5.48146 22.6384 5.48146C22.214 5.46909 21.8015 5.56831 21.4134 5.75461C21.1586 5.87881 20.9283 6.05251 20.734 6.26379V6.06511C20.734 5.96589 20.6978 5.86644 20.6371 5.79196C20.5764 5.71749 20.4795 5.66776 20.3703 5.66776H19.0239C18.927 5.66776 18.8299 5.70511 18.7692 5.79196C18.6965 5.86644 18.66 5.96566 18.6723 6.06511V15.3531C18.6723 15.4523 18.7085 15.5518 18.7692 15.6263C18.8419 15.7007 18.927 15.7381 19.0239 15.7381H20.4068C20.5037 15.7381 20.5888 15.701 20.6615 15.6265C20.7343 15.5644 20.7828 15.4649 20.7707 15.3531V12.1743C20.9648 12.3977 21.2195 12.5593 21.4984 12.6585C21.8624 12.7951 22.2384 12.8696 22.6266 12.8696C23.0633 12.8696 23.4997 12.7825 23.9002 12.6088C24.3004 12.4351 24.6641 12.1867 24.9674 11.8638C25.2828 11.5286 25.5255 11.1312 25.6951 10.6965C25.8892 10.2123 25.974 9.69076 25.9622 9.16921C25.9743 8.64766 25.8771 8.12611 25.6951 7.62954C25.5132 7.21981 25.2707 6.82246 24.9551 6.48721H24.9549ZM23.7178 9.85231C23.645 10.051 23.5358 10.2249 23.3903 10.3862C23.1114 10.6967 22.711 10.8704 22.2986 10.8704C22.0925 10.8704 21.8863 10.8331 21.6923 10.7339C21.5103 10.647 21.3406 10.5352 21.1949 10.3862C21.0494 10.2373 20.9402 10.051 20.8674 9.85231C20.7096 9.43021 20.7096 8.97054 20.8674 8.54844C20.9402 8.34976 21.0615 8.17584 21.1949 8.02689C21.3404 7.87794 21.5103 7.75374 21.6923 7.66689C21.8863 7.58004 22.0925 7.53031 22.2986 7.53031C22.5169 7.53031 22.711 7.56744 22.9173 7.66689C23.0993 7.75374 23.269 7.86556 23.4024 8.01451C23.5479 8.16346 23.645 8.33739 23.7299 8.53606C23.8754 8.97054 23.8633 9.43021 23.7178 9.85231ZM33.3725 5.68014H32.0019C31.905 5.68014 31.8079 5.71749 31.7472 5.79196C31.6745 5.86644 31.6382 5.96566 31.6382 6.07749V6.25119C31.4683 6.04014 31.2501 5.87859 31.0195 5.76699C30.6435 5.58069 30.2312 5.49361 29.8186 5.49361C28.9332 5.49361 28.0962 5.85384 27.4657 6.48699C27.1382 6.82224 26.8835 7.21959 26.7136 7.65406C26.5195 8.13826 26.4226 8.65981 26.4347 9.19374C26.4226 9.71529 26.5195 10.2368 26.7136 10.7334C26.8956 11.1679 27.138 11.5655 27.4657 11.9005C28.0844 12.5462 28.9334 12.9062 29.8066 12.9062C30.2189 12.9186 30.6314 12.8192 31.0072 12.6329C31.2376 12.5087 31.4681 12.3473 31.638 12.1487V12.335C31.638 12.4342 31.6743 12.5336 31.747 12.6081C31.8197 12.6702 31.9048 12.7197 32.0017 12.7197H33.3723C33.4692 12.7197 33.5663 12.6826 33.627 12.6081C33.6997 12.5336 33.736 12.4342 33.736 12.335V6.08919C33.736 5.98996 33.6997 5.89051 33.6391 5.81604C33.5663 5.72919 33.4692 5.67946 33.3723 5.67946L33.3725 5.68014ZM31.5167 9.85231C31.4439 10.051 31.3347 10.2249 31.1892 10.3862C31.0437 10.5352 30.8859 10.6594 30.7041 10.7462C30.316 10.9325 29.8672 10.9325 29.4791 10.7462C29.2971 10.6594 29.1274 10.5352 28.9817 10.3862C28.8362 10.2373 28.727 10.051 28.6543 9.85231C28.5088 9.43021 28.5088 8.97054 28.6543 8.54844C28.727 8.34976 28.8362 8.18844 28.9817 8.02689C29.1272 7.87794 29.285 7.75374 29.4791 7.66689C29.8672 7.48059 30.316 7.48059 30.6921 7.66689C30.874 7.75374 31.0439 7.86556 31.1771 8.01451C31.3105 8.16346 31.4197 8.33739 31.5046 8.53606C31.6743 8.97054 31.6743 9.43021 31.5167 9.85231ZM47.0299 9.00789C46.8358 8.83396 46.6055 8.68501 46.3628 8.58579C46.1081 8.47396 45.8292 8.39949 45.5624 8.33739L44.5193 8.12634C44.2525 8.07661 44.0584 8.00214 43.9613 7.91529C43.8765 7.85319 43.8158 7.75396 43.8158 7.64214C43.8158 7.53054 43.8765 7.43109 44.0099 7.34424C44.1918 7.24501 44.3859 7.19529 44.5921 7.20766C44.8589 7.20766 45.1257 7.26976 45.3683 7.36921C45.611 7.48081 45.8413 7.59264 46.0598 7.74181C46.363 7.94049 46.6299 7.90314 46.8118 7.67971L47.3092 7.09606C47.4061 6.99684 47.4547 6.87264 47.4668 6.73606C47.4547 6.58711 47.3819 6.46291 47.2727 6.36346C47.0666 6.17716 46.727 5.97849 46.2782 5.77981C45.8294 5.58114 45.2593 5.48191 44.5923 5.48191C44.18 5.46954 43.7795 5.53141 43.3916 5.65561C43.0641 5.76744 42.7488 5.92876 42.4699 6.13981C42.2151 6.33849 42.0211 6.58689 41.8756 6.88479C41.7422 7.17031 41.6694 7.48081 41.6694 7.79131C41.6694 8.37496 41.8393 8.84679 42.1789 9.19441C42.5184 9.54204 42.9672 9.77806 43.5252 9.88989L44.6169 10.1383C44.8472 10.1754 45.0899 10.2499 45.3083 10.3617C45.4296 10.4114 45.5024 10.5354 45.5024 10.6722C45.5024 10.7964 45.4417 10.908 45.3083 11.0075C45.1749 11.1069 44.9565 11.169 44.6655 11.169C44.3745 11.169 44.0712 11.1069 43.8044 10.9703C43.5496 10.8461 43.3193 10.6848 43.1008 10.4985C43.0039 10.424 42.9068 10.3619 42.7855 10.3122C42.6641 10.2751 42.5066 10.3122 42.3488 10.4488L41.7545 10.9082C41.5848 11.0324 41.4998 11.2435 41.5483 11.4422C41.5846 11.6532 41.7424 11.8519 42.0457 12.0879C42.7978 12.6095 43.6954 12.8826 44.6048 12.8576C45.0292 12.8576 45.4538 12.8081 45.854 12.6839C46.2059 12.5721 46.5334 12.4108 46.8244 12.1874C47.0912 11.9887 47.3094 11.7279 47.4551 11.4174C47.6006 11.1195 47.6734 10.7966 47.6734 10.4612C47.6855 10.1633 47.6248 9.86514 47.5037 9.59199C47.3824 9.39331 47.2246 9.18204 47.0305 9.00834L47.0299 9.00789ZM53.0217 10.7091C52.9611 10.5973 52.8518 10.5228 52.7184 10.4981C52.5971 10.4981 52.4637 10.5354 52.3668 10.6099C52.1971 10.7217 52.0028 10.7836 51.8088 10.7962C51.7481 10.7962 51.6754 10.7838 51.6147 10.7712C51.542 10.7588 51.4813 10.7217 51.4327 10.672C51.3721 10.6099 51.3235 10.5354 51.2872 10.4609C51.2386 10.3367 51.2145 10.2125 51.2266 10.0883V7.54291H52.9973C53.1066 7.54291 53.2035 7.49319 53.2762 7.41871C53.349 7.34424 53.3975 7.25716 53.3975 7.14534V6.06511C53.3975 5.95329 53.3613 5.85406 53.2762 5.79196C53.2035 5.71749 53.1066 5.68014 53.0094 5.68014H51.2263V3.94179C51.2263 3.84256 51.1901 3.73074 51.1173 3.66864C51.0446 3.60654 50.9595 3.56919 50.8626 3.55681H49.48C49.383 3.55681 49.2859 3.59416 49.2132 3.66864C49.1404 3.74311 49.0918 3.84256 49.0918 3.94179V5.68014H48.3035C48.2066 5.68014 48.1094 5.71749 48.0367 5.80434C47.976 5.87881 47.9398 5.97804 47.9398 6.07749V7.15771C47.9398 7.25716 47.976 7.35639 48.0367 7.43109C48.0973 7.51794 48.1943 7.55529 48.3035 7.55529H49.0918V10.5851C49.0798 10.9451 49.1525 11.3054 49.298 11.6282C49.4314 11.9014 49.6013 12.1374 49.8316 12.3361C50.0499 12.5224 50.3046 12.659 50.5835 12.7334C50.8626 12.8203 51.1536 12.87 51.4448 12.87C51.8209 12.87 52.209 12.8079 52.5729 12.6837C52.9125 12.5719 53.2158 12.3732 53.4584 12.1124C53.616 11.9509 53.6281 11.6903 53.507 11.504L53.0219 10.7093L53.0217 10.7091ZM60.5176 5.68014H59.147C59.0501 5.68014 58.965 5.71749 58.8923 5.79196C58.8195 5.86644 58.783 5.96566 58.783 6.07749V6.25119C58.6134 6.04014 58.407 5.87859 58.1646 5.76699C57.7885 5.58069 57.3762 5.49361 56.9637 5.49361C56.0782 5.49361 55.2413 5.85384 54.6107 6.48699C54.2833 6.82224 54.0285 7.21959 53.8587 7.65406C53.6646 8.13826 53.5677 8.65981 53.5798 9.18136C53.5677 9.70291 53.6646 10.2245 53.8587 10.721C54.0283 11.1555 54.2954 11.5531 54.6107 11.8883C55.2294 12.5341 56.0661 12.8941 56.9516 12.8941C57.3639 12.9065 57.7765 12.807 58.1523 12.6333C58.3949 12.5091 58.6132 12.3478 58.783 12.1491V12.3354C58.783 12.4346 58.8195 12.5341 58.8923 12.5962C58.965 12.6707 59.0501 12.7078 59.147 12.7078H60.5176C60.7237 12.7078 60.8815 12.5465 60.8815 12.3352V6.08941C60.8815 5.98996 60.845 5.89074 60.7846 5.81604C60.7239 5.72919 60.6268 5.67946 60.5176 5.67946V5.68014ZM58.674 9.86469C58.6013 10.0634 58.4921 10.2373 58.3466 10.3986C58.2011 10.5476 58.0433 10.6718 57.8615 10.7586C57.6674 10.8455 57.4613 10.8952 57.2428 10.8952C57.0246 10.8952 56.8305 10.8455 56.6365 10.7586C56.4545 10.6718 56.2848 10.5476 56.1391 10.3986C55.9936 10.2494 55.8844 10.0634 55.8237 9.86469C55.6782 9.44259 55.6782 8.98291 55.8237 8.56081C55.8965 8.36214 56.0057 8.18821 56.1391 8.03926C56.2846 7.89031 56.4545 7.76611 56.6365 7.67926C56.8305 7.59219 57.0367 7.54269 57.2428 7.54269C57.4492 7.54269 57.6551 7.57981 57.8615 7.67926C58.0435 7.76611 58.2011 7.87794 58.3466 8.02689C58.4921 8.17584 58.6013 8.34976 58.674 8.54844C58.8316 8.95816 58.8316 9.44259 58.674 9.86469ZM68.0378 10.6223L67.2494 10.0015C67.1039 9.87729 66.9584 9.83994 66.8371 9.88966C66.7281 9.93939 66.631 10.0139 66.5461 10.1007C66.3764 10.3118 66.1701 10.4981 65.9518 10.6594C65.7092 10.796 65.4545 10.8704 65.1877 10.8457C64.8723 10.8457 64.5813 10.7588 64.3263 10.5725C64.0716 10.3862 63.8776 10.1381 63.7806 9.82756C63.7079 9.61651 63.6716 9.40546 63.6716 9.19441C63.6716 8.97076 63.7079 8.75994 63.7806 8.53629C63.8534 8.33761 63.9505 8.16369 64.096 8.01474C64.2415 7.86579 64.3993 7.74159 64.5811 7.66711C64.7751 7.58026 64.9813 7.53054 65.1995 7.53054C65.4663 7.51816 65.7332 7.59264 65.9637 7.72921C66.194 7.87816 66.3881 8.06446 66.558 8.28789C66.6307 8.37474 66.7277 8.44944 66.8369 8.49894C66.9582 8.54866 67.1037 8.51131 67.2492 8.38711L68.0376 7.77871C68.1345 7.71661 68.2074 7.61716 68.2437 7.50556C68.2923 7.38136 68.28 7.24479 68.2074 7.13296C67.9041 6.64876 67.4918 6.25119 66.9945 5.96566C66.4729 5.66776 65.8543 5.50621 65.163 5.50621C64.678 5.50621 64.1927 5.60544 63.7318 5.79174C63.2951 5.97804 62.907 6.23881 62.5795 6.57384C62.2521 6.90909 61.9852 7.30644 61.8033 7.75351C61.4272 8.68479 61.4272 9.72789 61.8033 10.6592C61.9852 11.0936 62.24 11.5036 62.5795 11.8265C63.271 12.5217 64.1927 12.8943 65.163 12.8943C65.8545 12.8943 66.4729 12.7328 66.9945 12.4349C67.4918 12.1493 67.9162 11.752 68.2195 11.2552C68.2802 11.1434 68.2923 11.0068 68.2558 10.895C68.2074 10.7957 68.1345 10.6963 68.0376 10.6218L68.0378 10.6223ZM75.3395 12.0751L73.1683 8.82181L75.0241 6.31351C75.109 6.20169 75.1455 6.04036 75.0969 5.90379C75.0606 5.80456 74.9756 5.70511 74.7452 5.70511H73.2775C73.1925 5.70511 73.1077 5.72986 73.0349 5.76721C72.938 5.81671 72.8652 5.89141 72.8167 5.97826L71.3369 8.10159H70.9852V3.08499C70.9852 2.98554 70.9488 2.88631 70.876 2.81161C70.8033 2.73714 70.7182 2.70001 70.6213 2.70001H69.2507C69.1536 2.70001 69.0567 2.73736 68.9837 2.81184C68.911 2.88631 68.8747 2.97316 68.8747 3.08499V12.3359C68.8747 12.4475 68.911 12.5345 68.9837 12.609C69.0565 12.6835 69.1536 12.7206 69.2507 12.7206H70.6213C70.7182 12.7206 70.8153 12.6835 70.876 12.609C70.9488 12.5345 70.9852 12.4351 70.9852 12.3359V9.88966H71.3734L72.9866 12.4227C73.0835 12.609 73.2655 12.7206 73.4595 12.7206H75C75.2303 12.7206 75.3274 12.609 75.376 12.5096C75.4367 12.3482 75.4244 12.1867 75.3395 12.0751ZM41.1595 5.69274H39.6191C39.4978 5.69274 39.3885 5.72986 39.3037 5.81694C39.231 5.89141 39.1824 5.97849 39.1582 6.07771L38.0182 10.3991H37.7391L36.5261 6.07771C36.5019 5.99086 36.4655 5.90401 36.4048 5.81694C36.3321 5.73009 36.2349 5.68036 36.1259 5.68036H34.5613C34.3551 5.68036 34.2338 5.74246 34.1732 5.89141C34.1369 6.01561 34.1369 6.15219 34.1732 6.27639L36.1138 12.3608C36.1501 12.4479 36.1866 12.5471 36.2593 12.6092C36.3321 12.6837 36.4413 12.7211 36.5503 12.7211H37.3751L37.3024 12.9197L37.1204 13.4784C37.0597 13.6523 36.9626 13.8013 36.8171 13.9129C36.6837 14.0121 36.5261 14.0744 36.3562 14.0618C36.2107 14.0618 36.0773 14.0247 35.9439 13.975C35.8105 13.9129 35.6892 13.8384 35.58 13.7516C35.483 13.6771 35.3617 13.6397 35.2283 13.6397H35.2162C35.0707 13.6521 34.9373 13.7266 34.8644 13.8632L34.3793 14.5958C34.1852 14.9186 34.2943 15.1173 34.4156 15.2289C34.6824 15.4773 34.9857 15.6634 35.3252 15.7752C35.7013 15.9118 36.0894 15.9739 36.4775 15.9739C37.1811 15.9739 37.7633 15.7752 38.2121 15.3902C38.6729 14.9681 39.0248 14.4216 39.1945 13.8008L41.4505 6.27594C41.4991 6.13936 41.5112 6.00279 41.4626 5.87859C41.4505 5.79151 41.3657 5.67991 41.1593 5.69229L41.1595 5.69274Z" fill="black"/>
</svg>
