<svg width="114" height="33" viewBox="0 0 114 33" fill="none" xmlns="http://www.w3.org/2000/svg">
<path d="M109.304 32.791H4.20399C1.89285 32.791 0 30.9455 0 28.6921V4.09879C0 1.84543 1.89285 -9.34601e-05 4.20399 -9.34601e-05H109.304C111.615 -9.34601e-05 113.508 1.84543 113.508 4.09879V28.6921C113.508 30.9455 111.615 32.791 109.304 32.791Z" fill="white"/>
<path d="M109.304 0.656752C111.25 0.656752 112.834 2.20101 112.834 4.09879V28.6921C112.834 30.5899 111.25 32.1342 109.304 32.1342H4.20399C2.25754 32.1342 0.673689 30.5899 0.673689 28.6921V4.09879C0.673689 2.20101 2.25754 0.656752 4.20399 0.656752H109.304ZM109.304 -9.34601e-05H4.20399C1.89285 -9.34601e-05 0 1.84543 0 4.09879V28.6921C0 30.9455 1.89285 32.791 4.20399 32.791H109.304C111.615 32.791 113.508 30.9455 113.508 28.6921V4.09879C113.508 1.84543 111.615 -9.34601e-05 109.304 -9.34601e-05Z" fill="#A6A6A6"/>
<path d="M8.14285 6.17957C7.89586 6.43165 7.75293 6.82412 7.75293 7.33238V25.4618C7.75293 25.97 7.89586 26.3625 8.14285 26.6146L8.20381 26.6699L18.6234 16.5149V16.2751L8.20381 6.12014L8.14285 6.17957Z" fill="#222224"/>
<path d="M23.3541 19.9019L19.8848 16.5151V16.2754L23.3583 12.8887L23.4361 12.9327L27.5497 15.2148C28.7237 15.8624 28.7237 16.9281 27.5497 17.5798L23.4361 19.8578L23.3541 19.9019Z" fill="#222224"/>
<path d="M22.8053 20.4884L19.254 17.0259L8.77344 27.2454C9.16336 27.6451 9.79921 27.6932 10.5223 27.2936L22.8053 20.4884Z" fill="#222224"/>
<path d="M22.8053 12.3021L10.5223 5.49694C9.79921 5.10139 9.16336 5.14955 8.77344 5.54919L19.254 15.7646L22.8053 12.3021Z" fill="#222224"/>
<path d="M39.869 8.39726C39.869 9.08178 39.6588 9.63001 39.2447 10.0389C38.7686 10.5236 38.1485 10.7674 37.3886 10.7674C36.6624 10.7674 36.0423 10.5195 35.5336 10.0307C35.0239 9.53471 34.7695 8.92602 34.7695 8.19744C34.7695 7.46887 35.0239 6.86018 35.5336 6.36832C36.0423 5.87542 36.6624 5.62744 37.3886 5.62744C37.7502 5.62744 38.0949 5.7002 38.4238 5.83546C38.7518 5.97175 39.0187 6.1562 39.2121 6.38369L38.7728 6.81612C38.4354 6.42775 37.9761 6.23613 37.3886 6.23613C36.8589 6.23613 36.3996 6.41648 36.0097 6.78025C35.624 7.14505 35.4306 7.61745 35.4306 8.19744C35.4306 8.77744 35.624 9.25393 36.0097 9.61873C36.3996 9.97841 36.8589 10.1629 37.3886 10.1629C37.9509 10.1629 38.4238 9.97841 38.797 9.61463C39.0429 9.37382 39.1827 9.04181 39.2195 8.61758H37.3886V8.02529H39.8311C39.8606 8.15338 39.869 8.27737 39.869 8.39726Z" fill="#222224" stroke="#222224" stroke-width="0.16" stroke-miterlimit="10"/>
<path d="M43.7436 6.34428H41.4493V7.90186H43.5177V8.49415H41.4493V10.0517H43.7436V10.6553H40.7998V5.74072H43.7436V6.34428Z" fill="#222224" stroke="#222224" stroke-width="0.16" stroke-miterlimit="10"/>
<path d="M46.4787 10.6553H45.8292V6.34428H44.4219V5.74072H47.887V6.34428H46.4787V10.6553Z" fill="#222224" stroke="#222224" stroke-width="0.16" stroke-miterlimit="10"/>
<path d="M50.3945 10.6553V5.74072H51.043V10.6553H50.3945Z" fill="#222224" stroke="#222224" stroke-width="0.16" stroke-miterlimit="10"/>
<path d="M53.9171 10.6553H53.2729V6.34428H51.8604V5.74072H55.3297V6.34428H53.9171V10.6553Z" fill="#222224" stroke="#222224" stroke-width="0.16" stroke-miterlimit="10"/>
<path d="M61.8908 10.0225C61.3937 10.5195 60.7778 10.7674 60.0432 10.7674C59.3043 10.7674 58.6884 10.5195 58.1913 10.0225C57.6952 9.52651 57.4482 8.91782 57.4482 8.19744C57.4482 7.47706 57.6952 6.86838 58.1913 6.37241C58.6884 5.87542 59.3043 5.62744 60.0432 5.62744C60.7736 5.62744 61.3895 5.87542 61.8866 6.37651C62.3869 6.87658 62.6339 7.48116 62.6339 8.19744C62.6339 8.91782 62.3869 9.52651 61.8908 10.0225ZM58.6716 9.61054C59.0458 9.97841 59.5008 10.1629 60.0432 10.1629C60.5813 10.1629 61.0406 9.97841 61.4105 9.61054C61.7836 9.24266 61.9728 8.77026 61.9728 8.19744C61.9728 7.62462 61.7836 7.15223 61.4105 6.78435C61.0406 6.41648 60.5813 6.23203 60.0432 6.23203C59.5008 6.23203 59.0458 6.41648 58.6716 6.78435C58.2985 7.15223 58.1093 7.62462 58.1093 8.19744C58.1093 8.77026 58.2985 9.24266 58.6716 9.61054Z" fill="#222224" stroke="#222224" stroke-width="0.16" stroke-miterlimit="10"/>
<path d="M63.5449 10.6553V5.74072H64.3332L66.7841 9.56294H66.8125L66.7841 8.61814V5.74072H67.4326V10.6553H66.7557L64.1892 6.64453H64.1608L64.1892 7.59342V10.6553H63.5449Z" fill="#222224" stroke="#222224" stroke-width="0.16" stroke-miterlimit="10"/>
<path d="M57.2873 17.8323C55.3124 17.8323 53.6992 19.2976 53.6992 21.3194C53.6992 23.3248 55.3124 24.8055 57.2873 24.8055C59.2663 24.8055 60.8796 23.3248 60.8796 21.3194C60.8796 19.2976 59.2663 17.8323 57.2873 17.8323ZM57.2873 23.4324C56.2037 23.4324 55.2715 22.5603 55.2715 21.3194C55.2715 20.0621 56.2037 19.2054 57.2873 19.2054C58.3708 19.2054 59.3073 20.0621 59.3073 21.3194C59.3073 22.5603 58.3708 23.4324 57.2873 23.4324ZM49.4584 17.8323C47.4794 17.8323 45.8703 19.2976 45.8703 21.3194C45.8703 23.3248 47.4794 24.8055 49.4584 24.8055C51.4364 24.8055 53.0465 23.3248 53.0465 21.3194C53.0465 19.2976 51.4364 17.8323 49.4584 17.8323ZM49.4584 23.4324C48.3738 23.4324 47.4384 22.5603 47.4384 21.3194C47.4384 20.0621 48.3738 19.2054 49.4584 19.2054C50.542 19.2054 51.4742 20.0621 51.4742 21.3194C51.4742 22.5603 50.542 23.4324 49.4584 23.4324ZM40.1424 18.9011V20.3828H43.7714C43.6653 21.2108 43.3815 21.8195 42.9464 22.2437C42.4167 22.7561 41.5917 23.3248 40.1424 23.3248C37.909 23.3248 36.1601 21.5674 36.1601 19.3899C36.1601 17.2123 37.909 15.4549 40.1424 15.4549C41.3499 15.4549 42.2286 15.915 42.877 16.5114L43.948 15.4672C43.041 14.6228 41.8345 13.9742 40.1424 13.9742C37.0797 13.9742 34.5059 16.4038 34.5059 19.3899C34.5059 22.3759 37.0797 24.8055 40.1424 24.8055C41.7977 24.8055 43.041 24.2768 44.0184 23.2848C45.02 22.3083 45.3322 20.9351 45.3322 19.8264C45.3322 19.4821 45.3027 19.1654 45.2502 18.9011H40.1424ZM78.2368 20.0498C77.9415 19.27 77.0302 17.8323 75.1742 17.8323C73.3349 17.8323 71.8036 19.2454 71.8036 21.3194C71.8036 23.2725 73.3192 24.8055 75.3507 24.8055C76.9935 24.8055 77.9415 23.8289 78.3314 23.2602L77.1122 22.4681C76.7055 23.0481 76.1516 23.4324 75.3507 23.4324C74.5551 23.4324 73.9844 23.0768 73.6187 22.3759L78.4018 20.4463L78.2368 20.0498ZM73.3602 21.2108C73.3192 19.8664 74.4311 19.1777 75.2278 19.1777C75.8521 19.1777 76.3818 19.4821 76.5583 19.9176L73.3602 21.2108ZM69.4725 24.5934H71.0448V14.3462H69.4725V24.5934ZM66.8976 18.609H66.845C66.4919 18.2012 65.8182 17.8323 64.9648 17.8323C63.1739 17.8323 61.5364 19.3653 61.5364 21.3307C61.5364 23.2848 63.1739 24.8055 64.9648 24.8055C65.8182 24.8055 66.4919 24.4335 66.845 24.0134H66.8976V24.5135C66.8976 25.8466 66.1671 26.5629 64.989 26.5629C64.0284 26.5629 63.4324 25.8866 63.1865 25.3179L61.8192 25.8743C62.2133 26.7986 63.2569 27.936 64.989 27.936C66.8324 27.936 68.3879 26.8785 68.3879 24.3054V18.0444H66.8976V18.609ZM65.0993 23.4324C64.0157 23.4324 63.1087 22.548 63.1087 21.3307C63.1087 20.102 64.0157 19.2054 65.0993 19.2054C66.1671 19.2054 67.009 20.102 67.009 21.3307C67.009 22.548 66.1671 23.4324 65.0993 23.4324ZM85.598 14.3462H81.8375V24.5934H83.4056V20.7107H85.598C87.3395 20.7107 89.0473 19.4821 89.0473 17.5279C89.0473 15.5748 87.3353 14.3462 85.598 14.3462ZM85.639 19.2853H83.4056V15.7716H85.639C86.8098 15.7716 87.4782 16.7194 87.4782 17.5279C87.4782 18.3211 86.8098 19.2853 85.639 19.2853ZM95.3323 17.8128C94.1993 17.8128 93.0212 18.3006 92.5366 19.3817L93.9282 19.9504C94.2277 19.3817 94.7784 19.1972 95.3607 19.1972C96.1742 19.1972 96.9992 19.6737 97.0118 20.515V20.6226C96.728 20.4627 96.1205 20.226 95.3733 20.226C93.8746 20.226 92.3475 21.0304 92.3475 22.5317C92.3475 23.9048 93.575 24.7891 94.955 24.7891C96.0102 24.7891 96.5924 24.3249 96.9582 23.7849H97.0118V24.577H98.5263V20.6462C98.5263 18.8293 97.1348 17.8128 95.3323 17.8128ZM95.1431 23.4283C94.6302 23.4283 93.9156 23.1803 93.9156 22.5603C93.9156 21.7672 94.8068 21.4629 95.5782 21.4629C96.2687 21.4629 96.5924 21.6115 97.0118 21.8072C96.8888 22.7561 96.0512 23.4283 95.1431 23.4283ZM104.044 18.0372L102.242 22.4794H102.188L100.325 18.0372H98.6335L101.433 24.245L99.8358 27.6993H101.474L105.789 18.0372H104.044ZM89.9092 24.5934H91.4814V14.3462H89.9092V24.5934Z" fill="#222224"/>
</svg>
