<svg width="40" height="40" viewBox="0 0 40 40" fill="none" xmlns="http://www.w3.org/2000/svg">
<path d="M26.769 5.75215H27.0851L30.3849 5.75214C30.9335 5.75225 31.4885 5.77218 32.0363 5.75215V9.19805C32.9835 9.27125 33.8106 10.0948 33.9473 11.0255C34.0306 11.592 33.9836 12.4282 33.9835 13.017L33.9831 29.8913C33.3343 29.8923 32.6851 29.8834 32.0363 29.8913C32.0399 30.9572 32.1032 31.8513 31.2858 32.6784C30.2472 33.729 28.5097 33.6174 27.5015 32.5931C26.7126 31.7916 26.7648 30.9313 26.769 29.8913H13.2512V30.2652C13.2538 31.2744 13.2294 31.9428 12.4672 32.709C11.4528 33.7289 9.75412 33.7116 8.74232 32.6906C7.89607 31.8366 7.94764 31.0008 7.95022 29.8913H6.03806L6.03711 11.8411C6.03572 10.5767 6.3991 9.42852 7.88318 9.21657C8.13795 9.18024 8.40186 9.19555 8.65865 9.19664L26.769 9.19805V5.75215ZM28.1504 7.12193V9.19805H30.6776V7.12193H28.1504ZM8.41162 10.525C7.33701 10.6129 7.41461 11.185 7.41958 12.0871L7.41985 13.4916H23.5335V23.9383H31.6101C31.9439 23.9384 32.2787 23.9444 32.6124 23.9383L32.6129 12.6063C32.6133 10.9545 32.8522 10.5186 30.8318 10.5237L8.41162 10.525ZM7.41985 14.8445V23.9383H22.1504C22.1659 23.9051 22.1504 15.6741 22.1504 14.8445H7.41985ZM7.48825 25.3134L7.43665 25.3338C7.38849 25.459 7.41976 28.1355 7.41985 28.514C7.72342 28.5312 8.03084 28.5148 8.33506 28.5143L32.5516 28.514L32.5885 28.4952C32.6473 28.2922 32.6131 27.6827 32.6132 27.4422L32.6124 25.3134H7.48825ZM9.33084 29.8913C9.32865 30.5112 9.21506 31.1932 9.68818 31.6772C10.1891 32.1895 10.989 32.1935 11.5217 31.7256C11.9861 31.1891 11.8569 30.5556 11.8569 29.8913C11.0162 29.8741 10.172 29.8915 9.33084 29.8913ZM28.3189 29.8913C28.0251 29.9072 28.1481 30.1123 28.1544 30.332C28.1644 30.6806 28.0883 30.9779 28.2469 31.3096C28.597 32.0423 29.5218 32.257 30.1778 31.7879C30.7583 31.3127 30.6815 30.5674 30.6776 29.8913H28.3189Z" fill="#222224"/>
<path d="M28.6672 14.8445C28.1245 14.7445 27.4366 15.0345 26.961 14.6423C26.4531 14.2235 26.7708 13.5242 27.3752 13.4916C27.7774 13.494 28.6805 13.4105 29.0054 13.5892C29.6281 13.9318 29.3034 14.6811 28.6672 14.8445Z" fill="#222224"/>
<path d="M13.2515 17.4248L10.4966 17.4239C10.1032 17.4248 9.48904 17.4664 9.117 17.4141C8.48271 17.3248 8.00716 16.1077 9.58529 16.0788L12.396 16.0784C12.7743 16.0778 13.3647 16.0363 13.7217 16.0918C14.3629 16.1913 14.7392 17.497 13.2515 17.4248Z" fill="#222224"/>
<path d="M15.9416 20.1003C15.5653 20.0984 15.0477 20.1795 14.7122 19.9889C13.7713 19.4543 14.9099 18.4983 15.2883 18.0676L16.1752 17.0645C16.45 16.7521 16.6813 16.3774 17.105 16.273C17.461 16.2541 17.8145 16.4127 17.8855 16.7979C17.9862 17.3449 16.8601 18.258 16.4976 18.7604C16.8738 18.7736 17.362 18.6925 17.7186 18.7957C18.0449 18.8902 18.3072 19.2936 18.181 19.6299C18.0851 19.8857 17.772 20.1363 17.5906 20.3329L16.6398 21.3713C16.2868 21.7619 15.8064 22.4931 15.3286 22.7001C14.9099 22.7929 14.4614 22.5693 14.4182 22.1048C14.3758 21.6475 15.5935 20.5255 15.9416 20.1003Z" fill="#222224"/>
<path d="M30.02 22.0205C29.1865 22.0348 28.3504 22.0181 27.5166 22.0197C26.8541 22.021 25.4306 22.2867 25.3419 21.3588C25.2952 20.8723 25.3295 20.3585 25.3296 19.8677C25.3296 19.0417 25.0365 17.8898 26.1314 17.818L28.6182 17.8171C29.2541 17.8172 30.5104 17.6083 30.7292 18.4412C30.7941 18.6884 30.8031 20.8726 30.7599 21.27C30.7135 21.6967 30.4186 21.9166 30.02 22.0205ZM26.7694 19.2027V20.6587H29.3558V19.2027H26.7694Z" fill="#222224"/>
<path d="M9.33088 22.5959C9.03331 22.6255 8.69838 22.4649 8.6176 22.1575C8.54424 21.8787 8.55151 19.6248 8.5901 19.2689C8.62753 18.9239 8.79292 18.7167 9.14088 18.636C9.44104 18.6162 9.81034 18.7538 9.89901 19.0745C9.97253 19.3407 9.95901 21.5491 9.92948 21.893C9.89354 22.3116 9.75909 22.5002 9.33088 22.5959Z" fill="#222224"/>
</svg>
