<svg width="100" height="20" viewBox="0 0 100 20" fill="none" xmlns="http://www.w3.org/2000/svg">
<g clip-path="url(#clip0_10832_7883)">
<mask id="mask0_10832_7883" style="mask-type:luminance" maskUnits="userSpaceOnUse" x="0" y="0" width="100" height="20">
<path d="M100 0H0V19.6215H100V0Z" fill="white"/>
</mask>
<g mask="url(#mask0_10832_7883)">
<mask id="mask1_10832_7883" style="mask-type:luminance" maskUnits="userSpaceOnUse" x="0" y="0" width="100" height="20">
<path d="M100 0H0V19.6215H100V0Z" fill="white"/>
</mask>
<g mask="url(#mask1_10832_7883)">
<path fill-rule="evenodd" clip-rule="evenodd" d="M4.23281 19.1428V6.38086L0 10.6349V19.1428H4.23281Z" fill="#222224"/>
<path d="M16.9332 12.762V19.1429H10.584V12.762H16.9332Z" fill="#222224"/>
<path d="M10.582 12.7622V19.1431L16.9312 12.7622H10.582Z" fill="#222224"/>
<path d="M10.5836 6.38093V12.7619L16.9328 6.38093V0H10.5836L4.23438 6.38093H10.5836Z" fill="#222224"/>
<path d="M92.373 2.62495V0.012207H99.7342V2.15931C97.4442 6.89331 97.2895 12.869 97.2895 19.1551H94.1233C94.1233 12.869 95.1273 6.37591 96.8517 2.62495H92.373Z" fill="#222224"/>
<path d="M91.3151 19.1551H88.252V0.012207H91.3151V19.1551Z" fill="#222224"/>
<path d="M55.1549 2.73994H52.1992V0.0112305H55.1549V2.73994ZM55.1549 19.1549H52.1992V3.78216H55.1549V19.1549Z" fill="#222224"/>
<path d="M51.4126 19.1548H48.457V0H51.4126V19.1548Z" fill="#222224"/>
<path d="M47.6726 2.73992H44.7168V0.0112305H47.6726V2.73992ZM47.6726 19.1549H44.7168V3.78214H47.6726V19.1549Z" fill="#222224"/>
<path d="M40.2814 12.7971L38.9332 11.7028C37.9221 10.843 37.2999 9.98312 37.2999 8.62827V7.19522C37.2999 4.85022 38.648 3.57349 40.8258 3.57349C43.0036 3.57349 44.1443 4.90234 44.1443 7.01282V9.56627H41.4739V6.96072C41.4739 6.20512 41.3184 5.65797 40.8258 5.65797C40.3332 5.65797 40.2036 6.20512 40.2036 6.96072V8.21137C40.2036 9.01912 40.6184 9.38387 41.2666 10.0092L42.6147 11.1817C43.5999 11.9895 44.2221 12.8753 44.2221 14.3345V15.8196C44.2221 18.1646 42.848 19.3631 40.6443 19.3631C38.4406 19.3631 37.248 18.0343 37.248 15.9238V13.2401H39.9443V16.002C39.9443 16.7576 40.1517 17.2787 40.6443 17.2787C41.137 17.2787 41.2925 16.7576 41.2925 16.002V14.5429C41.2925 13.8655 40.9814 13.4225 40.2814 12.7971Z" fill="#222224"/>
<path d="M66.8405 6.67412V19.1547H63.8848V3.78193H66.8405V5.91847C67.0738 4.48543 67.8256 3.57349 69.1216 3.57349C70.4962 3.57349 71.1962 4.71993 71.1962 6.07482V19.1547H68.2405V6.67412C68.2405 6.10087 68.033 5.68397 67.5664 5.68397C67.1256 5.68397 66.8405 6.10087 66.8405 6.67412Z" fill="#222224"/>
<path d="M74.9352 6.96072V15.6633C74.9352 16.5491 74.9849 17.0703 75.5576 17.0703C76.1297 17.0703 76.2014 16.6617 76.2014 15.4027V13.1632H79.1611V15.6893C79.1611 18.0604 77.7352 19.3631 75.583 19.3631C73.276 19.3631 71.9277 18.0343 71.9277 15.6633V7.29947C71.9277 4.92837 73.3536 3.57349 75.5576 3.57349C77.7869 3.57349 79.1611 4.90234 79.1611 7.29947V9.85287H76.18V6.96072C76.18 6.20512 76.076 5.65797 75.5576 5.65797C75.0645 5.65797 74.9352 6.20512 74.9352 6.96072Z" fill="#222224"/>
<path fill-rule="evenodd" clip-rule="evenodd" d="M86.8251 15.6893V13.162H83.8694V15.6633C83.8694 16.4931 83.8082 17.0703 83.2211 17.0703C82.6341 17.0703 82.5988 16.5231 82.5988 15.6633V11.8852H85.2595L86.8251 10.3118V7.29947C86.8251 4.90234 85.451 3.57349 83.2211 3.57349C81.0177 3.57349 79.5918 4.92837 79.5918 7.29947V15.6633C79.5918 18.0343 81.058 19.3631 83.3396 19.3631C85.4913 19.3631 86.8251 17.6467 86.8251 15.6893ZM82.5988 9.95712V6.96072C82.5988 6.20512 82.7286 5.65797 83.2211 5.65797C83.7401 5.65797 83.8694 6.20512 83.8694 6.96072V9.95712H82.5988Z" fill="#222224"/>
<path fill-rule="evenodd" clip-rule="evenodd" d="M63.1201 15.6893V13.162H60.1643V15.6633C60.1643 16.4931 60.1031 17.0703 59.5166 17.0703C58.9295 17.0703 58.8942 16.5231 58.8942 15.6633V11.8852H61.5539L63.1201 10.3118V7.29947C63.1201 4.90234 61.7459 3.57349 59.5166 3.57349C57.3126 3.57349 55.8867 4.92837 55.8867 7.29947V15.6633C55.8867 18.0343 57.3534 19.3631 59.6345 19.3631C61.7867 19.3631 63.1201 17.6467 63.1201 15.6893ZM58.8942 9.95712V6.96072C58.8942 6.20512 59.0235 5.65797 59.5166 5.65797C60.0345 5.65797 60.1643 6.20512 60.1643 6.96072V9.95712H58.8942Z" fill="#222224"/>
<path fill-rule="evenodd" clip-rule="evenodd" d="M36.7197 15.6893V13.162H33.7641V15.6633C33.7641 16.4931 33.7028 17.0703 33.116 17.0703C32.5291 17.0703 32.4937 16.5231 32.4937 15.6633V11.8852H35.1542L36.7197 10.3119V7.29947C36.7197 4.90234 35.3456 3.57349 33.116 3.57349C30.9123 3.57349 29.4863 4.92837 29.4863 7.29947V15.6633C29.4863 18.0343 30.9528 19.3631 33.2342 19.3631C35.3861 19.3631 36.7197 17.6467 36.7197 15.6893ZM32.4937 9.95712V6.96072C32.4937 6.20512 32.6234 5.65797 33.116 5.65797C33.6345 5.65797 33.7641 6.20512 33.7641 6.96072V9.95712H32.4937Z" fill="#222224"/>
<path fill-rule="evenodd" clip-rule="evenodd" d="M25.6752 11.9636C25.6752 11.1299 25.4678 10.6609 24.9493 10.6609H24.2752V19.155H21.1641V0.0126953H25.2085C27.6747 0.0126953 28.7604 1.17664 28.7604 3.52164V6.88279C28.7604 7.06669 28.7523 7.24469 28.7331 7.41644L26.6473 9.51269H27.3518C27.3539 9.51384 27.356 9.51494 27.358 9.51609H28.732V11.5391C28.752 11.7171 28.7604 11.9021 28.7604 12.0939V19.155H25.6752V11.9636ZM25.6752 7.01304V3.52164C25.6752 2.66181 25.4678 2.19281 24.9493 2.19281H24.2752V8.31589H24.9493C25.4678 8.31589 25.6752 7.84689 25.6752 7.01304Z" fill="#222224"/>
</g>
</g>
</g>
<defs>
<clipPath id="clip0_10832_7883">
<rect width="100" height="20" fill="white"/>
</clipPath>
</defs>
</svg>
