<svg width="15" height="15" viewBox="0 0 15 15" fill="none" xmlns="http://www.w3.org/2000/svg">
<g clip-path="url(#clip0_7412_1873)">
<path d="M14.375 7.5H15C15 11.6356 11.6356 15 7.5 15C4.50625 15 1.80813 13.2106 0.625 10.4969V13.125H0V10.3181C0 9.79813 0.423125 9.375 0.9425 9.375H3.75V10H1.09938C2.125 12.625 4.66625 14.375 7.5 14.375C11.2906 14.375 14.375 11.2906 14.375 7.5ZM14.375 1.875V4.50187C13.1912 1.78875 10.4937 0 7.5 0C3.36437 0 0 3.36437 0 7.5H0.625C0.625 3.70937 3.70937 0.625 7.5 0.625C10.3337 0.625 12.8756 2.375 13.9006 5H11.25V5.625H14.0569C14.5769 5.625 15 5.20188 15 4.68188V1.875H14.375ZM10.625 10.625H4.375V5.625C4.375 4.93563 4.93563 4.375 5.625 4.375H9.375C10.0644 4.375 10.625 4.93563 10.625 5.625V10.625ZM10 5.625C10 5.28 9.72 5 9.375 5H5.625C5.28062 5 5 5.28 5 5.625V10H10V5.625ZM6.5625 6.875H8.4375V6.25H6.5625V6.875Z" fill="#222224"/>
</g>
<defs>
<clipPath id="clip0_7412_1873">
<rect width="15" height="15" fill="white"/>
</clipPath>
</defs>
</svg>
