<svg width="22" height="22" viewBox="0 0 22 22" fill="none" xmlns="http://www.w3.org/2000/svg">
<g clip-path="url(#clip0_7166_737)">
<path d="M13.75 16.4908H15.5833V21.9908H0V9.1575C0 7.63583 1.2375 6.4075 2.75 6.4075H6.44417C6.04083 6.93917 5.73833 7.5625 5.60083 8.24083H2.75C2.24583 8.24083 1.83333 8.65333 1.83333 9.1575V20.1575H13.75V16.4908ZM21.4592 6.0225L15.455 0.00916672L14.1625 1.30167L19.2592 6.39833H10.0833C8.57083 6.39833 7.33333 7.63583 7.33333 9.14833V16.4817H9.16667V9.1575C9.16667 8.65333 9.57917 8.24083 10.0833 8.24083H19.25L14.1075 13.3833L15.4 14.6758L21.4592 8.61667C22.1742 7.90167 22.1742 6.7375 21.4592 6.0225Z" fill="#222224"/>
</g>
<defs>
<clipPath id="clip0_7166_737">
<rect width="22" height="22" fill="white"/>
</clipPath>
</defs>
</svg>
