<svg width="15" height="15" viewBox="0 0 15 15" fill="none" xmlns="http://www.w3.org/2000/svg">
<g clip-path="url(#clip0_7995_2408)">
<path d="M9.375 11.2438H10.625V14.9938H0V6.24376C0 5.20626 0.84375 4.36876 1.875 4.36876H4.39375C4.11875 4.73126 3.9125 5.15626 3.81875 5.61876H1.875C1.53125 5.61876 1.25 5.90001 1.25 6.24376V13.7438H9.375V11.2438ZM14.6313 4.10626L10.5375 0.0062561L9.65625 0.887506L13.1313 4.36251H6.875C5.84375 4.36251 5 5.20626 5 6.23751V11.2375H6.25V6.24376C6.25 5.90001 6.53125 5.61876 6.875 5.61876H13.125L9.61875 9.12501L10.5 10.0063L14.6313 5.87501C15.1187 5.38751 15.1187 4.59376 14.6313 4.10626Z" fill="white"/>
</g>
<defs>
<clipPath id="clip0_7995_2408">
<rect width="15" height="15" fill="white"/>
</clipPath>
</defs>
</svg>
