<svg width="20" height="20" viewBox="0 0 20 20" fill="none" xmlns="http://www.w3.org/2000/svg">
<g clip-path="url(#clip0_8040_1607)">
<path d="M17.4508 6.66667C17.0349 2.9225 13.8541 0 9.99992 0C6.14575 0 2.96492 2.9225 2.54909 6.66667H-0.0175781L1.58076 17.8542C1.75576 19.0775 2.81909 20 4.05576 20H15.9441C17.1799 20 18.2441 19.0775 18.4191 17.8542L20.0174 6.66667H17.4508ZM9.99992 1.66667C12.9324 1.66667 15.3599 3.845 15.7666 6.66667H4.23325C4.63992 3.845 7.06742 1.66667 9.99992 1.66667ZM6.66659 16.6667H4.99992V10H6.66659V16.6667ZM10.8333 16.6667H9.16659V10H10.8333V16.6667ZM14.9999 16.6667H13.3333V10H14.9999V16.6667Z" fill="#222224"/>
</g>
<defs>
<clipPath id="clip0_8040_1607">
<rect width="20" height="20" fill="white"/>
</clipPath>
</defs>
</svg>
