<svg width="20" height="20" viewBox="0 0 20 20" fill="none" xmlns="http://www.w3.org/2000/svg">
<g clip-path="url(#clip0_6904_347)">
<path d="M11.6667 15.8333C11.6667 14.8681 11.9461 13.9236 12.4711 13.1137C12.9961 12.3037 13.7444 11.6631 14.6255 11.2691C15.5066 10.875 16.4829 10.7445 17.4366 10.8931C18.3903 11.0417 19.2806 11.4632 20 12.1067V5H15C15 3.67392 14.4732 2.40215 13.5355 1.46447C12.5979 0.526784 11.3261 0 10 0C8.67392 0 7.40215 0.526784 6.46447 1.46447C5.52678 2.40215 5 3.67392 5 5H0V17.5C0 18.163 0.263392 18.7989 0.732233 19.2678C1.20107 19.7366 1.83696 20 2.5 20H13.9025C13.2147 19.5442 12.6505 18.9251 12.2603 18.198C11.8701 17.4709 11.6662 16.6585 11.6667 15.8333ZM10 1.66667C10.8841 1.66667 11.7319 2.01786 12.357 2.64298C12.9821 3.2681 13.3333 4.11594 13.3333 5H6.66667C6.66667 4.11594 7.01786 3.2681 7.64298 2.64298C8.2681 2.01786 9.11594 1.66667 10 1.66667Z" fill="#222224"/>
<path d="M19.167 15H17.5003V13.3334H15.8337V15H14.167V16.6667H15.8337V18.3334H17.5003V16.6667H19.167V15Z" fill="#222224"/>
</g>
<defs>
<clipPath id="clip0_6904_347">
<rect width="20" height="20" fill="white"/>
</clipPath>
</defs>
</svg>
