<svg width="40" height="40" viewBox="0 0 40 40" fill="none" xmlns="http://www.w3.org/2000/svg">
<path d="M6.46362 14.6625L6.46282 12.7302C6.46268 11.4515 6.28971 10.2952 7.28924 9.30633C8.3451 8.26172 9.57916 8.45461 10.9374 8.45485L27.8959 8.45454L29.6842 8.4536C30.2581 8.45344 30.9105 8.3943 31.4656 8.55016C33.5113 9.12446 33.5363 10.8945 33.5364 12.5719L33.5357 14.6625C35.8479 15.4109 35.5189 17.6131 35.5188 19.4947L35.5196 26.7586C35.5197 27.2831 35.5521 27.8323 35.5078 28.3543C35.4392 29.1626 34.5221 29.0202 33.9654 29.0192L32.0106 29.0177V30.8005H30.5853V29.0177H12.2043H9.45002C9.44885 29.6119 9.45815 30.2064 9.45002 30.8005C8.96729 30.7803 8.47635 30.7959 7.99307 30.8005C7.98354 30.2067 7.99229 29.6116 7.99307 29.0177L6.1484 29.0182C5.60212 29.0191 4.87719 29.2006 4.57515 28.6009C4.44709 28.3467 4.53322 26.8431 4.53319 26.4741L4.53258 19.0142C4.53255 16.8817 4.34782 15.692 6.46362 14.6625ZM9.45002 9.86063C7.83315 9.89469 7.9076 11.222 7.90854 12.4051L7.90955 14.6625C8.97815 14.8092 9.87323 15.7797 10.0927 16.8131C10.1867 17.2558 10.1521 17.7547 10.1521 18.2057L10.1514 20.0677C11.3711 19.4053 11.8801 19.6113 13.2561 19.6116L17.3559 19.6105H19.2688V9.86063L10.4545 9.85954C10.1255 9.85907 9.77619 9.83141 9.45002 9.86063ZM20.7293 9.86063V19.6105L27.7132 19.6096C28.3896 19.6092 29.3653 19.4966 29.8556 20.0677V17.7845C29.8646 16.166 30.5165 15.0633 32.1184 14.6625L32.1198 12.4784C32.1201 10.3683 32.1231 9.85922 29.6464 9.85993L22.9913 9.86016C22.2413 9.86008 21.4778 9.82039 20.7293 9.86063ZM32.6455 15.9624C31.4034 16.1491 31.3066 16.9238 31.3063 17.9799L31.3069 22.7383C31.308 24.0786 31.6003 24.648 30.0006 24.6497L10.5332 24.6492C9.14541 24.6516 8.66916 24.9856 8.67307 23.3952L8.67471 18.6046C8.67471 18.1398 8.72416 17.3491 8.62416 16.9334C8.31588 15.6509 6.22415 15.6863 5.95934 17.0766C5.88441 17.4698 5.92143 17.9128 5.9215 18.3127L5.92244 20.3894V27.5399C6.27674 27.5518 6.63348 27.5407 6.98805 27.5403L34.1207 27.5399L34.1211 18.1149C34.1214 17.7602 34.1578 17.3956 34.0999 17.0441C33.9985 16.4278 33.2414 15.9206 32.6455 15.9624Z" fill="#222224"/>
<path d="M23.2327 12.2241H24.6407L24.6576 12.2225C24.6623 12.2291 24.6404 13.5686 24.6407 13.6698H23.2327L23.2228 13.6676C23.2024 13.6365 23.233 12.3595 23.2327 12.2241Z" fill="#222224"/>
<path d="M11.4404 13.6698V12.2241H12.9391C12.937 12.7035 12.9646 13.1918 12.9391 13.6698C12.4412 13.6687 11.9373 13.6912 11.4404 13.6698Z" fill="#222224"/>
<path d="M15.3252 13.6698V12.2241H16.755V13.6698H15.3252Z" fill="#222224"/>
<path d="M27.1055 13.6698V12.2241H28.5555V13.6698H27.1055Z" fill="#222224"/>
</svg>
