<svg width="40" height="40" viewBox="0 0 40 40" fill="none" xmlns="http://www.w3.org/2000/svg">
<path d="M22.3713 26.9869C19.936 24.3742 17.366 23.6952 14.0915 23.0002C12.0332 22.5633 10.2217 21.5711 8.70776 20.1012C5.50326 16.99 4.29604 11.2334 7.65864 7.79107C9.08847 6.32732 10.9507 5.50934 13.0007 5.48328C15.4483 5.3608 18.1839 6.68957 19.9517 8.36367C21.8279 10.1405 23.0666 12.7112 23.1887 15.2903C23.2139 15.823 23.1702 16.3479 23.1494 16.8795C23.0611 19.132 23.5618 21.3756 24.6322 23.3682C24.7621 23.6101 24.939 23.8669 25.0089 24.1334C25.0899 24.0685 25.1664 23.9989 25.2435 23.9295C25.4164 24.1411 25.6213 24.3251 25.8146 24.5178C27.2561 25.9556 28.696 27.4014 30.1121 28.8639C31.5175 30.3155 32.4183 30.975 30.7134 32.6566C30.2178 33.1454 29.7713 33.7252 28.9978 33.664C28.2449 33.6044 26.9129 32.1448 26.392 31.5357C24.9583 30.3187 23.4756 28.5928 22.0871 27.257C22.173 27.1599 22.2755 27.0743 22.3713 26.9869ZM12.631 6.7342C11.1936 6.91646 10.1833 7.2837 9.04464 8.19148C9.64745 8.85898 10.6997 9.87453 11.3699 10.4905C11.5478 10.4327 11.7072 10.355 11.8785 10.2828C12.2939 10.2854 14.1585 9.73609 14.7211 9.57843C15.0067 8.77047 15.2686 7.95758 15.528 7.14101L15.506 7.13658C14.3556 6.8945 13.9275 6.7262 12.631 6.7342ZM16.6972 7.62216C16.4801 8.34304 16.2342 9.05226 15.9816 9.76133L17.704 11.5166C18.0867 11.9007 18.4796 12.2777 18.8523 12.6713C19.2485 12.5632 19.6424 12.4477 20.0365 12.3317L21.0533 12.003C20.2361 10.1523 18.5182 8.4857 16.6972 7.62216ZM8.15956 9.09359C6.75254 10.662 6.67819 13.5125 7.29944 15.4079C7.78386 15.2361 8.27526 15.036 8.77284 14.907C9.03159 14.823 9.29253 14.7428 9.5469 14.6466C9.80089 13.5716 10.2056 12.4686 10.4871 11.3805C10.2735 11.1116 8.37831 9.23375 8.15956 9.09359ZM15.1634 10.7452C14.0111 11.0354 12.8443 11.3334 11.7061 11.6714C11.3928 12.8299 11.0364 13.9772 10.7298 15.1366C11.1007 15.5066 13.2838 17.8931 13.5369 17.8584C14.5944 17.6256 15.8739 17.1406 16.8999 17.0024C17.2911 15.8695 17.5678 14.6989 17.9621 13.5655C17.7529 13.2909 17.4988 13.0536 17.2552 12.8099L16.2194 11.7737L15.573 11.1054C15.4595 10.9876 15.3384 10.8368 15.2035 10.7452H15.1634ZM21.5092 13.1852C20.7196 13.431 19.934 13.6894 19.1341 13.9008C18.9338 14.8373 18.4194 16.4259 18.1028 17.3352C18.5926 17.8027 19.0691 18.2801 19.5465 18.7598C19.874 19.0871 20.2302 19.41 20.5319 19.7603C21.7488 17.9656 22.2142 16.3228 21.7873 14.1075C21.7566 13.9484 21.6219 13.2964 21.5207 13.1873L21.5092 13.1852ZM9.82823 15.9239C9.15401 16.0755 8.45042 16.3369 7.804 16.5805C8.36651 18.0823 9.67518 19.5119 11.0257 20.3541C11.2722 20.5224 11.5179 20.6938 11.7764 20.8436C12.0495 20.132 12.2974 19.3879 12.4943 18.6513C12.0178 18.1918 10.0182 16.2995 9.82823 15.9239ZM17.1864 18.228C16.0578 18.4576 14.7796 18.8228 13.6653 19.137C13.4542 19.8852 13.1006 20.6091 12.9331 21.3662C13.7517 21.6104 14.5671 21.8322 15.4251 21.873C16.7546 21.9163 18.6016 21.5209 19.6742 20.6475C19.4035 20.3535 17.3164 18.2141 17.1864 18.228ZM22.0871 19.7603C21.0499 21.2315 19.9226 22.2423 18.1914 22.7691C19.4134 23.2569 20.5349 23.863 21.5934 24.6381C22.1357 25.064 22.7253 25.4983 23.1855 26.0135C23.4677 25.6542 23.8042 25.3498 24.1006 25.0041C23.1967 23.3804 22.582 22.0722 22.1595 20.2093C22.1397 20.1223 22.1108 19.8111 22.0871 19.7603ZM25.2435 25.6997C24.7291 26.1537 24.1921 26.6537 23.7364 27.1696C23.8134 27.2424 24.4228 27.8933 24.4688 27.8926L24.4717 27.8891C24.9269 27.3599 25.4185 26.8423 25.9589 26.3998C25.7292 26.2073 25.3811 25.9655 25.2435 25.6997ZM26.7894 27.3254C26.2965 27.7953 25.831 28.2912 25.3359 28.7586C26.0769 29.5273 28.4883 31.6754 28.9627 32.4414C29.2734 32.5313 30.3398 31.2554 30.3558 31.1941C30.4542 30.8167 29.7548 30.2862 29.5228 30.0473C28.6805 29.18 27.555 28.1969 26.7894 27.3254Z" fill="#222224"/>
<path d="M29.7701 19.9224C27.266 20.1191 24.8363 17.9383 24.6974 15.4466C24.5435 12.6854 26.632 10.4154 29.3778 10.2828C30.6099 10.1988 31.9152 10.7795 32.8124 11.5984C36.0157 14.5215 34.0187 19.7586 29.7701 19.9224ZM28.8756 11.6273C27.7798 11.8037 26.9657 12.4611 26.3913 13.3795L26.7887 13.5004C27.6583 13.9651 28.3312 13.4967 28.7571 12.6683C28.8201 12.5457 29.188 11.5774 28.8756 11.6273ZM30.1312 11.6273C30.142 12.563 30.7436 13.6938 31.7838 13.6777C31.9949 13.6745 32.2084 13.5558 32.412 13.5004C32.4867 13.4575 32.5606 13.4162 32.6386 13.3795C32.1803 12.4566 31.1709 11.7174 30.1312 11.6273ZM29.5567 13.8229C29.1667 14.2605 28.8883 14.5 28.3624 14.7716C28.6123 15.2158 28.7631 15.6368 28.8013 16.1464C29.0498 16.0866 29.3007 16.0507 29.5567 16.0502C29.8066 16.0595 30.0445 16.0933 30.2888 16.1464C30.346 15.6416 30.4427 15.2014 30.7284 14.7716C30.2534 14.4396 29.9656 14.2488 29.5567 13.8229ZM33.1446 14.5294C31.8248 15.0298 31.0316 15.8966 31.8988 17.2952L32.1492 17.5758C32.9572 16.7627 33.2654 15.6574 33.1532 14.5349L33.1446 14.5294ZM25.9582 14.6466C25.9056 15.8752 26.1635 16.6536 27.0022 17.5565L27.0205 17.5758C27.1011 17.4833 27.1862 17.392 27.2617 17.2952C27.9988 16.2653 27.2593 14.6692 25.9582 14.6466ZM29.3778 17.3352C29.0749 17.3737 28.8202 17.4395 28.5462 17.5758C28.466 17.9066 28.3362 18.1267 28.1441 18.4059C28.7439 18.578 29.2371 18.6952 29.8678 18.6513C30.2645 18.6476 30.6575 18.5659 31.0213 18.4059C30.775 17.6695 30.1455 17.2523 29.3778 17.3352Z" fill="#222224"/>
<path d="M10.8086 33.6727C9.45055 33.7259 8.51297 33.5019 7.42232 32.6344C4.11821 30.0063 5.78063 24.625 10.0145 24.182C11.1639 24.1372 12.2589 24.4132 13.1827 25.1183C16.6677 27.7778 15.1684 33.124 10.8086 33.6727ZM10.487 25.4691C10.2689 25.4703 10.0458 25.4805 9.82821 25.4691C10.2604 26.0221 10.8669 26.5522 11.3666 27.0573C12.0791 27.7778 12.8123 28.5702 13.5369 29.2662C13.6371 29.3551 13.7383 29.4412 13.8431 29.5246C13.8517 28.6055 13.8384 27.8784 13.3044 27.0838C12.6876 26.1659 11.6321 25.4166 10.487 25.4691ZM8.52751 26.0135C8.14438 26.2397 7.75048 26.5965 7.52872 26.9869C7.95954 27.459 8.4443 27.8935 8.89852 28.3446L10.9613 30.4281C11.4281 30.8937 11.9147 31.3429 12.3706 31.8188C12.5331 31.772 13.1817 31.0184 13.3132 30.8498C12.9946 30.5038 8.6061 26.0281 8.52751 26.0135ZM6.99741 28.3478C6.59958 30.7838 8.60368 32.6916 11.0256 32.4414L11.067 32.4145C11.0584 32.3934 7.17282 28.457 6.99741 28.3478Z" fill="#222224"/>
</svg>
