<svg width="135" height="36" viewBox="0 0 135 36" fill="none" xmlns="http://www.w3.org/2000/svg">
<g clip-path="url(#clip0_10678_64840)">
<path d="M2.51964 27.3656C1.3209 26.6927 0.544415 25.6818 0.182614 24.3643C-0.379624 22.314 0.377026 20.2565 2.16814 18.9291C3.02701 18.2882 4.00007 17.8168 5.03533 17.54C5.11134 17.6528 5.04505 17.7613 5.01841 17.8661C4.53109 19.7771 4.03942 21.6871 3.54341 23.5961C3.23838 24.7776 2.93918 25.9606 2.6252 27.1397C2.60401 27.2208 2.59507 27.309 2.51964 27.3656Z" fill="#3DB44A"/>
<path d="M17.6151 8.60058C17.2445 8.41686 16.9735 8.12058 16.7357 7.79591C16.087 6.90823 15.779 5.89282 15.655 4.81383C15.5599 3.98544 15.6196 3.17008 15.9145 2.38524C16.4233 1.03038 17.8062 0.0243025 19.1387 0.0246913C19.3018 -0.00281867 19.4685 -0.00281867 19.6317 0.0246913C19.6338 0.0224953 19.6363 0.0208117 19.6391 0.0197738C19.642 0.0187359 19.645 0.0183724 19.648 0.0187119C19.651 0.0190515 19.6539 0.0200849 19.6564 0.0217302C19.659 0.0233755 19.6611 0.0255873 19.6626 0.0281908C19.7073 0.127341 19.6731 0.224547 19.6505 0.319808C19.2534 1.99953 18.8507 3.67769 18.4559 5.35779C18.2251 6.33957 17.9877 7.3198 17.7574 8.30138C17.7319 8.41084 17.7206 8.52865 17.6151 8.60058Z" fill="#EC1459"/>
<path d="M12.5412 35.6304C11.783 35.2999 11.2295 34.7482 10.8413 34.0294C10.3553 33.1295 10.2674 32.173 10.5534 31.2023C10.9811 29.7534 11.8128 28.5777 13.0552 27.706C13.3857 27.4739 13.7456 27.2878 14.1543 27.2229C14.2785 27.2116 14.2672 27.3026 14.2676 27.3784C14.2676 27.4927 14.24 27.6036 14.217 27.7146C13.7893 29.7837 13.3704 31.8555 12.9472 33.9245C12.8499 34.4039 12.7527 34.8833 12.6526 35.3631C12.6328 35.4582 12.6285 35.562 12.5412 35.6304Z" fill="#EE4237"/>
<path d="M23.4153 32.4279C22.8737 31.9119 22.4218 31.3094 22.0781 30.6449C22.3627 29.4351 22.6526 28.2266 22.938 27.0172C23.2561 25.6695 23.5796 24.323 23.8941 22.9746C23.9136 22.8941 23.9122 22.7996 24.0108 22.7619L24.1805 22.7506C24.2761 22.703 24.3819 22.7536 24.4789 22.7193C24.9261 22.6976 25.3701 22.6976 25.8101 22.7913C25.7323 22.9048 25.7031 23.0355 25.6716 23.1675C25.332 24.5906 25.0005 26.0158 24.6607 27.4387C24.282 29.0206 23.9169 30.6057 23.5306 32.1856C23.5078 32.2733 23.5059 32.3713 23.4153 32.4279Z" fill="#8C2A8A"/>
<path d="M24.0107 22.7613C23.8408 23.4809 23.6708 24.2002 23.5009 24.9193C23.1954 26.2024 22.8892 27.4849 22.5823 28.7667C22.4452 29.3427 22.3114 29.9194 22.1809 30.497C22.1653 30.5656 22.1449 30.6169 22.0784 30.6436C21.5243 29.6892 21.1647 28.6645 20.9833 27.5781C20.8579 26.8304 20.8328 26.0798 21.007 25.3371C21.3402 23.9179 22.3096 23.0285 23.7585 22.7938C23.8425 22.781 23.9269 22.7722 24.0107 22.7613Z" fill="#8F2A8C"/>
<path d="M26.7408 33.9171C26.3338 33.9097 25.9308 33.8368 25.5471 33.7011C25.4819 33.6233 25.5179 33.5384 25.5372 33.4575C25.9243 31.8296 26.3102 30.2014 26.6949 28.5729C27.0829 26.945 27.4688 25.3168 27.8524 23.6883C27.8703 23.6123 27.8839 23.5347 27.9193 23.4645C27.9477 23.4081 27.9762 23.3422 28.0616 23.3908C28.437 23.5201 28.797 23.6905 29.1349 23.8988C29.1155 24.1984 29.0165 24.4821 28.9479 24.7712C28.5229 26.5598 28.0983 28.3489 27.6739 30.1385C27.3922 31.3193 27.1171 32.502 26.8304 33.6816C26.8106 33.7635 26.8037 33.8514 26.7408 33.9171Z" fill="#7F2A83"/>
<path d="M28.0612 23.3908C27.9043 23.4468 27.9365 23.6022 27.9089 23.7132C27.7019 24.5491 27.5067 25.3869 27.3086 26.2244C26.9135 27.8926 26.5189 29.5608 26.1246 31.2291C25.9302 32.0527 25.7376 32.8766 25.5466 33.7011C25.1511 33.5975 24.7746 33.4314 24.4315 33.209C24.3914 33.1157 24.4301 33.0272 24.4509 32.9388C25.1852 29.8443 25.92 26.7499 26.6556 23.6556C26.709 23.4328 26.6974 23.1853 26.8694 23.0003C27.2803 23.0846 27.6801 23.2156 28.0612 23.3908Z" fill="#842A86"/>
<path d="M26.8705 23.0003C26.4299 24.8604 25.9892 26.7203 25.5485 28.5799C25.2417 29.8704 24.9289 31.1593 24.6247 32.4504C24.5648 32.7043 24.5195 32.9613 24.4326 33.2086C24.0508 33.0041 23.7164 32.7376 23.416 32.4269C23.8418 30.6274 24.2674 28.828 24.6929 27.0285C25.011 25.682 25.3292 24.3356 25.6475 22.9894C25.6669 22.9056 25.6549 22.7728 25.8104 22.7903C26.171 22.8168 26.527 22.8873 26.8705 23.0003Z" fill="#882A88"/>
<path d="M10.0263 18.368C10.4177 18.778 10.5987 19.2905 10.705 19.8286C10.9148 20.8892 10.7937 21.9341 10.4968 22.9616C10.101 24.3306 9.48022 25.577 8.45684 26.5955C8.26087 26.7899 8.05616 26.9774 7.81528 27.1175C7.71283 27.0114 7.75851 26.8891 7.78826 26.7759C8.04099 25.814 8.28187 24.8491 8.53285 23.8868C8.80179 22.8556 9.06852 21.824 9.33305 20.792C9.51599 20.0835 9.70457 19.3764 9.87993 18.6659C9.90657 18.5572 9.91804 18.4376 10.0263 18.368Z" fill="#8EC540"/>
<path d="M7.68375 2.51277C8.00706 2.5711 8.32278 2.65489 8.61946 2.79992C8.65834 2.87768 8.62996 2.95311 8.61051 3.02796C8.03583 5.24568 7.46342 7.46398 6.89328 9.68287C6.62382 10.7267 6.36448 11.7732 6.08044 12.8129C6.05828 12.8936 6.04914 12.982 5.9739 13.0386C5.65677 12.9456 5.35107 12.8173 5.0625 12.6562C5.20909 12.3148 5.27402 11.9493 5.365 11.5926C5.92122 9.41147 6.49162 7.23406 7.049 5.05315C7.1915 4.49597 7.32642 3.93684 7.48293 3.38315C7.56649 3.09711 7.63354 2.80651 7.68375 2.51277Z" fill="#FAB51A"/>
<path d="M22.0503 1.15053C22.5824 1.65716 22.8809 2.289 23.0306 2.99744C23.204 3.81805 23.0673 4.61106 22.7584 5.37237C22.2984 6.50793 21.5802 7.45433 20.6004 8.19659C20.5331 8.24753 20.4583 8.28836 20.3866 8.33404C20.2773 8.24831 20.3267 8.13963 20.3492 8.03951C20.5631 7.09097 20.79 6.14497 21.017 5.19954C21.3186 3.94325 21.6061 2.68346 21.9164 1.42931C21.9422 1.329 21.9442 1.21371 22.0503 1.15053Z" fill="#DC1B5E"/>
<path d="M26.7402 33.9171C26.7986 33.425 26.9486 32.9524 27.0618 32.4724C27.5447 30.4252 28.0368 28.3804 28.523 26.3342C28.7009 25.5858 28.8712 24.8355 29.0479 24.087C29.0635 24.0209 29.0705 23.9453 29.1342 23.8988C29.3858 24.0522 29.6663 24.1595 29.8808 24.3715C29.7388 25.0455 29.5681 25.7129 29.4101 26.3828C28.8463 28.7741 28.2745 31.1642 27.7107 33.5566C27.6843 33.669 27.6559 33.7785 27.7302 33.883C27.404 33.9458 27.07 33.9573 26.7402 33.9171Z" fill="#7B2A81"/>
<path d="M22.0493 1.15053C21.7654 2.33683 21.4817 3.52313 21.1979 4.70943C20.9294 5.83403 20.6616 6.95897 20.3946 8.08422C20.3752 8.16568 20.3558 8.24947 20.3865 8.33385C20.0249 8.59008 19.6347 8.77983 19.1928 8.85079C19.1086 8.70926 19.1842 8.57297 19.2151 8.44019C19.4049 7.62502 19.5997 6.81082 19.7937 5.99663C20.2065 4.26481 20.618 2.53266 21.0282 0.800197C21.0539 0.692104 21.0595 0.572541 21.1558 0.492249C21.5135 0.630475 21.7787 0.894292 22.0493 1.15053Z" fill="#DF1A5D"/>
<path d="M7.68299 2.51277C7.73314 2.59053 7.72576 2.67044 7.70243 2.75753C7.05128 5.28968 6.40168 7.82209 5.75364 10.3548C5.5744 11.0528 5.39191 11.7501 5.20618 12.4466C5.18402 12.53 5.18674 12.6389 5.0627 12.6556C4.82925 12.5648 4.60706 12.4474 4.40054 12.3057C4.3811 12.1665 4.43612 12.0395 4.46955 11.9101C4.94547 10.0681 5.42055 8.22569 5.89479 6.38292C6.21012 5.15165 6.52837 3.92128 6.84954 2.69182C6.87579 2.59151 6.88259 2.47661 6.99807 2.42412C7.22872 2.4313 7.45811 2.46099 7.68299 2.51277Z" fill="#FAB01B"/>
<path d="M17.6152 8.60057C17.9847 7.05176 18.3541 5.50295 18.7234 3.95413C19.0162 2.72727 19.3094 1.5004 19.6031 0.27353C19.6225 0.191877 19.6093 0.102059 19.6614 0.0283767C19.9744 0.0108796 20.2641 0.111779 20.5557 0.203347C20.5934 0.281112 20.5664 0.356933 20.5485 0.431975C20.1484 2.10962 19.7505 3.78804 19.3546 5.46724C19.1002 6.54467 18.8387 7.62054 18.5892 8.69914C18.5733 8.76835 18.5624 8.83931 18.5101 8.89355C18.1837 8.88461 17.887 8.7804 17.6152 8.60057Z" fill="#E6175B"/>
<path d="M6.99968 2.42373C6.80079 3.04934 6.65537 3.68935 6.49168 4.32449C5.85848 6.77738 5.23306 9.23202 4.59558 11.6841C4.54153 11.8925 4.51918 12.1155 4.40117 12.3063C4.17008 12.1941 3.95364 12.054 3.75669 11.889C3.70537 11.7981 3.74134 11.7082 3.76389 11.6202C4.44355 8.96464 5.12775 6.3106 5.81649 3.65805C5.90242 3.32755 5.98368 2.99705 6.06494 2.66655C6.08341 2.59092 6.09352 2.51238 6.14407 2.44842C6.42752 2.38795 6.71331 2.4107 6.99968 2.42373Z" fill="#F9AB1C"/>
<path d="M7.83574 13.5054C7.5917 13.4984 7.35012 13.4546 7.11914 13.3755C7.34407 12.7097 7.49183 12.0226 7.66641 11.3433C8.22748 9.15951 8.7973 6.97762 9.35176 4.79166C9.44236 4.43433 9.53879 4.07836 9.63055 3.72123C9.65641 3.62013 9.66943 3.50932 9.77053 3.44458C10.0125 3.60532 10.2305 3.79959 10.4179 4.02159C10.4517 4.15768 10.3707 4.26927 10.3402 4.39098C9.93675 6.00304 9.51507 7.61024 9.10097 9.21958C8.75401 10.5675 8.40582 11.915 8.0564 13.2622C8.02724 13.3755 8.0319 13.5379 7.83574 13.5054Z" fill="#FBC217"/>
<path d="M7.83398 13.5054C7.94266 13.4943 7.95957 13.4121 7.98154 13.326C8.39357 11.7109 8.80669 10.0961 9.22092 8.48161C9.57565 7.09973 9.93208 5.71824 10.2902 4.33714C10.3184 4.22866 10.3738 4.12717 10.4167 4.02238C10.645 4.24041 10.8442 4.48695 11.0095 4.7559C11.0249 4.82783 11.0046 4.89607 10.9868 4.9647C10.261 7.75554 9.54111 10.5477 8.82723 13.3413C8.80449 13.4309 8.78505 13.5223 8.70475 13.5828C8.41061 13.5946 8.11919 13.5806 7.83398 13.5054Z" fill="#FCC716"/>
<path d="M5.97461 13.039C6.1523 12.3409 6.33032 11.6431 6.50866 10.9454C6.94297 9.24752 7.37774 7.54966 7.81297 5.85179C8.07639 4.83288 8.35071 3.81669 8.62016 2.79953C8.83423 2.86369 9.03675 2.96147 9.22012 3.0892C9.26794 3.15705 9.23956 3.22529 9.22167 3.29392C8.40651 6.48791 7.57423 9.67723 6.75692 12.8701C6.72309 13.0021 6.71921 13.1574 6.57456 13.2381C6.3671 13.1969 6.16556 13.13 5.97461 13.039Z" fill="#FBBA19"/>
<path d="M6.14436 2.44823C6.12492 2.86893 5.97483 3.26203 5.87724 3.66524C5.66727 4.52979 5.43262 5.38754 5.21118 6.24878C4.72593 8.1281 4.24146 10.0079 3.75776 11.8881C3.50596 11.7318 3.27554 11.5435 3.07227 11.3278C3.24451 10.8085 3.35766 10.2729 3.49375 9.74411C4.04199 7.61355 4.59781 5.48474 5.14217 3.35302C5.20827 3.09426 5.24365 2.82305 5.38052 2.5849C5.62625 2.49333 5.88249 2.45581 6.14436 2.44823Z" fill="#F9A71D"/>
<path d="M6.57422 13.2383C6.76863 12.7351 6.86059 12.204 6.99531 11.6849C7.58749 9.40136 8.17546 7.11669 8.75921 4.83093C8.90891 4.24944 9.06619 3.6701 9.21977 3.08958C9.41993 3.17988 9.60534 3.29982 9.76977 3.44536C9.44393 4.70255 9.11816 5.95975 8.79246 7.21695C8.27714 9.21291 7.76175 11.2089 7.2463 13.2048C7.22861 13.2725 7.22686 13.3693 7.11838 13.3767C6.92941 13.3606 6.75036 13.3049 6.57422 13.2383Z" fill="#FBBE18"/>
<path d="M5.37894 2.58568C5.32236 3.03574 5.16858 3.46267 5.05913 3.89971C4.67536 5.43167 4.2772 6.95994 3.8843 8.49113C3.65606 9.37946 3.42665 10.2673 3.19608 11.1546C3.17858 11.2216 3.18033 11.3198 3.07068 11.3276C2.84019 11.1303 2.64 10.9001 2.47656 10.6444C2.6457 10.1973 2.73532 9.72875 2.85353 9.26858C3.38544 7.19829 3.92726 5.13014 4.45315 3.0581C4.46889 2.99589 4.48056 2.9327 4.52625 2.88313C4.79221 2.73781 5.0803 2.63732 5.37894 2.58568Z" fill="#F8A21E"/>
<path d="M17.2001 29.1404C17.6887 30.1457 17.9093 31.2603 17.8405 32.376C17.7862 33.3243 17.4664 34.1609 16.8006 34.8504C16.5284 35.1318 16.2315 35.3829 15.8674 35.5416C15.7618 35.4043 15.8151 35.2556 15.8442 35.1139C16.1116 33.8148 16.3764 32.5151 16.6384 31.2148C16.7595 30.6097 16.8912 30.0067 17.014 29.4021C17.0356 29.2957 17.0216 29.1433 17.2001 29.1404Z" fill="#F16522"/>
<path d="M4.5255 2.88351C4.49381 3.29547 4.34916 3.6806 4.24846 4.07701C3.80053 5.83488 3.35157 7.5923 2.90157 9.34926C2.80534 9.72525 2.70483 10.1003 2.60762 10.4768C2.58818 10.5534 2.57632 10.6324 2.47581 10.6454C2.22895 10.3366 2.03214 9.99094 1.89258 9.62105C2.03625 9.26391 2.10643 8.88559 2.20033 8.51543C2.58021 7.03168 2.9632 5.54871 3.34931 4.06651C3.39679 3.88838 3.43398 3.70767 3.4607 3.52527C3.7842 3.25853 4.13162 3.03282 4.5255 2.88351Z" fill="#F89D1F"/>
<path d="M8.70508 13.5828C9.04595 12.2495 9.38694 10.9162 9.72807 9.58294C10.1249 8.0384 10.5243 6.49419 10.926 4.9503C10.9437 4.88284 10.9814 4.82063 11.0096 4.75589C11.2235 5.0199 11.3926 5.31191 11.547 5.61325C11.4422 5.87026 11.386 6.14205 11.3187 6.40917C10.7653 8.60369 10.1811 10.7898 9.63145 12.9853C9.58518 13.1698 9.49789 13.3469 9.5218 13.5454C9.25215 13.6141 8.97823 13.5909 8.70508 13.5828Z" fill="#FCCB15"/>
<path d="M27.7318 33.8823C27.6021 33.8823 27.5846 33.8239 27.6136 33.704C27.8274 32.8196 28.0337 31.9333 28.2444 31.0481C28.6346 29.4085 29.0255 27.7689 29.4173 26.1295C29.5481 25.5806 29.6777 25.0315 29.8062 24.4823C29.8178 24.4329 29.8165 24.3818 29.8814 24.3715L30.3674 24.7469C30.4152 24.8297 30.3857 24.9127 30.3663 24.9947C29.8942 26.9886 29.4212 28.9821 28.947 30.9752C28.7454 31.8236 28.5499 32.6734 28.3413 33.5201C28.3177 33.6157 28.3051 33.7166 28.2334 33.7938C28.0729 33.8535 27.903 33.8834 27.7318 33.8823Z" fill="#772A7F"/>
<path d="M11.31 12.9165C10.982 13.166 10.6018 13.338 10.1978 13.4195C10.1288 13.3079 10.1826 13.198 10.21 13.0921C10.6552 11.3689 11.0986 9.64547 11.54 7.92169C11.6279 7.57836 11.7228 7.23678 11.8108 6.89325C11.8415 6.77349 11.8585 6.6374 11.9967 6.57733C12.2494 7.12849 12.4131 7.70764 12.5309 8.30099C12.3328 9.0172 12.1528 9.73808 11.9693 10.459C11.7786 11.2065 11.5771 11.9515 11.3958 12.7015C11.3801 12.7777 11.3511 12.8505 11.31 12.9165Z" fill="#FDD413"/>
<path d="M30.616 32.5124C30.3539 32.8365 29.9793 33.0107 29.6461 33.2399C29.6179 33.2594 29.5878 33.2755 29.5588 33.2934C29.4585 33.1861 29.5065 33.0652 29.5337 32.9508C29.7936 31.8594 30.0499 30.767 30.3094 29.6754C30.5934 28.4802 30.8732 27.2841 31.1648 26.0904C31.1903 25.9862 31.1703 25.8329 31.345 25.8202C31.6046 26.1565 31.7873 26.5331 31.9292 26.9313C31.6211 28.1244 31.3522 29.3272 31.067 30.526C30.9146 31.1675 30.749 31.8044 30.6164 32.4497C30.6122 32.4704 30.612 32.4917 30.616 32.5124Z" fill="#6E297A"/>
<path d="M12.541 35.6304C12.763 34.5316 12.985 33.4328 13.2069 32.334C13.4967 30.9035 13.7873 29.4731 14.0786 28.0429C14.1249 27.8149 14.1939 27.5921 14.2147 27.3582C14.2203 27.2921 14.2207 27.2482 14.1548 27.2221C14.3969 27.1562 14.6389 27.086 14.8881 27.191C14.9854 27.311 14.9212 27.4379 14.8963 27.5581C14.5333 29.3078 14.184 31.0616 13.8222 32.8122C13.6327 33.7293 13.4455 34.6468 13.2607 35.5647C13.2401 35.6664 13.2401 35.7805 13.1375 35.8478C12.9201 35.825 12.729 35.7329 12.541 35.6304Z" fill="#EF4833"/>
<path d="M11.9982 6.57734C11.7843 7.04393 11.7044 7.55057 11.5743 8.04087C11.1252 9.7344 10.6944 11.4328 10.258 13.1294C10.2333 13.2249 10.2191 13.3228 10.1997 13.4195C9.98368 13.5025 9.7543 13.5452 9.52291 13.5454C9.40995 13.5295 9.44125 13.4634 9.4605 13.3899C9.7146 12.4062 9.96461 11.4213 10.2187 10.4372C10.4371 9.58982 10.657 8.74283 10.8783 7.89623C11.063 7.18605 11.2493 6.47703 11.4305 5.76509C11.4499 5.69141 11.4592 5.6255 11.5489 5.61423C11.7217 5.92354 11.8881 6.23732 11.9982 6.57734Z" fill="#FDCF14"/>
<path d="M26.9986 18.9882C26.8431 19.01 26.6876 19.0566 26.5272 19.0354C26.4584 18.9483 26.5031 18.8577 26.5229 18.7706C26.8145 17.4901 27.1287 16.2147 27.4289 14.9363C27.9221 12.8355 28.4279 10.737 28.9188 8.63596C28.9507 8.4989 29.0141 8.36748 29.002 8.22128C29.177 8.23956 29.352 8.26483 29.5161 8.33113C29.601 8.46333 29.5367 8.59611 29.5069 8.72287C29.3094 9.56648 29.1104 10.4098 28.9099 11.2527C28.3255 13.7057 27.7428 16.1589 27.1617 18.6124C27.1304 18.744 27.1444 18.903 26.9986 18.9882Z" fill="#51C5F3"/>
<path d="M29.0027 8.22129C29.0941 8.27786 29.0509 8.36048 29.0348 8.42931C28.8209 9.33546 28.6022 10.2408 28.3864 11.1466C27.9976 12.7797 27.6088 14.4131 27.22 16.0469C26.9851 17.0421 26.7578 18.0391 26.5271 19.0354C26.3111 19.0419 26.0961 19.1132 25.8789 19.0459C25.9889 18.9557 26.0319 18.8321 26.0634 18.6981C26.6111 16.3563 27.1716 14.0173 27.7241 11.6768C27.9786 10.5997 28.2282 9.52132 28.4967 8.44758C28.5204 8.35212 28.533 8.25025 28.6162 8.18085L29.0027 8.22129Z" fill="#49C3F3"/>
<path d="M25.6316 19.0352C25.4569 19.0411 25.2826 19.0152 25.1172 18.9588C25.1485 18.5819 25.2708 18.224 25.3573 17.8594C25.987 15.2069 26.6095 12.552 27.2464 9.90198C27.3642 9.41186 27.474 8.91981 27.594 8.43028C27.6134 8.35485 27.6212 8.27475 27.6786 8.21507C27.845 8.15402 28.0174 8.17327 28.1887 8.17618C28.235 8.28292 28.1959 8.38634 28.172 8.48841C27.6471 10.7193 27.1184 12.9494 26.586 15.1787C26.2975 16.3936 26.0102 17.6089 25.7243 18.8245C25.7064 18.9007 25.6923 18.9781 25.6316 19.0352Z" fill="#3CBFF2"/>
<path d="M16.1268 27.6903C16.3558 27.8507 16.5382 28.0554 16.6906 28.2875C16.2553 30.342 15.8435 32.4016 15.4246 34.4597C15.3453 34.8485 15.2605 35.2373 15.1831 35.6261C15.168 35.7024 15.1559 35.7805 15.1005 35.8418C14.8828 35.9357 14.6534 35.9703 14.4183 35.966C14.3689 35.8454 14.408 35.727 14.4321 35.6104C14.9537 33.071 15.4662 30.5298 15.9903 27.991C16.0136 27.8833 16.0205 27.763 16.1268 27.6903Z" fill="#F05929"/>
<path d="M15.0996 35.8427C15.1307 35.4553 15.2345 35.0814 15.3113 34.7025C15.5672 33.4405 15.8235 32.1786 16.0802 30.9167C16.2426 30.1169 16.4028 29.3165 16.5694 28.5175C16.5867 28.4349 16.5744 28.3242 16.6897 28.2875C16.9092 28.5424 17.0667 28.8342 17.2 29.1404C17.0774 29.183 17.0923 29.3045 17.0744 29.3917C16.7245 31.1014 16.3818 32.8134 16.0353 34.5229C15.9669 34.8606 15.852 35.1903 15.8673 35.5416C15.6298 35.6886 15.3796 35.8034 15.0996 35.8427Z" fill="#F05E26"/>
<path d="M26.1001 8.68125C26.257 8.58183 26.4297 8.5099 26.6108 8.46857C26.7415 8.4989 26.6886 8.59824 26.6775 8.66959C26.6314 8.95693 26.5504 9.23688 26.4831 9.51936C25.7803 12.4571 25.0944 15.399 24.3875 18.3357C24.3589 18.4549 24.3586 18.5955 24.2229 18.6639C24.0627 18.6097 23.9161 18.5215 23.793 18.4055C23.7796 18.3118 23.8029 18.2228 23.8245 18.1334C24.5503 15.0972 25.2716 12.0599 25.9885 9.02167C26.0153 8.9056 26.019 8.78001 26.1001 8.68125Z" fill="#26B9F1"/>
<path d="M29.9421 8.45982C30.1148 8.47713 30.252 8.58289 30.4064 8.64549C30.4348 8.71664 30.4114 8.78507 30.3949 8.8539C29.9031 10.9024 29.4215 12.9533 28.9335 15.0026C28.6475 16.203 28.3608 17.4035 28.083 18.606C28.0666 18.6765 28.0538 18.7461 27.9792 18.7809C27.8137 18.8403 27.6424 18.8823 27.4682 18.9061C27.4253 18.8068 27.4579 18.7098 27.4811 18.6145C27.9088 16.8403 28.3246 15.0636 28.7459 13.2876C29.1032 11.7815 29.4652 10.2766 29.8152 8.76894C29.8412 8.66026 29.8461 8.5405 29.9421 8.45982Z" fill="#5EC9F4"/>
<path d="M16.1266 27.6903C15.9275 28.6417 15.7255 29.5926 15.5301 30.5448C15.2655 31.8353 15.007 33.127 14.7437 34.4175C14.6382 34.9346 14.5274 35.4506 14.4191 35.967L14.4041 35.9757L14.3878 35.9701C14.2133 35.9985 14.0354 35.9985 13.8609 35.9701L13.8619 35.9722C13.8121 35.8989 13.8362 35.8208 13.8514 35.7455C14.2174 33.9447 14.5845 32.1443 14.9527 30.3442C15.1357 29.4474 15.3101 28.549 15.5039 27.6545C15.5261 27.5522 15.5264 27.4406 15.6128 27.3615C15.8052 27.4338 15.9803 27.5458 16.1266 27.6903Z" fill="#F0532C"/>
<path d="M25.6309 19.0352C25.7213 18.4411 25.8908 17.8645 26.0277 17.2809C26.4256 15.5837 26.837 13.8894 27.2398 12.1931C27.5384 10.9364 27.8312 9.67839 28.1292 8.42152C28.1487 8.33967 28.1333 8.24927 28.1876 8.17598L28.6153 8.18065C28.4115 9.03852 28.2077 9.89633 28.0038 10.7541C27.5997 12.449 27.1954 14.1437 26.7909 15.8383C26.5531 16.8403 26.3222 17.8441 26.0879 18.8469C26.0617 18.9588 26.037 19.0733 25.878 19.0457L25.6309 19.0352Z" fill="#43C1F2"/>
<path d="M29.9407 8.45983C29.7917 9.09925 29.6452 9.73906 29.4935 10.3777C29.1057 12.0123 28.7169 13.6467 28.327 15.281C28.0615 16.4006 27.8008 17.5214 27.5323 18.6402C27.5111 18.7285 27.527 18.827 27.4666 18.9056L26.998 18.9882C27.1635 18.3167 27.332 17.6458 27.4936 16.9735C27.6933 16.1426 27.8865 15.3101 28.0838 14.4788C28.4837 12.7954 28.8897 11.1136 29.2804 9.428C29.3648 9.06426 29.482 8.70635 29.5155 8.33113C29.6638 8.34802 29.8079 8.39162 29.9407 8.45983Z" fill="#57C7F4"/>
<path d="M27.9785 18.7802C28.13 18.1361 28.2797 17.4916 28.4331 16.8479C28.7453 15.5382 29.0612 14.2294 29.3723 12.9192C29.6913 11.5751 30.0089 10.2305 30.3249 8.88559C30.3443 8.80374 30.3787 8.72539 30.4063 8.64529C30.5535 8.6832 30.6624 8.78974 30.7915 8.85915C30.8482 8.94138 30.8093 9.02459 30.7899 9.10508C30.278 11.2156 29.7875 13.3312 29.2824 15.4429C29.0563 16.3885 28.8302 17.3341 28.6113 18.2813C28.5843 18.398 28.5724 18.5212 28.4912 18.6188C28.3296 18.7045 28.155 18.7452 27.9785 18.7802Z" fill="#65CBF5"/>
<path d="M28.2324 33.7938C28.3158 33.2919 28.456 32.8023 28.5726 32.3089C29.0121 30.447 29.4528 28.5854 29.8946 26.7242C30.0509 26.0648 30.2086 25.4057 30.3675 24.7469C30.5425 24.8685 30.699 25.0149 30.8319 25.1816C30.6009 26.0901 30.3976 27.0052 30.1783 27.9164C29.7399 29.7396 29.3178 31.5668 28.8744 33.3891C28.8549 33.4711 28.8481 33.5588 28.7869 33.6258C28.6119 33.7103 28.4249 33.767 28.2324 33.7938Z" fill="#752A7E"/>
<path d="M3.58962 27.819C3.42499 27.7893 3.26616 27.7335 3.11914 27.6537C3.18994 27.5304 3.24234 27.3975 3.27467 27.2591C3.66874 25.688 4.08362 24.1222 4.48372 22.5527C4.88926 20.9624 5.30763 19.3757 5.71026 17.7848C5.74914 17.6293 5.76061 17.4582 5.89165 17.3376C5.98496 17.2933 6.08411 17.2863 6.1854 17.2916C6.34093 17.2356 6.36037 17.3252 6.33743 17.4424C6.28708 17.693 6.22079 17.9401 6.15488 18.1872C5.74662 19.7172 5.36226 21.2531 4.96605 22.786C4.55545 24.374 4.14622 25.9623 3.73834 27.5511C3.71249 27.6518 3.70665 27.7678 3.58962 27.819Z" fill="#4FB848"/>
<path d="M5.89145 17.3384C5.52168 18.7745 5.15191 20.2107 4.78214 21.647C4.2755 23.6025 3.76802 25.5577 3.2597 27.5126C3.23851 27.5946 3.22782 27.6681 3.11934 27.6537C2.98291 27.6219 2.8541 27.5635 2.74023 27.4818C2.92512 27.1624 2.96575 26.7965 3.05557 26.4491C3.49222 24.7602 3.92822 23.0711 4.36357 21.3818C4.66899 20.1937 4.97091 19.0047 5.28314 17.8184C5.31386 17.7018 5.34496 17.5851 5.33116 17.4621C5.51104 17.3942 5.69973 17.3526 5.89145 17.3384Z" fill="#48B749"/>
<path d="M4.65155 27.9994C4.50865 27.9943 4.36323 28.014 4.22656 27.9529C4.5417 26.6418 4.89437 25.3404 5.22778 24.034C5.47877 23.0506 5.73598 22.069 5.98871 21.0859C6.29569 19.8825 6.61374 18.683 6.91469 17.4776C6.93861 17.382 6.9526 17.2803 7.04281 17.2167H7.42736C7.48568 17.2989 7.44524 17.3827 7.42464 17.4621C6.90886 19.4412 6.40222 21.422 5.8915 23.4021C5.56975 24.6464 5.24392 25.8906 4.93247 27.1372C4.8757 27.3646 4.80513 27.5882 4.74992 27.816C4.73242 27.8843 4.71726 27.9564 4.65155 27.9994Z" fill="#5FBB46"/>
<path d="M7.29722 27.4346C7.14888 27.5238 6.9988 27.6096 6.8283 27.6512C6.74587 27.554 6.78669 27.4482 6.81255 27.3469C7.09769 26.2257 7.38561 25.1054 7.67632 23.9859C7.95803 22.9009 8.23428 21.8142 8.51715 20.7293C8.75356 19.823 8.98277 18.9147 9.22131 18.0089C9.24445 17.9213 9.2532 17.8242 9.3436 17.7702C9.48319 17.8155 9.58914 17.9084 9.68771 18.0119C9.74273 18.1005 9.71454 18.1909 9.69121 18.2798C9.16882 20.276 8.6618 22.2761 8.14311 24.2733C7.89173 25.2411 7.64755 26.2106 7.39287 27.1774C7.36954 27.2664 7.35515 27.3586 7.29722 27.4346Z" fill="#82C341"/>
<path d="M7.04282 17.2159C6.69969 18.5626 6.35947 19.9099 6.01244 21.2556C5.45643 23.4144 4.89691 25.5723 4.33389 27.7295C4.31445 27.8044 4.36675 27.9311 4.22599 27.9533C4.12483 27.9593 4.0236 27.9426 3.92971 27.9045C3.86478 27.8267 3.90055 27.7412 3.92096 27.6609C4.35469 25.9487 4.80223 24.2393 5.24296 22.5284C5.49207 21.5599 5.74176 20.5914 5.99203 19.6229C6.16817 18.9359 6.35111 18.2504 6.52005 17.5622C6.54533 17.459 6.5774 17.3559 6.52899 17.2511C6.69736 17.1967 6.87019 17.2087 7.04282 17.2159Z" fill="#58BA46"/>
<path d="M8.02228 17.2902C8.14126 17.2772 8.2513 17.318 8.36308 17.3485C8.4321 17.4313 8.40702 17.5212 8.38389 17.6118C7.68906 20.3163 6.99242 23.0201 6.29396 25.7232C6.12113 26.3976 5.94985 27.0724 5.76905 27.7451C5.74961 27.8207 5.73347 27.8979 5.67768 27.9589C5.55422 28.0141 5.42319 27.9996 5.29391 28.0003C5.21828 27.9086 5.25813 27.8106 5.28263 27.7163C5.99716 24.9638 6.70715 22.2102 7.41261 19.4556C7.57513 18.8237 7.73164 18.1903 7.90524 17.5614C7.93149 17.4638 7.94743 17.3645 8.02228 17.2902Z" fill="#6CBE44"/>
<path d="M26.0997 8.68126C26.1061 8.89686 26.0309 9.09788 25.983 9.30338C25.6012 10.9158 25.2132 12.5267 24.8292 14.1386C24.4991 15.524 24.1709 16.9098 23.8445 18.2961C23.8346 18.3375 23.835 18.3812 23.7928 18.4063C23.6576 18.3342 23.5406 18.2322 23.4508 18.1081C23.4372 18.0072 23.4654 17.9115 23.4885 17.8151C24.1937 14.8853 24.8788 11.9511 25.5792 9.02031C25.5818 9.00634 25.5826 8.9921 25.5816 8.97793C25.7365 8.84806 25.9142 8.75844 26.0997 8.68126Z" fill="#20B7F0"/>
<path d="M9.34416 17.7702C9.08249 18.788 8.82074 19.8054 8.55893 20.8225C7.99229 23.0219 7.42441 25.221 6.8553 27.4198C6.83731 27.4953 6.82844 27.5726 6.82886 27.6502C6.67761 27.7183 6.52811 27.791 6.36228 27.8151C6.32164 27.7231 6.35022 27.6331 6.37297 27.5445C7.07091 24.8289 7.7704 22.1136 8.47145 19.3986C8.59996 18.8966 8.72593 18.3941 8.85755 17.8929C8.88594 17.7848 8.89857 17.6664 9.00394 17.595C9.1552 17.5793 9.22324 17.7267 9.34416 17.7702Z" fill="#7CC142"/>
<path d="M30.6156 32.5124C30.5486 32.4055 30.5816 32.2986 30.6082 32.1878C30.9933 30.5838 31.3765 28.9793 31.7578 27.3743C31.7949 27.2176 31.7953 27.0493 31.9297 26.9313C32.5211 28.6162 32.3267 30.2045 31.3464 31.6963C31.1431 32.005 30.8588 32.2403 30.6156 32.5124Z" fill="#692977"/>
<path d="M24.2246 18.6635C24.4297 18.0609 24.5388 17.4339 24.6885 16.8166C25.0034 15.5209 25.3106 14.2234 25.6189 12.9259C25.9452 11.5533 26.2692 10.18 26.591 8.80608C26.6161 8.69857 26.6925 8.58542 26.6133 8.4676C26.7477 8.3982 26.8877 8.34668 27.0411 8.33696C27.1287 8.43261 27.0836 8.53876 27.0605 8.63966C26.7306 10.0287 26.4014 11.4179 26.0729 12.8075C25.6266 14.6883 25.179 16.5684 24.7301 18.4475C24.6994 18.5766 24.7276 18.7636 24.5162 18.7899C24.4094 18.7748 24.3087 18.7311 24.2246 18.6635Z" fill="#2EBBF1"/>
<path d="M7.29688 27.4346C7.31826 27.0345 7.47087 26.6642 7.56614 26.2817C7.96585 24.6782 8.38169 23.0788 8.7954 21.4798C9.08527 20.3584 9.38175 19.2388 9.67434 18.1182C9.68114 18.0834 9.68549 18.0481 9.68736 18.0126C9.82397 18.1061 9.9392 18.2275 10.0254 18.3688C9.69067 19.6616 9.35595 20.9543 9.02131 22.2469C8.62665 23.7725 8.23135 25.2979 7.8354 26.823C7.80934 26.9227 7.80993 27.0186 7.81362 27.1175C7.65748 27.2475 7.48345 27.3542 7.29688 27.4346Z" fill="#88C441"/>
<path d="M27.6783 8.21506C27.6214 8.70109 27.4765 9.16767 27.3649 9.64048C26.9646 11.3375 26.5564 13.0322 26.1524 14.7286C25.8997 15.793 25.6529 16.8592 25.4 17.9238C25.3174 18.2718 25.2721 18.6305 25.117 18.9588C24.997 18.9581 24.8788 18.9298 24.7715 18.8762C24.8144 18.5739 24.9025 18.2815 24.9731 17.9858C25.7208 14.8546 26.4642 11.7224 27.2034 8.58911C27.2269 8.49015 27.2397 8.39469 27.2047 8.29749C27.3575 8.2413 27.5179 8.22789 27.6783 8.21506Z" fill="#35BDF1"/>
<path d="M3.46144 3.52449C3.53726 3.61489 3.49799 3.7084 3.4733 3.80425C3.0049 5.61876 2.53604 7.43288 2.06673 9.24661C2.0329 9.37648 2.08345 9.55767 1.89332 9.62027C1.71193 9.22929 1.59494 8.81155 1.54688 8.38323C1.86182 7.10828 2.21254 5.84266 2.51777 4.56518C2.52768 4.52396 2.54848 4.48586 2.55937 4.44445C2.80725 4.09013 3.11206 3.77928 3.46144 3.52449Z" fill="#F79820"/>
<path d="M5.33053 17.4621C5.46662 17.4848 5.40285 17.5688 5.38477 17.639C5.13204 18.624 4.8793 19.609 4.62657 20.594C4.23619 22.1195 3.84587 23.6447 3.45562 25.1697C3.27314 25.881 3.08786 26.5916 2.8998 27.3014C2.87842 27.3821 2.8788 27.4988 2.73961 27.4819C2.6575 27.4624 2.58174 27.4222 2.51953 27.3652C2.69995 26.661 2.88023 25.9569 3.06038 25.2527C3.49379 23.5567 3.92707 21.8606 4.36022 20.1644C4.58405 19.2891 4.80918 18.4143 5.03561 17.5398C5.12602 17.49 5.22732 17.4633 5.33053 17.4621Z" fill="#43B549"/>
<path d="M5.67773 27.9564C5.72595 27.5114 5.88206 27.0919 5.98977 26.6612C6.39045 25.0589 6.80513 23.4599 7.21884 21.8606C7.59211 20.4187 7.97121 18.9781 8.34642 17.5365C8.36198 17.4761 8.35848 17.4105 8.36392 17.3474C8.48057 17.3767 8.60266 17.3913 8.70706 17.4593C8.76149 17.5499 8.72319 17.6399 8.70064 17.7274C8.05733 20.2075 7.42355 22.69 6.78005 25.1701C6.56445 26.0014 6.34476 26.8317 6.14335 27.6667C6.12508 27.7426 6.10855 27.8184 6.06831 27.8866C5.94462 27.9376 5.81142 27.9614 5.67773 27.9564Z" fill="#73BF43"/>
<path d="M13.1367 35.8495C13.3504 34.8076 13.5643 33.7656 13.7783 32.7236C14.0419 31.4331 14.3092 30.1432 14.5649 28.8509C14.6739 28.2986 14.8281 27.7546 14.888 27.1928C15.0373 27.143 15.1724 27.2223 15.3141 27.2402C15.3662 27.3147 15.3322 27.3913 15.317 27.4661C14.8893 29.5603 14.4616 31.6546 14.0339 33.7491C13.9033 34.3891 13.7684 35.0285 13.6399 35.6691C13.6204 35.7644 13.6177 35.8699 13.5211 35.9318C13.3885 35.9327 13.2573 35.9047 13.1367 35.8495Z" fill="#EF4D30"/>
<path d="M31.6453 9.48729C31.7716 9.58955 31.8902 9.69978 31.9849 9.83315C31.9808 10.1129 31.883 10.3748 31.8197 10.6419C31.2579 13.0045 30.6976 15.3673 30.1388 17.7303C30.1222 17.7998 30.1096 17.8695 30.0655 17.9283C29.8952 17.985 29.7725 18.1314 29.5964 18.1773C29.5065 18.0745 29.5516 17.9615 29.5769 17.8534C29.8267 16.7754 30.0853 15.6995 30.3412 14.6231C30.7185 13.0359 31.0902 11.4475 31.4705 9.85998C31.5026 9.72603 31.5146 9.57789 31.6453 9.48729Z" fill="#7AD1F6"/>
<path d="M4.65039 27.9994C4.87176 27.131 5.09326 26.2626 5.31489 25.3943C5.70566 23.8698 6.09701 22.3456 6.48894 20.8217C6.79922 19.6193 7.11138 18.4173 7.42542 17.2156C7.52599 17.2054 7.62758 17.2157 7.72404 17.2459C7.78761 17.3236 7.75631 17.409 7.73551 17.4901C7.32958 19.0718 6.91898 20.6522 6.51305 22.2337C6.17114 23.5679 5.82768 24.9016 5.48267 26.2349C5.34561 26.7641 5.22157 27.2966 5.07129 27.8223C5.05185 27.8889 5.05341 27.9657 4.98497 28.0101C4.87338 28.0114 4.76121 28.0313 4.65117 27.9967L4.65039 27.9994Z" fill="#64BC45"/>
<path d="M31.6467 9.48729C31.3356 10.5877 31.1008 11.7061 30.835 12.8174C30.4573 14.3962 30.0768 15.9744 29.7074 17.5548C29.6594 17.7591 29.5815 17.9613 29.5984 18.1783L29.2144 18.3507C29.096 18.2648 29.1335 18.1489 29.1608 18.0397C29.4135 17.0299 29.6419 16.0143 29.8838 15.0018C30.315 13.1971 30.7435 11.3918 31.1692 9.58567C31.199 9.46047 31.1957 9.3098 31.3454 9.24214C31.4762 9.28666 31.5623 9.38542 31.6467 9.48729Z" fill="#73CFF6"/>
<path d="M28.7871 33.6258C28.8414 33.1624 28.979 32.7172 29.0855 32.265C29.5248 30.3998 29.9654 28.5349 30.4075 26.6702C30.5065 26.2518 30.6054 25.8342 30.71 25.4166C30.7314 25.3317 30.7328 25.2292 30.8319 25.1814C30.9457 25.2811 31.0489 25.3898 31.1222 25.5239C31.0699 25.9262 30.955 26.3154 30.8609 26.7081C30.3601 28.8009 29.8729 30.8967 29.3684 32.9876C29.335 33.1258 29.2922 33.2627 29.3371 33.4066C29.1647 33.5075 28.9868 33.5959 28.7871 33.6258Z" fill="#72297C"/>
<path d="M28.4902 18.62C28.5377 18.2049 28.6627 17.8068 28.7583 17.4024C29.1462 15.7619 29.5368 14.1224 29.93 12.4838C30.2175 11.2762 30.5043 10.0685 30.7905 8.8607C30.919 8.88636 30.9997 8.98318 31.0919 9.06289C31.1179 9.13424 31.0969 9.20267 31.0804 9.27188C30.4565 11.8677 29.847 14.467 29.2294 17.0643C29.1293 17.4854 29.0115 17.903 28.9378 18.3301C28.9279 18.3867 28.9148 18.4415 28.8732 18.4856C28.7551 18.554 28.6252 18.5996 28.4902 18.62Z" fill="#6ACCF5"/>
<path d="M18.5108 8.89336C18.5024 8.7425 18.5466 8.59961 18.5808 8.45613C18.9656 6.84342 19.3512 5.23104 19.7375 3.61897C20.0019 2.50733 20.2603 1.39413 20.5224 0.281897C20.5312 0.254942 20.5426 0.2289 20.5564 0.204132C20.6645 0.223573 20.7673 0.256818 20.8575 0.32214C20.9396 0.463866 20.8667 0.600732 20.8348 0.733515C20.639 1.54732 20.4516 2.36307 20.2564 3.17688C19.8225 4.98491 19.4026 6.79411 18.9661 8.60097C18.9414 8.70342 18.9301 8.81249 18.852 8.89473L18.8325 8.90211L18.8131 8.89784C18.7783 8.9127 18.7408 8.92037 18.7029 8.92037C18.665 8.92037 18.6275 8.9127 18.5926 8.89784L18.5108 8.89336Z" fill="#E3185C"/>
<path d="M13.5215 35.9308C13.7206 34.965 13.9194 33.9994 14.1179 33.0341C14.3812 31.7436 14.6395 30.4521 14.9043 29.1618C15.036 28.5202 15.1765 27.8806 15.3138 27.24C15.4186 27.2676 15.5233 27.2954 15.6124 27.3617C15.5057 27.9002 15.4003 28.4389 15.292 28.9771C15.0587 30.1367 14.8242 31.2961 14.5884 32.4555C14.3485 33.6282 14.1062 34.8005 13.8615 35.9724C13.7468 35.9693 13.63 35.9856 13.5215 35.9308Z" fill="#EF4F2F"/>
<path d="M18.8535 8.89415C18.9408 8.37157 19.0843 7.86182 19.2062 7.34721C19.6076 5.65136 20.0165 3.95725 20.4183 2.2616C20.5711 1.61654 20.7125 0.968757 20.8591 0.322144C20.972 0.354999 21.0893 0.380467 21.1575 0.492254C20.9825 1.24035 20.8075 1.98922 20.6304 2.73654C20.227 4.43065 19.823 6.12456 19.4187 7.81827C19.3374 8.16082 19.269 8.50649 19.1945 8.85079C19.0867 8.89532 18.969 8.91028 18.8535 8.89415Z" fill="#E3185C"/>
<path d="M27.2041 8.29692C27.3826 8.28603 27.3082 8.4052 27.2909 8.47966C27.1332 9.15291 26.9712 9.82519 26.8107 10.4977C26.4059 12.1927 26.0013 13.8877 25.5969 15.5827C25.3507 16.6196 25.107 17.6564 24.8658 18.6933C24.8492 18.7639 24.8341 18.8311 24.7709 18.8758C24.6789 18.8741 24.5898 18.8439 24.5156 18.7895C24.6556 18.7117 24.6424 18.5589 24.6723 18.4349C24.9391 17.3305 25.1984 16.2244 25.4609 15.119C25.8538 13.4642 26.2469 11.8097 26.64 10.1555C26.7671 9.62008 26.8931 9.08428 27.0179 8.5481C27.0335 8.48025 27.0313 8.40812 27.0373 8.33794C27.0852 8.29283 27.145 8.29692 27.2041 8.29692Z" fill="#31BCF1"/>
<path d="M30.0664 17.9288C30.0874 17.5085 30.2299 17.1123 30.3242 16.7083C30.7733 14.7827 31.2291 12.8586 31.6917 10.9359C31.7809 10.5665 31.8196 10.1821 31.9858 9.83276C32.1 9.90936 32.1608 10.0299 32.2397 10.1362C32.2786 10.3328 32.19 10.5113 32.147 10.6926C31.6026 12.9927 31.0532 15.2918 30.5163 17.5943C30.5101 17.622 30.502 17.6493 30.4922 17.6759C30.3582 17.7731 30.2214 17.8664 30.0664 17.9288Z" fill="#7FD2F6"/>
<path d="M11.3105 12.9165C11.3413 12.5135 11.4791 12.1336 11.5738 11.7452C11.8005 10.8155 12.0406 9.88914 12.2943 8.96608C12.3561 8.74153 12.3526 8.48627 12.5315 8.30099C12.7375 9.28258 12.7832 10.2646 12.4926 11.2366C12.2882 11.9258 11.927 12.5131 11.3105 12.9165Z" fill="#FEDA12"/>
<path d="M29.3358 33.4077C29.1317 33.3636 29.258 33.2133 29.2736 33.1373C29.3735 32.6618 29.4979 32.1913 29.6109 31.7181C30.0157 30.0257 30.4197 28.3332 30.8231 26.6406C30.9127 26.2658 30.9512 25.8772 31.1209 25.5237L31.3441 25.8198C31.2626 25.8521 31.2663 25.9277 31.2496 25.9964C30.8553 27.6581 30.46 29.3195 30.0637 30.9807C29.9017 31.6611 29.7402 32.3402 29.5738 33.0189C29.5512 33.1114 29.5543 33.2012 29.5563 33.293C29.4941 33.3499 29.4181 33.3894 29.3358 33.4077Z" fill="#71297B"/>
<path d="M32.2433 16.1043C32.0878 16.3421 31.9073 16.559 31.6865 16.7398C31.5679 16.6514 31.6149 16.5355 31.64 16.4288C31.8215 15.6553 32.0044 14.882 32.1888 14.109C32.3772 13.3153 32.5672 12.5219 32.7526 11.7275C32.7808 11.6072 32.7843 11.4678 32.9257 11.4057C33.0385 11.6346 33.1098 11.8817 33.1362 12.1356C33.1798 12.2732 33.1168 12.3994 33.0876 12.5267C32.8092 13.7192 32.525 14.9114 32.2433 16.1043Z" fill="#92D8F8"/>
<path d="M9.00296 17.5964C8.64796 18.9717 8.2929 20.3469 7.93778 21.7222C7.43322 23.6722 6.92774 25.6217 6.42137 27.5709C6.40018 27.6523 6.41884 27.7437 6.36188 27.816L6.18963 27.8615C6.1247 27.7838 6.16008 27.6982 6.18049 27.6177C6.61753 25.8978 7.06487 24.1805 7.50774 22.4619C7.78743 21.376 8.06661 20.2897 8.34527 19.2032C8.47008 18.715 8.60481 18.2292 8.72437 17.7397C8.74381 17.6567 8.76422 17.5731 8.83324 17.5134C8.90381 17.5124 8.94814 17.5651 9.00296 17.5964Z" fill="#77C043"/>
<path d="M6.52744 17.2505C6.75627 17.2558 6.61396 17.4146 6.59938 17.4753C6.41896 18.2166 6.22494 18.9544 6.03558 19.6933C5.55927 21.5476 5.08646 23.4029 4.60549 25.256C4.37667 26.1379 4.13287 27.0158 3.92952 27.9041C3.86984 27.9085 3.81029 27.8941 3.75921 27.8629C3.70089 27.781 3.73977 27.6974 3.76096 27.6177C4.2886 25.578 4.81481 23.5379 5.33959 21.4975C5.67009 20.2198 6.00273 18.9431 6.32409 17.6633C6.35986 17.5204 6.37697 17.3678 6.48798 17.2538C6.4939 17.2504 6.50051 17.2483 6.50734 17.2477C6.51416 17.2472 6.52103 17.2481 6.52744 17.2505Z" fill="#54B947"/>
<path d="M6.48852 17.2538C6.28296 18.0612 6.07747 18.8686 5.87204 19.6762C5.49488 21.1474 5.11695 22.6184 4.73823 24.0894C4.41421 25.3479 4.08806 26.6059 3.75976 27.8635C3.69619 27.8753 3.63806 27.8668 3.58984 27.8195C3.77356 27.1315 3.96253 26.4449 4.14003 25.7551C4.77135 23.3025 5.40059 20.8494 6.02777 18.3956C6.11 18.0745 6.19127 17.7529 6.28167 17.4341C6.31044 17.3324 6.29819 17.2851 6.18446 17.2929C6.28147 17.2418 6.3851 17.2496 6.48852 17.2538Z" fill="#54B947"/>
<path d="M8.02374 17.2902C7.86588 17.9271 7.71171 18.5648 7.54938 19.2005C7.31881 20.1031 7.08163 21.0042 6.84814 21.9063C6.33891 23.8744 5.83026 25.8426 5.3222 27.811C5.30966 27.8729 5.30058 27.9355 5.29498 27.9984L5.12429 28.0013C5.05605 27.9148 5.09513 27.8236 5.11787 27.7367C5.79598 25.1419 6.45523 22.5422 7.1347 19.9478C7.34129 19.1585 7.54426 18.3679 7.7436 17.576C7.77043 17.4696 7.7747 17.3458 7.89757 17.2887L8.02374 17.2902Z" fill="#68BD45"/>
<path d="M7.89593 17.2894C7.71532 17.965 7.53063 18.6396 7.35488 19.3166C6.74391 21.6695 6.13475 24.023 5.52741 26.3772C5.38802 26.9175 5.25718 27.4599 5.12245 28.0013L5.1102 28.007L5.09873 27.9998C5.06277 28.0124 5.0268 28.0235 4.99414 27.9918C5.03302 27.5962 5.166 27.2217 5.26243 26.8399C5.76498 24.8493 6.27881 22.8628 6.79303 20.874C7.0967 19.6992 7.4066 18.5259 7.71279 17.3516C7.71918 17.3169 7.72282 17.2816 7.72368 17.2463C7.78395 17.2492 7.8516 17.2231 7.89593 17.2894Z" fill="#68BD45"/>
<path d="M8.83334 17.5134C8.61664 18.3688 8.39967 19.2245 8.18245 20.0806C7.75876 21.7371 7.33404 23.3933 6.90828 25.0492C6.67382 25.959 6.4345 26.8677 6.19809 27.7772C6.19313 27.805 6.19034 27.8332 6.18973 27.8615L6.06842 27.8872C6.06511 27.5203 6.2012 27.1807 6.28869 26.8339C6.77588 24.9032 7.2761 22.9758 7.77399 21.0476C8.08311 19.8512 8.39417 18.6553 8.70717 17.4599L8.83334 17.5134Z" fill="#77C043"/>
<path d="M22.6118 16.485C22.5584 16.2892 22.5146 16.0919 22.5224 15.8867C22.6408 15.4785 22.7193 15.0609 22.8189 14.6482C23.0881 13.532 23.3486 12.414 23.6159 11.2973C23.6242 11.2628 23.6246 11.2269 23.6171 11.1923C23.7301 10.9312 23.8858 10.6969 24.0643 10.4761C24.2198 10.5538 24.1444 10.6851 24.1208 10.7895C24.0009 11.3214 23.8728 11.8517 23.7452 12.3819C23.4301 13.6903 23.1293 15.0022 22.8093 16.309C22.7944 16.3706 22.7883 16.4367 22.7452 16.4869C22.702 16.5371 22.6546 16.561 22.6118 16.485Z" fill="#0BB0EF"/>
<path d="M23.6169 11.1923C23.7423 11.3107 23.6363 11.4407 23.6122 11.5481C23.2979 12.9175 22.9707 14.2838 22.6437 15.6502C22.6242 15.7355 22.6203 15.8378 22.5222 15.8866C22.4024 14.911 22.5661 13.965 22.8414 13.0357C23.0313 12.3947 23.2561 11.7637 23.6169 11.1923Z" fill="#06AFEE"/>
<path d="M32.4596 10.4625C32.5642 10.5597 32.574 10.7115 32.6686 10.8138C32.3531 12.0452 32.0786 13.2865 31.778 14.5226C31.5599 15.4194 31.3587 16.3205 31.1365 17.2167C31.0684 17.3087 30.9743 17.3656 30.8738 17.4142C30.7348 17.3365 30.7945 17.2163 30.8196 17.1131C30.9498 16.5759 31.0706 16.0368 31.2002 15.4995C31.5891 13.8952 31.9584 12.2866 32.3473 10.6825C32.3681 10.6001 32.3753 10.5116 32.4596 10.4625Z" fill="#88D5F7"/>
<path d="M32.9264 11.4048C32.7656 11.7398 32.731 12.1097 32.6408 12.4634C32.4318 13.2824 32.2498 14.1083 32.056 14.9312C31.9333 15.4522 31.8122 15.9736 31.6833 16.4931C31.6627 16.5742 31.6639 16.6593 31.6868 16.7398C31.598 16.8641 31.4808 16.9654 31.3449 17.0351C31.2173 16.9342 31.2945 16.8108 31.3192 16.7033C31.4963 15.9363 31.6736 15.1696 31.8599 14.4047C32.1097 13.3783 32.3395 12.3469 32.5967 11.3222C32.6272 11.201 32.6356 11.0665 32.7522 10.9835C32.8523 11.1069 32.8619 11.2671 32.9264 11.4048Z" fill="#8DD6F7"/>
<path d="M25.0296 9.39398C25.0938 9.32749 25.1478 9.24856 25.2423 9.21901C25.3412 9.31913 25.2893 9.43286 25.2654 9.53979C25.0477 10.5169 24.807 11.4888 24.577 12.463C24.1788 14.1489 23.7781 15.8341 23.3748 17.5186C23.3483 17.6289 23.3695 17.7879 23.1912 17.8103C23.1242 17.7727 23.1032 17.7024 23.0703 17.6405C23.0925 17.2772 23.2173 16.9352 23.2999 16.5855C23.8419 14.2887 24.3858 11.9923 24.9314 9.69629C24.9537 9.59244 24.9866 9.49114 25.0296 9.39398Z" fill="#16B4EF"/>
<path d="M22.6113 16.485C22.7015 16.5295 22.7163 16.4745 22.7334 16.4019C23.0521 15.0496 23.3721 13.6975 23.6932 12.3457C23.8217 11.8037 23.9504 11.2616 24.0793 10.7195C24.0988 10.6369 24.1215 10.5534 24.0628 10.4761C24.1667 10.3009 24.2918 10.1393 24.4353 9.9949C24.5201 10.0837 24.4742 10.1825 24.4522 10.276C24.1643 11.5397 23.8593 12.8001 23.5601 14.0614C23.3489 14.9503 23.1446 15.8414 22.9212 16.7278C22.8983 16.8186 22.923 16.977 22.741 16.9527C22.676 16.8036 22.6324 16.6462 22.6113 16.485Z" fill="#0EB1EF"/>
<path d="M28.8729 18.4841C28.8595 18.2757 28.9225 18.0782 28.9701 17.8802C29.344 16.31 29.7254 14.7417 30.0991 13.1714C30.4059 11.8825 30.7047 10.5916 31.0091 9.30261C31.0286 9.22076 31.0647 9.1428 31.0931 9.0629L31.2255 9.1393C31.2492 9.35724 31.1584 9.55515 31.1106 9.75889C30.5171 12.2886 29.9128 14.8159 29.3156 17.3448C29.2472 17.6341 29.1778 17.9234 29.1119 18.2133C29.0944 18.2961 29.0566 18.3733 29.0018 18.4378L28.8729 18.4841Z" fill="#6FCEF5"/>
<path d="M25.5811 8.97716C25.6663 9.0417 25.6148 9.11325 25.5971 9.18829C25.2982 10.4367 25.0001 11.6852 24.7028 12.9338C24.3021 14.6216 23.9023 16.3095 23.5037 17.9975C23.4939 18.0391 23.4939 18.0826 23.4514 18.1073C23.3829 18.0634 23.3254 18.0044 23.2832 17.9349C23.5836 16.8839 23.8003 15.8127 24.0585 14.7516C24.3369 13.6075 24.6149 12.4632 24.8819 11.3163C25.0537 10.5776 25.2278 9.83879 25.4042 9.10003C25.4521 9.04499 25.5129 9.00276 25.5811 8.97716Z" fill="#1BB5F0"/>
<path d="M32.2434 16.1043C32.2045 16.0403 32.2076 15.9795 32.2259 15.904C32.5032 14.7561 32.776 13.6071 33.0446 12.4569C33.0701 12.3471 33.1515 12.2545 33.1365 12.1346C33.2582 12.4797 33.2569 12.8448 33.2518 13.1978C33.2429 13.8277 33.1297 14.4481 32.8739 15.0313C32.7065 15.4132 32.5251 15.789 32.2434 16.1043Z" fill="#99DAF8"/>
<path d="M2.55871 4.44444C2.58807 4.82996 2.42107 5.17776 2.33553 5.53918C2.12751 6.41869 1.8911 7.2916 1.6615 8.16607C1.64206 8.24383 1.63817 8.33968 1.54622 8.38323C1.46106 8.10133 1.48225 7.81029 1.4842 7.52334C1.49139 6.43036 1.82811 5.44314 2.46073 4.55448C2.4913 4.51599 2.52401 4.47925 2.55871 4.44444Z" fill="#F79521"/>
<path d="M25.4034 9.10042C25.4964 9.19937 25.418 9.30416 25.3968 9.39456C25.083 10.7425 24.7641 12.0894 24.4401 13.4352C24.0994 14.8631 23.7571 16.2907 23.4132 17.7181C23.3938 17.8005 23.4058 17.9112 23.2824 17.9349C23.2568 17.9252 23.2346 17.9083 23.2184 17.8862C23.2023 17.8641 23.1929 17.8378 23.1914 17.8105C23.3512 17.6295 23.3452 17.3903 23.399 17.1767C23.6061 16.3555 23.7904 15.5286 23.986 14.7045C24.3748 13.0703 24.7673 11.4372 25.1476 9.80108C25.1917 9.61172 25.2741 9.42275 25.2425 9.21882C25.2885 9.16905 25.3284 9.11092 25.4034 9.10042Z" fill="#1BB5F0"/>
<path d="M25.031 9.39398C25.0073 9.80575 24.8729 10.1946 24.7796 10.5916C24.3414 12.4587 23.9007 14.325 23.4576 16.1906C23.3635 16.5886 23.2599 16.9846 23.1689 17.3833C23.1459 17.4722 23.1133 17.5582 23.0717 17.64C22.9964 17.5508 22.9402 17.4473 22.9062 17.3357C22.9774 17.2436 23.0112 17.136 23.0371 17.0246C23.4216 15.3721 23.8186 13.7235 24.208 12.0724C24.3919 11.292 24.5792 10.5122 24.7605 9.73109C24.7729 9.67557 24.7932 9.62214 24.8208 9.57245C24.8677 9.48613 24.9513 9.4422 25.031 9.39398Z" fill="#16B4EF"/>
<path d="M29 18.4372C29.3264 17.0504 29.6529 15.6641 29.9796 14.2784C30.2856 12.9883 30.5971 11.6993 30.9045 10.4096C31.0057 9.98479 31.0732 9.55164 31.2235 9.1389C31.2861 9.14726 31.2979 9.21433 31.3432 9.24252C31.1642 9.63134 31.1243 10.0591 31.0164 10.4673C30.8491 11.1009 30.711 11.7425 30.5609 12.3813C30.1073 14.2963 29.6524 16.2109 29.1962 18.1252C29.1756 18.2111 29.203 18.2761 29.2133 18.3505L29 18.4372Z" fill="#6FCEF5"/>
<path d="M30.4925 17.6753C30.4073 17.4868 30.5173 17.3143 30.5564 17.1448C30.8607 15.8261 31.1832 14.5117 31.4972 13.1953C31.7178 12.2699 31.9334 11.3433 32.1531 10.4176C32.1757 10.3223 32.2115 10.23 32.24 10.1362L32.3761 10.3355C32.3761 10.5941 32.2814 10.835 32.2233 11.0813C31.7241 13.1943 31.2178 15.306 30.7254 17.4209C30.716 17.4699 30.6961 17.5163 30.667 17.5569C30.6245 17.6195 30.5586 17.6473 30.4925 17.6753Z" fill="#83D4F7"/>
<path d="M24.8195 9.57303C24.8035 10.0223 24.6478 10.4436 24.55 10.8756C24.2912 12.0178 24.0195 13.1572 23.75 14.2972C23.5229 15.2584 23.2921 16.2188 23.0575 17.1784C23.0425 17.2393 23.0705 17.3979 22.9049 17.3365C22.8778 17.2797 22.8509 17.2229 22.8242 17.166C23.0482 16.4241 23.1981 15.6639 23.3791 14.9108C23.6946 13.5989 24.0012 12.2849 24.3148 10.9724C24.4069 10.5857 24.4796 10.1948 24.6021 9.81507C24.654 9.7165 24.7419 9.64924 24.8195 9.57303Z" fill="#12B3EF"/>
<path d="M32.7538 10.9843C32.3512 12.5131 32.0129 14.0573 31.6457 15.5942C31.5405 16.0331 31.4431 16.4741 31.3391 16.9132C31.3268 16.9537 31.3294 16.9972 31.3463 17.0359L31.1381 17.2165C31.1095 17.1592 31.0932 17.1071 31.1109 17.0357C31.2976 16.2897 31.4808 15.5428 31.6603 14.7951C31.8656 13.9452 32.069 13.0948 32.2707 12.2441C32.3635 11.8531 32.449 11.4604 32.5429 11.0696C32.5651 10.9769 32.5654 10.8682 32.6702 10.8145C32.7177 10.8591 32.7474 10.9194 32.7538 10.9843Z" fill="#8AD6F7"/>
<path d="M30.666 17.5564C30.68 17.1286 30.8262 16.7268 30.9223 16.3162C31.3694 14.4069 31.8267 12.5001 32.2765 10.5916C32.3001 10.5029 32.3331 10.4171 32.3749 10.3355C32.4186 10.3676 32.4527 10.4067 32.4595 10.4627C32.1025 11.9717 31.7455 13.4808 31.3885 14.9901C31.2145 15.7242 31.0382 16.4577 30.8595 17.1907C30.84 17.2717 30.8293 17.3415 30.8742 17.4135C30.8058 17.4625 30.7576 17.541 30.666 17.5564Z" fill="#84D4F7"/>
<path d="M24.6037 9.81586C24.6138 10.2117 24.4676 10.5789 24.3807 10.9545C23.9584 12.7688 23.5173 14.5788 23.0838 16.3903C23.0361 16.5892 22.9924 16.7892 22.9477 16.9889C22.9308 17.0651 22.9236 17.1465 22.8254 17.166C22.7975 17.0948 22.7698 17.0235 22.7422 16.9521C22.8546 16.9152 22.8417 16.8098 22.8619 16.7258C23.2271 15.204 23.5912 13.6819 23.9545 12.1595C24.113 11.4944 24.2656 10.8284 24.4211 10.1621C24.4338 10.1079 24.4316 10.0503 24.4363 9.99433L24.6037 9.81586Z" fill="#11B2EF"/>
<path d="M13.8594 35.9695H14.3854C14.2124 36.0098 14.0324 36.0098 13.8594 35.9695Z" fill="#F05929"/>
<path d="M19.6307 0.0246909H19.1387C19.3011 -0.00816926 19.4684 -0.00816926 19.6307 0.0246909Z" fill="#E6175B"/>
<path d="M4.99416 27.9918L5.0986 27.9998C4.94893 28.0596 4.79966 28.0272 4.65039 27.9972L4.99416 27.9918Z" fill="#68BD45"/>
<path d="M24.4776 22.7188C24.3839 22.7817 24.2789 22.7382 24.1797 22.7501C24.2756 22.7073 24.3769 22.7145 24.4776 22.7188Z" fill="#8F2A8C"/>
<path d="M18.5938 8.89667H18.8139C18.7797 8.91384 18.742 8.92278 18.7038 8.92278C18.6656 8.92278 18.6279 8.91384 18.5938 8.89667Z" fill="#E3185C"/>
<path d="M58.8402 21.2179C58.8402 20.3259 58.7255 19.694 58.4962 19.3222C58.267 18.9503 57.8735 18.7645 57.316 18.7646C57.136 18.765 56.9561 18.7743 56.7771 18.7926C56.5912 18.811 56.4115 18.8327 56.2379 18.8575V26.4036H53.4688V16.9618C53.704 16.8998 53.9797 16.835 54.2958 16.7674C54.6119 16.6999 54.9464 16.6379 55.2993 16.5816C55.6526 16.5258 56.0151 16.4825 56.3867 16.4515C56.7583 16.4205 57.1238 16.405 57.4834 16.405C58.1896 16.405 58.7626 16.4949 59.2025 16.6745C59.6424 16.8541 60.0049 17.068 60.2899 17.3161C60.6862 17.0309 61.1415 16.8079 61.6558 16.6469C62.1701 16.4859 62.6441 16.4054 63.0777 16.4054C63.8582 16.4054 64.4995 16.5139 65.0014 16.7307C65.5034 16.9475 65.903 17.2542 66.2002 17.6506C66.4983 18.0472 66.7027 18.5181 66.8136 19.0632C66.9244 19.6084 66.9801 20.2154 66.9808 20.8845V26.4058H64.2116V21.2179C64.2116 20.3259 64.0969 19.694 63.8676 19.3222C63.6384 18.9503 63.2449 18.7645 62.6874 18.7646C62.5388 18.7646 62.3315 18.8018 62.0652 18.8762C61.799 18.9506 61.5791 19.0435 61.4054 19.155C61.4936 19.4485 61.5496 19.7507 61.5726 20.0563C61.5974 20.3724 61.6097 20.71 61.6097 21.0692V26.4036H58.8402V21.2179Z" fill="#0C064A"/>
<path d="M72.3534 16.3669C73.1711 16.3669 73.8525 16.4599 74.3978 16.6457C74.9431 16.8316 75.3798 17.098 75.7081 17.445C76.0363 17.7922 76.2686 18.2134 76.4051 18.7086C76.5416 19.2039 76.6098 19.7552 76.6096 20.3627V26.1245C76.2129 26.2112 75.6615 26.3134 74.9554 26.4311C74.2493 26.5487 73.3943 26.6076 72.3905 26.6076C71.7585 26.6076 71.1855 26.5519 70.6713 26.4404C70.1572 26.3289 69.7142 26.1462 69.3423 25.8921C68.974 25.6424 68.6788 25.2992 68.4869 24.8977C68.2886 24.4887 68.1895 23.9868 68.1895 23.3922C68.1895 22.8219 68.3041 22.3387 68.5334 21.9425C68.755 21.5538 69.0716 21.2277 69.4535 20.9945C69.8373 20.7593 70.2771 20.5889 70.773 20.4834C71.2803 20.3771 71.7973 20.3242 72.3156 20.3256C72.6353 20.3236 72.9549 20.3391 73.2729 20.372C73.5517 20.4029 73.7778 20.4431 73.9512 20.4927V20.2326C73.9512 19.7618 73.8087 19.3838 73.5235 19.0988C73.2384 18.8138 72.7427 18.6712 72.0365 18.6711C71.5699 18.6708 71.104 18.705 70.6425 18.7734C70.1839 18.8417 69.7874 18.9377 69.4531 19.0615L69.1007 16.8316C69.2616 16.7825 69.463 16.7298 69.7047 16.6737C69.9464 16.6176 70.2097 16.568 70.4946 16.525C70.7797 16.4816 71.0802 16.4444 71.3961 16.4134C71.7119 16.3824 72.031 16.3669 72.3534 16.3669ZM72.5764 24.4706C72.8485 24.4706 73.1087 24.4641 73.3569 24.4512C73.556 24.4438 73.7546 24.4252 73.9516 24.3954V22.2957C73.8403 22.2708 73.673 22.246 73.4498 22.2213C73.2462 22.1977 73.0415 22.1853 72.8365 22.1841C72.591 22.1832 72.3458 22.1987 72.1024 22.2306C71.8927 22.2559 71.6886 22.3155 71.4983 22.4071C71.3334 22.4867 71.1926 22.6086 71.0901 22.7604C70.9909 22.9089 70.9414 23.0948 70.9415 23.3179C70.9415 23.7516 71.0871 24.052 71.3782 24.2192C71.6693 24.3864 72.0687 24.4702 72.5764 24.4706Z" fill="#0C064A"/>
<path d="M82.3698 26.5893C81.5643 26.5763 80.9107 26.4896 80.409 26.3292C79.9073 26.1687 79.5108 25.9426 79.2196 25.6509C78.9281 25.3598 78.7298 25.0066 78.6247 24.5913C78.5195 24.1761 78.4669 23.7083 78.4668 23.1881V12.4268L81.2362 11.9796V22.6295C81.2341 22.8538 81.2528 23.0778 81.292 23.2987C81.3291 23.497 81.4003 23.6642 81.5058 23.8005C81.6113 23.9367 81.7631 24.0482 81.9612 24.135C82.1593 24.222 82.4257 24.2777 82.7604 24.3022L82.3698 26.5893Z" fill="#0C064A"/>
<path d="M87.5925 26.5893C86.7868 26.5763 86.1332 26.4896 85.6316 26.3292C85.13 26.1687 84.7335 25.9426 84.442 25.6509C84.1508 25.3598 83.9526 25.0066 83.8473 24.5913C83.7421 24.1761 83.6895 23.7083 83.6895 23.1881V12.4268L86.4587 11.9796V22.6295C86.4566 22.8538 86.4753 23.0778 86.5145 23.2987C86.5515 23.497 86.6228 23.6642 86.7283 23.8005C86.8338 23.9367 86.9856 24.0482 87.1836 24.135C87.3817 24.222 87.6481 24.2777 87.9828 24.3022L87.5925 26.5893Z" fill="#0C064A"/>
<path d="M88.6172 26.3978L89.0033 24.0814C89.3894 23.6953 90.7398 23.983 91.3199 24.0814C92.0513 24.2052 92.4071 24.1918 93.2251 24.1918C93.634 24.1918 93.9717 24.1577 94.238 24.0896C94.5044 24.0214 94.7182 23.9285 94.8796 23.8108C95.0405 23.6931 95.1521 23.5537 95.2142 23.3926C95.2782 23.2202 95.3097 23.0375 95.3071 22.8537C95.3071 22.4323 95.1089 22.0824 94.7124 21.8039C94.3159 21.5253 93.6344 21.2248 92.6679 20.9024C92.2465 20.7536 91.8252 20.5832 91.4043 20.3913C90.9932 20.2059 90.6113 19.9617 90.2705 19.6665C89.9317 19.3698 89.6539 19.01 89.4526 18.6071C89.2418 18.1924 89.1365 17.6874 89.1367 17.0923C89.1368 16.4971 89.2483 15.9613 89.4712 15.4847C89.6907 15.0122 90.0149 14.5958 90.4192 14.2671C90.828 13.9324 91.3236 13.6754 91.906 13.4959C92.4885 13.3164 93.1452 13.2265 93.8762 13.2264C94.7433 13.2264 95.4929 13.3193 96.1252 13.5052C96.7574 13.6911 97.2778 13.8954 97.6863 14.1184L96.8503 16.4047C96.4645 16.2079 96.0633 16.043 95.6506 15.9116C95.2107 15.7691 94.681 15.6978 94.0615 15.6978C93.3674 15.6978 92.8684 15.7938 92.5645 15.9859C92.2606 16.178 92.1088 16.4722 92.1092 16.8687C92.1092 17.1041 92.1649 17.3023 92.2764 17.4634C92.3879 17.6245 92.5459 17.7701 92.7504 17.9001C92.9741 18.0399 93.2106 18.1582 93.4567 18.2533C93.7228 18.3587 94.017 18.4671 94.3395 18.5786C95.0087 18.8265 95.591 19.0712 96.0865 19.3127C96.582 19.5541 96.994 19.836 97.3226 20.1584C97.6485 20.477 97.8993 20.8644 98.0566 21.2922C98.2176 21.7261 98.2982 22.2527 98.2983 22.872C98.2983 24.0739 97.8771 25.0063 97.0346 25.6691C96.1917 26.3321 94.7989 26.8273 93.2648 26.8273C92.6911 26.8273 92.0347 26.7417 91.5765 26.6737" fill="#0C064A"/>
<path d="M42.6738 26.3978L43.0599 24.0814C43.446 23.6953 44.7964 23.983 45.3763 24.0814C46.1079 24.2052 46.4637 24.1918 47.2816 24.1918C47.6904 24.1918 48.028 24.1577 48.2945 24.0896C48.5609 24.0214 48.7748 23.9285 48.936 23.8108C49.097 23.6931 49.2085 23.5537 49.2706 23.3926C49.3345 23.2202 49.366 23.0375 49.3635 22.8537C49.3635 22.4323 49.1653 22.0824 48.7688 21.8039C48.3724 21.5253 47.6908 21.2248 46.7242 20.9024C46.3028 20.7536 45.8816 20.5832 45.4605 20.3913C45.0495 20.2059 44.6677 19.9617 44.3269 19.6665C43.988 19.3699 43.7102 19.0101 43.509 18.6071C43.2983 18.1924 43.193 17.6874 43.1931 17.0923C43.1932 16.4971 43.3048 15.9613 43.5277 15.4847C43.7472 15.0122 44.0713 14.5958 44.4756 14.2671C44.8844 13.9324 45.38 13.6754 45.9625 13.4959C46.545 13.3164 47.2017 13.2265 47.9327 13.2264C48.7997 13.2264 49.5494 13.3193 50.1816 13.5052C50.8138 13.6911 51.3342 13.8954 51.7427 14.1184L50.9068 16.4047C50.5212 16.208 50.1203 16.0433 49.7078 15.912C49.2681 15.7694 48.7384 15.6982 48.1189 15.6982C47.4246 15.6982 46.9256 15.7942 46.6219 15.9863C46.3183 16.1784 46.1665 16.4726 46.1666 16.8691C46.1666 17.1045 46.2224 17.3027 46.334 17.4638C46.4456 17.6249 46.6035 17.7705 46.8078 17.9005C47.0316 18.0403 47.2681 18.1586 47.5143 18.2537C47.7804 18.3591 48.0746 18.4675 48.3971 18.579C49.0661 18.8269 49.6485 19.0716 50.1441 19.3131C50.6397 19.5545 51.0517 19.8364 51.3802 20.1587C51.706 20.4775 51.9567 20.8648 52.1143 21.2926C52.2752 21.7265 52.3558 22.2531 52.3559 22.8723C52.3559 24.0743 51.9347 25.0067 51.0922 25.6695C50.2495 26.3325 48.8565 26.8277 47.3224 26.8277C46.7487 26.8277 46.0926 26.7421 45.6341 26.6741" fill="#0C064A"/>
<path d="M105.065 21.2179C105.065 20.3259 104.95 19.694 104.721 19.3222C104.492 18.9503 104.098 18.7645 103.541 18.7646C103.361 18.7649 103.181 18.7743 103.002 18.7926C102.816 18.811 102.636 18.8327 102.463 18.8575V26.4036H99.6934V16.9618C99.9289 16.8998 100.205 16.835 100.521 16.7674C100.837 16.6999 101.171 16.6379 101.524 16.5816C101.877 16.5258 102.24 16.4825 102.611 16.4515C102.983 16.4205 103.349 16.405 103.708 16.405C104.414 16.405 104.987 16.4949 105.427 16.6745C105.867 16.8541 106.23 17.068 106.515 17.3161C106.911 17.0309 107.366 16.8079 107.881 16.6469C108.395 16.4859 108.869 16.4054 109.303 16.4054C110.083 16.4054 110.725 16.5139 111.226 16.7307C111.728 16.9475 112.128 17.2542 112.425 17.6506C112.722 18.0472 112.927 18.5181 113.038 19.0632C113.15 19.6084 113.206 20.2154 113.206 20.8845V26.4058H110.436V21.2179C110.436 20.3259 110.322 19.694 110.092 19.3222C109.863 18.9503 109.47 18.7645 108.912 18.7646C108.763 18.7646 108.556 18.8018 108.29 18.8762C108.024 18.9506 107.804 19.0435 107.63 19.155C107.718 19.4485 107.774 19.7507 107.797 20.0563C107.822 20.3724 107.835 20.71 107.835 21.0692V26.4036H105.065V21.2179Z" fill="#0C064A"/>
<path d="M118.576 16.3669C119.394 16.3669 120.075 16.4599 120.62 16.6457C121.166 16.8316 121.602 17.098 121.931 17.445C122.259 17.7922 122.491 18.2134 122.628 18.7086C122.764 19.2039 122.832 19.7552 122.832 20.3627V26.1245C122.435 26.2112 121.884 26.3134 121.178 26.4311C120.472 26.5487 119.617 26.6076 118.613 26.6076C117.981 26.6076 117.408 26.5519 116.894 26.4404C116.38 26.3289 115.937 26.1462 115.565 25.8921C115.196 25.6424 114.901 25.2992 114.709 24.8977C114.511 24.4887 114.412 23.9868 114.412 23.3922C114.412 22.8219 114.527 22.3387 114.756 21.9425C114.978 21.5538 115.294 21.2277 115.676 20.9945C116.06 20.7593 116.5 20.5889 116.996 20.4834C117.503 20.3771 118.02 20.3242 118.538 20.3256C118.858 20.3236 119.177 20.3391 119.495 20.372C119.774 20.4029 120 20.4431 120.174 20.4927V20.2326C120.174 19.7618 120.031 19.3838 119.746 19.0988C119.461 18.8138 118.965 18.6712 118.259 18.6711C117.792 18.6709 117.326 18.705 116.865 18.7734C116.407 18.8417 116.01 18.9377 115.676 19.0615L115.322 16.831C115.483 16.7819 115.685 16.7293 115.927 16.6731C116.168 16.617 116.432 16.5674 116.716 16.5244C117.002 16.481 117.302 16.4438 117.618 16.4128C117.933 16.3818 118.253 16.3666 118.576 16.3669ZM118.799 24.4706C119.071 24.4706 119.331 24.4641 119.579 24.4512C119.779 24.4438 119.977 24.4252 120.174 24.3954V22.2957C120.063 22.2708 119.895 22.246 119.672 22.2213C119.469 22.1977 119.264 22.1853 119.059 22.1841C118.814 22.1832 118.568 22.1987 118.325 22.2306C118.115 22.2559 117.911 22.3155 117.721 22.4071C117.556 22.4867 117.415 22.6086 117.313 22.7604C117.213 22.9089 117.164 23.0948 117.164 23.3179C117.164 23.7516 117.309 24.052 117.6 24.2192C117.892 24.3864 118.291 24.4702 118.799 24.4706Z" fill="#0C064A"/>
<path d="M128.595 26.5893C127.789 26.5763 127.135 26.4896 126.634 26.3292C126.132 26.1687 125.736 25.9426 125.444 25.6509C125.153 25.3598 124.955 25.0066 124.849 24.5913C124.744 24.1761 124.692 23.7083 124.691 23.1881V12.4268L127.461 11.9796V22.6295C127.459 22.8538 127.477 23.0778 127.517 23.2987C127.554 23.497 127.625 23.6642 127.73 23.8005C127.836 23.9367 127.988 24.0482 128.186 24.135C128.384 24.222 128.651 24.2777 128.985 24.3022L128.595 26.5893Z" fill="#0C064A"/>
<path d="M133.817 26.5893C133.012 26.5763 132.358 26.4896 131.856 26.3292C131.355 26.1687 130.958 25.9426 130.667 25.6509C130.376 25.3598 130.177 25.0066 130.072 24.5913C129.967 24.1761 129.914 23.7083 129.914 23.1881V12.4268L132.683 11.9796V22.6295C132.681 22.8538 132.7 23.0778 132.739 23.2987C132.776 23.497 132.848 23.6642 132.953 23.8005C133.059 23.9367 133.21 24.0482 133.409 24.135C133.607 24.222 133.873 24.2777 134.208 24.3022L133.817 26.5893Z" fill="#0C064A"/>
</g>
<defs>
<clipPath id="clip0_10678_64840">
<rect width="134.207" height="36" fill="white"/>
</clipPath>
</defs>
</svg>
