<svg width="81" height="20" viewBox="0 0 81 20" fill="none" xmlns="http://www.w3.org/2000/svg">
<path d="M2.94349 3.01119H5.57724V5.37831H7.47508V7.2642H5.57724V11.153C5.57724 11.9724 5.83545 12.1285 6.71336 12.1285H7.47508V14.0534H5.79671C3.66648 14.0534 2.94349 13.6372 2.94349 11.6213V7.2642H1.58789V5.37831H2.94349V3.01119ZM16.4091 11.3481C15.6345 13.4031 13.827 14.2875 12.1099 14.2875C9.30837 14.2875 7.38471 12.5837 7.38471 9.68334C7.38471 6.90003 9.47621 5.1442 12.0067 5.1442C14.8728 5.1442 16.6286 7.32923 16.4479 10.4117H10.0572C10.1346 11.6473 11.09 12.2065 12.0454 12.2065C13.0524 12.2065 13.685 11.8424 13.982 11.3351L16.4091 11.3481ZM10.0959 8.79892H13.827C13.7754 7.7064 13.0266 7.16015 12.0196 7.16015C11.0642 7.16015 10.2379 7.65438 10.0959 8.79892ZM25.5111 8.56481H23.0581C22.8257 7.55033 22.1931 7.19917 21.4184 7.19917C20.476 7.19917 19.5464 7.84947 19.5464 9.70935C19.5464 11.5952 20.476 12.2195 21.4184 12.2195C22.3867 12.2195 22.9935 11.7123 23.1872 10.8799H25.6402C25.0463 13.4551 22.9806 14.2745 21.2506 14.2745C18.4103 14.2745 16.8481 12.4406 16.8481 9.67033C16.8481 6.90002 18.6427 5.13119 21.2506 5.13119C23.0322 5.13119 24.9946 5.95058 25.5111 8.56481ZM28.5708 6.53585C28.9452 5.88555 29.8877 5.19622 31.2433 5.19622C33.451 5.19622 34.1482 6.50984 34.1482 8.86395V14.0794H31.5144V9.54027C31.5144 8.30469 31.4757 7.29021 30.1976 7.29021C29.0614 7.29021 28.5837 8.03156 28.5837 9.65732V14.1054H25.95V2.3999H28.5837L28.5708 6.53585ZM40.2161 7.94052C40.0354 7.29021 39.364 7.10812 38.5377 7.10812C37.6211 7.10812 37.1692 7.32923 37.1692 7.75843C37.1692 8.16162 37.4791 8.39573 38.2279 8.5388L39.8417 8.82493C41.9074 9.20211 42.9015 9.8264 42.9015 11.3481C42.9015 13.299 41.1198 14.2875 38.7314 14.2875C36.4333 14.2875 34.8066 13.3121 34.5097 11.2571H36.9627C37.1951 12.0895 37.8664 12.3496 38.7701 12.3496C39.7126 12.3496 40.371 12.0895 40.371 11.5692C40.371 11.192 40.0354 10.9319 39.0154 10.7628L37.4791 10.5027C35.8136 10.2296 34.6775 9.3842 34.6775 7.84947C34.6775 6.11966 36.485 5.17021 38.6152 5.17021C40.5776 5.17021 42.3722 5.96358 42.6949 7.95352L40.2161 7.94052ZM44.2571 3.01119H46.8908V5.37831H48.7887V7.2642H46.8908V11.153C46.8908 11.9724 47.1491 12.1285 48.027 12.1285H48.7758V14.0534H47.1103C44.9801 14.0534 44.2571 13.6372 44.2571 11.6213V7.2642H42.9015V5.37831H44.2571V3.01119ZM54.805 8.30469C54.805 7.2642 54.3144 6.92604 53.3461 6.92604C52.494 6.92604 51.9259 7.36825 51.8097 8.20064H49.3438C49.4729 6.56187 51.0093 5.11818 53.5656 5.11818C56.0573 5.11818 57.4645 6.13266 57.4129 8.77291L57.3742 10.6588V11.5692C57.3742 12.5187 57.4387 13.5462 57.5678 14.0794H54.9728L54.9341 13.0259C54.2886 13.9493 53.2686 14.2875 52.0292 14.2875C50.3896 14.2875 49.0469 13.3251 49.0469 11.7383C49.0469 9.6053 51.4353 8.91598 54.7792 8.65585L54.805 8.30469ZM54.8824 10.2166C53.0362 10.3987 51.8097 10.5808 51.8097 11.5432C51.8097 12.1025 52.3391 12.4797 53.0233 12.4797C54.082 12.4797 54.8824 12.0244 54.8824 10.4247V10.2166ZM63.455 7.94052C63.2226 7.9015 62.9644 7.87548 62.732 7.88849C61.4539 7.88849 60.7954 8.35671 60.7954 9.70935V14.0664H58.1488V5.37831H60.6922V7.03009C61.0924 5.9896 61.8154 5.37831 63.0419 5.32628H63.2355C63.313 5.32628 63.3776 5.32628 63.455 5.33929V7.94052ZM69.2906 7.94052C69.1098 7.29021 68.4385 7.10812 67.6122 7.10812C66.6956 7.10812 66.2437 7.32923 66.2437 7.75843C66.2437 8.16162 66.5535 8.39573 67.3023 8.5388L68.9032 8.82493C70.9689 9.20211 71.963 9.8264 71.963 11.3481C71.963 13.299 70.1814 14.2875 67.7929 14.2875C65.5078 14.2875 63.8681 13.3121 63.5712 11.2571H66.0242C66.2566 12.0895 66.9279 12.3496 67.8317 12.3496C68.7741 12.3496 69.4326 12.0895 69.4326 11.5692C69.4326 11.192 69.0969 10.9319 68.077 10.7628L66.5406 10.5027C64.8752 10.2296 63.752 9.3842 63.752 7.84947C63.752 6.11966 65.5594 5.17021 67.6897 5.17021C69.6521 5.17021 71.4466 5.96358 71.7694 7.95352L69.2906 7.94052Z" fill="#222224"/>
<path d="M71.9121 16.3166V14.0796H79.0387V16.3166H71.9121Z" fill="#222224"/>
</svg>
