<svg width="40" height="40" viewBox="0 0 40 40" fill="none" xmlns="http://www.w3.org/2000/svg">
<path d="M12.3653 12.2723C12.0666 11.9991 11.7051 11.7851 11.3829 11.5387C9.68693 10.2416 8.95631 8.47515 10.37 6.65908C10.969 5.88954 11.7765 5.41477 12.7447 5.29373C14.1198 5.16025 15.3653 5.98574 16.1316 7.08232C18.5294 5.75447 21.4364 5.71047 23.8452 7.08232C26.3796 3.61483 30.9075 5.7023 30.2829 9.20719C30.0362 10.5909 28.7667 11.5025 27.6663 12.2723C28.0656 14.6514 27.5376 16.443 26.233 18.3729C28.4261 19.6152 32.3279 21.3207 31.7002 24.3776C31.5017 25.3442 30.6126 26.3521 29.7829 26.896C31.1647 28.3315 31.3348 30.5502 30.1972 32.1889C29.4911 33.2059 28.4494 33.7092 27.2702 33.9176C25.7248 33.9425 24.5292 33.4988 23.5308 32.2445C23.1643 32.3849 22.8226 32.5774 22.4489 32.7081C20.3275 33.4499 18.4254 33.1187 16.4819 32.1857C14.4424 35.3379 9.25209 33.9742 9.0381 30.0787C8.96209 28.6949 9.3656 27.8708 10.2411 26.896C9.03615 26.043 7.9406 24.6891 8.29232 23.1166C8.81154 20.7949 11.9321 19.5369 13.779 18.3729C12.4631 16.4823 11.8514 14.6255 12.3653 12.2723ZM26.8735 6.50964C25.9861 6.49703 25.3869 7.16298 24.8347 7.76139C26.2026 8.92422 26.4994 9.41445 27.2702 10.9325L27.3006 11.0321L27.3222 11.042C27.3569 11.0226 27.3748 11.0037 27.3997 10.9742C27.7005 10.6174 28.1694 10.3748 28.5174 10.064C30.1166 8.63562 28.255 6.07689 26.8735 6.50964ZM12.7835 6.50964C11.7255 6.68061 10.6874 7.76883 10.8771 8.89406C11.0459 9.89539 11.9772 10.4673 12.7447 11.0005C12.7751 10.8598 12.8049 10.7297 12.8651 10.5981C13.3088 9.73398 14.3025 8.2825 15.1698 7.76139C14.6784 7.00619 13.7117 6.39629 12.7835 6.50964ZM19.6726 7.28544C17.7301 7.48105 16.1604 8.14117 14.8786 9.70726C12.684 12.3887 13.0055 16.4202 15.7139 18.6265C17.0976 19.7537 18.6086 20.2427 20.3954 20.1778C24.0048 19.9182 26.8369 16.9559 26.5629 13.2777C26.3072 9.84594 23.1208 7.04797 19.6726 7.28544ZM25.3724 19.3121C25.2729 19.3887 25.1825 19.4687 25.1003 19.5638C26.945 21.6526 27.8185 22.7981 27.8176 25.8277C28.1651 25.8895 28.4949 26.0327 28.8106 26.1868C29.0846 25.9507 29.3545 25.7085 29.63 25.4746C31.4087 23.5566 30.4372 22.4205 28.4815 21.0823C28.024 20.7693 25.7428 19.3461 25.3724 19.3121ZM14.6363 19.3121C13.314 19.9941 11.351 21.0598 10.3376 22.0103C9.10506 23.1666 9.10943 24.2633 10.3673 25.4746C10.6511 25.7355 10.9999 25.9223 11.2709 26.1868C11.5483 25.9653 11.8221 25.86 12.1751 25.8277C12.1574 23.5947 13.165 21.0404 14.8901 19.5638C14.8217 19.4781 14.7421 19.3507 14.6363 19.3121ZM15.9313 20.2736C14.3873 21.2901 13.3487 23.8672 13.4007 25.7105C16.0234 25.6488 17.9352 28.7554 17.0198 31.1297C19.3605 32.1931 20.7115 32.101 22.9539 31.1297C22.8372 30.6927 22.757 30.2655 22.7738 29.811C22.6971 27.5239 24.4091 25.9865 26.5804 25.7105C26.7204 23.6093 25.5983 21.6217 24.0534 20.2736C21.8085 21.648 18.9025 21.7835 16.5397 20.5988C16.3327 20.495 16.1497 20.3551 15.9313 20.2736ZM13.0061 26.896C11.415 26.9345 10.2085 28.3449 10.2498 29.9032C10.2904 31.4314 11.7031 32.8756 13.2724 32.6854C15.5632 32.8429 16.893 29.6533 15.2531 27.8045C14.72 27.2036 13.8204 26.7939 13.0061 26.896ZM26.6728 26.896C25.7273 27.108 24.9868 27.3837 24.4448 28.2475C23.1533 30.3059 24.6492 32.7566 27.0947 32.6854C30.5494 32.2191 30.5659 27.4502 27.3211 26.9749C27.1058 26.9434 26.8872 26.9324 26.6728 26.896Z" fill="#222224"/>
<path d="M16.9114 12.8066C15.7092 12.8062 15.6053 11.2241 16.7396 11.0005C17.9575 10.9091 18.0292 12.6466 16.9114 12.8066Z" fill="#222224"/>
<path d="M23.2622 12.8066C21.9893 12.7173 21.9426 11.2027 23.0294 11.0005C24.1561 10.9036 24.4082 12.4037 23.2622 12.8066Z" fill="#222224"/>
<path d="M19.3934 16.2835C19.0944 16.1299 18.8034 16.0234 18.5516 15.7909C17.5176 14.8372 18.1801 13.3596 19.7391 13.2908C20.3868 13.2719 21.146 13.2634 21.6008 13.8074C22.2183 14.546 21.8625 15.6031 21.083 16.0583C20.4414 16.4329 20.5944 16.318 20.6038 17.1773C21.0447 17.0184 22.2446 16.023 22.4412 17.0862C22.5923 17.9036 20.9486 18.3526 20.3951 18.456C19.5111 18.4873 18.2016 18.3125 17.7009 17.4891C17.5225 17.1959 17.646 16.8156 17.9436 16.6545C18.3322 16.444 18.8987 17.0184 19.3934 17.1773C19.4137 16.8828 19.4008 16.5787 19.3934 16.2835ZM19.9114 14.5127C19.6742 14.5211 19.4733 14.5623 19.2484 14.638C19.3805 15.0358 19.6841 15.2177 20.0955 15.203C20.8905 15.0073 20.9276 14.3851 19.9114 14.5127Z" fill="#222224"/>
<path d="M20.4706 23.9098C18.7762 23.6356 18.3803 24.6389 17.7074 24.7419C17.3678 24.7939 17.0561 24.5651 17.0153 24.2188C16.9119 23.3423 19.0513 22.7535 19.6722 22.6759C20.6993 22.5643 22.295 23.021 22.9466 23.7975C23.1571 24.0484 23.1262 24.4379 22.8575 24.6343C22.3719 24.9892 21.3539 24.0513 20.4706 23.9098Z" fill="#222224"/>
</svg>
