<svg width="20" height="20" viewBox="0 0 20 20" fill="none" xmlns="http://www.w3.org/2000/svg">
<g clip-path="url(#clip0_11867_10954)">
<path d="M2.08333 2.08333C2.08333 0.9325 3.01583 0 4.16667 0C5.3175 0 6.25 0.9325 6.25 2.08333C6.25 3.23417 5.3175 4.16667 4.16667 4.16667C3.01583 4.16667 2.08333 3.23417 2.08333 2.08333ZM15 5.06333V15.8333H16.6667V5.06333L18.7858 7.1825L19.9642 6.00417L17.0117 3.05167C16.3625 2.4025 15.3042 2.4025 14.655 3.05167L11.7025 6.00417L12.8808 7.1825L15 5.06333ZM20 18.3333V20H0V18.3333H1.66667V14.1667H0V7.5C0 6.12167 1.12167 5 2.5 5H5.83333C7.21167 5 8.33333 6.12167 8.33333 7.5V14.1667H6.66667V18.3333H20ZM1.66667 12.5H6.66667V7.5C6.66667 7.04 6.2925 6.66667 5.83333 6.66667H2.5C2.04083 6.66667 1.66667 7.04 1.66667 7.5V12.5ZM3.33333 18.3333H5V14.1667H3.33333V18.3333Z" fill="#222224"/>
</g>
<defs>
<clipPath id="clip0_11867_10954">
<rect width="20" height="20" fill="white"/>
</clipPath>
</defs>
</svg>
