<svg width="24" height="24" viewBox="0 0 24 24" fill="none" xmlns="http://www.w3.org/2000/svg">
<g clip-path="url(#clip0_7784_789)">
<path d="M2.02395 16.641C2.29395 17.219 2.61595 17.778 2.98295 18.302L2.16295 18.875C1.76395 18.303 1.41195 17.694 1.11795 17.064L2.02395 16.641ZM1.12395 6.923L2.02995 7.346C2.29895 6.77 2.62195 6.212 2.98995 5.688L2.17195 5.114C1.77095 5.686 1.41795 6.294 1.12395 6.923ZM3.50595 20.478C3.99895 20.972 4.53694 21.425 5.10695 21.825L5.68095 21.007C5.15995 20.641 4.66595 20.226 4.21495 19.773L3.50595 20.478ZM1.37395 9.146L0.406945 8.887C0.227945 9.556 0.105945 10.249 0.0449453 10.946L1.04095 11.034C1.09795 10.394 1.20895 9.759 1.37395 9.146ZM1.03995 12.952L0.0439453 13.037C0.103945 13.735 0.224945 14.428 0.402945 15.098L1.36995 14.839C1.20495 14.226 1.09495 13.591 1.03995 12.952ZM3.51795 3.512L4.22495 4.219C4.67695 3.767 5.17095 3.352 5.69394 2.986L5.11995 2.168C4.55095 2.567 4.01195 3.019 3.51795 3.512ZM6.91595 22.872C7.54595 23.168 8.20695 23.409 8.87995 23.59L9.13995 22.624C8.52295 22.458 7.91695 22.237 7.33995 21.966L6.91595 22.872ZM6.92895 1.121L7.35295 2.027C7.92995 1.757 8.53595 1.537 9.15395 1.371L8.89595 0.405C8.22095 0.585 7.55895 0.826 6.92895 1.12V1.121ZM11.9999 0C11.6479 0 11.3019 0.015 10.9579 0.045L11.0439 1.041C11.3579 1.014 11.6779 1 11.9999 1C18.0649 1 22.9999 5.935 22.9999 12C22.9999 18.065 18.0649 23 11.9999 23C11.6779 23 11.3579 22.986 11.0439 22.959L10.9579 23.955C11.3019 23.985 11.6479 24 11.9999 24C18.6169 24 23.9999 18.617 23.9999 12C23.9999 5.383 18.6169 0 11.9999 0ZM11.4999 13.929C10.6399 13.705 9.99995 12.929 9.99995 12C9.99995 11.071 10.6399 10.295 11.4999 10.071V5H12.4999V10.071C13.3599 10.295 13.9999 11.071 13.9999 12C13.9999 12.929 13.3599 13.705 12.4999 13.929V18H11.4999V13.929ZM11.9999 13C12.5519 13 12.9999 12.551 12.9999 12C12.9999 11.449 12.5519 11 11.9999 11C11.4479 11 10.9999 11.449 10.9999 12C10.9999 12.551 11.4479 13 11.9999 13Z" fill="#222224"/>
</g>
<defs>
<clipPath id="clip0_7784_789">
<rect width="24" height="24" fill="white"/>
</clipPath>
</defs>
</svg>
