<svg width="40" height="40" viewBox="0 0 40 40" fill="none" xmlns="http://www.w3.org/2000/svg">
<path d="M19.4867 10.5657L19.486 9.60484C19.4869 8.08141 19.9174 7.14458 21.5923 7.12066C22.0133 7.11291 22.6013 7.08436 22.572 7.6703C22.5262 8.58281 21.3905 7.90992 20.8266 8.46336C20.3791 8.90273 20.5445 9.995 20.5459 10.5657L21.6727 10.5631C23.1888 10.5597 22.7971 11.2541 22.7928 12.5998C23.4576 12.6245 24.1325 12.6005 24.7985 12.6002C25.8773 12.5997 26.6742 12.6284 27.743 12.4958C30.5646 12.1459 33.2737 14.0781 33.9212 16.8559C34.0603 17.4523 34.0989 18.0823 34.1702 18.6909L34.9064 25.7154C34.9781 26.4277 35.0718 27.1524 35.1025 27.8671C35.2648 31.6513 30.6981 33.4747 28.1284 30.81C27.6952 30.3607 27.423 29.8256 27.1184 29.2889L25.8016 26.917C25.5662 26.4912 25.3484 26.0465 25.0734 25.6448C24.8976 25.6673 24.7258 25.7183 24.5531 25.7576C23.3334 26.0352 21.9923 25.237 21.719 24.0045H20.5459H18.3187C17.7787 25.3634 16.3666 26.3509 14.9516 25.6448C14.658 25.9697 14.4622 26.4064 14.2488 26.788L12.8445 29.3014C12.5488 29.8192 12.3096 30.3534 11.8923 30.7909C9.32406 33.483 4.91483 31.6223 4.89269 28.074C4.88933 27.5356 4.96558 26.9951 5.01993 26.4603L5.73597 19.2737C5.82958 18.3842 5.87648 17.3649 6.13287 16.5145C6.84466 14.1539 8.96742 12.5283 11.4545 12.5206C12.0149 12.5189 12.586 12.6 13.1789 12.6003L17.1675 12.5998C17.1637 11.1744 16.7771 10.5637 18.3834 10.5655L19.4867 10.5657ZM18.2541 11.6648V12.5998C18.5274 12.6441 18.9297 12.598 19.2171 12.5977L21.719 12.5998V11.6648H18.2541ZM28.0252 13.5337C25.4583 13.8712 23.598 16.0905 23.9573 18.7038C24.2873 21.1035 26.5615 22.5877 28.8915 22.3806C31.3858 21.917 33.3811 19.9615 32.8581 17.2708C32.3991 14.9091 30.3794 13.453 28.0252 13.5337ZM11.0855 13.6143C8.60492 13.9227 6.71054 15.9732 7.04523 18.5423C7.37011 21.0361 9.4932 22.5359 11.9367 22.4222C13.2573 22.2673 14.2597 21.8091 15.0951 20.7457C17.4319 17.7709 14.7545 13.2093 11.0855 13.6143ZM14.9516 13.7266C16.9528 15.4569 17.8173 18.5548 16.3573 20.8787C17.3862 21.1537 18.1147 21.8668 18.3187 22.9129C19.4182 22.9307 20.6204 22.9465 21.719 22.9129C21.7425 22.0273 22.4521 21.4167 23.2228 21.1263C23.3916 21.0842 23.557 21.047 23.7297 21.0254C22.1559 18.6368 22.6679 15.5269 24.8668 13.7266L18.2442 13.7265C17.1479 13.7265 16.0472 13.7047 14.9516 13.7266ZM33.2838 20.6992C33.0429 21.0312 32.8117 21.372 32.5374 21.6777C30.989 23.4039 28.6802 23.8737 26.5226 23.175C26.472 24.0196 26.3843 24.2442 25.9912 24.9867C26.7347 26.361 27.5195 27.7123 28.2552 29.0904C28.7425 29.9878 29.2345 30.5553 30.2466 30.858C31.7723 31.3144 33.442 30.44 33.8909 28.9027C34.138 28.0563 33.9359 27.1047 33.8484 26.2477L33.5434 23.2718C33.509 22.9253 33.3608 20.8923 33.2838 20.6992ZM6.66479 20.6992C6.66255 21.3313 6.54807 21.9712 6.48694 22.5998L6.13651 26.362C6.07526 27.0255 5.94394 27.7858 6.03807 28.4433C6.42947 31.1771 10.0364 31.86 11.4561 29.5536C11.5495 29.402 11.6332 29.2255 11.7484 29.0904C12.2966 27.8041 13.3363 26.2498 14.0328 24.9867C13.6223 24.4512 13.4216 23.8556 13.477 23.175C11.04 23.8755 8.54148 23.4061 6.98483 21.23C6.86658 21.0647 6.77979 20.8499 6.66479 20.6992ZM15.6752 21.9573C14.1623 22.2226 14.0916 24.8767 16.1991 24.7195C18.1737 23.8745 17.1616 21.8115 15.6752 21.9573ZM24.0002 22.0976C22.1075 22.2454 22.4926 24.8502 24.1064 24.7195C25.877 24.5592 25.7674 22.1304 24.0002 22.0976Z" fill="#222224"/>
<path d="M28.5006 16.9331C26.7167 16.9757 26.4646 14.4148 28.3416 14.2462C29.9374 14.2083 30.3048 16.5854 28.5006 16.9331ZM28.3416 15.3922C28.1324 15.4467 28.1615 15.5645 28.162 15.7578C28.2748 15.7593 28.3878 15.7621 28.5006 15.7578C28.7405 15.6635 28.545 15.3923 28.3416 15.3922Z" fill="#222224"/>
<path d="M10.923 17.4324C10.9463 16.6995 10.616 15.3556 11.4623 15.1802C12.3136 15.2243 12.0403 16.8446 12.0438 17.4324L13.1642 17.431C13.5805 17.4308 14.2642 17.335 14.291 17.9421C14.3294 18.814 12.5841 18.5319 12.0438 18.5302L12.0435 19.5898C12.0471 20.1072 12.1434 20.7252 11.4623 20.7694C10.8385 20.6382 10.9211 20.0673 10.9213 19.5709L10.923 18.5302L9.80299 18.5318C9.52041 18.5327 9.03283 18.5993 8.80229 18.3917C8.51307 18.1313 8.62111 17.5473 9.01744 17.4573C9.26369 17.4013 9.54807 17.4302 9.80002 17.4307L10.923 17.4324Z" fill="#222224"/>
<path d="M26.159 19.336C24.5041 19.6371 23.9067 17.0533 25.7195 16.7449C27.4167 16.5152 27.8237 18.8751 26.159 19.336ZM25.7195 17.8906C25.7166 17.9993 25.7117 18.1077 25.7195 18.2162C25.8384 18.2202 25.9555 18.2227 26.0745 18.2162C26.0748 18.1077 26.0765 17.9991 26.0745 17.8906C25.9536 17.8775 25.8403 17.8824 25.7195 17.8906Z" fill="#222224"/>
<path d="M30.9964 19.336C29.2985 19.4281 28.9289 16.9952 30.7711 16.7449C31.727 16.6254 32.4307 17.6395 32.0814 18.5037C31.866 19.0368 31.4747 19.1286 30.9964 19.336ZM30.7711 17.7934C30.4997 17.9395 30.5436 18.2388 30.9964 18.2162C31.2324 18.0288 30.982 17.8098 30.7711 17.7934Z" fill="#222224"/>
<path d="M28.5006 21.7631C26.647 21.835 26.5005 19.432 28.162 19.1272C29.9381 18.9402 30.1992 21.5077 28.5006 21.7631ZM28.162 20.3124C28.1277 20.6098 28.2108 20.6318 28.5006 20.5888C28.5081 20.4942 28.5074 20.4069 28.5006 20.3124C28.3839 20.2857 28.279 20.2941 28.162 20.3124Z" fill="#222224"/>
<path d="M21.2161 21.3978C20.5675 21.4196 18.3494 21.607 18.2358 20.9545C18.1694 20.5731 18.4346 20.3574 18.7784 20.3124L20.3412 20.3113C20.6408 20.3112 21.1736 20.2276 21.4401 20.397C21.8837 20.6789 21.711 21.3248 21.2161 21.3978Z" fill="#222224"/>
</svg>
