<svg width="22" height="22" viewBox="0 0 22 22" fill="none" xmlns="http://www.w3.org/2000/svg">
<path d="M15.499 21.486C14.207 21.826 12.719 22 11 22C9.281 22 7.793 21.826 6.501 21.486C6.504 18.133 7.641 17 11 17C14.359 17 15.496 18.134 15.499 21.486ZM11 7C9.411 7 9 7.411 9 9C9 10.589 9.411 11 11 11C12.589 11 13 10.589 13 9C13 7.411 12.589 7 11 7ZM22 11C22 16.028 20.59 19.165 17.478 20.747C17.258 16.782 15.235 15 11 15C6.765 15 4.742 16.782 4.522 20.747C1.411 19.165 0 16.027 0 11C0 3.29 3.29 0 11 0C18.71 0 22 3.29 22 11ZM15 9C15 6.309 13.691 5 11 5C8.309 5 7 6.309 7 9C7 11.691 8.309 13 11 13C13.691 13 15 11.691 15 9Z" fill="#A3A3A2"/>
</svg>
