<svg width="30" height="30" viewBox="0 0 30 30" fill="none" xmlns="http://www.w3.org/2000/svg">
<path d="M28.8265 8.57743C28.069 6.90349 26.9815 5.4006 25.6008 4.10544C24.2201 2.82249 22.6195 1.80835 20.8356 1.09967C18.9906 0.366557 17.0356 0 15.0195 0C13.0035 0 11.0485 0.366557 9.20349 1.09967C7.41958 1.80835 5.81895 2.81027 4.43825 4.10544C3.05756 5.4006 1.97012 6.90349 1.21257 8.57743C0.43058 10.3125 0.0273438 12.1697 0.0273438 14.0758C0.0273438 17.4114 1.27362 20.6127 3.55849 23.1542L2.33664 29.8133L8.83694 26.9175C10.7797 27.7483 12.8446 28.1638 15.0073 28.1638C17.0234 28.1638 18.9784 27.7972 20.8234 27.0641C22.6073 26.3554 24.2079 25.3535 25.5886 24.0583C26.9693 22.7632 28.0567 21.2603 28.8143 19.5863C29.5963 17.8513 29.9995 15.9941 29.9995 14.088C30.0117 12.1697 29.6085 10.3247 28.8265 8.57743Z" fill="#FFDE11"/>
<path d="M21.1044 16.8858C20.469 16.5681 20.0048 16.3726 19.6749 16.2504C19.4672 16.1771 18.9784 15.9572 18.8073 16.0916C18.2697 16.5315 17.6954 17.7778 17.0845 18.0099C15.5694 17.7167 14.1643 16.6781 13.0646 15.6151C12.5759 15.1508 11.6717 13.8312 11.4762 13.4768C11.4396 13.1103 12.0993 12.6215 12.246 12.3405C13.0035 11.4852 12.4293 10.9476 12.3315 10.5933C12.1605 10.2267 11.8672 9.56689 11.6106 9.02928C11.3907 8.67494 11.3418 8.14954 10.9508 7.95404C9.28905 7.09874 8.33605 8.80934 7.94506 9.7013C5.58688 15.3829 19.7604 26.1963 22.644 18.743C22.7906 18.0954 22.7295 17.8511 22.5095 17.5578C22.0697 17.2524 21.5565 17.118 21.1044 16.8858Z" fill="#222224"/>
</svg>
