<svg width="40" height="40" viewBox="0 0 40 40" fill="none" xmlns="http://www.w3.org/2000/svg">
<path d="M14.3973 9.31578L14.3965 6.88566C14.3966 6.24236 14.1771 5.02596 15.0403 4.84715C16.1925 4.75913 16.0589 5.70904 16.0591 6.52115C16.0592 7.30762 16.0377 8.09914 16.0579 8.88507C17.425 8.93007 19.0123 9.71453 19.9828 10.6932C21.4253 9.60883 21.9414 9.14867 23.9275 8.88507L23.9259 6.56157C23.9257 6.21725 23.8858 5.78421 23.9464 5.44767C24.0913 4.64218 25.3706 4.64431 25.5168 5.44249C25.5778 5.7759 25.538 6.33749 25.538 6.69413L25.5374 9.31578C27.7361 11.517 26.9732 15.0631 25.8593 17.6062C25.6826 18.0093 25.4293 18.3747 25.2545 18.7776L25.2402 18.811C25.6459 19.3498 25.9845 19.9455 26.3195 20.5299C28.1698 23.7582 30.1333 27.9943 31.1334 31.5578C31.5171 32.9248 31.5521 32.9633 30.1227 33.6456C28.7382 34.3185 28.0061 34.3819 26.5582 34.379L14.9932 34.378C14.1239 34.3784 13.2391 34.4178 12.3743 34.3153C11.7193 34.2377 8.76136 33.5869 8.58605 32.8336C8.43972 32.2048 9.29582 30.07 9.5298 29.4528C10.7482 26.2389 12.1378 23.1133 13.8946 20.1512C14.162 19.7004 14.4486 19.2602 14.7193 18.811C14.5514 18.4218 14.3496 18.048 14.1789 17.6601C12.9066 14.769 12.4945 11.9771 14.3973 9.31578ZM15.5303 10.4902C14.1792 12.3409 14.8365 15.1838 15.7025 17.1177C15.8476 17.4416 16.0449 17.7417 16.1889 18.0651H23.7817C24.1524 17.4119 24.4741 16.7274 24.7302 16.021C25.3369 14.227 25.7346 12.0897 24.451 10.4902C21.7982 10.454 20.7911 12.7164 19.9614 12.7159C19.4463 12.7155 19.2221 12.1891 18.8911 11.8876C18.0616 11.1323 16.6842 10.4069 15.5303 10.4902ZM16.1889 19.6677C15.7949 20.0891 15.4203 20.8265 15.1206 21.3389C13.1417 24.7216 11.5204 28.3737 10.3246 32.1078C11.6709 32.7873 13.1876 32.7584 14.6405 32.7576L21.6508 32.7566C22.2382 32.7567 22.8709 32.7972 23.4527 32.7571C22.7196 31.9077 22.3664 31.2173 22.3405 30.0777C22.3291 29.5732 22.2845 29.147 22.7535 28.8449C23.1947 28.6578 23.7499 28.7544 23.9322 29.2445C24.0446 29.5464 23.9918 29.8883 24.0229 30.2038C24.236 32.3605 26.6798 33.2128 28.5492 32.5345C28.8986 32.4077 29.2266 32.2165 29.5814 32.1078C29.437 31.5014 29.2057 30.9312 29.0064 30.3421C27.8404 26.896 25.9226 22.7024 23.8698 19.6677H16.1889Z" fill="#222224"/>
</svg>
